%TF.GenerationSoftware,KiCad,Pcbnew,(6.0.7-1)-1*%
%TF.CreationDate,2023-01-14T16:38:51+08:00*%
%TF.ProjectId,prelude,7072656c-7564-4652-9e6b-696361645f70,rev?*%
%TF.SameCoordinates,Original*%
%TF.FileFunction,Paste,Top*%
%TF.FilePolarity,Positive*%
%FSLAX46Y46*%
G04 Gerber Fmt 4.6, Leading zero omitted, Abs format (unit mm)*
G04 Created by KiCad (PCBNEW (6.0.7-1)-1) date 2023-01-14 16:38:51*
%MOMM*%
%LPD*%
G01*
G04 APERTURE LIST*
G04 Aperture macros list*
%AMRoundRect*
0 Rectangle with rounded corners*
0 $1 Rounding radius*
0 $2 $3 $4 $5 $6 $7 $8 $9 X,Y pos of 4 corners*
0 Add a 4 corners polygon primitive as box body*
4,1,4,$2,$3,$4,$5,$6,$7,$8,$9,$2,$3,0*
0 Add four circle primitives for the rounded corners*
1,1,$1+$1,$2,$3*
1,1,$1+$1,$4,$5*
1,1,$1+$1,$6,$7*
1,1,$1+$1,$8,$9*
0 Add four rect primitives between the rounded corners*
20,1,$1+$1,$2,$3,$4,$5,0*
20,1,$1+$1,$4,$5,$6,$7,0*
20,1,$1+$1,$6,$7,$8,$9,0*
20,1,$1+$1,$8,$9,$2,$3,0*%
%AMRotRect*
0 Rectangle, with rotation*
0 The origin of the aperture is its center*
0 $1 length*
0 $2 width*
0 $3 Rotation angle, in degrees counterclockwise*
0 Add horizontal line*
21,1,$1,$2,0,0,$3*%
%AMFreePoly0*
4,1,27,0.669380,1.507580,0.673100,1.498600,0.673100,-1.498600,0.669380,-1.507580,0.660400,-1.511300,-0.254000,-1.511300,-0.255209,-1.510799,-0.256491,-1.511053,-0.259564,-1.508995,-0.262980,-1.507580,-0.263480,-1.506373,-0.264567,-1.505645,-0.924967,-0.515045,-0.925685,-0.511417,-0.927100,-0.508000,-0.927100,0.508000,-0.925685,0.511417,-0.924967,0.515045,-0.264567,1.505645,-0.263480,1.506373,
-0.262980,1.507580,-0.259564,1.508995,-0.256491,1.511053,-0.255209,1.510799,-0.254000,1.511300,0.660400,1.511300,0.669380,1.507580,0.669380,1.507580,$1*%
G04 Aperture macros list end*
%ADD10RoundRect,0.250000X1.025000X1.000000X-1.025000X1.000000X-1.025000X-1.000000X1.025000X-1.000000X0*%
%ADD11R,2.550000X2.500000*%
%ADD12RoundRect,0.250000X0.387676X1.378525X-1.387676X0.353525X-0.387676X-1.378525X1.387676X-0.353525X0*%
%ADD13RotRect,2.550000X2.500000X210.000000*%
%ADD14R,1.200000X0.900000*%
%ADD15R,0.900000X1.200000*%
%ADD16R,1.041400X1.524000*%
%ADD17FreePoly0,270.000000*%
%ADD18R,0.600000X0.600000*%
%ADD19R,0.800000X1.000000*%
G04 APERTURE END LIST*
D10*
%TO.C,SWL3-0*%
X-57360000Y-155495000D03*
D11*
X-59210000Y-155495000D03*
D10*
X-70810000Y-152955000D03*
%TD*%
%TO.C,SWL0-1*%
X-114510000Y-147875000D03*
D11*
X-116360000Y-147875000D03*
D10*
X-127960000Y-145335000D03*
%TD*%
%TO.C,SWL3-4*%
X-57360000Y-98345000D03*
D11*
X-59210000Y-98345000D03*
D10*
X-70810000Y-95805000D03*
%TD*%
%TO.C,SWL5-2*%
X-19260000Y-113585000D03*
D11*
X-21110000Y-113585000D03*
D10*
X-32710000Y-111045000D03*
%TD*%
%TO.C,SWL4-2*%
X-38310000Y-116125000D03*
D11*
X-40160000Y-116125000D03*
D10*
X-51760000Y-113585000D03*
%TD*%
%TO.C,SWL3-2*%
X-57360000Y-117395000D03*
D11*
X-59210000Y-117395000D03*
D10*
X-70810000Y-114855000D03*
%TD*%
%TO.C,SWL1-0*%
X-95460000Y-149145000D03*
D11*
X-97310000Y-149145000D03*
D10*
X-108910000Y-146605000D03*
%TD*%
%TO.C,SWL5-1*%
X-19260000Y-132635000D03*
D11*
X-21110000Y-132635000D03*
D10*
X-32710000Y-130095000D03*
%TD*%
%TO.C,SWL2-3*%
X-76410000Y-116125000D03*
D11*
X-78260000Y-116125000D03*
D10*
X-89860000Y-113585000D03*
%TD*%
D12*
%TO.C,SWL5-4*%
X-6123411Y-67691133D03*
D13*
X-7725558Y-68616133D03*
D12*
X-19041453Y-72216429D03*
%TD*%
D10*
%TO.C,SWL5-0*%
X-19260000Y-151685000D03*
D11*
X-21110000Y-151685000D03*
D10*
X-32710000Y-149145000D03*
%TD*%
%TO.C,SWL4-0*%
X-38310000Y-154225000D03*
D11*
X-40160000Y-154225000D03*
D10*
X-51760000Y-151685000D03*
%TD*%
%TO.C,SWL1-4*%
X-95460000Y-91995000D03*
D11*
X-97310000Y-91995000D03*
D10*
X-108910000Y-89455000D03*
%TD*%
%TO.C,SWL3-5*%
X-47835000Y-72945000D03*
D11*
X-49685000Y-72945000D03*
D10*
X-61285000Y-70405000D03*
%TD*%
%TO.C,SWL1-2*%
X-95460000Y-130095000D03*
D11*
X-97310000Y-130095000D03*
D10*
X-108910000Y-127555000D03*
%TD*%
%TO.C,SWL5-3*%
X-19260000Y-94535000D03*
D11*
X-21110000Y-94535000D03*
D10*
X-32710000Y-91995000D03*
%TD*%
%TO.C,SWL4-3*%
X-38310000Y-97075000D03*
D11*
X-40160000Y-97075000D03*
D10*
X-51760000Y-94535000D03*
%TD*%
%TO.C,SWL1-3*%
X-95460000Y-111045000D03*
D11*
X-97310000Y-111045000D03*
D10*
X-108910000Y-108505000D03*
%TD*%
%TO.C,SWL0-2*%
X-114510000Y-128825000D03*
D11*
X-116360000Y-128825000D03*
D10*
X-127960000Y-126285000D03*
%TD*%
%TO.C,SWL0-3*%
X-114510000Y-109775000D03*
D11*
X-116360000Y-109775000D03*
D10*
X-127960000Y-107235000D03*
%TD*%
%TO.C,SWL2-0*%
X-76410000Y-154225000D03*
D11*
X-78260000Y-154225000D03*
D10*
X-89860000Y-151685000D03*
%TD*%
%TO.C,SWL0-4*%
X-114510000Y-90725000D03*
D11*
X-116360000Y-90725000D03*
D10*
X-127960000Y-88185000D03*
%TD*%
%TO.C,SWL4-1*%
X-38310000Y-135175000D03*
D11*
X-40160000Y-135175000D03*
D10*
X-51760000Y-132635000D03*
%TD*%
%TO.C,SWL3-1*%
X-57360000Y-136445000D03*
D11*
X-59210000Y-136445000D03*
D10*
X-70810000Y-133905000D03*
%TD*%
%TO.C,SWL2-4*%
X-76410000Y-97075000D03*
D11*
X-78260000Y-97075000D03*
D10*
X-89860000Y-94535000D03*
%TD*%
%TO.C,SWL2-1*%
X-76410000Y-135175000D03*
D11*
X-78260000Y-135175000D03*
D10*
X-89860000Y-132635000D03*
%TD*%
%TO.C,SWL4-5*%
X-28785000Y-72945000D03*
D11*
X-30635000Y-72945000D03*
D10*
X-42235000Y-70405000D03*
%TD*%
D14*
%TO.C,D54*%
X-71070000Y-106980000D03*
X-71070000Y-103680000D03*
%TD*%
%TO.C,D40*%
X-52020000Y-143810000D03*
X-52020000Y-140510000D03*
%TD*%
%TO.C,D43*%
X-109170000Y-138730000D03*
X-109170000Y-135430000D03*
%TD*%
%TO.C,D48*%
X-109170000Y-119680000D03*
X-109170000Y-116380000D03*
%TD*%
%TO.C,D51*%
X-128220000Y-99360000D03*
X-128220000Y-96060000D03*
%TD*%
%TO.C,D57*%
X-32970000Y-141270000D03*
X-32970000Y-137970000D03*
%TD*%
%TO.C,D24*%
X-71070000Y-164130000D03*
X-71070000Y-160830000D03*
%TD*%
%TO.C,D33*%
X-32970000Y-122220000D03*
X-32970000Y-118920000D03*
%TD*%
%TO.C,D44*%
X-71070000Y-126030000D03*
X-71070000Y-122730000D03*
%TD*%
%TO.C,D49*%
X-90120000Y-124760000D03*
X-90120000Y-121460000D03*
%TD*%
%TO.C,D50*%
X-52020000Y-105710000D03*
X-52020000Y-102410000D03*
%TD*%
%TO.C,D41*%
X-32970000Y-103170000D03*
X-32970000Y-99870000D03*
%TD*%
%TO.C,D34*%
X-128220000Y-156510000D03*
X-128220000Y-153210000D03*
%TD*%
%TO.C,D16*%
X-90120000Y-162860000D03*
X-90120000Y-159560000D03*
%TD*%
%TO.C,D39*%
X-71070000Y-145080000D03*
X-71070000Y-141780000D03*
%TD*%
%TO.C,D38*%
X-90120000Y-143810000D03*
X-90120000Y-140510000D03*
%TD*%
D15*
%TO.C,D46*%
X-25095000Y-74850000D03*
X-21795000Y-74850000D03*
%TD*%
D14*
%TO.C,D47*%
X-128220000Y-118410000D03*
X-128220000Y-115110000D03*
%TD*%
%TO.C,D58*%
X-61545000Y-81580000D03*
X-61545000Y-78280000D03*
%TD*%
%TO.C,D52*%
X-109170000Y-100630000D03*
X-109170000Y-97330000D03*
%TD*%
%TO.C,D42*%
X-128220000Y-137460000D03*
X-128220000Y-134160000D03*
%TD*%
%TO.C,D56*%
X-32970000Y-160320000D03*
X-32970000Y-157020000D03*
%TD*%
%TO.C,D55*%
X-42495000Y-81580000D03*
X-42495000Y-78280000D03*
%TD*%
%TO.C,D45*%
X-52020000Y-124760000D03*
X-52020000Y-121460000D03*
%TD*%
%TO.C,D53*%
X-90120000Y-105710000D03*
X-90120000Y-102410000D03*
%TD*%
%TO.C,D8*%
X-109170000Y-157780000D03*
X-109170000Y-154480000D03*
%TD*%
%TO.C,D32*%
X-52020000Y-162860000D03*
X-52020000Y-159560000D03*
%TD*%
D16*
%TO.C,Dx0*%
X-116497900Y-154860000D03*
X-114542100Y-154860000D03*
D17*
X-115520000Y-157488900D03*
%TD*%
D16*
%TO.C,Dx2*%
X-78397900Y-123110000D03*
X-76442100Y-123110000D03*
D17*
X-77420000Y-125738900D03*
%TD*%
D16*
%TO.C,Dx3*%
X-59347900Y-105330000D03*
X-57392100Y-105330000D03*
D17*
X-58370000Y-107958900D03*
%TD*%
D16*
%TO.C,Dx4*%
X-39027900Y-88185000D03*
X-37072100Y-88185000D03*
D17*
X-38050000Y-90813900D03*
%TD*%
D16*
%TO.C,Dx1*%
X-97447900Y-137080000D03*
X-95492100Y-137080000D03*
D17*
X-96470000Y-139708900D03*
%TD*%
D16*
%TO.C,Dx5*%
X-25692900Y-78660000D03*
X-23737100Y-78660000D03*
D17*
X-24715000Y-81288900D03*
%TD*%
D18*
%TO.C,Tog1*%
X-167430000Y4512500D03*
X-160230000Y4512500D03*
X-167430000Y2472500D03*
X-160230000Y2472500D03*
D19*
X-161580000Y1672500D03*
X-164580000Y1672500D03*
X-166080000Y1672500D03*
%TD*%
M02*
