%TF.GenerationSoftware,KiCad,Pcbnew,(6.0.7-1)-1*%
%TF.CreationDate,2023-01-14T16:38:51+08:00*%
%TF.ProjectId,prelude,7072656c-7564-4652-9e6b-696361645f70,rev?*%
%TF.SameCoordinates,Original*%
%TF.FileFunction,Legend,Top*%
%TF.FilePolarity,Positive*%
%FSLAX46Y46*%
G04 Gerber Fmt 4.6, Leading zero omitted, Abs format (unit mm)*
G04 Created by KiCad (PCBNEW (6.0.7-1)-1) date 2023-01-14 16:38:51*
%MOMM*%
%LPD*%
G01*
G04 APERTURE LIST*
G04 Aperture macros list*
%AMRoundRect*
0 Rectangle with rounded corners*
0 $1 Rounding radius*
0 $2 $3 $4 $5 $6 $7 $8 $9 X,Y pos of 4 corners*
0 Add a 4 corners polygon primitive as box body*
4,1,4,$2,$3,$4,$5,$6,$7,$8,$9,$2,$3,0*
0 Add four circle primitives for the rounded corners*
1,1,$1+$1,$2,$3*
1,1,$1+$1,$4,$5*
1,1,$1+$1,$6,$7*
1,1,$1+$1,$8,$9*
0 Add four rect primitives between the rounded corners*
20,1,$1+$1,$2,$3,$4,$5,0*
20,1,$1+$1,$4,$5,$6,$7,0*
20,1,$1+$1,$6,$7,$8,$9,0*
20,1,$1+$1,$8,$9,$2,$3,0*%
%AMRotRect*
0 Rectangle, with rotation*
0 The origin of the aperture is its center*
0 $1 length*
0 $2 width*
0 $3 Rotation angle, in degrees counterclockwise*
0 Add horizontal line*
21,1,$1,$2,0,0,$3*%
%AMFreePoly0*
4,1,27,0.669380,1.507580,0.673100,1.498600,0.673100,-1.498600,0.669380,-1.507580,0.660400,-1.511300,-0.254000,-1.511300,-0.255209,-1.510799,-0.256491,-1.511053,-0.259564,-1.508995,-0.262980,-1.507580,-0.263480,-1.506373,-0.264567,-1.505645,-0.924967,-0.515045,-0.925685,-0.511417,-0.927100,-0.508000,-0.927100,0.508000,-0.925685,0.511417,-0.924967,0.515045,-0.264567,1.505645,-0.263480,1.506373,
-0.262980,1.507580,-0.259564,1.508995,-0.256491,1.511053,-0.255209,1.510799,-0.254000,1.511300,0.660400,1.511300,0.669380,1.507580,0.669380,1.507580,$1*%
G04 Aperture macros list end*
%ADD10C,0.580000*%
%ADD11C,0.160000*%
%ADD12C,0.150000*%
%ADD13C,0.120000*%
%ADD14C,0.254000*%
%ADD15C,3.000000*%
%ADD16C,1.750000*%
%ADD17C,3.987800*%
%ADD18RoundRect,0.250000X1.025000X1.000000X-1.025000X1.000000X-1.025000X-1.000000X1.025000X-1.000000X0*%
%ADD19R,2.550000X2.500000*%
%ADD20C,3.400000*%
%ADD21RoundRect,0.250000X0.387676X1.378525X-1.387676X0.353525X-0.387676X-1.378525X1.387676X-0.353525X0*%
%ADD22RotRect,2.550000X2.500000X210.000000*%
%ADD23R,1.200000X0.900000*%
%ADD24R,0.900000X1.200000*%
%ADD25R,1.041400X1.524000*%
%ADD26FreePoly0,270.000000*%
%ADD27C,0.500000*%
%ADD28C,1.752600*%
%ADD29C,2.000000*%
%ADD30C,0.800000*%
%ADD31R,0.600000X0.600000*%
%ADD32R,0.800000X1.000000*%
%ADD33C,2.200000*%
G04 APERTURE END LIST*
D10*
X-1240000Y-126285000D02*
G75*
G03*
X-1240000Y-126285000I-290000J0D01*
G01*
X2260000Y-119285000D02*
G75*
G03*
X2260000Y-119285000I-290000J0D01*
G01*
D11*
X-2780000Y-124535000D02*
G75*
G03*
X-2780000Y-124535000I-500000J0D01*
G01*
X-1530000Y-112285000D02*
X-2530000Y-111285000D01*
X3220000Y-126285000D02*
X-5030000Y-126285000D01*
X220000Y-111035000D02*
X220000Y-111785000D01*
X-13780000Y-121535000D02*
X-13780000Y-123285000D01*
X-13780000Y-123285000D02*
X-13780000Y-124035000D01*
X-1530000Y-126285000D02*
X-2530000Y-125285000D01*
X-12030000Y-126285000D02*
X-13030000Y-125285000D01*
X-10280000Y-118035000D02*
X-10280000Y-118785000D01*
D10*
X-8240000Y-122785000D02*
G75*
G03*
X-8240000Y-122785000I-290000J0D01*
G01*
X-11740000Y-126285000D02*
G75*
G03*
X-11740000Y-126285000I-290000J0D01*
G01*
D11*
X720000Y-121035000D02*
G75*
G03*
X720000Y-121035000I-500000J0D01*
G01*
X220000Y-122285000D02*
G75*
G03*
X220000Y-123285000I0J-500000D01*
G01*
D10*
X-1240000Y-115785000D02*
G75*
G03*
X-1240000Y-115785000I-290000J0D01*
G01*
X-4740000Y-112285000D02*
G75*
G03*
X-4740000Y-112285000I-290000J0D01*
G01*
X-8240000Y-126285000D02*
G75*
G03*
X-8240000Y-126285000I-290000J0D01*
G01*
D11*
X-6780000Y-111785000D02*
G75*
G03*
X-6780000Y-112785000I0J-500000D01*
G01*
X-8530000Y-126285000D02*
X-12030000Y-126285000D01*
X-3280000Y-115285000D02*
G75*
G03*
X-3280000Y-116285000I0J-500000D01*
G01*
X-3280000Y-111035000D02*
X-3280000Y-111785000D01*
X-6780000Y-121535000D02*
X-6780000Y-122285000D01*
X-5030000Y-122785000D02*
X-6030000Y-121785000D01*
D10*
X-4740000Y-126285000D02*
G75*
G03*
X-4740000Y-126285000I-290000J0D01*
G01*
D11*
X-12030000Y-115785000D02*
X-13030000Y-114785000D01*
X-6780000Y-111035000D02*
X-6780000Y-111785000D01*
X-6780000Y-122285000D02*
G75*
G03*
X-6780000Y-123285000I0J-500000D01*
G01*
X-5030000Y-126285000D02*
X-6030000Y-125285000D01*
X-5030000Y-126285000D02*
X-8530000Y-126285000D01*
X-3280000Y-111785000D02*
G75*
G03*
X-3280000Y-112785000I0J-500000D01*
G01*
X-9780000Y-121035000D02*
G75*
G03*
X-9780000Y-121035000I-500000J0D01*
G01*
X-2780000Y-117535000D02*
G75*
G03*
X-2780000Y-117535000I-500000J0D01*
G01*
X-8530000Y-126285000D02*
X-9530000Y-125285000D01*
X-13780000Y-116285000D02*
X-13780000Y-117035000D01*
X-10280000Y-112785000D02*
X-10280000Y-117035000D01*
X-6780000Y-123285000D02*
X-6780000Y-124035000D01*
X-1530000Y-112285000D02*
X-5030000Y-112285000D01*
X-13280000Y-114035000D02*
G75*
G03*
X-13280000Y-114035000I-500000J0D01*
G01*
X1970000Y-122785000D02*
X970000Y-121785000D01*
X220000Y-111785000D02*
G75*
G03*
X220000Y-112785000I0J-500000D01*
G01*
X-3280000Y-116285000D02*
X-3280000Y-117035000D01*
X-10280000Y-121535000D02*
X-10280000Y-122285000D01*
X-5030000Y-112285000D02*
X-12530000Y-112285000D01*
X220000Y-118035000D02*
X220000Y-118785000D01*
X-1530000Y-115785000D02*
X-12030000Y-115785000D01*
X-13280000Y-117535000D02*
G75*
G03*
X-13280000Y-117535000I-500000J0D01*
G01*
X-12530000Y-112285000D02*
G75*
G03*
X-13780000Y-113535000I0J-1250000D01*
G01*
X-10280000Y-119785000D02*
X-10280000Y-120535000D01*
X1970000Y-119285000D02*
X970000Y-118285000D01*
X-10280000Y-123285000D02*
X-10280000Y-124035000D01*
X-6780000Y-116285000D02*
X-6780000Y-120535000D01*
X3220000Y-115785000D02*
X-1530000Y-115785000D01*
X220000Y-116285000D02*
X220000Y-117035000D01*
X-3280000Y-119785000D02*
X-3280000Y-124035000D01*
X-6280000Y-114035000D02*
G75*
G03*
X-6280000Y-114035000I-500000J0D01*
G01*
D10*
X-8240000Y-119285000D02*
G75*
G03*
X-8240000Y-119285000I-290000J0D01*
G01*
D11*
X-12030000Y-119285000D02*
X-13030000Y-118285000D01*
D10*
X2260000Y-122785000D02*
G75*
G03*
X2260000Y-122785000I-290000J0D01*
G01*
D11*
X-10280000Y-122285000D02*
G75*
G03*
X-10280000Y-123285000I0J-500000D01*
G01*
X-10280000Y-118785000D02*
G75*
G03*
X-10280000Y-119785000I0J-500000D01*
G01*
X220000Y-115285000D02*
G75*
G03*
X220000Y-116285000I0J-500000D01*
G01*
D10*
X2260000Y-115785000D02*
G75*
G03*
X2260000Y-115785000I-290000J0D01*
G01*
D11*
X-8530000Y-122785000D02*
X-12030000Y-122785000D01*
X720000Y-114035000D02*
G75*
G03*
X720000Y-114035000I-500000J0D01*
G01*
X-3280000Y-118785000D02*
G75*
G03*
X-3280000Y-119785000I0J-500000D01*
G01*
X720000Y-117535000D02*
G75*
G03*
X720000Y-117535000I-500000J0D01*
G01*
X720000Y-110535000D02*
G75*
G03*
X720000Y-110535000I-500000J0D01*
G01*
X-13780000Y-114535000D02*
X-13780000Y-116285000D01*
D10*
X-1240000Y-119285000D02*
G75*
G03*
X-1240000Y-119285000I-290000J0D01*
G01*
D11*
X-8530000Y-119285000D02*
X-9530000Y-118285000D01*
X-10280000Y-111035000D02*
X-10280000Y-111785000D01*
X-1530000Y-119285000D02*
X-2530000Y-118285000D01*
X-13780000Y-119785000D02*
X-13780000Y-120535000D01*
X-6280000Y-121035000D02*
G75*
G03*
X-6280000Y-121035000I-500000J0D01*
G01*
X220000Y-121535000D02*
X220000Y-122285000D01*
X-1530000Y-115785000D02*
X-2530000Y-114785000D01*
X-3280000Y-114535000D02*
X-3280000Y-115285000D01*
X-6280000Y-124535000D02*
G75*
G03*
X-6280000Y-124535000I-500000J0D01*
G01*
X220000Y-119785000D02*
X220000Y-120535000D01*
X-10280000Y-111785000D02*
G75*
G03*
X-10280000Y-112785000I0J-500000D01*
G01*
X1970000Y-119285000D02*
X-1530000Y-119285000D01*
X220000Y-118785000D02*
G75*
G03*
X220000Y-119785000I0J-500000D01*
G01*
X-2780000Y-114035000D02*
G75*
G03*
X-2780000Y-114035000I-500000J0D01*
G01*
X3220000Y-112285000D02*
X-1530000Y-112285000D01*
D10*
X-11740000Y-119285000D02*
G75*
G03*
X-11740000Y-119285000I-290000J0D01*
G01*
D11*
X-3280000Y-118035000D02*
X-3280000Y-118785000D01*
X-13780000Y-118035000D02*
X-13780000Y-119785000D01*
X1970000Y-112285000D02*
X970000Y-111285000D01*
X-9780000Y-124535000D02*
G75*
G03*
X-9780000Y-124535000I-500000J0D01*
G01*
X-8530000Y-122785000D02*
X-9530000Y-121785000D01*
D10*
X2260000Y-112285000D02*
G75*
G03*
X2260000Y-112285000I-290000J0D01*
G01*
D11*
X-6780000Y-112785000D02*
X-6780000Y-113535000D01*
X-13280000Y-121035000D02*
G75*
G03*
X-13280000Y-121035000I-500000J0D01*
G01*
D10*
X-11740000Y-122785000D02*
G75*
G03*
X-11740000Y-122785000I-290000J0D01*
G01*
D11*
X-5030000Y-115785000D02*
X-6030000Y-114785000D01*
X-3280000Y-112785000D02*
X-3280000Y-113535000D01*
X-6780000Y-115285000D02*
G75*
G03*
X-6780000Y-116285000I0J-500000D01*
G01*
X-6280000Y-110535000D02*
G75*
G03*
X-6280000Y-110535000I-500000J0D01*
G01*
X-8530000Y-112285000D02*
X-9530000Y-111285000D01*
X220000Y-112785000D02*
X220000Y-113535000D01*
X-13280000Y-124535000D02*
G75*
G03*
X-13280000Y-124535000I-500000J0D01*
G01*
D10*
X-4740000Y-115785000D02*
G75*
G03*
X-4740000Y-115785000I-290000J0D01*
G01*
X-8240000Y-112285000D02*
G75*
G03*
X-8240000Y-112285000I-290000J0D01*
G01*
D11*
X-12030000Y-122785000D02*
X-13030000Y-121785000D01*
X220000Y-123285000D02*
X220000Y-126285000D01*
X-9780000Y-110535000D02*
G75*
G03*
X-9780000Y-110535000I-500000J0D01*
G01*
X3220000Y-122785000D02*
X-8530000Y-122785000D01*
X-9780000Y-117535000D02*
G75*
G03*
X-9780000Y-117535000I-500000J0D01*
G01*
X-5030000Y-112285000D02*
X-6030000Y-111285000D01*
D10*
X-11740000Y-115785000D02*
G75*
G03*
X-11740000Y-115785000I-290000J0D01*
G01*
D11*
X220000Y-114535000D02*
X220000Y-115285000D01*
X-2780000Y-110535000D02*
G75*
G03*
X-2780000Y-110535000I-500000J0D01*
G01*
D10*
X-4740000Y-122785000D02*
G75*
G03*
X-4740000Y-122785000I-290000J0D01*
G01*
D11*
X3220000Y-119285000D02*
X-12030000Y-119285000D01*
X1970000Y-115785000D02*
X970000Y-114785000D01*
X-6780000Y-114535000D02*
X-6780000Y-115285000D01*
D10*
X-1240000Y-112285000D02*
G75*
G03*
X-1240000Y-112285000I-290000J0D01*
G01*
D11*
X-156965000Y-33685000D02*
G75*
G03*
X-155715000Y-32435000I0J1250000D01*
G01*
X-167965000Y-33685000D02*
X-166965000Y-34685000D01*
D10*
X-167675000Y-33685000D02*
G75*
G03*
X-167675000Y-33685000I-290000J0D01*
G01*
D11*
X-166215000Y-33185000D02*
X-166215000Y-32435000D01*
X-166215000Y-34185000D02*
G75*
G03*
X-166215000Y-33185000I0J500000D01*
G01*
X-165715000Y-35435000D02*
G75*
G03*
X-165715000Y-35435000I-500000J0D01*
G01*
X-167965000Y-33685000D02*
X-164465000Y-33685000D01*
X-169715000Y-34935000D02*
X-169715000Y-34185000D01*
X-160965000Y-33685000D02*
X-159965000Y-34685000D01*
D10*
X-160675000Y-33685000D02*
G75*
G03*
X-160675000Y-33685000I-290000J0D01*
G01*
D11*
X-159215000Y-34185000D02*
G75*
G03*
X-159215000Y-33185000I0J500000D01*
G01*
X-158715000Y-35435000D02*
G75*
G03*
X-158715000Y-35435000I-500000J0D01*
G01*
X-162715000Y-34935000D02*
X-162715000Y-34185000D01*
X-164465000Y-33685000D02*
X-163465000Y-34685000D01*
X-162215000Y-35435000D02*
G75*
G03*
X-162215000Y-35435000I-500000J0D01*
G01*
X-162715000Y-34185000D02*
G75*
G03*
X-162715000Y-33185000I0J500000D01*
G01*
D10*
X-164175000Y-33685000D02*
G75*
G03*
X-164175000Y-33685000I-290000J0D01*
G01*
D11*
X-162715000Y-33185000D02*
X-162715000Y-32435000D01*
X-164465000Y-33685000D02*
X-156965000Y-33685000D01*
X-159215000Y-34935000D02*
X-159215000Y-34185000D01*
X-171465000Y-33685000D02*
X-170465000Y-34685000D01*
X-169215000Y-35435000D02*
G75*
G03*
X-169215000Y-35435000I-500000J0D01*
G01*
X-169715000Y-34185000D02*
G75*
G03*
X-169715000Y-33185000I0J500000D01*
G01*
D10*
X-171175000Y-33685000D02*
G75*
G03*
X-171175000Y-33685000I-290000J0D01*
G01*
D11*
X-169715000Y-33185000D02*
X-169715000Y-32435000D01*
X-172715000Y-33685000D02*
X-167965000Y-33685000D01*
X-166215000Y-34935000D02*
X-166215000Y-34185000D01*
X-167965000Y-26685000D02*
X-166965000Y-27685000D01*
D10*
X-167675000Y-26685000D02*
G75*
G03*
X-167675000Y-26685000I-290000J0D01*
G01*
D11*
X-166215000Y-27185000D02*
G75*
G03*
X-166215000Y-26185000I0J500000D01*
G01*
X-165715000Y-28435000D02*
G75*
G03*
X-165715000Y-28435000I-500000J0D01*
G01*
X-155715000Y-31435000D02*
X-155715000Y-29685000D01*
X-157465000Y-30185000D02*
X-156465000Y-31185000D01*
X-155215000Y-31935000D02*
G75*
G03*
X-155215000Y-31935000I-500000J0D01*
G01*
D10*
X-157175000Y-30185000D02*
G75*
G03*
X-157175000Y-30185000I-290000J0D01*
G01*
D11*
X-155715000Y-29685000D02*
X-155715000Y-28935000D01*
X-155715000Y-27935000D02*
X-155715000Y-26185000D01*
X-157465000Y-26685000D02*
X-156465000Y-27685000D01*
X-155215000Y-28435000D02*
G75*
G03*
X-155215000Y-28435000I-500000J0D01*
G01*
D10*
X-157175000Y-26685000D02*
G75*
G03*
X-157175000Y-26685000I-290000J0D01*
G01*
D11*
X-155715000Y-26185000D02*
X-155715000Y-25435000D01*
X-169715000Y-31435000D02*
X-169715000Y-30685000D01*
X-171465000Y-30185000D02*
X-170465000Y-31185000D01*
X-169215000Y-31935000D02*
G75*
G03*
X-169215000Y-31935000I-500000J0D01*
G01*
X-169715000Y-30685000D02*
G75*
G03*
X-169715000Y-29685000I0J500000D01*
G01*
D10*
X-171175000Y-30185000D02*
G75*
G03*
X-171175000Y-30185000I-290000J0D01*
G01*
D11*
X-169715000Y-29685000D02*
X-169715000Y-28935000D01*
X-172715000Y-30185000D02*
X-167965000Y-30185000D01*
X-169715000Y-27935000D02*
X-169715000Y-27185000D01*
X-160965000Y-26685000D02*
X-159965000Y-27685000D01*
D10*
X-160675000Y-26685000D02*
G75*
G03*
X-160675000Y-26685000I-290000J0D01*
G01*
D11*
X-159215000Y-26185000D02*
X-159215000Y-25435000D01*
X-159215000Y-27185000D02*
G75*
G03*
X-159215000Y-26185000I0J500000D01*
G01*
X-158715000Y-28435000D02*
G75*
G03*
X-158715000Y-28435000I-500000J0D01*
G01*
X-172715000Y-26685000D02*
X-157465000Y-26685000D01*
X-162715000Y-31435000D02*
X-162715000Y-30685000D01*
X-164465000Y-30185000D02*
X-163465000Y-31185000D01*
X-162215000Y-31935000D02*
G75*
G03*
X-162215000Y-31935000I-500000J0D01*
G01*
X-162715000Y-30685000D02*
G75*
G03*
X-162715000Y-29685000I0J500000D01*
G01*
D10*
X-164175000Y-30185000D02*
G75*
G03*
X-164175000Y-30185000I-290000J0D01*
G01*
D11*
X-159215000Y-27935000D02*
X-159215000Y-27185000D01*
X-171465000Y-26685000D02*
X-170465000Y-27685000D01*
X-169215000Y-28435000D02*
G75*
G03*
X-169215000Y-28435000I-500000J0D01*
G01*
X-169715000Y-27185000D02*
G75*
G03*
X-169715000Y-26185000I0J500000D01*
G01*
D10*
X-171175000Y-26685000D02*
G75*
G03*
X-171175000Y-26685000I-290000J0D01*
G01*
D11*
X-169715000Y-26185000D02*
X-169715000Y-25435000D01*
X-171465000Y-26685000D02*
X-167965000Y-26685000D01*
X-165715000Y-31935000D02*
G75*
G03*
X-165715000Y-31935000I-500000J0D01*
G01*
X-166215000Y-29685000D02*
X-166215000Y-28935000D01*
X-166215000Y-27935000D02*
X-166215000Y-27185000D01*
X-166215000Y-31435000D02*
X-166215000Y-30685000D01*
X-167965000Y-30185000D02*
X-166965000Y-31185000D01*
X-167965000Y-30185000D02*
X-157465000Y-30185000D01*
X-166215000Y-30685000D02*
G75*
G03*
X-166215000Y-29685000I0J500000D01*
G01*
D10*
X-167675000Y-30185000D02*
G75*
G03*
X-167675000Y-30185000I-290000J0D01*
G01*
D11*
X-155715000Y-24435000D02*
X-155715000Y-22685000D01*
X-157465000Y-23185000D02*
X-156465000Y-24185000D01*
X-155215000Y-24935000D02*
G75*
G03*
X-155215000Y-24935000I-500000J0D01*
G01*
D10*
X-157175000Y-23185000D02*
G75*
G03*
X-157175000Y-23185000I-290000J0D01*
G01*
D11*
X-155715000Y-22685000D02*
X-155715000Y-21935000D01*
X-157465000Y-19685000D02*
X-156465000Y-20685000D01*
X-155215000Y-21435000D02*
G75*
G03*
X-155215000Y-21435000I-500000J0D01*
G01*
D10*
X-157175000Y-19685000D02*
G75*
G03*
X-157175000Y-19685000I-290000J0D01*
G01*
D11*
X-160965000Y-19685000D02*
X-159965000Y-20685000D01*
D10*
X-160675000Y-19685000D02*
G75*
G03*
X-160675000Y-19685000I-290000J0D01*
G01*
D11*
X-158715000Y-21435000D02*
G75*
G03*
X-158715000Y-21435000I-500000J0D01*
G01*
X-160965000Y-19685000D02*
X-157465000Y-19685000D01*
X-162715000Y-24435000D02*
X-162715000Y-23685000D01*
X-164465000Y-23185000D02*
X-163465000Y-24185000D01*
X-162215000Y-24935000D02*
G75*
G03*
X-162215000Y-24935000I-500000J0D01*
G01*
X-162715000Y-23685000D02*
G75*
G03*
X-162715000Y-22685000I0J500000D01*
G01*
D10*
X-164175000Y-23185000D02*
G75*
G03*
X-164175000Y-23185000I-290000J0D01*
G01*
D11*
X-162715000Y-22685000D02*
X-162715000Y-21935000D01*
X-172715000Y-23185000D02*
X-160965000Y-23185000D01*
X-162715000Y-29685000D02*
X-162715000Y-25435000D01*
X-164465000Y-19685000D02*
X-163465000Y-20685000D01*
X-162215000Y-21435000D02*
G75*
G03*
X-162215000Y-21435000I-500000J0D01*
G01*
D10*
X-164175000Y-19685000D02*
G75*
G03*
X-164175000Y-19685000I-290000J0D01*
G01*
D11*
X-164465000Y-19685000D02*
X-160965000Y-19685000D01*
X-158715000Y-24935000D02*
G75*
G03*
X-158715000Y-24935000I-500000J0D01*
G01*
X-159215000Y-22685000D02*
X-159215000Y-21935000D01*
X-159215000Y-33185000D02*
X-159215000Y-28935000D01*
X-159215000Y-24435000D02*
X-159215000Y-23685000D01*
X-160965000Y-23185000D02*
X-159965000Y-24185000D01*
X-160965000Y-23185000D02*
X-157465000Y-23185000D01*
X-159215000Y-23685000D02*
G75*
G03*
X-159215000Y-22685000I0J500000D01*
G01*
D10*
X-160675000Y-23185000D02*
G75*
G03*
X-160675000Y-23185000I-290000J0D01*
G01*
D11*
X-166215000Y-26185000D02*
X-166215000Y-21935000D01*
X-167965000Y-19685000D02*
X-166965000Y-20685000D01*
X-165715000Y-21435000D02*
G75*
G03*
X-165715000Y-21435000I-500000J0D01*
G01*
D10*
X-167675000Y-19685000D02*
G75*
G03*
X-167675000Y-19685000I-290000J0D01*
G01*
D11*
X-172715000Y-19685000D02*
X-164465000Y-19685000D01*
X-169715000Y-24435000D02*
X-169715000Y-23685000D01*
X-171465000Y-23185000D02*
X-170465000Y-24185000D01*
X-169215000Y-24935000D02*
G75*
G03*
X-169215000Y-24935000I-500000J0D01*
G01*
X-169715000Y-23685000D02*
G75*
G03*
X-169715000Y-22685000I0J500000D01*
G01*
D10*
X-171175000Y-23185000D02*
G75*
G03*
X-171175000Y-23185000I-290000J0D01*
G01*
D11*
X-169715000Y-22685000D02*
X-169715000Y-19685000D01*
X-4361428Y-137324571D02*
X-4313809Y-137181714D01*
X-4266190Y-137134095D01*
X-4170952Y-137086476D01*
X-4028095Y-137086476D01*
X-3932857Y-137134095D01*
X-3885238Y-137181714D01*
X-3837619Y-137276952D01*
X-3837619Y-137657904D01*
X-4837619Y-137657904D01*
X-4837619Y-137324571D01*
X-4790000Y-137229333D01*
X-4742380Y-137181714D01*
X-4647142Y-137134095D01*
X-4551904Y-137134095D01*
X-4456666Y-137181714D01*
X-4409047Y-137229333D01*
X-4361428Y-137324571D01*
X-4361428Y-137657904D01*
X-4123333Y-136705523D02*
X-4123333Y-136229333D01*
X-3837619Y-136800761D02*
X-4837619Y-136467428D01*
X-3837619Y-136134095D01*
X-4837619Y-135943619D02*
X-4837619Y-135372190D01*
X-3837619Y-135657904D02*
X-4837619Y-135657904D01*
X-4218571Y-135038857D02*
X-4218571Y-134276952D01*
X-7011428Y-137324571D02*
X-6963809Y-137181714D01*
X-6916190Y-137134095D01*
X-6820952Y-137086476D01*
X-6678095Y-137086476D01*
X-6582857Y-137134095D01*
X-6535238Y-137181714D01*
X-6487619Y-137276952D01*
X-6487619Y-137657904D01*
X-7487619Y-137657904D01*
X-7487619Y-137324571D01*
X-7440000Y-137229333D01*
X-7392380Y-137181714D01*
X-7297142Y-137134095D01*
X-7201904Y-137134095D01*
X-7106666Y-137181714D01*
X-7059047Y-137229333D01*
X-7011428Y-137324571D01*
X-7011428Y-137657904D01*
X-6773333Y-136705523D02*
X-6773333Y-136229333D01*
X-6487619Y-136800761D02*
X-7487619Y-136467428D01*
X-6487619Y-136134095D01*
X-7487619Y-135943619D02*
X-7487619Y-135372190D01*
X-6487619Y-135657904D02*
X-7487619Y-135657904D01*
X-6868571Y-135038857D02*
X-6868571Y-134276952D01*
X-6487619Y-134657904D02*
X-7249523Y-134657904D01*
X-170300000Y-3800000D02*
X-166400000Y-3800000D01*
X-166400000Y-3800000D02*
X-166400000Y-8400000D01*
X-166400000Y-8400000D02*
X-170300000Y-8400000D01*
X-170300000Y-8400000D02*
X-170300000Y-3800000D01*
X-169919047Y-7752380D02*
X-169919047Y-6752380D01*
X-169538095Y-6752380D01*
X-169442857Y-6800000D01*
X-169395238Y-6847619D01*
X-169347619Y-6942857D01*
X-169347619Y-7085714D01*
X-169395238Y-7180952D01*
X-169442857Y-7228571D01*
X-169538095Y-7276190D01*
X-169919047Y-7276190D01*
X-168776190Y-7752380D02*
X-168871428Y-7704761D01*
X-168919047Y-7657142D01*
X-168966666Y-7561904D01*
X-168966666Y-7276190D01*
X-168919047Y-7180952D01*
X-168871428Y-7133333D01*
X-168776190Y-7085714D01*
X-168633333Y-7085714D01*
X-168538095Y-7133333D01*
X-168490476Y-7180952D01*
X-168442857Y-7276190D01*
X-168442857Y-7561904D01*
X-168490476Y-7657142D01*
X-168538095Y-7704761D01*
X-168633333Y-7752380D01*
X-168776190Y-7752380D01*
X-167585714Y-7085714D02*
X-167585714Y-7895238D01*
X-167633333Y-7990476D01*
X-167680952Y-8038095D01*
X-167776190Y-8085714D01*
X-167919047Y-8085714D01*
X-168014285Y-8038095D01*
X-167585714Y-7704761D02*
X-167680952Y-7752380D01*
X-167871428Y-7752380D01*
X-167966666Y-7704761D01*
X-168014285Y-7657142D01*
X-168061904Y-7561904D01*
X-168061904Y-7276190D01*
X-168014285Y-7180952D01*
X-167966666Y-7133333D01*
X-167871428Y-7085714D01*
X-167680952Y-7085714D01*
X-167585714Y-7133333D01*
X-166966666Y-7752380D02*
X-167061904Y-7704761D01*
X-167109523Y-7657142D01*
X-167157142Y-7561904D01*
X-167157142Y-7276190D01*
X-167109523Y-7180952D01*
X-167061904Y-7133333D01*
X-166966666Y-7085714D01*
X-166823809Y-7085714D01*
X-166728571Y-7133333D01*
X-166680952Y-7180952D01*
X-166633333Y-7276190D01*
X-166633333Y-7561904D01*
X-166680952Y-7657142D01*
X-166728571Y-7704761D01*
X-166823809Y-7752380D01*
X-166966666Y-7752380D01*
D12*
%TO.C,SWL3-0*%
X-66785976Y-155852238D02*
X-66928833Y-155804619D01*
X-67166928Y-155804619D01*
X-67262166Y-155852238D01*
X-67309785Y-155899857D01*
X-67357404Y-155995095D01*
X-67357404Y-156090333D01*
X-67309785Y-156185571D01*
X-67262166Y-156233190D01*
X-67166928Y-156280809D01*
X-66976452Y-156328428D01*
X-66881214Y-156376047D01*
X-66833595Y-156423666D01*
X-66785976Y-156518904D01*
X-66785976Y-156614142D01*
X-66833595Y-156709380D01*
X-66881214Y-156757000D01*
X-66976452Y-156804619D01*
X-67214547Y-156804619D01*
X-67357404Y-156757000D01*
X-67690738Y-156804619D02*
X-67928833Y-155804619D01*
X-68119309Y-156518904D01*
X-68309785Y-155804619D01*
X-68547880Y-156804619D01*
X-69405023Y-155804619D02*
X-68928833Y-155804619D01*
X-68928833Y-156804619D01*
X-69643119Y-156804619D02*
X-70262166Y-156804619D01*
X-69928833Y-156423666D01*
X-70071690Y-156423666D01*
X-70166928Y-156376047D01*
X-70214547Y-156328428D01*
X-70262166Y-156233190D01*
X-70262166Y-155995095D01*
X-70214547Y-155899857D01*
X-70166928Y-155852238D01*
X-70071690Y-155804619D01*
X-69785976Y-155804619D01*
X-69690738Y-155852238D01*
X-69643119Y-155899857D01*
X-70690738Y-156185571D02*
X-71452642Y-156185571D01*
X-72119309Y-156804619D02*
X-72214547Y-156804619D01*
X-72309785Y-156757000D01*
X-72357404Y-156709380D01*
X-72405023Y-156614142D01*
X-72452642Y-156423666D01*
X-72452642Y-156185571D01*
X-72405023Y-155995095D01*
X-72357404Y-155899857D01*
X-72309785Y-155852238D01*
X-72214547Y-155804619D01*
X-72119309Y-155804619D01*
X-72024071Y-155852238D01*
X-71976452Y-155899857D01*
X-71928833Y-155995095D01*
X-71881214Y-156185571D01*
X-71881214Y-156423666D01*
X-71928833Y-156614142D01*
X-71976452Y-156709380D01*
X-72024071Y-156757000D01*
X-72119309Y-156804619D01*
%TO.C,SWL0-1*%
X-123935976Y-148232238D02*
X-124078833Y-148184619D01*
X-124316928Y-148184619D01*
X-124412166Y-148232238D01*
X-124459785Y-148279857D01*
X-124507404Y-148375095D01*
X-124507404Y-148470333D01*
X-124459785Y-148565571D01*
X-124412166Y-148613190D01*
X-124316928Y-148660809D01*
X-124126452Y-148708428D01*
X-124031214Y-148756047D01*
X-123983595Y-148803666D01*
X-123935976Y-148898904D01*
X-123935976Y-148994142D01*
X-123983595Y-149089380D01*
X-124031214Y-149137000D01*
X-124126452Y-149184619D01*
X-124364547Y-149184619D01*
X-124507404Y-149137000D01*
X-124840738Y-149184619D02*
X-125078833Y-148184619D01*
X-125269309Y-148898904D01*
X-125459785Y-148184619D01*
X-125697880Y-149184619D01*
X-126555023Y-148184619D02*
X-126078833Y-148184619D01*
X-126078833Y-149184619D01*
X-127078833Y-149184619D02*
X-127174071Y-149184619D01*
X-127269309Y-149137000D01*
X-127316928Y-149089380D01*
X-127364547Y-148994142D01*
X-127412166Y-148803666D01*
X-127412166Y-148565571D01*
X-127364547Y-148375095D01*
X-127316928Y-148279857D01*
X-127269309Y-148232238D01*
X-127174071Y-148184619D01*
X-127078833Y-148184619D01*
X-126983595Y-148232238D01*
X-126935976Y-148279857D01*
X-126888357Y-148375095D01*
X-126840738Y-148565571D01*
X-126840738Y-148803666D01*
X-126888357Y-148994142D01*
X-126935976Y-149089380D01*
X-126983595Y-149137000D01*
X-127078833Y-149184619D01*
X-127840738Y-148565571D02*
X-128602642Y-148565571D01*
X-129602642Y-148184619D02*
X-129031214Y-148184619D01*
X-129316928Y-148184619D02*
X-129316928Y-149184619D01*
X-129221690Y-149041761D01*
X-129126452Y-148946523D01*
X-129031214Y-148898904D01*
%TO.C,SWL3-4*%
X-66785976Y-98702238D02*
X-66928833Y-98654619D01*
X-67166928Y-98654619D01*
X-67262166Y-98702238D01*
X-67309785Y-98749857D01*
X-67357404Y-98845095D01*
X-67357404Y-98940333D01*
X-67309785Y-99035571D01*
X-67262166Y-99083190D01*
X-67166928Y-99130809D01*
X-66976452Y-99178428D01*
X-66881214Y-99226047D01*
X-66833595Y-99273666D01*
X-66785976Y-99368904D01*
X-66785976Y-99464142D01*
X-66833595Y-99559380D01*
X-66881214Y-99607000D01*
X-66976452Y-99654619D01*
X-67214547Y-99654619D01*
X-67357404Y-99607000D01*
X-67690738Y-99654619D02*
X-67928833Y-98654619D01*
X-68119309Y-99368904D01*
X-68309785Y-98654619D01*
X-68547880Y-99654619D01*
X-69405023Y-98654619D02*
X-68928833Y-98654619D01*
X-68928833Y-99654619D01*
X-69643119Y-99654619D02*
X-70262166Y-99654619D01*
X-69928833Y-99273666D01*
X-70071690Y-99273666D01*
X-70166928Y-99226047D01*
X-70214547Y-99178428D01*
X-70262166Y-99083190D01*
X-70262166Y-98845095D01*
X-70214547Y-98749857D01*
X-70166928Y-98702238D01*
X-70071690Y-98654619D01*
X-69785976Y-98654619D01*
X-69690738Y-98702238D01*
X-69643119Y-98749857D01*
X-70690738Y-99035571D02*
X-71452642Y-99035571D01*
X-72357404Y-99321285D02*
X-72357404Y-98654619D01*
X-72119309Y-99702238D02*
X-71881214Y-98987952D01*
X-72500261Y-98987952D01*
%TO.C,SWL5-2*%
X-28685976Y-113942238D02*
X-28828833Y-113894619D01*
X-29066928Y-113894619D01*
X-29162166Y-113942238D01*
X-29209785Y-113989857D01*
X-29257404Y-114085095D01*
X-29257404Y-114180333D01*
X-29209785Y-114275571D01*
X-29162166Y-114323190D01*
X-29066928Y-114370809D01*
X-28876452Y-114418428D01*
X-28781214Y-114466047D01*
X-28733595Y-114513666D01*
X-28685976Y-114608904D01*
X-28685976Y-114704142D01*
X-28733595Y-114799380D01*
X-28781214Y-114847000D01*
X-28876452Y-114894619D01*
X-29114547Y-114894619D01*
X-29257404Y-114847000D01*
X-29590738Y-114894619D02*
X-29828833Y-113894619D01*
X-30019309Y-114608904D01*
X-30209785Y-113894619D01*
X-30447880Y-114894619D01*
X-31305023Y-113894619D02*
X-30828833Y-113894619D01*
X-30828833Y-114894619D01*
X-32114547Y-114894619D02*
X-31638357Y-114894619D01*
X-31590738Y-114418428D01*
X-31638357Y-114466047D01*
X-31733595Y-114513666D01*
X-31971690Y-114513666D01*
X-32066928Y-114466047D01*
X-32114547Y-114418428D01*
X-32162166Y-114323190D01*
X-32162166Y-114085095D01*
X-32114547Y-113989857D01*
X-32066928Y-113942238D01*
X-31971690Y-113894619D01*
X-31733595Y-113894619D01*
X-31638357Y-113942238D01*
X-31590738Y-113989857D01*
X-32590738Y-114275571D02*
X-33352642Y-114275571D01*
X-33781214Y-114799380D02*
X-33828833Y-114847000D01*
X-33924071Y-114894619D01*
X-34162166Y-114894619D01*
X-34257404Y-114847000D01*
X-34305023Y-114799380D01*
X-34352642Y-114704142D01*
X-34352642Y-114608904D01*
X-34305023Y-114466047D01*
X-33733595Y-113894619D01*
X-34352642Y-113894619D01*
%TO.C,SWL4-2*%
X-47735976Y-116482238D02*
X-47878833Y-116434619D01*
X-48116928Y-116434619D01*
X-48212166Y-116482238D01*
X-48259785Y-116529857D01*
X-48307404Y-116625095D01*
X-48307404Y-116720333D01*
X-48259785Y-116815571D01*
X-48212166Y-116863190D01*
X-48116928Y-116910809D01*
X-47926452Y-116958428D01*
X-47831214Y-117006047D01*
X-47783595Y-117053666D01*
X-47735976Y-117148904D01*
X-47735976Y-117244142D01*
X-47783595Y-117339380D01*
X-47831214Y-117387000D01*
X-47926452Y-117434619D01*
X-48164547Y-117434619D01*
X-48307404Y-117387000D01*
X-48640738Y-117434619D02*
X-48878833Y-116434619D01*
X-49069309Y-117148904D01*
X-49259785Y-116434619D01*
X-49497880Y-117434619D01*
X-50355023Y-116434619D02*
X-49878833Y-116434619D01*
X-49878833Y-117434619D01*
X-51116928Y-117101285D02*
X-51116928Y-116434619D01*
X-50878833Y-117482238D02*
X-50640738Y-116767952D01*
X-51259785Y-116767952D01*
X-51640738Y-116815571D02*
X-52402642Y-116815571D01*
X-52831214Y-117339380D02*
X-52878833Y-117387000D01*
X-52974071Y-117434619D01*
X-53212166Y-117434619D01*
X-53307404Y-117387000D01*
X-53355023Y-117339380D01*
X-53402642Y-117244142D01*
X-53402642Y-117148904D01*
X-53355023Y-117006047D01*
X-52783595Y-116434619D01*
X-53402642Y-116434619D01*
%TO.C,SWL3-2*%
X-66785976Y-117752238D02*
X-66928833Y-117704619D01*
X-67166928Y-117704619D01*
X-67262166Y-117752238D01*
X-67309785Y-117799857D01*
X-67357404Y-117895095D01*
X-67357404Y-117990333D01*
X-67309785Y-118085571D01*
X-67262166Y-118133190D01*
X-67166928Y-118180809D01*
X-66976452Y-118228428D01*
X-66881214Y-118276047D01*
X-66833595Y-118323666D01*
X-66785976Y-118418904D01*
X-66785976Y-118514142D01*
X-66833595Y-118609380D01*
X-66881214Y-118657000D01*
X-66976452Y-118704619D01*
X-67214547Y-118704619D01*
X-67357404Y-118657000D01*
X-67690738Y-118704619D02*
X-67928833Y-117704619D01*
X-68119309Y-118418904D01*
X-68309785Y-117704619D01*
X-68547880Y-118704619D01*
X-69405023Y-117704619D02*
X-68928833Y-117704619D01*
X-68928833Y-118704619D01*
X-69643119Y-118704619D02*
X-70262166Y-118704619D01*
X-69928833Y-118323666D01*
X-70071690Y-118323666D01*
X-70166928Y-118276047D01*
X-70214547Y-118228428D01*
X-70262166Y-118133190D01*
X-70262166Y-117895095D01*
X-70214547Y-117799857D01*
X-70166928Y-117752238D01*
X-70071690Y-117704619D01*
X-69785976Y-117704619D01*
X-69690738Y-117752238D01*
X-69643119Y-117799857D01*
X-70690738Y-118085571D02*
X-71452642Y-118085571D01*
X-71881214Y-118609380D02*
X-71928833Y-118657000D01*
X-72024071Y-118704619D01*
X-72262166Y-118704619D01*
X-72357404Y-118657000D01*
X-72405023Y-118609380D01*
X-72452642Y-118514142D01*
X-72452642Y-118418904D01*
X-72405023Y-118276047D01*
X-71833595Y-117704619D01*
X-72452642Y-117704619D01*
%TO.C,SWL1-0*%
X-104885976Y-149502238D02*
X-105028833Y-149454619D01*
X-105266928Y-149454619D01*
X-105362166Y-149502238D01*
X-105409785Y-149549857D01*
X-105457404Y-149645095D01*
X-105457404Y-149740333D01*
X-105409785Y-149835571D01*
X-105362166Y-149883190D01*
X-105266928Y-149930809D01*
X-105076452Y-149978428D01*
X-104981214Y-150026047D01*
X-104933595Y-150073666D01*
X-104885976Y-150168904D01*
X-104885976Y-150264142D01*
X-104933595Y-150359380D01*
X-104981214Y-150407000D01*
X-105076452Y-150454619D01*
X-105314547Y-150454619D01*
X-105457404Y-150407000D01*
X-105790738Y-150454619D02*
X-106028833Y-149454619D01*
X-106219309Y-150168904D01*
X-106409785Y-149454619D01*
X-106647880Y-150454619D01*
X-107505023Y-149454619D02*
X-107028833Y-149454619D01*
X-107028833Y-150454619D01*
X-108362166Y-149454619D02*
X-107790738Y-149454619D01*
X-108076452Y-149454619D02*
X-108076452Y-150454619D01*
X-107981214Y-150311761D01*
X-107885976Y-150216523D01*
X-107790738Y-150168904D01*
X-108790738Y-149835571D02*
X-109552642Y-149835571D01*
X-110219309Y-150454619D02*
X-110314547Y-150454619D01*
X-110409785Y-150407000D01*
X-110457404Y-150359380D01*
X-110505023Y-150264142D01*
X-110552642Y-150073666D01*
X-110552642Y-149835571D01*
X-110505023Y-149645095D01*
X-110457404Y-149549857D01*
X-110409785Y-149502238D01*
X-110314547Y-149454619D01*
X-110219309Y-149454619D01*
X-110124071Y-149502238D01*
X-110076452Y-149549857D01*
X-110028833Y-149645095D01*
X-109981214Y-149835571D01*
X-109981214Y-150073666D01*
X-110028833Y-150264142D01*
X-110076452Y-150359380D01*
X-110124071Y-150407000D01*
X-110219309Y-150454619D01*
%TO.C,SWL5-1*%
X-28685976Y-132992238D02*
X-28828833Y-132944619D01*
X-29066928Y-132944619D01*
X-29162166Y-132992238D01*
X-29209785Y-133039857D01*
X-29257404Y-133135095D01*
X-29257404Y-133230333D01*
X-29209785Y-133325571D01*
X-29162166Y-133373190D01*
X-29066928Y-133420809D01*
X-28876452Y-133468428D01*
X-28781214Y-133516047D01*
X-28733595Y-133563666D01*
X-28685976Y-133658904D01*
X-28685976Y-133754142D01*
X-28733595Y-133849380D01*
X-28781214Y-133897000D01*
X-28876452Y-133944619D01*
X-29114547Y-133944619D01*
X-29257404Y-133897000D01*
X-29590738Y-133944619D02*
X-29828833Y-132944619D01*
X-30019309Y-133658904D01*
X-30209785Y-132944619D01*
X-30447880Y-133944619D01*
X-31305023Y-132944619D02*
X-30828833Y-132944619D01*
X-30828833Y-133944619D01*
X-32114547Y-133944619D02*
X-31638357Y-133944619D01*
X-31590738Y-133468428D01*
X-31638357Y-133516047D01*
X-31733595Y-133563666D01*
X-31971690Y-133563666D01*
X-32066928Y-133516047D01*
X-32114547Y-133468428D01*
X-32162166Y-133373190D01*
X-32162166Y-133135095D01*
X-32114547Y-133039857D01*
X-32066928Y-132992238D01*
X-31971690Y-132944619D01*
X-31733595Y-132944619D01*
X-31638357Y-132992238D01*
X-31590738Y-133039857D01*
X-32590738Y-133325571D02*
X-33352642Y-133325571D01*
X-34352642Y-132944619D02*
X-33781214Y-132944619D01*
X-34066928Y-132944619D02*
X-34066928Y-133944619D01*
X-33971690Y-133801761D01*
X-33876452Y-133706523D01*
X-33781214Y-133658904D01*
%TO.C,SWL2-3*%
X-85835976Y-116482238D02*
X-85978833Y-116434619D01*
X-86216928Y-116434619D01*
X-86312166Y-116482238D01*
X-86359785Y-116529857D01*
X-86407404Y-116625095D01*
X-86407404Y-116720333D01*
X-86359785Y-116815571D01*
X-86312166Y-116863190D01*
X-86216928Y-116910809D01*
X-86026452Y-116958428D01*
X-85931214Y-117006047D01*
X-85883595Y-117053666D01*
X-85835976Y-117148904D01*
X-85835976Y-117244142D01*
X-85883595Y-117339380D01*
X-85931214Y-117387000D01*
X-86026452Y-117434619D01*
X-86264547Y-117434619D01*
X-86407404Y-117387000D01*
X-86740738Y-117434619D02*
X-86978833Y-116434619D01*
X-87169309Y-117148904D01*
X-87359785Y-116434619D01*
X-87597880Y-117434619D01*
X-88455023Y-116434619D02*
X-87978833Y-116434619D01*
X-87978833Y-117434619D01*
X-88740738Y-117339380D02*
X-88788357Y-117387000D01*
X-88883595Y-117434619D01*
X-89121690Y-117434619D01*
X-89216928Y-117387000D01*
X-89264547Y-117339380D01*
X-89312166Y-117244142D01*
X-89312166Y-117148904D01*
X-89264547Y-117006047D01*
X-88693119Y-116434619D01*
X-89312166Y-116434619D01*
X-89740738Y-116815571D02*
X-90502642Y-116815571D01*
X-90883595Y-117434619D02*
X-91502642Y-117434619D01*
X-91169309Y-117053666D01*
X-91312166Y-117053666D01*
X-91407404Y-117006047D01*
X-91455023Y-116958428D01*
X-91502642Y-116863190D01*
X-91502642Y-116625095D01*
X-91455023Y-116529857D01*
X-91407404Y-116482238D01*
X-91312166Y-116434619D01*
X-91026452Y-116434619D01*
X-90931214Y-116482238D01*
X-90883595Y-116529857D01*
%TO.C,SWL5-4*%
X-14107926Y-72713499D02*
X-14255454Y-72743688D01*
X-14461650Y-72862735D01*
X-14520319Y-72951594D01*
X-14537749Y-73016643D01*
X-14531369Y-73122931D01*
X-14483750Y-73205409D01*
X-14394892Y-73264078D01*
X-14329843Y-73281508D01*
X-14223555Y-73275128D01*
X-14034788Y-73221130D01*
X-13928500Y-73214750D01*
X-13863451Y-73232180D01*
X-13774593Y-73290849D01*
X-13726974Y-73373327D01*
X-13720594Y-73479616D01*
X-13738024Y-73544664D01*
X-13796693Y-73633523D01*
X-14002889Y-73752570D01*
X-14150417Y-73782760D01*
X-14415282Y-73990666D02*
X-15121479Y-73243688D01*
X-14929293Y-73957515D01*
X-15451393Y-73434164D01*
X-15157590Y-74419237D01*
X-16399897Y-73981783D02*
X-15987504Y-73743688D01*
X-15487504Y-74609713D01*
X-16600966Y-75252570D02*
X-16188573Y-75014475D01*
X-16385429Y-74578273D01*
X-16402858Y-74643321D01*
X-16461527Y-74732180D01*
X-16667724Y-74851227D01*
X-16774012Y-74857607D01*
X-16839061Y-74840177D01*
X-16927919Y-74781508D01*
X-17046967Y-74575312D01*
X-17053347Y-74469024D01*
X-17035917Y-74403975D01*
X-16977248Y-74315116D01*
X-16771051Y-74196069D01*
X-16664763Y-74189689D01*
X-16599714Y-74207119D01*
X-17322882Y-74954555D02*
X-17982711Y-75335507D01*
X-18623401Y-76035324D02*
X-18956734Y-75457973D01*
X-18226728Y-76246191D02*
X-18377675Y-75508553D01*
X-18913786Y-75818077D01*
%TO.C,SWL5-0*%
X-28685976Y-152042238D02*
X-28828833Y-151994619D01*
X-29066928Y-151994619D01*
X-29162166Y-152042238D01*
X-29209785Y-152089857D01*
X-29257404Y-152185095D01*
X-29257404Y-152280333D01*
X-29209785Y-152375571D01*
X-29162166Y-152423190D01*
X-29066928Y-152470809D01*
X-28876452Y-152518428D01*
X-28781214Y-152566047D01*
X-28733595Y-152613666D01*
X-28685976Y-152708904D01*
X-28685976Y-152804142D01*
X-28733595Y-152899380D01*
X-28781214Y-152947000D01*
X-28876452Y-152994619D01*
X-29114547Y-152994619D01*
X-29257404Y-152947000D01*
X-29590738Y-152994619D02*
X-29828833Y-151994619D01*
X-30019309Y-152708904D01*
X-30209785Y-151994619D01*
X-30447880Y-152994619D01*
X-31305023Y-151994619D02*
X-30828833Y-151994619D01*
X-30828833Y-152994619D01*
X-32114547Y-152994619D02*
X-31638357Y-152994619D01*
X-31590738Y-152518428D01*
X-31638357Y-152566047D01*
X-31733595Y-152613666D01*
X-31971690Y-152613666D01*
X-32066928Y-152566047D01*
X-32114547Y-152518428D01*
X-32162166Y-152423190D01*
X-32162166Y-152185095D01*
X-32114547Y-152089857D01*
X-32066928Y-152042238D01*
X-31971690Y-151994619D01*
X-31733595Y-151994619D01*
X-31638357Y-152042238D01*
X-31590738Y-152089857D01*
X-32590738Y-152375571D02*
X-33352642Y-152375571D01*
X-34019309Y-152994619D02*
X-34114547Y-152994619D01*
X-34209785Y-152947000D01*
X-34257404Y-152899380D01*
X-34305023Y-152804142D01*
X-34352642Y-152613666D01*
X-34352642Y-152375571D01*
X-34305023Y-152185095D01*
X-34257404Y-152089857D01*
X-34209785Y-152042238D01*
X-34114547Y-151994619D01*
X-34019309Y-151994619D01*
X-33924071Y-152042238D01*
X-33876452Y-152089857D01*
X-33828833Y-152185095D01*
X-33781214Y-152375571D01*
X-33781214Y-152613666D01*
X-33828833Y-152804142D01*
X-33876452Y-152899380D01*
X-33924071Y-152947000D01*
X-34019309Y-152994619D01*
%TO.C,SWL4-0*%
X-47735976Y-154582238D02*
X-47878833Y-154534619D01*
X-48116928Y-154534619D01*
X-48212166Y-154582238D01*
X-48259785Y-154629857D01*
X-48307404Y-154725095D01*
X-48307404Y-154820333D01*
X-48259785Y-154915571D01*
X-48212166Y-154963190D01*
X-48116928Y-155010809D01*
X-47926452Y-155058428D01*
X-47831214Y-155106047D01*
X-47783595Y-155153666D01*
X-47735976Y-155248904D01*
X-47735976Y-155344142D01*
X-47783595Y-155439380D01*
X-47831214Y-155487000D01*
X-47926452Y-155534619D01*
X-48164547Y-155534619D01*
X-48307404Y-155487000D01*
X-48640738Y-155534619D02*
X-48878833Y-154534619D01*
X-49069309Y-155248904D01*
X-49259785Y-154534619D01*
X-49497880Y-155534619D01*
X-50355023Y-154534619D02*
X-49878833Y-154534619D01*
X-49878833Y-155534619D01*
X-51116928Y-155201285D02*
X-51116928Y-154534619D01*
X-50878833Y-155582238D02*
X-50640738Y-154867952D01*
X-51259785Y-154867952D01*
X-51640738Y-154915571D02*
X-52402642Y-154915571D01*
X-53069309Y-155534619D02*
X-53164547Y-155534619D01*
X-53259785Y-155487000D01*
X-53307404Y-155439380D01*
X-53355023Y-155344142D01*
X-53402642Y-155153666D01*
X-53402642Y-154915571D01*
X-53355023Y-154725095D01*
X-53307404Y-154629857D01*
X-53259785Y-154582238D01*
X-53164547Y-154534619D01*
X-53069309Y-154534619D01*
X-52974071Y-154582238D01*
X-52926452Y-154629857D01*
X-52878833Y-154725095D01*
X-52831214Y-154915571D01*
X-52831214Y-155153666D01*
X-52878833Y-155344142D01*
X-52926452Y-155439380D01*
X-52974071Y-155487000D01*
X-53069309Y-155534619D01*
%TO.C,SWL1-4*%
X-104885976Y-92352238D02*
X-105028833Y-92304619D01*
X-105266928Y-92304619D01*
X-105362166Y-92352238D01*
X-105409785Y-92399857D01*
X-105457404Y-92495095D01*
X-105457404Y-92590333D01*
X-105409785Y-92685571D01*
X-105362166Y-92733190D01*
X-105266928Y-92780809D01*
X-105076452Y-92828428D01*
X-104981214Y-92876047D01*
X-104933595Y-92923666D01*
X-104885976Y-93018904D01*
X-104885976Y-93114142D01*
X-104933595Y-93209380D01*
X-104981214Y-93257000D01*
X-105076452Y-93304619D01*
X-105314547Y-93304619D01*
X-105457404Y-93257000D01*
X-105790738Y-93304619D02*
X-106028833Y-92304619D01*
X-106219309Y-93018904D01*
X-106409785Y-92304619D01*
X-106647880Y-93304619D01*
X-107505023Y-92304619D02*
X-107028833Y-92304619D01*
X-107028833Y-93304619D01*
X-108362166Y-92304619D02*
X-107790738Y-92304619D01*
X-108076452Y-92304619D02*
X-108076452Y-93304619D01*
X-107981214Y-93161761D01*
X-107885976Y-93066523D01*
X-107790738Y-93018904D01*
X-108790738Y-92685571D02*
X-109552642Y-92685571D01*
X-110457404Y-92971285D02*
X-110457404Y-92304619D01*
X-110219309Y-93352238D02*
X-109981214Y-92637952D01*
X-110600261Y-92637952D01*
%TO.C,SWL3-5*%
X-57260976Y-73302238D02*
X-57403833Y-73254619D01*
X-57641928Y-73254619D01*
X-57737166Y-73302238D01*
X-57784785Y-73349857D01*
X-57832404Y-73445095D01*
X-57832404Y-73540333D01*
X-57784785Y-73635571D01*
X-57737166Y-73683190D01*
X-57641928Y-73730809D01*
X-57451452Y-73778428D01*
X-57356214Y-73826047D01*
X-57308595Y-73873666D01*
X-57260976Y-73968904D01*
X-57260976Y-74064142D01*
X-57308595Y-74159380D01*
X-57356214Y-74207000D01*
X-57451452Y-74254619D01*
X-57689547Y-74254619D01*
X-57832404Y-74207000D01*
X-58165738Y-74254619D02*
X-58403833Y-73254619D01*
X-58594309Y-73968904D01*
X-58784785Y-73254619D01*
X-59022880Y-74254619D01*
X-59880023Y-73254619D02*
X-59403833Y-73254619D01*
X-59403833Y-74254619D01*
X-60118119Y-74254619D02*
X-60737166Y-74254619D01*
X-60403833Y-73873666D01*
X-60546690Y-73873666D01*
X-60641928Y-73826047D01*
X-60689547Y-73778428D01*
X-60737166Y-73683190D01*
X-60737166Y-73445095D01*
X-60689547Y-73349857D01*
X-60641928Y-73302238D01*
X-60546690Y-73254619D01*
X-60260976Y-73254619D01*
X-60165738Y-73302238D01*
X-60118119Y-73349857D01*
X-61165738Y-73635571D02*
X-61927642Y-73635571D01*
X-62880023Y-74254619D02*
X-62403833Y-74254619D01*
X-62356214Y-73778428D01*
X-62403833Y-73826047D01*
X-62499071Y-73873666D01*
X-62737166Y-73873666D01*
X-62832404Y-73826047D01*
X-62880023Y-73778428D01*
X-62927642Y-73683190D01*
X-62927642Y-73445095D01*
X-62880023Y-73349857D01*
X-62832404Y-73302238D01*
X-62737166Y-73254619D01*
X-62499071Y-73254619D01*
X-62403833Y-73302238D01*
X-62356214Y-73349857D01*
%TO.C,SWL1-2*%
X-104885976Y-130452238D02*
X-105028833Y-130404619D01*
X-105266928Y-130404619D01*
X-105362166Y-130452238D01*
X-105409785Y-130499857D01*
X-105457404Y-130595095D01*
X-105457404Y-130690333D01*
X-105409785Y-130785571D01*
X-105362166Y-130833190D01*
X-105266928Y-130880809D01*
X-105076452Y-130928428D01*
X-104981214Y-130976047D01*
X-104933595Y-131023666D01*
X-104885976Y-131118904D01*
X-104885976Y-131214142D01*
X-104933595Y-131309380D01*
X-104981214Y-131357000D01*
X-105076452Y-131404619D01*
X-105314547Y-131404619D01*
X-105457404Y-131357000D01*
X-105790738Y-131404619D02*
X-106028833Y-130404619D01*
X-106219309Y-131118904D01*
X-106409785Y-130404619D01*
X-106647880Y-131404619D01*
X-107505023Y-130404619D02*
X-107028833Y-130404619D01*
X-107028833Y-131404619D01*
X-108362166Y-130404619D02*
X-107790738Y-130404619D01*
X-108076452Y-130404619D02*
X-108076452Y-131404619D01*
X-107981214Y-131261761D01*
X-107885976Y-131166523D01*
X-107790738Y-131118904D01*
X-108790738Y-130785571D02*
X-109552642Y-130785571D01*
X-109981214Y-131309380D02*
X-110028833Y-131357000D01*
X-110124071Y-131404619D01*
X-110362166Y-131404619D01*
X-110457404Y-131357000D01*
X-110505023Y-131309380D01*
X-110552642Y-131214142D01*
X-110552642Y-131118904D01*
X-110505023Y-130976047D01*
X-109933595Y-130404619D01*
X-110552642Y-130404619D01*
%TO.C,SWL5-3*%
X-28685976Y-94892238D02*
X-28828833Y-94844619D01*
X-29066928Y-94844619D01*
X-29162166Y-94892238D01*
X-29209785Y-94939857D01*
X-29257404Y-95035095D01*
X-29257404Y-95130333D01*
X-29209785Y-95225571D01*
X-29162166Y-95273190D01*
X-29066928Y-95320809D01*
X-28876452Y-95368428D01*
X-28781214Y-95416047D01*
X-28733595Y-95463666D01*
X-28685976Y-95558904D01*
X-28685976Y-95654142D01*
X-28733595Y-95749380D01*
X-28781214Y-95797000D01*
X-28876452Y-95844619D01*
X-29114547Y-95844619D01*
X-29257404Y-95797000D01*
X-29590738Y-95844619D02*
X-29828833Y-94844619D01*
X-30019309Y-95558904D01*
X-30209785Y-94844619D01*
X-30447880Y-95844619D01*
X-31305023Y-94844619D02*
X-30828833Y-94844619D01*
X-30828833Y-95844619D01*
X-32114547Y-95844619D02*
X-31638357Y-95844619D01*
X-31590738Y-95368428D01*
X-31638357Y-95416047D01*
X-31733595Y-95463666D01*
X-31971690Y-95463666D01*
X-32066928Y-95416047D01*
X-32114547Y-95368428D01*
X-32162166Y-95273190D01*
X-32162166Y-95035095D01*
X-32114547Y-94939857D01*
X-32066928Y-94892238D01*
X-31971690Y-94844619D01*
X-31733595Y-94844619D01*
X-31638357Y-94892238D01*
X-31590738Y-94939857D01*
X-32590738Y-95225571D02*
X-33352642Y-95225571D01*
X-33733595Y-95844619D02*
X-34352642Y-95844619D01*
X-34019309Y-95463666D01*
X-34162166Y-95463666D01*
X-34257404Y-95416047D01*
X-34305023Y-95368428D01*
X-34352642Y-95273190D01*
X-34352642Y-95035095D01*
X-34305023Y-94939857D01*
X-34257404Y-94892238D01*
X-34162166Y-94844619D01*
X-33876452Y-94844619D01*
X-33781214Y-94892238D01*
X-33733595Y-94939857D01*
%TO.C,SWL4-3*%
X-47735976Y-97432238D02*
X-47878833Y-97384619D01*
X-48116928Y-97384619D01*
X-48212166Y-97432238D01*
X-48259785Y-97479857D01*
X-48307404Y-97575095D01*
X-48307404Y-97670333D01*
X-48259785Y-97765571D01*
X-48212166Y-97813190D01*
X-48116928Y-97860809D01*
X-47926452Y-97908428D01*
X-47831214Y-97956047D01*
X-47783595Y-98003666D01*
X-47735976Y-98098904D01*
X-47735976Y-98194142D01*
X-47783595Y-98289380D01*
X-47831214Y-98337000D01*
X-47926452Y-98384619D01*
X-48164547Y-98384619D01*
X-48307404Y-98337000D01*
X-48640738Y-98384619D02*
X-48878833Y-97384619D01*
X-49069309Y-98098904D01*
X-49259785Y-97384619D01*
X-49497880Y-98384619D01*
X-50355023Y-97384619D02*
X-49878833Y-97384619D01*
X-49878833Y-98384619D01*
X-51116928Y-98051285D02*
X-51116928Y-97384619D01*
X-50878833Y-98432238D02*
X-50640738Y-97717952D01*
X-51259785Y-97717952D01*
X-51640738Y-97765571D02*
X-52402642Y-97765571D01*
X-52783595Y-98384619D02*
X-53402642Y-98384619D01*
X-53069309Y-98003666D01*
X-53212166Y-98003666D01*
X-53307404Y-97956047D01*
X-53355023Y-97908428D01*
X-53402642Y-97813190D01*
X-53402642Y-97575095D01*
X-53355023Y-97479857D01*
X-53307404Y-97432238D01*
X-53212166Y-97384619D01*
X-52926452Y-97384619D01*
X-52831214Y-97432238D01*
X-52783595Y-97479857D01*
%TO.C,SWL1-3*%
X-104885976Y-111402238D02*
X-105028833Y-111354619D01*
X-105266928Y-111354619D01*
X-105362166Y-111402238D01*
X-105409785Y-111449857D01*
X-105457404Y-111545095D01*
X-105457404Y-111640333D01*
X-105409785Y-111735571D01*
X-105362166Y-111783190D01*
X-105266928Y-111830809D01*
X-105076452Y-111878428D01*
X-104981214Y-111926047D01*
X-104933595Y-111973666D01*
X-104885976Y-112068904D01*
X-104885976Y-112164142D01*
X-104933595Y-112259380D01*
X-104981214Y-112307000D01*
X-105076452Y-112354619D01*
X-105314547Y-112354619D01*
X-105457404Y-112307000D01*
X-105790738Y-112354619D02*
X-106028833Y-111354619D01*
X-106219309Y-112068904D01*
X-106409785Y-111354619D01*
X-106647880Y-112354619D01*
X-107505023Y-111354619D02*
X-107028833Y-111354619D01*
X-107028833Y-112354619D01*
X-108362166Y-111354619D02*
X-107790738Y-111354619D01*
X-108076452Y-111354619D02*
X-108076452Y-112354619D01*
X-107981214Y-112211761D01*
X-107885976Y-112116523D01*
X-107790738Y-112068904D01*
X-108790738Y-111735571D02*
X-109552642Y-111735571D01*
X-109933595Y-112354619D02*
X-110552642Y-112354619D01*
X-110219309Y-111973666D01*
X-110362166Y-111973666D01*
X-110457404Y-111926047D01*
X-110505023Y-111878428D01*
X-110552642Y-111783190D01*
X-110552642Y-111545095D01*
X-110505023Y-111449857D01*
X-110457404Y-111402238D01*
X-110362166Y-111354619D01*
X-110076452Y-111354619D01*
X-109981214Y-111402238D01*
X-109933595Y-111449857D01*
%TO.C,SWL0-2*%
X-123935976Y-129182238D02*
X-124078833Y-129134619D01*
X-124316928Y-129134619D01*
X-124412166Y-129182238D01*
X-124459785Y-129229857D01*
X-124507404Y-129325095D01*
X-124507404Y-129420333D01*
X-124459785Y-129515571D01*
X-124412166Y-129563190D01*
X-124316928Y-129610809D01*
X-124126452Y-129658428D01*
X-124031214Y-129706047D01*
X-123983595Y-129753666D01*
X-123935976Y-129848904D01*
X-123935976Y-129944142D01*
X-123983595Y-130039380D01*
X-124031214Y-130087000D01*
X-124126452Y-130134619D01*
X-124364547Y-130134619D01*
X-124507404Y-130087000D01*
X-124840738Y-130134619D02*
X-125078833Y-129134619D01*
X-125269309Y-129848904D01*
X-125459785Y-129134619D01*
X-125697880Y-130134619D01*
X-126555023Y-129134619D02*
X-126078833Y-129134619D01*
X-126078833Y-130134619D01*
X-127078833Y-130134619D02*
X-127174071Y-130134619D01*
X-127269309Y-130087000D01*
X-127316928Y-130039380D01*
X-127364547Y-129944142D01*
X-127412166Y-129753666D01*
X-127412166Y-129515571D01*
X-127364547Y-129325095D01*
X-127316928Y-129229857D01*
X-127269309Y-129182238D01*
X-127174071Y-129134619D01*
X-127078833Y-129134619D01*
X-126983595Y-129182238D01*
X-126935976Y-129229857D01*
X-126888357Y-129325095D01*
X-126840738Y-129515571D01*
X-126840738Y-129753666D01*
X-126888357Y-129944142D01*
X-126935976Y-130039380D01*
X-126983595Y-130087000D01*
X-127078833Y-130134619D01*
X-127840738Y-129515571D02*
X-128602642Y-129515571D01*
X-129031214Y-130039380D02*
X-129078833Y-130087000D01*
X-129174071Y-130134619D01*
X-129412166Y-130134619D01*
X-129507404Y-130087000D01*
X-129555023Y-130039380D01*
X-129602642Y-129944142D01*
X-129602642Y-129848904D01*
X-129555023Y-129706047D01*
X-128983595Y-129134619D01*
X-129602642Y-129134619D01*
%TO.C,SWL0-3*%
X-123935976Y-110132238D02*
X-124078833Y-110084619D01*
X-124316928Y-110084619D01*
X-124412166Y-110132238D01*
X-124459785Y-110179857D01*
X-124507404Y-110275095D01*
X-124507404Y-110370333D01*
X-124459785Y-110465571D01*
X-124412166Y-110513190D01*
X-124316928Y-110560809D01*
X-124126452Y-110608428D01*
X-124031214Y-110656047D01*
X-123983595Y-110703666D01*
X-123935976Y-110798904D01*
X-123935976Y-110894142D01*
X-123983595Y-110989380D01*
X-124031214Y-111037000D01*
X-124126452Y-111084619D01*
X-124364547Y-111084619D01*
X-124507404Y-111037000D01*
X-124840738Y-111084619D02*
X-125078833Y-110084619D01*
X-125269309Y-110798904D01*
X-125459785Y-110084619D01*
X-125697880Y-111084619D01*
X-126555023Y-110084619D02*
X-126078833Y-110084619D01*
X-126078833Y-111084619D01*
X-127078833Y-111084619D02*
X-127174071Y-111084619D01*
X-127269309Y-111037000D01*
X-127316928Y-110989380D01*
X-127364547Y-110894142D01*
X-127412166Y-110703666D01*
X-127412166Y-110465571D01*
X-127364547Y-110275095D01*
X-127316928Y-110179857D01*
X-127269309Y-110132238D01*
X-127174071Y-110084619D01*
X-127078833Y-110084619D01*
X-126983595Y-110132238D01*
X-126935976Y-110179857D01*
X-126888357Y-110275095D01*
X-126840738Y-110465571D01*
X-126840738Y-110703666D01*
X-126888357Y-110894142D01*
X-126935976Y-110989380D01*
X-126983595Y-111037000D01*
X-127078833Y-111084619D01*
X-127840738Y-110465571D02*
X-128602642Y-110465571D01*
X-128983595Y-111084619D02*
X-129602642Y-111084619D01*
X-129269309Y-110703666D01*
X-129412166Y-110703666D01*
X-129507404Y-110656047D01*
X-129555023Y-110608428D01*
X-129602642Y-110513190D01*
X-129602642Y-110275095D01*
X-129555023Y-110179857D01*
X-129507404Y-110132238D01*
X-129412166Y-110084619D01*
X-129126452Y-110084619D01*
X-129031214Y-110132238D01*
X-128983595Y-110179857D01*
%TO.C,SWL2-0*%
X-85835976Y-154582238D02*
X-85978833Y-154534619D01*
X-86216928Y-154534619D01*
X-86312166Y-154582238D01*
X-86359785Y-154629857D01*
X-86407404Y-154725095D01*
X-86407404Y-154820333D01*
X-86359785Y-154915571D01*
X-86312166Y-154963190D01*
X-86216928Y-155010809D01*
X-86026452Y-155058428D01*
X-85931214Y-155106047D01*
X-85883595Y-155153666D01*
X-85835976Y-155248904D01*
X-85835976Y-155344142D01*
X-85883595Y-155439380D01*
X-85931214Y-155487000D01*
X-86026452Y-155534619D01*
X-86264547Y-155534619D01*
X-86407404Y-155487000D01*
X-86740738Y-155534619D02*
X-86978833Y-154534619D01*
X-87169309Y-155248904D01*
X-87359785Y-154534619D01*
X-87597880Y-155534619D01*
X-88455023Y-154534619D02*
X-87978833Y-154534619D01*
X-87978833Y-155534619D01*
X-88740738Y-155439380D02*
X-88788357Y-155487000D01*
X-88883595Y-155534619D01*
X-89121690Y-155534619D01*
X-89216928Y-155487000D01*
X-89264547Y-155439380D01*
X-89312166Y-155344142D01*
X-89312166Y-155248904D01*
X-89264547Y-155106047D01*
X-88693119Y-154534619D01*
X-89312166Y-154534619D01*
X-89740738Y-154915571D02*
X-90502642Y-154915571D01*
X-91169309Y-155534619D02*
X-91264547Y-155534619D01*
X-91359785Y-155487000D01*
X-91407404Y-155439380D01*
X-91455023Y-155344142D01*
X-91502642Y-155153666D01*
X-91502642Y-154915571D01*
X-91455023Y-154725095D01*
X-91407404Y-154629857D01*
X-91359785Y-154582238D01*
X-91264547Y-154534619D01*
X-91169309Y-154534619D01*
X-91074071Y-154582238D01*
X-91026452Y-154629857D01*
X-90978833Y-154725095D01*
X-90931214Y-154915571D01*
X-90931214Y-155153666D01*
X-90978833Y-155344142D01*
X-91026452Y-155439380D01*
X-91074071Y-155487000D01*
X-91169309Y-155534619D01*
%TO.C,SWL0-4*%
X-123935976Y-91082238D02*
X-124078833Y-91034619D01*
X-124316928Y-91034619D01*
X-124412166Y-91082238D01*
X-124459785Y-91129857D01*
X-124507404Y-91225095D01*
X-124507404Y-91320333D01*
X-124459785Y-91415571D01*
X-124412166Y-91463190D01*
X-124316928Y-91510809D01*
X-124126452Y-91558428D01*
X-124031214Y-91606047D01*
X-123983595Y-91653666D01*
X-123935976Y-91748904D01*
X-123935976Y-91844142D01*
X-123983595Y-91939380D01*
X-124031214Y-91987000D01*
X-124126452Y-92034619D01*
X-124364547Y-92034619D01*
X-124507404Y-91987000D01*
X-124840738Y-92034619D02*
X-125078833Y-91034619D01*
X-125269309Y-91748904D01*
X-125459785Y-91034619D01*
X-125697880Y-92034619D01*
X-126555023Y-91034619D02*
X-126078833Y-91034619D01*
X-126078833Y-92034619D01*
X-127078833Y-92034619D02*
X-127174071Y-92034619D01*
X-127269309Y-91987000D01*
X-127316928Y-91939380D01*
X-127364547Y-91844142D01*
X-127412166Y-91653666D01*
X-127412166Y-91415571D01*
X-127364547Y-91225095D01*
X-127316928Y-91129857D01*
X-127269309Y-91082238D01*
X-127174071Y-91034619D01*
X-127078833Y-91034619D01*
X-126983595Y-91082238D01*
X-126935976Y-91129857D01*
X-126888357Y-91225095D01*
X-126840738Y-91415571D01*
X-126840738Y-91653666D01*
X-126888357Y-91844142D01*
X-126935976Y-91939380D01*
X-126983595Y-91987000D01*
X-127078833Y-92034619D01*
X-127840738Y-91415571D02*
X-128602642Y-91415571D01*
X-129507404Y-91701285D02*
X-129507404Y-91034619D01*
X-129269309Y-92082238D02*
X-129031214Y-91367952D01*
X-129650261Y-91367952D01*
%TO.C,SWL4-1*%
X-47735976Y-135532238D02*
X-47878833Y-135484619D01*
X-48116928Y-135484619D01*
X-48212166Y-135532238D01*
X-48259785Y-135579857D01*
X-48307404Y-135675095D01*
X-48307404Y-135770333D01*
X-48259785Y-135865571D01*
X-48212166Y-135913190D01*
X-48116928Y-135960809D01*
X-47926452Y-136008428D01*
X-47831214Y-136056047D01*
X-47783595Y-136103666D01*
X-47735976Y-136198904D01*
X-47735976Y-136294142D01*
X-47783595Y-136389380D01*
X-47831214Y-136437000D01*
X-47926452Y-136484619D01*
X-48164547Y-136484619D01*
X-48307404Y-136437000D01*
X-48640738Y-136484619D02*
X-48878833Y-135484619D01*
X-49069309Y-136198904D01*
X-49259785Y-135484619D01*
X-49497880Y-136484619D01*
X-50355023Y-135484619D02*
X-49878833Y-135484619D01*
X-49878833Y-136484619D01*
X-51116928Y-136151285D02*
X-51116928Y-135484619D01*
X-50878833Y-136532238D02*
X-50640738Y-135817952D01*
X-51259785Y-135817952D01*
X-51640738Y-135865571D02*
X-52402642Y-135865571D01*
X-53402642Y-135484619D02*
X-52831214Y-135484619D01*
X-53116928Y-135484619D02*
X-53116928Y-136484619D01*
X-53021690Y-136341761D01*
X-52926452Y-136246523D01*
X-52831214Y-136198904D01*
%TO.C,SWL3-1*%
X-66785976Y-136802238D02*
X-66928833Y-136754619D01*
X-67166928Y-136754619D01*
X-67262166Y-136802238D01*
X-67309785Y-136849857D01*
X-67357404Y-136945095D01*
X-67357404Y-137040333D01*
X-67309785Y-137135571D01*
X-67262166Y-137183190D01*
X-67166928Y-137230809D01*
X-66976452Y-137278428D01*
X-66881214Y-137326047D01*
X-66833595Y-137373666D01*
X-66785976Y-137468904D01*
X-66785976Y-137564142D01*
X-66833595Y-137659380D01*
X-66881214Y-137707000D01*
X-66976452Y-137754619D01*
X-67214547Y-137754619D01*
X-67357404Y-137707000D01*
X-67690738Y-137754619D02*
X-67928833Y-136754619D01*
X-68119309Y-137468904D01*
X-68309785Y-136754619D01*
X-68547880Y-137754619D01*
X-69405023Y-136754619D02*
X-68928833Y-136754619D01*
X-68928833Y-137754619D01*
X-69643119Y-137754619D02*
X-70262166Y-137754619D01*
X-69928833Y-137373666D01*
X-70071690Y-137373666D01*
X-70166928Y-137326047D01*
X-70214547Y-137278428D01*
X-70262166Y-137183190D01*
X-70262166Y-136945095D01*
X-70214547Y-136849857D01*
X-70166928Y-136802238D01*
X-70071690Y-136754619D01*
X-69785976Y-136754619D01*
X-69690738Y-136802238D01*
X-69643119Y-136849857D01*
X-70690738Y-137135571D02*
X-71452642Y-137135571D01*
X-72452642Y-136754619D02*
X-71881214Y-136754619D01*
X-72166928Y-136754619D02*
X-72166928Y-137754619D01*
X-72071690Y-137611761D01*
X-71976452Y-137516523D01*
X-71881214Y-137468904D01*
%TO.C,SWL2-4*%
X-85835976Y-97432238D02*
X-85978833Y-97384619D01*
X-86216928Y-97384619D01*
X-86312166Y-97432238D01*
X-86359785Y-97479857D01*
X-86407404Y-97575095D01*
X-86407404Y-97670333D01*
X-86359785Y-97765571D01*
X-86312166Y-97813190D01*
X-86216928Y-97860809D01*
X-86026452Y-97908428D01*
X-85931214Y-97956047D01*
X-85883595Y-98003666D01*
X-85835976Y-98098904D01*
X-85835976Y-98194142D01*
X-85883595Y-98289380D01*
X-85931214Y-98337000D01*
X-86026452Y-98384619D01*
X-86264547Y-98384619D01*
X-86407404Y-98337000D01*
X-86740738Y-98384619D02*
X-86978833Y-97384619D01*
X-87169309Y-98098904D01*
X-87359785Y-97384619D01*
X-87597880Y-98384619D01*
X-88455023Y-97384619D02*
X-87978833Y-97384619D01*
X-87978833Y-98384619D01*
X-88740738Y-98289380D02*
X-88788357Y-98337000D01*
X-88883595Y-98384619D01*
X-89121690Y-98384619D01*
X-89216928Y-98337000D01*
X-89264547Y-98289380D01*
X-89312166Y-98194142D01*
X-89312166Y-98098904D01*
X-89264547Y-97956047D01*
X-88693119Y-97384619D01*
X-89312166Y-97384619D01*
X-89740738Y-97765571D02*
X-90502642Y-97765571D01*
X-91407404Y-98051285D02*
X-91407404Y-97384619D01*
X-91169309Y-98432238D02*
X-90931214Y-97717952D01*
X-91550261Y-97717952D01*
%TO.C,SWL2-1*%
X-85835976Y-135532238D02*
X-85978833Y-135484619D01*
X-86216928Y-135484619D01*
X-86312166Y-135532238D01*
X-86359785Y-135579857D01*
X-86407404Y-135675095D01*
X-86407404Y-135770333D01*
X-86359785Y-135865571D01*
X-86312166Y-135913190D01*
X-86216928Y-135960809D01*
X-86026452Y-136008428D01*
X-85931214Y-136056047D01*
X-85883595Y-136103666D01*
X-85835976Y-136198904D01*
X-85835976Y-136294142D01*
X-85883595Y-136389380D01*
X-85931214Y-136437000D01*
X-86026452Y-136484619D01*
X-86264547Y-136484619D01*
X-86407404Y-136437000D01*
X-86740738Y-136484619D02*
X-86978833Y-135484619D01*
X-87169309Y-136198904D01*
X-87359785Y-135484619D01*
X-87597880Y-136484619D01*
X-88455023Y-135484619D02*
X-87978833Y-135484619D01*
X-87978833Y-136484619D01*
X-88740738Y-136389380D02*
X-88788357Y-136437000D01*
X-88883595Y-136484619D01*
X-89121690Y-136484619D01*
X-89216928Y-136437000D01*
X-89264547Y-136389380D01*
X-89312166Y-136294142D01*
X-89312166Y-136198904D01*
X-89264547Y-136056047D01*
X-88693119Y-135484619D01*
X-89312166Y-135484619D01*
X-89740738Y-135865571D02*
X-90502642Y-135865571D01*
X-91502642Y-135484619D02*
X-90931214Y-135484619D01*
X-91216928Y-135484619D02*
X-91216928Y-136484619D01*
X-91121690Y-136341761D01*
X-91026452Y-136246523D01*
X-90931214Y-136198904D01*
%TO.C,SWL4-5*%
X-38210976Y-73302238D02*
X-38353833Y-73254619D01*
X-38591928Y-73254619D01*
X-38687166Y-73302238D01*
X-38734785Y-73349857D01*
X-38782404Y-73445095D01*
X-38782404Y-73540333D01*
X-38734785Y-73635571D01*
X-38687166Y-73683190D01*
X-38591928Y-73730809D01*
X-38401452Y-73778428D01*
X-38306214Y-73826047D01*
X-38258595Y-73873666D01*
X-38210976Y-73968904D01*
X-38210976Y-74064142D01*
X-38258595Y-74159380D01*
X-38306214Y-74207000D01*
X-38401452Y-74254619D01*
X-38639547Y-74254619D01*
X-38782404Y-74207000D01*
X-39115738Y-74254619D02*
X-39353833Y-73254619D01*
X-39544309Y-73968904D01*
X-39734785Y-73254619D01*
X-39972880Y-74254619D01*
X-40830023Y-73254619D02*
X-40353833Y-73254619D01*
X-40353833Y-74254619D01*
X-41591928Y-73921285D02*
X-41591928Y-73254619D01*
X-41353833Y-74302238D02*
X-41115738Y-73587952D01*
X-41734785Y-73587952D01*
X-42115738Y-73635571D02*
X-42877642Y-73635571D01*
X-43830023Y-74254619D02*
X-43353833Y-74254619D01*
X-43306214Y-73778428D01*
X-43353833Y-73826047D01*
X-43449071Y-73873666D01*
X-43687166Y-73873666D01*
X-43782404Y-73826047D01*
X-43830023Y-73778428D01*
X-43877642Y-73683190D01*
X-43877642Y-73445095D01*
X-43830023Y-73349857D01*
X-43782404Y-73302238D01*
X-43687166Y-73254619D01*
X-43449071Y-73254619D01*
X-43353833Y-73302238D01*
X-43306214Y-73349857D01*
%TO.C,U2*%
X-165353809Y-11667380D02*
X-164687142Y-12667380D01*
X-164687142Y-11667380D02*
X-165353809Y-12667380D01*
X-164306190Y-12667380D02*
X-164306190Y-11667380D01*
X-163877619Y-12381666D02*
X-163401428Y-12381666D01*
X-163972857Y-12667380D02*
X-163639523Y-11667380D01*
X-163306190Y-12667380D01*
X-162782380Y-11667380D02*
X-162591904Y-11667380D01*
X-162496666Y-11715000D01*
X-162401428Y-11810238D01*
X-162353809Y-12000714D01*
X-162353809Y-12334047D01*
X-162401428Y-12524523D01*
X-162496666Y-12619761D01*
X-162591904Y-12667380D01*
X-162782380Y-12667380D01*
X-162877619Y-12619761D01*
X-162972857Y-12524523D01*
X-163020476Y-12334047D01*
X-163020476Y-12000714D01*
X-162972857Y-11810238D01*
X-162877619Y-11715000D01*
X-162782380Y-11667380D01*
%TO.C,SWL3-0*%
X-69584824Y-151284780D02*
X-69584824Y-151514780D01*
X-69084824Y-155334780D02*
X-64520000Y-155334780D01*
X-58634824Y-154084780D02*
X-58634824Y-153284780D01*
X-60634824Y-151284780D02*
X-66534824Y-151284780D01*
X-58634824Y-156934780D02*
X-58634824Y-157174780D01*
X-68034824Y-151284780D02*
X-69584824Y-151284780D01*
X-69584824Y-154364780D02*
X-69584824Y-154834780D01*
X-69584824Y-154834780D02*
G75*
G03*
X-69084824Y-155334780I499996J-4D01*
G01*
X-58634824Y-153284780D02*
G75*
G03*
X-60634824Y-151284780I-2000005J-5D01*
G01*
X-62225678Y-157174780D02*
G75*
G03*
X-64520000Y-155334780I-2293456J-509332D01*
G01*
%TO.C,SWL0-1*%
X-126734824Y-143664780D02*
X-126734824Y-143894780D01*
X-126234824Y-147714780D02*
X-121670000Y-147714780D01*
X-115784824Y-146464780D02*
X-115784824Y-145664780D01*
X-117784824Y-143664780D02*
X-123684824Y-143664780D01*
X-115784824Y-149314780D02*
X-115784824Y-149554780D01*
X-125184824Y-143664780D02*
X-126734824Y-143664780D01*
X-126734824Y-146744780D02*
X-126734824Y-147214780D01*
X-126734824Y-147214780D02*
G75*
G03*
X-126234824Y-147714780I499996J-4D01*
G01*
X-115784824Y-145664780D02*
G75*
G03*
X-117784824Y-143664780I-2000005J-5D01*
G01*
X-119375678Y-149554780D02*
G75*
G03*
X-121670000Y-147714780I-2293456J-509332D01*
G01*
%TO.C,SWL3-4*%
X-69584824Y-94134780D02*
X-69584824Y-94364780D01*
X-69084824Y-98184780D02*
X-64520000Y-98184780D01*
X-58634824Y-96934780D02*
X-58634824Y-96134780D01*
X-60634824Y-94134780D02*
X-66534824Y-94134780D01*
X-58634824Y-99784780D02*
X-58634824Y-100024780D01*
X-68034824Y-94134780D02*
X-69584824Y-94134780D01*
X-69584824Y-97214780D02*
X-69584824Y-97684780D01*
X-69584824Y-97684780D02*
G75*
G03*
X-69084824Y-98184780I499996J-4D01*
G01*
X-58634824Y-96134780D02*
G75*
G03*
X-60634824Y-94134780I-2000005J-5D01*
G01*
X-62225678Y-100024780D02*
G75*
G03*
X-64520000Y-98184780I-2293456J-509332D01*
G01*
%TO.C,SWL5-2*%
X-31484824Y-109374780D02*
X-31484824Y-109604780D01*
X-30984824Y-113424780D02*
X-26420000Y-113424780D01*
X-20534824Y-112174780D02*
X-20534824Y-111374780D01*
X-22534824Y-109374780D02*
X-28434824Y-109374780D01*
X-20534824Y-115024780D02*
X-20534824Y-115264780D01*
X-29934824Y-109374780D02*
X-31484824Y-109374780D01*
X-31484824Y-112454780D02*
X-31484824Y-112924780D01*
X-31484824Y-112924780D02*
G75*
G03*
X-30984824Y-113424780I499996J-4D01*
G01*
X-20534824Y-111374780D02*
G75*
G03*
X-22534824Y-109374780I-2000005J-5D01*
G01*
X-24125678Y-115264780D02*
G75*
G03*
X-26420000Y-113424780I-2293456J-509332D01*
G01*
%TO.C,SWL4-2*%
X-50534824Y-111914780D02*
X-50534824Y-112144780D01*
X-50034824Y-115964780D02*
X-45470000Y-115964780D01*
X-39584824Y-114714780D02*
X-39584824Y-113914780D01*
X-41584824Y-111914780D02*
X-47484824Y-111914780D01*
X-39584824Y-117564780D02*
X-39584824Y-117804780D01*
X-48984824Y-111914780D02*
X-50534824Y-111914780D01*
X-50534824Y-114994780D02*
X-50534824Y-115464780D01*
X-50534824Y-115464780D02*
G75*
G03*
X-50034824Y-115964780I499996J-4D01*
G01*
X-39584824Y-113914780D02*
G75*
G03*
X-41584824Y-111914780I-2000005J-5D01*
G01*
X-43175678Y-117804780D02*
G75*
G03*
X-45470000Y-115964780I-2293456J-509332D01*
G01*
%TO.C,SWL3-2*%
X-69584824Y-113184780D02*
X-69584824Y-113414780D01*
X-69084824Y-117234780D02*
X-64520000Y-117234780D01*
X-58634824Y-115984780D02*
X-58634824Y-115184780D01*
X-60634824Y-113184780D02*
X-66534824Y-113184780D01*
X-58634824Y-118834780D02*
X-58634824Y-119074780D01*
X-68034824Y-113184780D02*
X-69584824Y-113184780D01*
X-69584824Y-116264780D02*
X-69584824Y-116734780D01*
X-69584824Y-116734780D02*
G75*
G03*
X-69084824Y-117234780I499996J-4D01*
G01*
X-58634824Y-115184780D02*
G75*
G03*
X-60634824Y-113184780I-2000005J-5D01*
G01*
X-62225678Y-119074780D02*
G75*
G03*
X-64520000Y-117234780I-2293456J-509332D01*
G01*
%TO.C,SWL1-0*%
X-107684824Y-144934780D02*
X-107684824Y-145164780D01*
X-107184824Y-148984780D02*
X-102620000Y-148984780D01*
X-96734824Y-147734780D02*
X-96734824Y-146934780D01*
X-98734824Y-144934780D02*
X-104634824Y-144934780D01*
X-96734824Y-150584780D02*
X-96734824Y-150824780D01*
X-106134824Y-144934780D02*
X-107684824Y-144934780D01*
X-107684824Y-148014780D02*
X-107684824Y-148484780D01*
X-107684824Y-148484780D02*
G75*
G03*
X-107184824Y-148984780I499996J-4D01*
G01*
X-96734824Y-146934780D02*
G75*
G03*
X-98734824Y-144934780I-2000005J-5D01*
G01*
X-100325678Y-150824780D02*
G75*
G03*
X-102620000Y-148984780I-2293456J-509332D01*
G01*
%TO.C,SWL5-1*%
X-31484824Y-128424780D02*
X-31484824Y-128654780D01*
X-30984824Y-132474780D02*
X-26420000Y-132474780D01*
X-20534824Y-131224780D02*
X-20534824Y-130424780D01*
X-22534824Y-128424780D02*
X-28434824Y-128424780D01*
X-20534824Y-134074780D02*
X-20534824Y-134314780D01*
X-29934824Y-128424780D02*
X-31484824Y-128424780D01*
X-31484824Y-131504780D02*
X-31484824Y-131974780D01*
X-31484824Y-131974780D02*
G75*
G03*
X-30984824Y-132474780I499996J-4D01*
G01*
X-20534824Y-130424780D02*
G75*
G03*
X-22534824Y-128424780I-2000005J-5D01*
G01*
X-24125678Y-134314780D02*
G75*
G03*
X-26420000Y-132474780I-2293456J-509332D01*
G01*
%TO.C,SWL2-3*%
X-88634824Y-111914780D02*
X-88634824Y-112144780D01*
X-88134824Y-115964780D02*
X-83570000Y-115964780D01*
X-77684824Y-114714780D02*
X-77684824Y-113914780D01*
X-79684824Y-111914780D02*
X-85584824Y-111914780D01*
X-77684824Y-117564780D02*
X-77684824Y-117804780D01*
X-87084824Y-111914780D02*
X-88634824Y-111914780D01*
X-88634824Y-114994780D02*
X-88634824Y-115464780D01*
X-88634824Y-115464780D02*
G75*
G03*
X-88134824Y-115964780I499996J-4D01*
G01*
X-77684824Y-113914780D02*
G75*
G03*
X-79684824Y-111914780I-2000005J-5D01*
G01*
X-81275678Y-117804780D02*
G75*
G03*
X-83570000Y-115964780I-2293456J-509332D01*
G01*
%TO.C,SWL5-4*%
X-18815529Y-70157388D02*
X-18700529Y-70356574D01*
X-16357516Y-73414791D02*
X-12404263Y-71132379D01*
X-7932551Y-67107259D02*
X-8332551Y-66414439D01*
X-11064602Y-65682388D02*
X-16174152Y-68632388D01*
X-6507551Y-69575432D02*
X-6387551Y-69783278D01*
X-17473190Y-69382388D02*
X-18815529Y-70157388D01*
X-17275529Y-72824746D02*
X-17040529Y-73231778D01*
X-17040529Y-73231778D02*
G75*
G03*
X-16357516Y-73414791I433011J249994D01*
G01*
X-8332551Y-66414439D02*
G75*
G03*
X-11064602Y-65682388I-1732053J-1000007D01*
G01*
X-9497321Y-71578705D02*
G75*
G03*
X-12404263Y-71132379I-1731526J-1587822D01*
G01*
%TO.C,SWL5-0*%
X-31484824Y-147474780D02*
X-31484824Y-147704780D01*
X-30984824Y-151524780D02*
X-26420000Y-151524780D01*
X-20534824Y-150274780D02*
X-20534824Y-149474780D01*
X-22534824Y-147474780D02*
X-28434824Y-147474780D01*
X-20534824Y-153124780D02*
X-20534824Y-153364780D01*
X-29934824Y-147474780D02*
X-31484824Y-147474780D01*
X-31484824Y-150554780D02*
X-31484824Y-151024780D01*
X-31484824Y-151024780D02*
G75*
G03*
X-30984824Y-151524780I499996J-4D01*
G01*
X-20534824Y-149474780D02*
G75*
G03*
X-22534824Y-147474780I-2000005J-5D01*
G01*
X-24125678Y-153364780D02*
G75*
G03*
X-26420000Y-151524780I-2293456J-509332D01*
G01*
%TO.C,SWL4-0*%
X-50534824Y-150014780D02*
X-50534824Y-150244780D01*
X-50034824Y-154064780D02*
X-45470000Y-154064780D01*
X-39584824Y-152814780D02*
X-39584824Y-152014780D01*
X-41584824Y-150014780D02*
X-47484824Y-150014780D01*
X-39584824Y-155664780D02*
X-39584824Y-155904780D01*
X-48984824Y-150014780D02*
X-50534824Y-150014780D01*
X-50534824Y-153094780D02*
X-50534824Y-153564780D01*
X-50534824Y-153564780D02*
G75*
G03*
X-50034824Y-154064780I499996J-4D01*
G01*
X-39584824Y-152014780D02*
G75*
G03*
X-41584824Y-150014780I-2000005J-5D01*
G01*
X-43175678Y-155904780D02*
G75*
G03*
X-45470000Y-154064780I-2293456J-509332D01*
G01*
%TO.C,SWL1-4*%
X-107684824Y-87784780D02*
X-107684824Y-88014780D01*
X-107184824Y-91834780D02*
X-102620000Y-91834780D01*
X-96734824Y-90584780D02*
X-96734824Y-89784780D01*
X-98734824Y-87784780D02*
X-104634824Y-87784780D01*
X-96734824Y-93434780D02*
X-96734824Y-93674780D01*
X-106134824Y-87784780D02*
X-107684824Y-87784780D01*
X-107684824Y-90864780D02*
X-107684824Y-91334780D01*
X-107684824Y-91334780D02*
G75*
G03*
X-107184824Y-91834780I499996J-4D01*
G01*
X-96734824Y-89784780D02*
G75*
G03*
X-98734824Y-87784780I-2000005J-5D01*
G01*
X-100325678Y-93674780D02*
G75*
G03*
X-102620000Y-91834780I-2293456J-509332D01*
G01*
%TO.C,SWL3-5*%
X-60059824Y-68734780D02*
X-60059824Y-68964780D01*
X-59559824Y-72784780D02*
X-54995000Y-72784780D01*
X-49109824Y-71534780D02*
X-49109824Y-70734780D01*
X-51109824Y-68734780D02*
X-57009824Y-68734780D01*
X-49109824Y-74384780D02*
X-49109824Y-74624780D01*
X-58509824Y-68734780D02*
X-60059824Y-68734780D01*
X-60059824Y-71814780D02*
X-60059824Y-72284780D01*
X-60059824Y-72284780D02*
G75*
G03*
X-59559824Y-72784780I499996J-4D01*
G01*
X-49109824Y-70734780D02*
G75*
G03*
X-51109824Y-68734780I-2000005J-5D01*
G01*
X-52700678Y-74624780D02*
G75*
G03*
X-54995000Y-72784780I-2293456J-509332D01*
G01*
%TO.C,SWL1-2*%
X-107684824Y-125884780D02*
X-107684824Y-126114780D01*
X-107184824Y-129934780D02*
X-102620000Y-129934780D01*
X-96734824Y-128684780D02*
X-96734824Y-127884780D01*
X-98734824Y-125884780D02*
X-104634824Y-125884780D01*
X-96734824Y-131534780D02*
X-96734824Y-131774780D01*
X-106134824Y-125884780D02*
X-107684824Y-125884780D01*
X-107684824Y-128964780D02*
X-107684824Y-129434780D01*
X-107684824Y-129434780D02*
G75*
G03*
X-107184824Y-129934780I499996J-4D01*
G01*
X-96734824Y-127884780D02*
G75*
G03*
X-98734824Y-125884780I-2000005J-5D01*
G01*
X-100325678Y-131774780D02*
G75*
G03*
X-102620000Y-129934780I-2293456J-509332D01*
G01*
%TO.C,SWL5-3*%
X-31484824Y-90324780D02*
X-31484824Y-90554780D01*
X-30984824Y-94374780D02*
X-26420000Y-94374780D01*
X-20534824Y-93124780D02*
X-20534824Y-92324780D01*
X-22534824Y-90324780D02*
X-28434824Y-90324780D01*
X-20534824Y-95974780D02*
X-20534824Y-96214780D01*
X-29934824Y-90324780D02*
X-31484824Y-90324780D01*
X-31484824Y-93404780D02*
X-31484824Y-93874780D01*
X-31484824Y-93874780D02*
G75*
G03*
X-30984824Y-94374780I499996J-4D01*
G01*
X-20534824Y-92324780D02*
G75*
G03*
X-22534824Y-90324780I-2000005J-5D01*
G01*
X-24125678Y-96214780D02*
G75*
G03*
X-26420000Y-94374780I-2293456J-509332D01*
G01*
%TO.C,SWL4-3*%
X-50534824Y-92864780D02*
X-50534824Y-93094780D01*
X-50034824Y-96914780D02*
X-45470000Y-96914780D01*
X-39584824Y-95664780D02*
X-39584824Y-94864780D01*
X-41584824Y-92864780D02*
X-47484824Y-92864780D01*
X-39584824Y-98514780D02*
X-39584824Y-98754780D01*
X-48984824Y-92864780D02*
X-50534824Y-92864780D01*
X-50534824Y-95944780D02*
X-50534824Y-96414780D01*
X-50534824Y-96414780D02*
G75*
G03*
X-50034824Y-96914780I499996J-4D01*
G01*
X-39584824Y-94864780D02*
G75*
G03*
X-41584824Y-92864780I-2000005J-5D01*
G01*
X-43175678Y-98754780D02*
G75*
G03*
X-45470000Y-96914780I-2293456J-509332D01*
G01*
%TO.C,SWL1-3*%
X-107684824Y-106834780D02*
X-107684824Y-107064780D01*
X-107184824Y-110884780D02*
X-102620000Y-110884780D01*
X-96734824Y-109634780D02*
X-96734824Y-108834780D01*
X-98734824Y-106834780D02*
X-104634824Y-106834780D01*
X-96734824Y-112484780D02*
X-96734824Y-112724780D01*
X-106134824Y-106834780D02*
X-107684824Y-106834780D01*
X-107684824Y-109914780D02*
X-107684824Y-110384780D01*
X-107684824Y-110384780D02*
G75*
G03*
X-107184824Y-110884780I499996J-4D01*
G01*
X-96734824Y-108834780D02*
G75*
G03*
X-98734824Y-106834780I-2000005J-5D01*
G01*
X-100325678Y-112724780D02*
G75*
G03*
X-102620000Y-110884780I-2293456J-509332D01*
G01*
%TO.C,SWL0-2*%
X-126734824Y-124614780D02*
X-126734824Y-124844780D01*
X-126234824Y-128664780D02*
X-121670000Y-128664780D01*
X-115784824Y-127414780D02*
X-115784824Y-126614780D01*
X-117784824Y-124614780D02*
X-123684824Y-124614780D01*
X-115784824Y-130264780D02*
X-115784824Y-130504780D01*
X-125184824Y-124614780D02*
X-126734824Y-124614780D01*
X-126734824Y-127694780D02*
X-126734824Y-128164780D01*
X-126734824Y-128164780D02*
G75*
G03*
X-126234824Y-128664780I499996J-4D01*
G01*
X-115784824Y-126614780D02*
G75*
G03*
X-117784824Y-124614780I-2000005J-5D01*
G01*
X-119375678Y-130504780D02*
G75*
G03*
X-121670000Y-128664780I-2293456J-509332D01*
G01*
%TO.C,SWL0-3*%
X-126734824Y-105564780D02*
X-126734824Y-105794780D01*
X-126234824Y-109614780D02*
X-121670000Y-109614780D01*
X-115784824Y-108364780D02*
X-115784824Y-107564780D01*
X-117784824Y-105564780D02*
X-123684824Y-105564780D01*
X-115784824Y-111214780D02*
X-115784824Y-111454780D01*
X-125184824Y-105564780D02*
X-126734824Y-105564780D01*
X-126734824Y-108644780D02*
X-126734824Y-109114780D01*
X-126734824Y-109114780D02*
G75*
G03*
X-126234824Y-109614780I499996J-4D01*
G01*
X-115784824Y-107564780D02*
G75*
G03*
X-117784824Y-105564780I-2000005J-5D01*
G01*
X-119375678Y-111454780D02*
G75*
G03*
X-121670000Y-109614780I-2293456J-509332D01*
G01*
%TO.C,SWL2-0*%
X-88634824Y-150014780D02*
X-88634824Y-150244780D01*
X-88134824Y-154064780D02*
X-83570000Y-154064780D01*
X-77684824Y-152814780D02*
X-77684824Y-152014780D01*
X-79684824Y-150014780D02*
X-85584824Y-150014780D01*
X-77684824Y-155664780D02*
X-77684824Y-155904780D01*
X-87084824Y-150014780D02*
X-88634824Y-150014780D01*
X-88634824Y-153094780D02*
X-88634824Y-153564780D01*
X-88634824Y-153564780D02*
G75*
G03*
X-88134824Y-154064780I499996J-4D01*
G01*
X-77684824Y-152014780D02*
G75*
G03*
X-79684824Y-150014780I-2000005J-5D01*
G01*
X-81275678Y-155904780D02*
G75*
G03*
X-83570000Y-154064780I-2293456J-509332D01*
G01*
%TO.C,SWL0-4*%
X-126734824Y-86514780D02*
X-126734824Y-86744780D01*
X-126234824Y-90564780D02*
X-121670000Y-90564780D01*
X-115784824Y-89314780D02*
X-115784824Y-88514780D01*
X-117784824Y-86514780D02*
X-123684824Y-86514780D01*
X-115784824Y-92164780D02*
X-115784824Y-92404780D01*
X-125184824Y-86514780D02*
X-126734824Y-86514780D01*
X-126734824Y-89594780D02*
X-126734824Y-90064780D01*
X-126734824Y-90064780D02*
G75*
G03*
X-126234824Y-90564780I499996J-4D01*
G01*
X-115784824Y-88514780D02*
G75*
G03*
X-117784824Y-86514780I-2000005J-5D01*
G01*
X-119375678Y-92404780D02*
G75*
G03*
X-121670000Y-90564780I-2293456J-509332D01*
G01*
%TO.C,SWL4-1*%
X-50534824Y-130964780D02*
X-50534824Y-131194780D01*
X-50034824Y-135014780D02*
X-45470000Y-135014780D01*
X-39584824Y-133764780D02*
X-39584824Y-132964780D01*
X-41584824Y-130964780D02*
X-47484824Y-130964780D01*
X-39584824Y-136614780D02*
X-39584824Y-136854780D01*
X-48984824Y-130964780D02*
X-50534824Y-130964780D01*
X-50534824Y-134044780D02*
X-50534824Y-134514780D01*
X-50534824Y-134514780D02*
G75*
G03*
X-50034824Y-135014780I499996J-4D01*
G01*
X-39584824Y-132964780D02*
G75*
G03*
X-41584824Y-130964780I-2000005J-5D01*
G01*
X-43175678Y-136854780D02*
G75*
G03*
X-45470000Y-135014780I-2293456J-509332D01*
G01*
%TO.C,SWL3-1*%
X-69584824Y-132234780D02*
X-69584824Y-132464780D01*
X-69084824Y-136284780D02*
X-64520000Y-136284780D01*
X-58634824Y-135034780D02*
X-58634824Y-134234780D01*
X-60634824Y-132234780D02*
X-66534824Y-132234780D01*
X-58634824Y-137884780D02*
X-58634824Y-138124780D01*
X-68034824Y-132234780D02*
X-69584824Y-132234780D01*
X-69584824Y-135314780D02*
X-69584824Y-135784780D01*
X-69584824Y-135784780D02*
G75*
G03*
X-69084824Y-136284780I499996J-4D01*
G01*
X-58634824Y-134234780D02*
G75*
G03*
X-60634824Y-132234780I-2000005J-5D01*
G01*
X-62225678Y-138124780D02*
G75*
G03*
X-64520000Y-136284780I-2293456J-509332D01*
G01*
%TO.C,SWL2-4*%
X-88634824Y-92864780D02*
X-88634824Y-93094780D01*
X-88134824Y-96914780D02*
X-83570000Y-96914780D01*
X-77684824Y-95664780D02*
X-77684824Y-94864780D01*
X-79684824Y-92864780D02*
X-85584824Y-92864780D01*
X-77684824Y-98514780D02*
X-77684824Y-98754780D01*
X-87084824Y-92864780D02*
X-88634824Y-92864780D01*
X-88634824Y-95944780D02*
X-88634824Y-96414780D01*
X-88634824Y-96414780D02*
G75*
G03*
X-88134824Y-96914780I499996J-4D01*
G01*
X-77684824Y-94864780D02*
G75*
G03*
X-79684824Y-92864780I-2000005J-5D01*
G01*
X-81275678Y-98754780D02*
G75*
G03*
X-83570000Y-96914780I-2293456J-509332D01*
G01*
%TO.C,SWL2-1*%
X-88634824Y-130964780D02*
X-88634824Y-131194780D01*
X-88134824Y-135014780D02*
X-83570000Y-135014780D01*
X-77684824Y-133764780D02*
X-77684824Y-132964780D01*
X-79684824Y-130964780D02*
X-85584824Y-130964780D01*
X-77684824Y-136614780D02*
X-77684824Y-136854780D01*
X-87084824Y-130964780D02*
X-88634824Y-130964780D01*
X-88634824Y-134044780D02*
X-88634824Y-134514780D01*
X-88634824Y-134514780D02*
G75*
G03*
X-88134824Y-135014780I499996J-4D01*
G01*
X-77684824Y-132964780D02*
G75*
G03*
X-79684824Y-130964780I-2000005J-5D01*
G01*
X-81275678Y-136854780D02*
G75*
G03*
X-83570000Y-135014780I-2293456J-509332D01*
G01*
%TO.C,SWL4-5*%
X-41009824Y-68734780D02*
X-41009824Y-68964780D01*
X-40509824Y-72784780D02*
X-35945000Y-72784780D01*
X-30059824Y-71534780D02*
X-30059824Y-70734780D01*
X-32059824Y-68734780D02*
X-37959824Y-68734780D01*
X-30059824Y-74384780D02*
X-30059824Y-74624780D01*
X-39459824Y-68734780D02*
X-41009824Y-68734780D01*
X-41009824Y-71814780D02*
X-41009824Y-72284780D01*
X-41009824Y-72284780D02*
G75*
G03*
X-40509824Y-72784780I499996J-4D01*
G01*
X-30059824Y-70734780D02*
G75*
G03*
X-32059824Y-68734780I-2000005J-5D01*
G01*
X-33650678Y-74624780D02*
G75*
G03*
X-35945000Y-72784780I-2293456J-509332D01*
G01*
D13*
%TO.C,D54*%
X-72070000Y-107580000D02*
X-72070000Y-103680000D01*
X-72070000Y-107580000D02*
X-70070000Y-107580000D01*
X-70070000Y-107580000D02*
X-70070000Y-103680000D01*
%TO.C,D40*%
X-53020000Y-144410000D02*
X-53020000Y-140510000D01*
X-53020000Y-144410000D02*
X-51020000Y-144410000D01*
X-51020000Y-144410000D02*
X-51020000Y-140510000D01*
%TO.C,D43*%
X-110170000Y-139330000D02*
X-110170000Y-135430000D01*
X-110170000Y-139330000D02*
X-108170000Y-139330000D01*
X-108170000Y-139330000D02*
X-108170000Y-135430000D01*
%TO.C,D48*%
X-110170000Y-120280000D02*
X-110170000Y-116380000D01*
X-110170000Y-120280000D02*
X-108170000Y-120280000D01*
X-108170000Y-120280000D02*
X-108170000Y-116380000D01*
%TO.C,D51*%
X-129220000Y-99960000D02*
X-129220000Y-96060000D01*
X-129220000Y-99960000D02*
X-127220000Y-99960000D01*
X-127220000Y-99960000D02*
X-127220000Y-96060000D01*
%TO.C,D57*%
X-33970000Y-141870000D02*
X-33970000Y-137970000D01*
X-33970000Y-141870000D02*
X-31970000Y-141870000D01*
X-31970000Y-141870000D02*
X-31970000Y-137970000D01*
%TO.C,D24*%
X-72070000Y-164730000D02*
X-72070000Y-160830000D01*
X-72070000Y-164730000D02*
X-70070000Y-164730000D01*
X-70070000Y-164730000D02*
X-70070000Y-160830000D01*
%TO.C,D33*%
X-33970000Y-122820000D02*
X-33970000Y-118920000D01*
X-33970000Y-122820000D02*
X-31970000Y-122820000D01*
X-31970000Y-122820000D02*
X-31970000Y-118920000D01*
%TO.C,D44*%
X-72070000Y-126630000D02*
X-72070000Y-122730000D01*
X-72070000Y-126630000D02*
X-70070000Y-126630000D01*
X-70070000Y-126630000D02*
X-70070000Y-122730000D01*
%TO.C,D49*%
X-91120000Y-125360000D02*
X-91120000Y-121460000D01*
X-91120000Y-125360000D02*
X-89120000Y-125360000D01*
X-89120000Y-125360000D02*
X-89120000Y-121460000D01*
%TO.C,D50*%
X-53020000Y-106310000D02*
X-53020000Y-102410000D01*
X-53020000Y-106310000D02*
X-51020000Y-106310000D01*
X-51020000Y-106310000D02*
X-51020000Y-102410000D01*
%TO.C,D41*%
X-33970000Y-103770000D02*
X-33970000Y-99870000D01*
X-33970000Y-103770000D02*
X-31970000Y-103770000D01*
X-31970000Y-103770000D02*
X-31970000Y-99870000D01*
%TO.C,D34*%
X-129220000Y-157110000D02*
X-129220000Y-153210000D01*
X-129220000Y-157110000D02*
X-127220000Y-157110000D01*
X-127220000Y-157110000D02*
X-127220000Y-153210000D01*
%TO.C,D16*%
X-91120000Y-163460000D02*
X-91120000Y-159560000D01*
X-91120000Y-163460000D02*
X-89120000Y-163460000D01*
X-89120000Y-163460000D02*
X-89120000Y-159560000D01*
%TO.C,D39*%
X-72070000Y-145680000D02*
X-72070000Y-141780000D01*
X-72070000Y-145680000D02*
X-70070000Y-145680000D01*
X-70070000Y-145680000D02*
X-70070000Y-141780000D01*
%TO.C,D38*%
X-91120000Y-144410000D02*
X-91120000Y-140510000D01*
X-91120000Y-144410000D02*
X-89120000Y-144410000D01*
X-89120000Y-144410000D02*
X-89120000Y-140510000D01*
%TO.C,D46*%
X-25695000Y-73850000D02*
X-21795000Y-73850000D01*
X-25695000Y-73850000D02*
X-25695000Y-75850000D01*
X-25695000Y-75850000D02*
X-21795000Y-75850000D01*
%TO.C,D47*%
X-129220000Y-119010000D02*
X-129220000Y-115110000D01*
X-129220000Y-119010000D02*
X-127220000Y-119010000D01*
X-127220000Y-119010000D02*
X-127220000Y-115110000D01*
%TO.C,D58*%
X-62545000Y-82180000D02*
X-62545000Y-78280000D01*
X-62545000Y-82180000D02*
X-60545000Y-82180000D01*
X-60545000Y-82180000D02*
X-60545000Y-78280000D01*
%TO.C,D52*%
X-110170000Y-101230000D02*
X-110170000Y-97330000D01*
X-110170000Y-101230000D02*
X-108170000Y-101230000D01*
X-108170000Y-101230000D02*
X-108170000Y-97330000D01*
%TO.C,D42*%
X-129220000Y-138060000D02*
X-129220000Y-134160000D01*
X-129220000Y-138060000D02*
X-127220000Y-138060000D01*
X-127220000Y-138060000D02*
X-127220000Y-134160000D01*
%TO.C,D56*%
X-33970000Y-160920000D02*
X-33970000Y-157020000D01*
X-33970000Y-160920000D02*
X-31970000Y-160920000D01*
X-31970000Y-160920000D02*
X-31970000Y-157020000D01*
%TO.C,D55*%
X-43495000Y-82180000D02*
X-43495000Y-78280000D01*
X-43495000Y-82180000D02*
X-41495000Y-82180000D01*
X-41495000Y-82180000D02*
X-41495000Y-78280000D01*
%TO.C,D45*%
X-53020000Y-125360000D02*
X-53020000Y-121460000D01*
X-53020000Y-125360000D02*
X-51020000Y-125360000D01*
X-51020000Y-125360000D02*
X-51020000Y-121460000D01*
%TO.C,D53*%
X-91120000Y-106310000D02*
X-91120000Y-102410000D01*
X-91120000Y-106310000D02*
X-89120000Y-106310000D01*
X-89120000Y-106310000D02*
X-89120000Y-102410000D01*
%TO.C,D8*%
X-110170000Y-158380000D02*
X-110170000Y-154480000D01*
X-110170000Y-158380000D02*
X-108170000Y-158380000D01*
X-108170000Y-158380000D02*
X-108170000Y-154480000D01*
%TO.C,D32*%
X-53020000Y-163460000D02*
X-53020000Y-159560000D01*
X-53020000Y-163460000D02*
X-51020000Y-163460000D01*
X-51020000Y-163460000D02*
X-51020000Y-159560000D01*
%TO.C,Dx0*%
X-113742000Y-153844000D02*
X-113742000Y-158035000D01*
X-117298000Y-153844000D02*
X-117298000Y-157908000D01*
X-115520000Y-153844000D02*
X-117298000Y-153844000D01*
X-113742000Y-153844000D02*
X-115520000Y-153844000D01*
X-115520000Y-153844000D02*
X-115520000Y-156130000D01*
%TO.C,Dx2*%
X-75642000Y-122094000D02*
X-75642000Y-126285000D01*
X-79198000Y-122094000D02*
X-79198000Y-126158000D01*
X-77420000Y-122094000D02*
X-79198000Y-122094000D01*
X-75642000Y-122094000D02*
X-77420000Y-122094000D01*
X-77420000Y-122094000D02*
X-77420000Y-124380000D01*
%TO.C,Dx3*%
X-56592000Y-104314000D02*
X-56592000Y-108505000D01*
X-60148000Y-104314000D02*
X-60148000Y-108378000D01*
X-58370000Y-104314000D02*
X-60148000Y-104314000D01*
X-56592000Y-104314000D02*
X-58370000Y-104314000D01*
X-58370000Y-104314000D02*
X-58370000Y-106600000D01*
%TO.C,Dx4*%
X-36272000Y-87169000D02*
X-36272000Y-91360000D01*
X-39828000Y-87169000D02*
X-39828000Y-91233000D01*
X-38050000Y-87169000D02*
X-39828000Y-87169000D01*
X-36272000Y-87169000D02*
X-38050000Y-87169000D01*
X-38050000Y-87169000D02*
X-38050000Y-89455000D01*
%TO.C,Dx1*%
X-94692000Y-136064000D02*
X-94692000Y-140255000D01*
X-98248000Y-136064000D02*
X-98248000Y-140128000D01*
X-96470000Y-136064000D02*
X-98248000Y-136064000D01*
X-94692000Y-136064000D02*
X-96470000Y-136064000D01*
X-96470000Y-136064000D02*
X-96470000Y-138350000D01*
%TO.C,Dx5*%
X-22937000Y-77644000D02*
X-22937000Y-81835000D01*
X-26493000Y-77644000D02*
X-26493000Y-81708000D01*
X-24715000Y-77644000D02*
X-26493000Y-77644000D01*
X-22937000Y-77644000D02*
X-24715000Y-77644000D01*
X-24715000Y-77644000D02*
X-24715000Y-79930000D01*
%TO.C,U2*%
D14*
X-157607000Y-635000D02*
G75*
G03*
X-157607000Y-635000I-127000J0D01*
G01*
D13*
X-155194000Y381000D02*
X-157734000Y381000D01*
X-157734000Y381000D02*
X-157734000Y-1651000D01*
X-157734000Y-1651000D02*
X-155194000Y-1651000D01*
X-155194000Y-1651000D02*
X-155194000Y381000D01*
%TO.C,U1*%
X2971000Y-145081000D02*
X431000Y-145081000D01*
X431000Y-145081000D02*
X431000Y-143049000D01*
X431000Y-143049000D02*
X2971000Y-143049000D01*
X2971000Y-143049000D02*
X2971000Y-145081000D01*
D14*
X558000Y-144065000D02*
G75*
G03*
X558000Y-144065000I-127000J0D01*
G01*
%TD*%
%LPC*%
D15*
%TO.C,SWL3-0*%
X-67260000Y-152955000D03*
D16*
X-59640000Y-158035000D03*
D17*
X-64720000Y-158035000D03*
D16*
X-69800000Y-158035000D03*
D18*
X-57360000Y-155495000D03*
D19*
X-59210000Y-155495000D03*
D20*
X-60910000Y-155495000D03*
D18*
X-70810000Y-152955000D03*
%TD*%
D15*
%TO.C,SWL0-1*%
X-124410000Y-145335000D03*
D16*
X-116790000Y-150415000D03*
D17*
X-121870000Y-150415000D03*
D16*
X-126950000Y-150415000D03*
D18*
X-114510000Y-147875000D03*
D19*
X-116360000Y-147875000D03*
D20*
X-118060000Y-147875000D03*
D18*
X-127960000Y-145335000D03*
%TD*%
D15*
%TO.C,SWL3-4*%
X-67260000Y-95805000D03*
D16*
X-59640000Y-100885000D03*
D17*
X-64720000Y-100885000D03*
D16*
X-69800000Y-100885000D03*
D18*
X-57360000Y-98345000D03*
D19*
X-59210000Y-98345000D03*
D20*
X-60910000Y-98345000D03*
D18*
X-70810000Y-95805000D03*
%TD*%
D15*
%TO.C,SWL5-2*%
X-29160000Y-111045000D03*
D16*
X-21540000Y-116125000D03*
D17*
X-26620000Y-116125000D03*
D16*
X-31700000Y-116125000D03*
D18*
X-19260000Y-113585000D03*
D19*
X-21110000Y-113585000D03*
D20*
X-22810000Y-113585000D03*
D18*
X-32710000Y-111045000D03*
%TD*%
D15*
%TO.C,SWL4-2*%
X-48210000Y-113585000D03*
D16*
X-40590000Y-118665000D03*
D17*
X-45670000Y-118665000D03*
D16*
X-50750000Y-118665000D03*
D18*
X-38310000Y-116125000D03*
D19*
X-40160000Y-116125000D03*
D20*
X-41860000Y-116125000D03*
D18*
X-51760000Y-113585000D03*
%TD*%
D15*
%TO.C,SWL3-2*%
X-67260000Y-114855000D03*
D16*
X-59640000Y-119935000D03*
D17*
X-64720000Y-119935000D03*
D16*
X-69800000Y-119935000D03*
D18*
X-57360000Y-117395000D03*
D19*
X-59210000Y-117395000D03*
D20*
X-60910000Y-117395000D03*
D18*
X-70810000Y-114855000D03*
%TD*%
D15*
%TO.C,SWL1-0*%
X-105360000Y-146605000D03*
D16*
X-97740000Y-151685000D03*
D17*
X-102820000Y-151685000D03*
D16*
X-107900000Y-151685000D03*
D18*
X-95460000Y-149145000D03*
D19*
X-97310000Y-149145000D03*
D20*
X-99010000Y-149145000D03*
D18*
X-108910000Y-146605000D03*
%TD*%
D15*
%TO.C,SWL5-1*%
X-29160000Y-130095000D03*
D16*
X-21540000Y-135175000D03*
D17*
X-26620000Y-135175000D03*
D16*
X-31700000Y-135175000D03*
D18*
X-19260000Y-132635000D03*
D19*
X-21110000Y-132635000D03*
D20*
X-22810000Y-132635000D03*
D18*
X-32710000Y-130095000D03*
%TD*%
D15*
%TO.C,SWL2-3*%
X-86310000Y-113585000D03*
D16*
X-78690000Y-118665000D03*
D17*
X-83770000Y-118665000D03*
D16*
X-88850000Y-118665000D03*
D18*
X-76410000Y-116125000D03*
D19*
X-78260000Y-116125000D03*
D20*
X-79960000Y-116125000D03*
D18*
X-89860000Y-113585000D03*
%TD*%
D15*
%TO.C,SWL5-4*%
X-15967063Y-70441429D03*
D16*
X-6827949Y-71030838D03*
D17*
X-11227358Y-73570838D03*
D16*
X-15626767Y-76110838D03*
D21*
X-6123411Y-67691133D03*
D22*
X-7725558Y-68616133D03*
D20*
X-9197801Y-69466133D03*
D21*
X-19041453Y-72216429D03*
%TD*%
D15*
%TO.C,SWL5-0*%
X-29160000Y-149145000D03*
D16*
X-21540000Y-154225000D03*
D17*
X-26620000Y-154225000D03*
D16*
X-31700000Y-154225000D03*
D18*
X-19260000Y-151685000D03*
D19*
X-21110000Y-151685000D03*
D20*
X-22810000Y-151685000D03*
D18*
X-32710000Y-149145000D03*
%TD*%
D15*
%TO.C,SWL4-0*%
X-48210000Y-151685000D03*
D16*
X-40590000Y-156765000D03*
D17*
X-45670000Y-156765000D03*
D16*
X-50750000Y-156765000D03*
D18*
X-38310000Y-154225000D03*
D19*
X-40160000Y-154225000D03*
D20*
X-41860000Y-154225000D03*
D18*
X-51760000Y-151685000D03*
%TD*%
D15*
%TO.C,SWL1-4*%
X-105360000Y-89455000D03*
D16*
X-97740000Y-94535000D03*
D17*
X-102820000Y-94535000D03*
D16*
X-107900000Y-94535000D03*
D18*
X-95460000Y-91995000D03*
D19*
X-97310000Y-91995000D03*
D20*
X-99010000Y-91995000D03*
D18*
X-108910000Y-89455000D03*
%TD*%
D15*
%TO.C,SWL3-5*%
X-57735000Y-70405000D03*
D16*
X-50115000Y-75485000D03*
D17*
X-55195000Y-75485000D03*
D16*
X-60275000Y-75485000D03*
D18*
X-47835000Y-72945000D03*
D19*
X-49685000Y-72945000D03*
D20*
X-51385000Y-72945000D03*
D18*
X-61285000Y-70405000D03*
%TD*%
D15*
%TO.C,SWL1-2*%
X-105360000Y-127555000D03*
D16*
X-97740000Y-132635000D03*
D17*
X-102820000Y-132635000D03*
D16*
X-107900000Y-132635000D03*
D18*
X-95460000Y-130095000D03*
D19*
X-97310000Y-130095000D03*
D20*
X-99010000Y-130095000D03*
D18*
X-108910000Y-127555000D03*
%TD*%
D15*
%TO.C,SWL5-3*%
X-29160000Y-91995000D03*
D16*
X-21540000Y-97075000D03*
D17*
X-26620000Y-97075000D03*
D16*
X-31700000Y-97075000D03*
D18*
X-19260000Y-94535000D03*
D19*
X-21110000Y-94535000D03*
D20*
X-22810000Y-94535000D03*
D18*
X-32710000Y-91995000D03*
%TD*%
D15*
%TO.C,SWL4-3*%
X-48210000Y-94535000D03*
D16*
X-40590000Y-99615000D03*
D17*
X-45670000Y-99615000D03*
D16*
X-50750000Y-99615000D03*
D18*
X-38310000Y-97075000D03*
D19*
X-40160000Y-97075000D03*
D20*
X-41860000Y-97075000D03*
D18*
X-51760000Y-94535000D03*
%TD*%
D15*
%TO.C,SWL1-3*%
X-105360000Y-108505000D03*
D16*
X-97740000Y-113585000D03*
D17*
X-102820000Y-113585000D03*
D16*
X-107900000Y-113585000D03*
D18*
X-95460000Y-111045000D03*
D19*
X-97310000Y-111045000D03*
D20*
X-99010000Y-111045000D03*
D18*
X-108910000Y-108505000D03*
%TD*%
D15*
%TO.C,SWL0-2*%
X-124410000Y-126285000D03*
D16*
X-116790000Y-131365000D03*
D17*
X-121870000Y-131365000D03*
D16*
X-126950000Y-131365000D03*
D18*
X-114510000Y-128825000D03*
D19*
X-116360000Y-128825000D03*
D20*
X-118060000Y-128825000D03*
D18*
X-127960000Y-126285000D03*
%TD*%
D15*
%TO.C,SWL0-3*%
X-124410000Y-107235000D03*
D16*
X-116790000Y-112315000D03*
D17*
X-121870000Y-112315000D03*
D16*
X-126950000Y-112315000D03*
D18*
X-114510000Y-109775000D03*
D19*
X-116360000Y-109775000D03*
D20*
X-118060000Y-109775000D03*
D18*
X-127960000Y-107235000D03*
%TD*%
D15*
%TO.C,SWL2-0*%
X-86310000Y-151685000D03*
D16*
X-78690000Y-156765000D03*
D17*
X-83770000Y-156765000D03*
D16*
X-88850000Y-156765000D03*
D18*
X-76410000Y-154225000D03*
D19*
X-78260000Y-154225000D03*
D20*
X-79960000Y-154225000D03*
D18*
X-89860000Y-151685000D03*
%TD*%
D15*
%TO.C,SWL0-4*%
X-124410000Y-88185000D03*
D16*
X-116790000Y-93265000D03*
D17*
X-121870000Y-93265000D03*
D16*
X-126950000Y-93265000D03*
D18*
X-114510000Y-90725000D03*
D19*
X-116360000Y-90725000D03*
D20*
X-118060000Y-90725000D03*
D18*
X-127960000Y-88185000D03*
%TD*%
D15*
%TO.C,SWL4-1*%
X-48210000Y-132635000D03*
D16*
X-40590000Y-137715000D03*
D17*
X-45670000Y-137715000D03*
D16*
X-50750000Y-137715000D03*
D18*
X-38310000Y-135175000D03*
D19*
X-40160000Y-135175000D03*
D20*
X-41860000Y-135175000D03*
D18*
X-51760000Y-132635000D03*
%TD*%
D15*
%TO.C,SWL3-1*%
X-67260000Y-133905000D03*
D16*
X-59640000Y-138985000D03*
D17*
X-64720000Y-138985000D03*
D16*
X-69800000Y-138985000D03*
D18*
X-57360000Y-136445000D03*
D19*
X-59210000Y-136445000D03*
D20*
X-60910000Y-136445000D03*
D18*
X-70810000Y-133905000D03*
%TD*%
D15*
%TO.C,SWL2-4*%
X-86310000Y-94535000D03*
D16*
X-78690000Y-99615000D03*
D17*
X-83770000Y-99615000D03*
D16*
X-88850000Y-99615000D03*
D18*
X-76410000Y-97075000D03*
D19*
X-78260000Y-97075000D03*
D20*
X-79960000Y-97075000D03*
D18*
X-89860000Y-94535000D03*
%TD*%
D15*
%TO.C,SWL2-1*%
X-86310000Y-132635000D03*
D16*
X-78690000Y-137715000D03*
D17*
X-83770000Y-137715000D03*
D16*
X-88850000Y-137715000D03*
D18*
X-76410000Y-135175000D03*
D19*
X-78260000Y-135175000D03*
D20*
X-79960000Y-135175000D03*
D18*
X-89860000Y-132635000D03*
%TD*%
D15*
%TO.C,SWL4-5*%
X-38685000Y-70405000D03*
D16*
X-31065000Y-75485000D03*
D17*
X-36145000Y-75485000D03*
D16*
X-41225000Y-75485000D03*
D18*
X-28785000Y-72945000D03*
D19*
X-30635000Y-72945000D03*
D20*
X-32335000Y-72945000D03*
D18*
X-42235000Y-70405000D03*
%TD*%
D15*
%TO.C,SWR4-2*%
X-69215000Y-36195000D03*
D16*
X-61595000Y-31115000D03*
D17*
X-66675000Y-31115000D03*
D16*
X-71755000Y-31115000D03*
D20*
X-62865000Y-33655000D03*
%TD*%
D15*
%TO.C,SWR2-4*%
X-107315000Y-48895000D03*
D16*
X-99695000Y-43815000D03*
D17*
X-104775000Y-43815000D03*
D16*
X-109855000Y-43815000D03*
D20*
X-100965000Y-46355000D03*
%TD*%
D15*
%TO.C,SWR5-2*%
X-50165000Y-37465000D03*
D16*
X-42545000Y-32385000D03*
D17*
X-47625000Y-32385000D03*
D16*
X-52705000Y-32385000D03*
D20*
X-43815000Y-34925000D03*
%TD*%
D15*
%TO.C,SWR1-0*%
X-126365000Y6985000D03*
D16*
X-118745000Y12065000D03*
D17*
X-123825000Y12065000D03*
D16*
X-128905000Y12065000D03*
D20*
X-120015000Y9525000D03*
%TD*%
%TO.C,SWR4-3*%
X-62865000Y-52705000D03*
D16*
X-71755000Y-50165000D03*
D17*
X-66675000Y-50165000D03*
D16*
X-61595000Y-50165000D03*
D15*
X-69215000Y-55245000D03*
%TD*%
%TO.C,SWR0-5*%
X-157927347Y-76798571D03*
D16*
X-153868233Y-68589162D03*
D17*
X-158267642Y-71129162D03*
D16*
X-162667051Y-73669162D03*
D20*
X-153698085Y-71423867D03*
%TD*%
D15*
%TO.C,SWR5-3*%
X-50165000Y-56515000D03*
D16*
X-42545000Y-51435000D03*
D17*
X-47625000Y-51435000D03*
D16*
X-52705000Y-51435000D03*
D20*
X-43815000Y-53975000D03*
%TD*%
D15*
%TO.C,SWR3-2*%
X-88265000Y-31115000D03*
D16*
X-80645000Y-26035000D03*
D17*
X-85725000Y-26035000D03*
D16*
X-90805000Y-26035000D03*
D20*
X-81915000Y-28575000D03*
%TD*%
D15*
%TO.C,SWR2-0*%
X-107315000Y8255000D03*
D16*
X-99695000Y13335000D03*
D17*
X-104775000Y13335000D03*
D16*
X-109855000Y13335000D03*
D20*
X-100965000Y10795000D03*
%TD*%
D15*
%TO.C,SWR6-0*%
X-31115000Y635000D03*
D16*
X-23495000Y5715000D03*
D17*
X-28575000Y5715000D03*
D16*
X-33655000Y5715000D03*
D20*
X-24765000Y3175000D03*
%TD*%
D15*
%TO.C,SWR0-4*%
X-145415000Y-52705000D03*
D16*
X-137795000Y-47625000D03*
D17*
X-142875000Y-47625000D03*
D16*
X-147955000Y-47625000D03*
D20*
X-139065000Y-50165000D03*
%TD*%
D15*
%TO.C,SWR1-2*%
X-126365000Y-12065000D03*
D16*
X-118745000Y-6985000D03*
D17*
X-123825000Y-6985000D03*
D16*
X-128905000Y-6985000D03*
D20*
X-120015000Y-9525000D03*
%TD*%
D15*
%TO.C,SWR5-0*%
X-50165000Y635000D03*
D16*
X-42545000Y5715000D03*
D17*
X-47625000Y5715000D03*
D16*
X-52705000Y5715000D03*
D20*
X-43815000Y3175000D03*
%TD*%
D15*
%TO.C,SWR2-5*%
X-116840000Y-74295000D03*
D16*
X-109220000Y-69215000D03*
D17*
X-114300000Y-69215000D03*
D16*
X-119380000Y-69215000D03*
D20*
X-110490000Y-71755000D03*
%TD*%
D15*
%TO.C,SWR4-0*%
X-69215000Y1905000D03*
D16*
X-61595000Y6985000D03*
D17*
X-66675000Y6985000D03*
D16*
X-71755000Y6985000D03*
D20*
X-62865000Y4445000D03*
%TD*%
D15*
%TO.C,SWR1-5*%
X-135890000Y-74295000D03*
D16*
X-128270000Y-69215000D03*
D17*
X-133350000Y-69215000D03*
D16*
X-138430000Y-69215000D03*
D20*
X-129540000Y-71755000D03*
%TD*%
D15*
%TO.C,SWR0-3*%
X-145415000Y-33655000D03*
D16*
X-137795000Y-28575000D03*
D17*
X-142875000Y-28575000D03*
D16*
X-147955000Y-28575000D03*
D20*
X-139065000Y-31115000D03*
%TD*%
D15*
%TO.C,SWR6-1*%
X-31115000Y-18415000D03*
D16*
X-23495000Y-13335000D03*
D17*
X-28575000Y-13335000D03*
D16*
X-33655000Y-13335000D03*
D20*
X-24765000Y-15875000D03*
%TD*%
D15*
%TO.C,SWR3-4*%
X-88265000Y-50165000D03*
D16*
X-80645000Y-45085000D03*
D17*
X-85725000Y-45085000D03*
D16*
X-90805000Y-45085000D03*
D20*
X-81915000Y-47625000D03*
%TD*%
D15*
%TO.C,SWR5-1*%
X-50165000Y-18415000D03*
D16*
X-42545000Y-13335000D03*
D17*
X-47625000Y-13335000D03*
D16*
X-52705000Y-13335000D03*
D20*
X-43815000Y-15875000D03*
%TD*%
D15*
%TO.C,SWR3-1*%
X-88265000Y-12065000D03*
D16*
X-80645000Y-6985000D03*
D17*
X-85725000Y-6985000D03*
D16*
X-90805000Y-6985000D03*
D20*
X-81915000Y-9525000D03*
%TD*%
D15*
%TO.C,SWR0-2*%
X-145415000Y-14605000D03*
D16*
X-137795000Y-9525000D03*
D17*
X-142875000Y-9525000D03*
D16*
X-147955000Y-9525000D03*
D20*
X-139065000Y-12065000D03*
%TD*%
D15*
%TO.C,SWR2-3*%
X-107315000Y-29845000D03*
D16*
X-99695000Y-24765000D03*
D17*
X-104775000Y-24765000D03*
D16*
X-109855000Y-24765000D03*
D20*
X-100965000Y-27305000D03*
%TD*%
D15*
%TO.C,SWR6-3*%
X-31115000Y-56515000D03*
D16*
X-23495000Y-51435000D03*
D17*
X-28575000Y-51435000D03*
D16*
X-33655000Y-51435000D03*
D20*
X-24765000Y-53975000D03*
%TD*%
D15*
%TO.C,SWR3-0*%
X-88265000Y6985000D03*
D16*
X-80645000Y12065000D03*
D17*
X-85725000Y12065000D03*
D16*
X-90805000Y12065000D03*
D20*
X-81915000Y9525000D03*
%TD*%
D15*
%TO.C,SWR4-1*%
X-69215000Y-17145000D03*
D16*
X-61595000Y-12065000D03*
D17*
X-66675000Y-12065000D03*
D16*
X-71755000Y-12065000D03*
D20*
X-62865000Y-14605000D03*
%TD*%
D15*
%TO.C,SWR1-3*%
X-126365000Y-31115000D03*
D16*
X-118745000Y-26035000D03*
D17*
X-123825000Y-26035000D03*
D16*
X-128905000Y-26035000D03*
D20*
X-120015000Y-28575000D03*
%TD*%
D15*
%TO.C,SWR2-1*%
X-107315000Y-10795000D03*
D16*
X-99695000Y-5715000D03*
D17*
X-104775000Y-5715000D03*
D16*
X-109855000Y-5715000D03*
D20*
X-100965000Y-8255000D03*
%TD*%
D15*
%TO.C,SWR1-4*%
X-126365000Y-50165000D03*
D16*
X-118745000Y-45085000D03*
D17*
X-123825000Y-45085000D03*
D16*
X-128905000Y-45085000D03*
D20*
X-120015000Y-47625000D03*
%TD*%
D15*
%TO.C,SWR6-2*%
X-31115000Y-37465000D03*
D16*
X-23495000Y-32385000D03*
D17*
X-28575000Y-32385000D03*
D16*
X-33655000Y-32385000D03*
D20*
X-24765000Y-34925000D03*
%TD*%
D15*
%TO.C,SWR0-1*%
X-145415000Y4445000D03*
D16*
X-137795000Y9525000D03*
D17*
X-142875000Y9525000D03*
D16*
X-147955000Y9525000D03*
D20*
X-139065000Y6985000D03*
%TD*%
D23*
%TO.C,D54*%
X-71070000Y-106980000D03*
X-71070000Y-103680000D03*
%TD*%
%TO.C,D40*%
X-52020000Y-143810000D03*
X-52020000Y-140510000D03*
%TD*%
%TO.C,D43*%
X-109170000Y-138730000D03*
X-109170000Y-135430000D03*
%TD*%
%TO.C,D48*%
X-109170000Y-119680000D03*
X-109170000Y-116380000D03*
%TD*%
%TO.C,D51*%
X-128220000Y-99360000D03*
X-128220000Y-96060000D03*
%TD*%
%TO.C,D57*%
X-32970000Y-141270000D03*
X-32970000Y-137970000D03*
%TD*%
%TO.C,D24*%
X-71070000Y-164130000D03*
X-71070000Y-160830000D03*
%TD*%
%TO.C,D33*%
X-32970000Y-122220000D03*
X-32970000Y-118920000D03*
%TD*%
%TO.C,D44*%
X-71070000Y-126030000D03*
X-71070000Y-122730000D03*
%TD*%
%TO.C,D49*%
X-90120000Y-124760000D03*
X-90120000Y-121460000D03*
%TD*%
%TO.C,D50*%
X-52020000Y-105710000D03*
X-52020000Y-102410000D03*
%TD*%
%TO.C,D41*%
X-32970000Y-103170000D03*
X-32970000Y-99870000D03*
%TD*%
%TO.C,D34*%
X-128220000Y-156510000D03*
X-128220000Y-153210000D03*
%TD*%
%TO.C,D16*%
X-90120000Y-162860000D03*
X-90120000Y-159560000D03*
%TD*%
%TO.C,D39*%
X-71070000Y-145080000D03*
X-71070000Y-141780000D03*
%TD*%
%TO.C,D38*%
X-90120000Y-143810000D03*
X-90120000Y-140510000D03*
%TD*%
D24*
%TO.C,D46*%
X-25095000Y-74850000D03*
X-21795000Y-74850000D03*
%TD*%
D23*
%TO.C,D47*%
X-128220000Y-118410000D03*
X-128220000Y-115110000D03*
%TD*%
%TO.C,D58*%
X-61545000Y-81580000D03*
X-61545000Y-78280000D03*
%TD*%
%TO.C,D52*%
X-109170000Y-100630000D03*
X-109170000Y-97330000D03*
%TD*%
%TO.C,D42*%
X-128220000Y-137460000D03*
X-128220000Y-134160000D03*
%TD*%
%TO.C,D56*%
X-32970000Y-160320000D03*
X-32970000Y-157020000D03*
%TD*%
%TO.C,D55*%
X-42495000Y-81580000D03*
X-42495000Y-78280000D03*
%TD*%
%TO.C,D45*%
X-52020000Y-124760000D03*
X-52020000Y-121460000D03*
%TD*%
%TO.C,D53*%
X-90120000Y-105710000D03*
X-90120000Y-102410000D03*
%TD*%
%TO.C,D8*%
X-109170000Y-157780000D03*
X-109170000Y-154480000D03*
%TD*%
%TO.C,D32*%
X-52020000Y-162860000D03*
X-52020000Y-159560000D03*
%TD*%
D25*
%TO.C,Dx0*%
X-116497900Y-154860000D03*
X-114542100Y-154860000D03*
D26*
X-115520000Y-157488900D03*
%TD*%
D25*
%TO.C,Dx2*%
X-78397900Y-123110000D03*
X-76442100Y-123110000D03*
D26*
X-77420000Y-125738900D03*
%TD*%
D25*
%TO.C,Dx3*%
X-59347900Y-105330000D03*
X-57392100Y-105330000D03*
D26*
X-58370000Y-107958900D03*
%TD*%
D25*
%TO.C,Dx4*%
X-39027900Y-88185000D03*
X-37072100Y-88185000D03*
D26*
X-38050000Y-90813900D03*
%TD*%
D25*
%TO.C,Dx1*%
X-97447900Y-137080000D03*
X-95492100Y-137080000D03*
D26*
X-96470000Y-139708900D03*
%TD*%
D25*
%TO.C,Dx5*%
X-25692900Y-78660000D03*
X-23737100Y-78660000D03*
D26*
X-24715000Y-81288900D03*
%TD*%
D27*
%TO.C,mouse-bite-5mm-slot*%
X-56660000Y-65710000D03*
X-55160000Y-61210000D03*
X-57410000Y-61210000D03*
X-57410000Y-65710000D03*
X-52910000Y-65710000D03*
X-58160000Y-65710000D03*
X-55910000Y-65710000D03*
X-53660000Y-61210000D03*
X-58910000Y-65710000D03*
X-54410000Y-61210000D03*
X-55160000Y-65710000D03*
X-55910000Y-61210000D03*
X-56660000Y-61210000D03*
X-54410000Y-65710000D03*
X-58910000Y-61210000D03*
X-52910000Y-61210000D03*
X-53660000Y-65710000D03*
X-58160000Y-61210000D03*
%TD*%
%TO.C,mouse-bite-5mm-slot*%
X-115835000Y-78990000D03*
X-111335000Y-83490000D03*
X-110585000Y-78990000D03*
X-116585000Y-78990000D03*
X-112085000Y-83490000D03*
X-114335000Y-78990000D03*
X-113585000Y-78990000D03*
X-112835000Y-83490000D03*
X-112085000Y-78990000D03*
X-116585000Y-83490000D03*
X-111335000Y-78990000D03*
X-113585000Y-83490000D03*
X-115835000Y-83490000D03*
X-110585000Y-83490000D03*
X-115085000Y-83490000D03*
X-115085000Y-78990000D03*
X-112835000Y-78990000D03*
X-114335000Y-83490000D03*
%TD*%
D28*
%TO.C,U2*%
X-156210000Y-13335000D03*
X-171450000Y-13335000D03*
D29*
X-168330000Y-5415000D03*
D28*
X-156210000Y1905000D03*
X-156210000Y-635000D03*
X-156210000Y-3175000D03*
X-156210000Y-5715000D03*
X-156210000Y-8255000D03*
X-156210000Y-10795000D03*
X-171450000Y-10795000D03*
X-171450000Y-8255000D03*
X-171450000Y-5715000D03*
X-171450000Y-3175000D03*
X-171450000Y-635000D03*
X-171450000Y1905000D03*
%TD*%
D29*
%TO.C,U1*%
X-10165000Y-139285000D03*
D28*
X1955000Y-146605000D03*
X1955000Y-144065000D03*
X1955000Y-141525000D03*
X1955000Y-138985000D03*
X1955000Y-136445000D03*
X1955000Y-133905000D03*
X1955000Y-131365000D03*
X-13285000Y-131365000D03*
X-13285000Y-133905000D03*
X-13285000Y-136445000D03*
X-13285000Y-138985000D03*
X-13285000Y-141525000D03*
X-13285000Y-144065000D03*
X-13285000Y-146605000D03*
%TD*%
D29*
%TO.C,TP3*%
X-165100000Y-5415000D03*
%TD*%
%TO.C,TP4*%
X-162433000Y-5415000D03*
%TD*%
D28*
%TO.C,Display1*%
X-585000Y-93519000D03*
X-3125000Y-93519000D03*
X-5665000Y-93519000D03*
X-8205000Y-93519000D03*
X-10745000Y-93519000D03*
%TD*%
D29*
%TO.C,TP1*%
X-6935000Y-139285000D03*
%TD*%
%TO.C,TP2*%
X-4268000Y-139285000D03*
%TD*%
D30*
%TO.C,Tog1*%
X-165330000Y3542500D03*
D31*
X-160230000Y4512500D03*
D30*
X-162330000Y3542500D03*
D31*
X-167430000Y2472500D03*
X-160230000Y2472500D03*
D32*
X-161580000Y1672500D03*
X-164580000Y1672500D03*
X-166080000Y1672500D03*
%TD*%
D30*
%TO.C,Tog0*%
X-4165000Y-148242500D03*
X-7165000Y-148242500D03*
%TD*%
D33*
%TO.C,REF\u002A\u002A*%
X-57150000Y-3175000D03*
%TD*%
%TO.C,REF\u002A\u002A*%
X-156210000Y-59690000D03*
%TD*%
%TO.C,REF\u002A\u002A*%
X-114300000Y-33655000D03*
%TD*%
%TO.C,REF\u002A\u002A*%
X-57150000Y-40640000D03*
%TD*%
%TO.C,REF\u002A\u002A*%
X-133350000Y2540000D03*
%TD*%
%TO.C,REF\u002A\u002A*%
X-123825000Y-67945000D03*
%TD*%
%TO.C,REF\u002A\u002A*%
X-55195000Y-111045000D03*
%TD*%
%TO.C,REF\u002A\u002A*%
X-45670000Y-76755000D03*
%TD*%
%TO.C,REF\u002A\u002A*%
X-13285000Y-85010000D03*
%TD*%
%TO.C,REF\u002A\u002A*%
X-36145000Y-147240000D03*
%TD*%
%TO.C,REF\u002A\u002A*%
X-112345000Y-141525000D03*
%TD*%
%TO.C,REF\u002A\u002A*%
X-112345000Y-104060000D03*
%TD*%
M02*
