%TF.GenerationSoftware,KiCad,Pcbnew,(6.0.7-1)-1*%
%TF.CreationDate,2023-01-14T16:38:51+08:00*%
%TF.ProjectId,prelude,7072656c-7564-4652-9e6b-696361645f70,rev?*%
%TF.SameCoordinates,Original*%
%TF.FileFunction,Copper,L1,Top*%
%TF.FilePolarity,Positive*%
%FSLAX46Y46*%
G04 Gerber Fmt 4.6, Leading zero omitted, Abs format (unit mm)*
G04 Created by KiCad (PCBNEW (6.0.7-1)-1) date 2023-01-14 16:38:51*
%MOMM*%
%LPD*%
G01*
G04 APERTURE LIST*
G04 Aperture macros list*
%AMRoundRect*
0 Rectangle with rounded corners*
0 $1 Rounding radius*
0 $2 $3 $4 $5 $6 $7 $8 $9 X,Y pos of 4 corners*
0 Add a 4 corners polygon primitive as box body*
4,1,4,$2,$3,$4,$5,$6,$7,$8,$9,$2,$3,0*
0 Add four circle primitives for the rounded corners*
1,1,$1+$1,$2,$3*
1,1,$1+$1,$4,$5*
1,1,$1+$1,$6,$7*
1,1,$1+$1,$8,$9*
0 Add four rect primitives between the rounded corners*
20,1,$1+$1,$2,$3,$4,$5,0*
20,1,$1+$1,$4,$5,$6,$7,0*
20,1,$1+$1,$6,$7,$8,$9,0*
20,1,$1+$1,$8,$9,$2,$3,0*%
%AMRotRect*
0 Rectangle, with rotation*
0 The origin of the aperture is its center*
0 $1 length*
0 $2 width*
0 $3 Rotation angle, in degrees counterclockwise*
0 Add horizontal line*
21,1,$1,$2,0,0,$3*%
%AMFreePoly0*
4,1,27,0.669380,1.507580,0.673100,1.498600,0.673100,-1.498600,0.669380,-1.507580,0.660400,-1.511300,-0.254000,-1.511300,-0.255209,-1.510799,-0.256491,-1.511053,-0.259564,-1.508995,-0.262980,-1.507580,-0.263480,-1.506373,-0.264567,-1.505645,-0.924967,-0.515045,-0.925685,-0.511417,-0.927100,-0.508000,-0.927100,0.508000,-0.925685,0.511417,-0.924967,0.515045,-0.264567,1.505645,-0.263480,1.506373,
-0.262980,1.507580,-0.259564,1.508995,-0.256491,1.511053,-0.255209,1.510799,-0.254000,1.511300,0.660400,1.511300,0.669380,1.507580,0.669380,1.507580,$1*%
G04 Aperture macros list end*
%TA.AperFunction,SMDPad,CuDef*%
%ADD10RoundRect,0.250000X1.025000X1.000000X-1.025000X1.000000X-1.025000X-1.000000X1.025000X-1.000000X0*%
%TD*%
%TA.AperFunction,SMDPad,CuDef*%
%ADD11R,2.550000X2.500000*%
%TD*%
%TA.AperFunction,ComponentPad*%
%ADD12C,3.400000*%
%TD*%
%TA.AperFunction,SMDPad,CuDef*%
%ADD13RoundRect,0.250000X0.387676X1.378525X-1.387676X0.353525X-0.387676X-1.378525X1.387676X-0.353525X0*%
%TD*%
%TA.AperFunction,SMDPad,CuDef*%
%ADD14RotRect,2.550000X2.500000X210.000000*%
%TD*%
%TA.AperFunction,SMDPad,CuDef*%
%ADD15R,1.200000X0.900000*%
%TD*%
%TA.AperFunction,SMDPad,CuDef*%
%ADD16R,0.900000X1.200000*%
%TD*%
%TA.AperFunction,SMDPad,CuDef*%
%ADD17R,1.041400X1.524000*%
%TD*%
%TA.AperFunction,SMDPad,CuDef*%
%ADD18FreePoly0,270.000000*%
%TD*%
%TA.AperFunction,ComponentPad*%
%ADD19C,1.752600*%
%TD*%
%TA.AperFunction,ComponentPad*%
%ADD20C,2.000000*%
%TD*%
%TA.AperFunction,SMDPad,CuDef*%
%ADD21R,0.600000X0.600000*%
%TD*%
%TA.AperFunction,SMDPad,CuDef*%
%ADD22R,0.800000X1.000000*%
%TD*%
%TA.AperFunction,ViaPad*%
%ADD23C,0.800000*%
%TD*%
%TA.AperFunction,ViaPad*%
%ADD24C,0.600000*%
%TD*%
%TA.AperFunction,Conductor*%
%ADD25C,0.200000*%
%TD*%
%TA.AperFunction,Conductor*%
%ADD26C,0.300000*%
%TD*%
G04 APERTURE END LIST*
D10*
%TO.P,SWL3-0,1,1*%
%TO.N,L3*%
X-57360000Y-155495000D03*
D11*
X-59210000Y-155495000D03*
D12*
X-60910000Y-155495000D03*
D10*
%TO.P,SWL3-0,2,2*%
%TO.N,Net-(D24-Pad2)*%
X-70810000Y-152955000D03*
%TD*%
%TO.P,SWL0-1,1,1*%
%TO.N,L0*%
X-114510000Y-147875000D03*
D11*
X-116360000Y-147875000D03*
D12*
X-118060000Y-147875000D03*
D10*
%TO.P,SWL0-1,2,2*%
%TO.N,Net-(D34-Pad2)*%
X-127960000Y-145335000D03*
%TD*%
%TO.P,SWL3-4,1,1*%
%TO.N,L3*%
X-57360000Y-98345000D03*
D11*
X-59210000Y-98345000D03*
D12*
X-60910000Y-98345000D03*
D10*
%TO.P,SWL3-4,2,2*%
%TO.N,Net-(D54-Pad2)*%
X-70810000Y-95805000D03*
%TD*%
%TO.P,SWL5-2,1,1*%
%TO.N,L5*%
X-19260000Y-113585000D03*
D11*
X-21110000Y-113585000D03*
D12*
X-22810000Y-113585000D03*
D10*
%TO.P,SWL5-2,2,2*%
%TO.N,Net-(D33-Pad2)*%
X-32710000Y-111045000D03*
%TD*%
%TO.P,SWL4-2,1,1*%
%TO.N,L4*%
X-38310000Y-116125000D03*
D11*
X-40160000Y-116125000D03*
D12*
X-41860000Y-116125000D03*
D10*
%TO.P,SWL4-2,2,2*%
%TO.N,Net-(D45-Pad2)*%
X-51760000Y-113585000D03*
%TD*%
%TO.P,SWL3-2,1,1*%
%TO.N,L3*%
X-57360000Y-117395000D03*
D11*
X-59210000Y-117395000D03*
D12*
X-60910000Y-117395000D03*
D10*
%TO.P,SWL3-2,2,2*%
%TO.N,Net-(D44-Pad2)*%
X-70810000Y-114855000D03*
%TD*%
%TO.P,SWL1-0,1,1*%
%TO.N,L1*%
X-95460000Y-149145000D03*
D11*
X-97310000Y-149145000D03*
D12*
X-99010000Y-149145000D03*
D10*
%TO.P,SWL1-0,2,2*%
%TO.N,Net-(D8-Pad2)*%
X-108910000Y-146605000D03*
%TD*%
%TO.P,SWL5-1,1,1*%
%TO.N,L5*%
X-19260000Y-132635000D03*
D11*
X-21110000Y-132635000D03*
D12*
X-22810000Y-132635000D03*
D10*
%TO.P,SWL5-1,2,2*%
%TO.N,Net-(D57-Pad2)*%
X-32710000Y-130095000D03*
%TD*%
%TO.P,SWL2-3,1,1*%
%TO.N,L2*%
X-76410000Y-116125000D03*
D11*
X-78260000Y-116125000D03*
D12*
X-79960000Y-116125000D03*
D10*
%TO.P,SWL2-3,2,2*%
%TO.N,Net-(D49-Pad2)*%
X-89860000Y-113585000D03*
%TD*%
D13*
%TO.P,SWL5-4,1,1*%
%TO.N,L5*%
X-6123411Y-67691133D03*
D14*
X-7725558Y-68616133D03*
D12*
X-9197801Y-69466133D03*
D13*
%TO.P,SWL5-4,2,2*%
%TO.N,Net-(D46-Pad2)*%
X-19041453Y-72216429D03*
%TD*%
D10*
%TO.P,SWL5-0,1,1*%
%TO.N,L5*%
X-19260000Y-151685000D03*
D11*
X-21110000Y-151685000D03*
D12*
X-22810000Y-151685000D03*
D10*
%TO.P,SWL5-0,2,2*%
%TO.N,Net-(D56-Pad2)*%
X-32710000Y-149145000D03*
%TD*%
%TO.P,SWL4-0,1,1*%
%TO.N,L4*%
X-38310000Y-154225000D03*
D11*
X-40160000Y-154225000D03*
D12*
X-41860000Y-154225000D03*
D10*
%TO.P,SWL4-0,2,2*%
%TO.N,Net-(D32-Pad2)*%
X-51760000Y-151685000D03*
%TD*%
%TO.P,SWL1-4,1,1*%
%TO.N,L1*%
X-95460000Y-91995000D03*
D11*
X-97310000Y-91995000D03*
D12*
X-99010000Y-91995000D03*
D10*
%TO.P,SWL1-4,2,2*%
%TO.N,Net-(D52-Pad2)*%
X-108910000Y-89455000D03*
%TD*%
%TO.P,SWL3-5,1,1*%
%TO.N,L3*%
X-47835000Y-72945000D03*
D11*
X-49685000Y-72945000D03*
D12*
X-51385000Y-72945000D03*
D10*
%TO.P,SWL3-5,2,2*%
%TO.N,Net-(D58-Pad2)*%
X-61285000Y-70405000D03*
%TD*%
%TO.P,SWL1-2,1,1*%
%TO.N,L1*%
X-95460000Y-130095000D03*
D11*
X-97310000Y-130095000D03*
D12*
X-99010000Y-130095000D03*
D10*
%TO.P,SWL1-2,2,2*%
%TO.N,Net-(D43-Pad2)*%
X-108910000Y-127555000D03*
%TD*%
%TO.P,SWL5-3,1,1*%
%TO.N,L5*%
X-19260000Y-94535000D03*
D11*
X-21110000Y-94535000D03*
D12*
X-22810000Y-94535000D03*
D10*
%TO.P,SWL5-3,2,2*%
%TO.N,Net-(D41-Pad2)*%
X-32710000Y-91995000D03*
%TD*%
%TO.P,SWL4-3,1,1*%
%TO.N,L4*%
X-38310000Y-97075000D03*
D11*
X-40160000Y-97075000D03*
D12*
X-41860000Y-97075000D03*
D10*
%TO.P,SWL4-3,2,2*%
%TO.N,Net-(D50-Pad2)*%
X-51760000Y-94535000D03*
%TD*%
%TO.P,SWL1-3,1,1*%
%TO.N,L1*%
X-95460000Y-111045000D03*
D11*
X-97310000Y-111045000D03*
D12*
X-99010000Y-111045000D03*
D10*
%TO.P,SWL1-3,2,2*%
%TO.N,Net-(D48-Pad2)*%
X-108910000Y-108505000D03*
%TD*%
%TO.P,SWL0-2,1,1*%
%TO.N,L0*%
X-114510000Y-128825000D03*
D11*
X-116360000Y-128825000D03*
D12*
X-118060000Y-128825000D03*
D10*
%TO.P,SWL0-2,2,2*%
%TO.N,Net-(D42-Pad2)*%
X-127960000Y-126285000D03*
%TD*%
%TO.P,SWL0-3,1,1*%
%TO.N,L0*%
X-114510000Y-109775000D03*
D11*
X-116360000Y-109775000D03*
D12*
X-118060000Y-109775000D03*
D10*
%TO.P,SWL0-3,2,2*%
%TO.N,Net-(D47-Pad2)*%
X-127960000Y-107235000D03*
%TD*%
%TO.P,SWL2-0,1,1*%
%TO.N,L2*%
X-76410000Y-154225000D03*
D11*
X-78260000Y-154225000D03*
D12*
X-79960000Y-154225000D03*
D10*
%TO.P,SWL2-0,2,2*%
%TO.N,Net-(D16-Pad2)*%
X-89860000Y-151685000D03*
%TD*%
%TO.P,SWL0-4,1,1*%
%TO.N,L0*%
X-114510000Y-90725000D03*
D11*
X-116360000Y-90725000D03*
D12*
X-118060000Y-90725000D03*
D10*
%TO.P,SWL0-4,2,2*%
%TO.N,Net-(D51-Pad2)*%
X-127960000Y-88185000D03*
%TD*%
%TO.P,SWL4-1,1,1*%
%TO.N,L4*%
X-38310000Y-135175000D03*
D11*
X-40160000Y-135175000D03*
D12*
X-41860000Y-135175000D03*
D10*
%TO.P,SWL4-1,2,2*%
%TO.N,Net-(D40-Pad2)*%
X-51760000Y-132635000D03*
%TD*%
%TO.P,SWL3-1,1,1*%
%TO.N,L3*%
X-57360000Y-136445000D03*
D11*
X-59210000Y-136445000D03*
D12*
X-60910000Y-136445000D03*
D10*
%TO.P,SWL3-1,2,2*%
%TO.N,Net-(D39-Pad2)*%
X-70810000Y-133905000D03*
%TD*%
%TO.P,SWL2-4,1,1*%
%TO.N,L2*%
X-76410000Y-97075000D03*
D11*
X-78260000Y-97075000D03*
D12*
X-79960000Y-97075000D03*
D10*
%TO.P,SWL2-4,2,2*%
%TO.N,Net-(D53-Pad2)*%
X-89860000Y-94535000D03*
%TD*%
%TO.P,SWL2-1,1,1*%
%TO.N,L2*%
X-76410000Y-135175000D03*
D11*
X-78260000Y-135175000D03*
D12*
X-79960000Y-135175000D03*
D10*
%TO.P,SWL2-1,2,2*%
%TO.N,Net-(D38-Pad2)*%
X-89860000Y-132635000D03*
%TD*%
%TO.P,SWL4-5,1,1*%
%TO.N,L4*%
X-28785000Y-72945000D03*
D11*
X-30635000Y-72945000D03*
D12*
X-32335000Y-72945000D03*
D10*
%TO.P,SWL4-5,2,2*%
%TO.N,Net-(D55-Pad2)*%
X-42235000Y-70405000D03*
%TD*%
D12*
%TO.P,SWR4-2,1,1*%
%TO.N,R4*%
X-62865000Y-33655000D03*
%TD*%
%TO.P,SWR2-4,1,1*%
%TO.N,R2*%
X-100965000Y-46355000D03*
%TD*%
%TO.P,SWR5-2,1,1*%
%TO.N,R5*%
X-43815000Y-34925000D03*
%TD*%
%TO.P,SWR1-0,1,1*%
%TO.N,R1*%
X-120015000Y9525000D03*
%TD*%
%TO.P,SWR4-3,1,1*%
%TO.N,R4*%
X-62865000Y-52705000D03*
%TD*%
%TO.P,SWR0-5,1,1*%
%TO.N,R0*%
X-153698085Y-71423867D03*
%TD*%
%TO.P,SWR5-3,1,1*%
%TO.N,R5*%
X-43815000Y-53975000D03*
%TD*%
%TO.P,SWR3-2,1,1*%
%TO.N,R3*%
X-81915000Y-28575000D03*
%TD*%
%TO.P,SWR2-0,1,1*%
%TO.N,R2*%
X-100965000Y10795000D03*
%TD*%
%TO.P,SWR6-0,1,1*%
%TO.N,R6*%
X-24765000Y3175000D03*
%TD*%
%TO.P,SWR0-4,1,1*%
%TO.N,R0*%
X-139065000Y-50165000D03*
%TD*%
%TO.P,SWR1-2,1,1*%
%TO.N,R1*%
X-120015000Y-9525000D03*
%TD*%
%TO.P,SWR5-0,1,1*%
%TO.N,R5*%
X-43815000Y3175000D03*
%TD*%
%TO.P,SWR2-5,1,1*%
%TO.N,R2*%
X-110490000Y-71755000D03*
%TD*%
%TO.P,SWR4-0,1,1*%
%TO.N,R4*%
X-62865000Y4445000D03*
%TD*%
%TO.P,SWR1-5,1,1*%
%TO.N,R1*%
X-129540000Y-71755000D03*
%TD*%
%TO.P,SWR0-3,1,1*%
%TO.N,R0*%
X-139065000Y-31115000D03*
%TD*%
%TO.P,SWR6-1,1,1*%
%TO.N,R6*%
X-24765000Y-15875000D03*
%TD*%
%TO.P,SWR3-4,1,1*%
%TO.N,R3*%
X-81915000Y-47625000D03*
%TD*%
%TO.P,SWR5-1,1,1*%
%TO.N,R5*%
X-43815000Y-15875000D03*
%TD*%
%TO.P,SWR3-1,1,1*%
%TO.N,R3*%
X-81915000Y-9525000D03*
%TD*%
%TO.P,SWR0-2,1,1*%
%TO.N,R0*%
X-139065000Y-12065000D03*
%TD*%
%TO.P,SWR2-3,1,1*%
%TO.N,R2*%
X-100965000Y-27305000D03*
%TD*%
%TO.P,SWR6-3,1,1*%
%TO.N,R6*%
X-24765000Y-53975000D03*
%TD*%
%TO.P,SWR3-0,1,1*%
%TO.N,R3*%
X-81915000Y9525000D03*
%TD*%
%TO.P,SWR4-1,1,1*%
%TO.N,R4*%
X-62865000Y-14605000D03*
%TD*%
%TO.P,SWR1-3,1,1*%
%TO.N,R1*%
X-120015000Y-28575000D03*
%TD*%
%TO.P,SWR2-1,1,1*%
%TO.N,R2*%
X-100965000Y-8255000D03*
%TD*%
%TO.P,SWR1-4,1,1*%
%TO.N,R1*%
X-120015000Y-47625000D03*
%TD*%
%TO.P,SWR6-2,1,1*%
%TO.N,R6*%
X-24765000Y-34925000D03*
%TD*%
%TO.P,SWR0-1,1,1*%
%TO.N,R0*%
X-139065000Y6985000D03*
%TD*%
D15*
%TO.P,D54,1,K*%
%TO.N,Net-(D46-Pad1)*%
X-71070000Y-106980000D03*
%TO.P,D54,2,A*%
%TO.N,Net-(D54-Pad2)*%
X-71070000Y-103680000D03*
%TD*%
%TO.P,D40,1,K*%
%TO.N,Net-(D34-Pad1)*%
X-52020000Y-143810000D03*
%TO.P,D40,2,A*%
%TO.N,Net-(D40-Pad2)*%
X-52020000Y-140510000D03*
%TD*%
%TO.P,D43,1,K*%
%TO.N,Net-(D33-Pad1)*%
X-109170000Y-138730000D03*
%TO.P,D43,2,A*%
%TO.N,Net-(D43-Pad2)*%
X-109170000Y-135430000D03*
%TD*%
%TO.P,D48,1,K*%
%TO.N,Net-(D41-Pad1)*%
X-109170000Y-119680000D03*
%TO.P,D48,2,A*%
%TO.N,Net-(D48-Pad2)*%
X-109170000Y-116380000D03*
%TD*%
%TO.P,D51,1,K*%
%TO.N,Net-(D46-Pad1)*%
X-128220000Y-99360000D03*
%TO.P,D51,2,A*%
%TO.N,Net-(D51-Pad2)*%
X-128220000Y-96060000D03*
%TD*%
%TO.P,D57,1,K*%
%TO.N,Net-(D34-Pad1)*%
X-32970000Y-141270000D03*
%TO.P,D57,2,A*%
%TO.N,Net-(D57-Pad2)*%
X-32970000Y-137970000D03*
%TD*%
%TO.P,D24,1,K*%
%TO.N,Net-(D16-Pad1)*%
X-71070000Y-164130000D03*
%TO.P,D24,2,A*%
%TO.N,Net-(D24-Pad2)*%
X-71070000Y-160830000D03*
%TD*%
%TO.P,D33,1,K*%
%TO.N,Net-(D33-Pad1)*%
X-32970000Y-122220000D03*
%TO.P,D33,2,A*%
%TO.N,Net-(D33-Pad2)*%
X-32970000Y-118920000D03*
%TD*%
%TO.P,D44,1,K*%
%TO.N,Net-(D33-Pad1)*%
X-71070000Y-126030000D03*
%TO.P,D44,2,A*%
%TO.N,Net-(D44-Pad2)*%
X-71070000Y-122730000D03*
%TD*%
%TO.P,D49,1,K*%
%TO.N,Net-(D41-Pad1)*%
X-90120000Y-124760000D03*
%TO.P,D49,2,A*%
%TO.N,Net-(D49-Pad2)*%
X-90120000Y-121460000D03*
%TD*%
%TO.P,D50,1,K*%
%TO.N,Net-(D41-Pad1)*%
X-52020000Y-105710000D03*
%TO.P,D50,2,A*%
%TO.N,Net-(D50-Pad2)*%
X-52020000Y-102410000D03*
%TD*%
%TO.P,D41,1,K*%
%TO.N,Net-(D41-Pad1)*%
X-32970000Y-103170000D03*
%TO.P,D41,2,A*%
%TO.N,Net-(D41-Pad2)*%
X-32970000Y-99870000D03*
%TD*%
%TO.P,D34,1,K*%
%TO.N,Net-(D34-Pad1)*%
X-128220000Y-156510000D03*
%TO.P,D34,2,A*%
%TO.N,Net-(D34-Pad2)*%
X-128220000Y-153210000D03*
%TD*%
%TO.P,D16,1,K*%
%TO.N,Net-(D16-Pad1)*%
X-90120000Y-162860000D03*
%TO.P,D16,2,A*%
%TO.N,Net-(D16-Pad2)*%
X-90120000Y-159560000D03*
%TD*%
%TO.P,D39,1,K*%
%TO.N,Net-(D34-Pad1)*%
X-71070000Y-145080000D03*
%TO.P,D39,2,A*%
%TO.N,Net-(D39-Pad2)*%
X-71070000Y-141780000D03*
%TD*%
%TO.P,D38,1,K*%
%TO.N,Net-(D34-Pad1)*%
X-90120000Y-143810000D03*
%TO.P,D38,2,A*%
%TO.N,Net-(D38-Pad2)*%
X-90120000Y-140510000D03*
%TD*%
D16*
%TO.P,D46,1,K*%
%TO.N,Net-(D46-Pad1)*%
X-25095000Y-74850000D03*
%TO.P,D46,2,A*%
%TO.N,Net-(D46-Pad2)*%
X-21795000Y-74850000D03*
%TD*%
D15*
%TO.P,D47,1,K*%
%TO.N,Net-(D41-Pad1)*%
X-128220000Y-118410000D03*
%TO.P,D47,2,A*%
%TO.N,Net-(D47-Pad2)*%
X-128220000Y-115110000D03*
%TD*%
%TO.P,D58,1,K*%
%TO.N,Net-(D55-Pad1)*%
X-61545000Y-81580000D03*
%TO.P,D58,2,A*%
%TO.N,Net-(D58-Pad2)*%
X-61545000Y-78280000D03*
%TD*%
%TO.P,D52,1,K*%
%TO.N,Net-(D46-Pad1)*%
X-109170000Y-100630000D03*
%TO.P,D52,2,A*%
%TO.N,Net-(D52-Pad2)*%
X-109170000Y-97330000D03*
%TD*%
%TO.P,D42,1,K*%
%TO.N,Net-(D33-Pad1)*%
X-128220000Y-137460000D03*
%TO.P,D42,2,A*%
%TO.N,Net-(D42-Pad2)*%
X-128220000Y-134160000D03*
%TD*%
%TO.P,D56,1,K*%
%TO.N,Net-(D16-Pad1)*%
X-32970000Y-160320000D03*
%TO.P,D56,2,A*%
%TO.N,Net-(D56-Pad2)*%
X-32970000Y-157020000D03*
%TD*%
%TO.P,D55,1,K*%
%TO.N,Net-(D55-Pad1)*%
X-42495000Y-81580000D03*
%TO.P,D55,2,A*%
%TO.N,Net-(D55-Pad2)*%
X-42495000Y-78280000D03*
%TD*%
%TO.P,D45,1,K*%
%TO.N,Net-(D33-Pad1)*%
X-52020000Y-124760000D03*
%TO.P,D45,2,A*%
%TO.N,Net-(D45-Pad2)*%
X-52020000Y-121460000D03*
%TD*%
%TO.P,D53,1,K*%
%TO.N,Net-(D46-Pad1)*%
X-90120000Y-105710000D03*
%TO.P,D53,2,A*%
%TO.N,Net-(D53-Pad2)*%
X-90120000Y-102410000D03*
%TD*%
%TO.P,D8,1,K*%
%TO.N,Net-(D16-Pad1)*%
X-109170000Y-157780000D03*
%TO.P,D8,2,A*%
%TO.N,Net-(D8-Pad2)*%
X-109170000Y-154480000D03*
%TD*%
%TO.P,D32,1,K*%
%TO.N,Net-(D16-Pad1)*%
X-52020000Y-162860000D03*
%TO.P,D32,2,A*%
%TO.N,Net-(D32-Pad2)*%
X-52020000Y-159560000D03*
%TD*%
D17*
%TO.P,Dx0,1*%
%TO.N,L0*%
X-116497900Y-154860000D03*
%TO.P,Dx0,2*%
%TO.N,LINTR*%
X-114542100Y-154860000D03*
D18*
%TO.P,Dx0,3*%
%TO.N,Net-(D16-Pad1)*%
X-115520000Y-157488900D03*
%TD*%
D17*
%TO.P,Dx2,1*%
%TO.N,L2*%
X-78397900Y-123110000D03*
%TO.P,Dx2,2*%
%TO.N,LINTR*%
X-76442100Y-123110000D03*
D18*
%TO.P,Dx2,3*%
%TO.N,Net-(D33-Pad1)*%
X-77420000Y-125738900D03*
%TD*%
D17*
%TO.P,Dx3,1*%
%TO.N,L3*%
X-59347900Y-105330000D03*
%TO.P,Dx3,2*%
%TO.N,LINTR*%
X-57392100Y-105330000D03*
D18*
%TO.P,Dx3,3*%
%TO.N,Net-(D41-Pad1)*%
X-58370000Y-107958900D03*
%TD*%
D17*
%TO.P,Dx4,1*%
%TO.N,L4*%
X-39027900Y-88185000D03*
%TO.P,Dx4,2*%
%TO.N,LINTR*%
X-37072100Y-88185000D03*
D18*
%TO.P,Dx4,3*%
%TO.N,Net-(D46-Pad1)*%
X-38050000Y-90813900D03*
%TD*%
D17*
%TO.P,Dx1,1*%
%TO.N,L1*%
X-97447900Y-137080000D03*
%TO.P,Dx1,2*%
%TO.N,LINTR*%
X-95492100Y-137080000D03*
D18*
%TO.P,Dx1,3*%
%TO.N,Net-(D34-Pad1)*%
X-96470000Y-139708900D03*
%TD*%
D17*
%TO.P,Dx5,1*%
%TO.N,L5*%
X-25692900Y-78660000D03*
%TO.P,Dx5,2*%
%TO.N,LINTR*%
X-23737100Y-78660000D03*
D18*
%TO.P,Dx5,3*%
%TO.N,Net-(D55-Pad1)*%
X-24715000Y-81288900D03*
%TD*%
D19*
%TO.P,U2,8,B9_RX/1.12*%
%TO.N,Net-(Display2-Pad5)*%
X-156210000Y-13335000D03*
%TO.P,U2,7,B8_TX/1.11*%
%TO.N,R0*%
X-171450000Y-13335000D03*
D20*
%TO.P,U2,22,BAT*%
%TO.N,RBAT+*%
X-168330000Y-5415000D03*
D19*
%TO.P,U2,14,5V*%
%TO.N,unconnected-(U2-Pad14)*%
X-156210000Y1905000D03*
%TO.P,U2,13,GND*%
%TO.N,RGND*%
X-156210000Y-635000D03*
%TO.P,U2,12,3V3*%
%TO.N,Net-(Display2-Pad3)*%
X-156210000Y-3175000D03*
%TO.P,U2,11,A6_MOSI/1.15*%
%TO.N,Net-(Display2-Pad1)*%
X-156210000Y-5715000D03*
%TO.P,U2,10,A5_MISO/1.14*%
%TO.N,RINTR*%
X-156210000Y-8255000D03*
%TO.P,U2,9,A7_SCK/1.13*%
%TO.N,Net-(Display2-Pad2)*%
X-156210000Y-10795000D03*
%TO.P,U2,6,A9_SCL/0.05_H*%
%TO.N,R1*%
X-171450000Y-10795000D03*
%TO.P,U2,5,A8_SDA/0.04_H*%
%TO.N,R2*%
X-171450000Y-8255000D03*
%TO.P,U2,4,A11/0.29*%
%TO.N,R3*%
X-171450000Y-5715000D03*
%TO.P,U2,3,A10/0.28*%
%TO.N,R4*%
X-171450000Y-3175000D03*
%TO.P,U2,2,A4/0.03_H*%
%TO.N,R5*%
X-171450000Y-635000D03*
%TO.P,U2,1,A2/0.02_H*%
%TO.N,R6*%
X-171450000Y1905000D03*
%TD*%
D20*
%TO.P,U1,22,BAT*%
%TO.N,LBAT+*%
X-10165000Y-139285000D03*
D19*
%TO.P,U1,14,5V*%
%TO.N,unconnected-(U1-Pad14)*%
X1955000Y-146605000D03*
%TO.P,U1,13,GND*%
%TO.N,LGND*%
X1955000Y-144065000D03*
%TO.P,U1,12,3V3*%
%TO.N,Net-(Display1-Pad3)*%
X1955000Y-141525000D03*
%TO.P,U1,11,A6_MOSI/1.15*%
%TO.N,Net-(Display1-Pad1)*%
X1955000Y-138985000D03*
%TO.P,U1,10,A5_MISO/1.14*%
%TO.N,LINTR*%
X1955000Y-136445000D03*
%TO.P,U1,9,A7_SCK/1.13*%
%TO.N,Net-(Display1-Pad2)*%
X1955000Y-133905000D03*
%TO.P,U1,8,B9_RX/1.12*%
%TO.N,Net-(Display1-Pad5)*%
X1955000Y-131365000D03*
%TO.P,U1,7,B8_TX/1.11*%
%TO.N,LRGB*%
X-13285000Y-131365000D03*
%TO.P,U1,6,A9_SCL/0.05_H*%
%TO.N,L5*%
X-13285000Y-133905000D03*
%TO.P,U1,5,A8_SDA/0.04_H*%
%TO.N,L4*%
X-13285000Y-136445000D03*
%TO.P,U1,4,A11/0.29*%
%TO.N,L3*%
X-13285000Y-138985000D03*
%TO.P,U1,3,A10/0.28*%
%TO.N,L2*%
X-13285000Y-141525000D03*
%TO.P,U1,2,A4/0.03_H*%
%TO.N,L1*%
X-13285000Y-144065000D03*
%TO.P,U1,1,A2/0.02_H*%
%TO.N,L0*%
X-13285000Y-146605000D03*
%TD*%
D20*
%TO.P,TP3,1,1*%
%TO.N,Net-(Tog1-Pad2)*%
X-165100000Y-5415000D03*
%TD*%
%TO.P,TP4,1,1*%
%TO.N,RGND*%
X-162433000Y-5415000D03*
%TD*%
D19*
%TO.P,Display1,5,CS*%
%TO.N,Net-(Display1-Pad5)*%
X-585000Y-93519000D03*
%TO.P,Display1,4,GND*%
%TO.N,LGND*%
X-3125000Y-93519000D03*
%TO.P,Display1,3,VCC*%
%TO.N,Net-(Display1-Pad3)*%
X-5665000Y-93519000D03*
%TO.P,Display1,2,SCK*%
%TO.N,Net-(Display1-Pad2)*%
X-8205000Y-93519000D03*
%TO.P,Display1,1,MOSI*%
%TO.N,Net-(Display1-Pad1)*%
X-10745000Y-93519000D03*
%TD*%
D20*
%TO.P,TP1,1,1*%
%TO.N,Net-(Tog0-Pad2)*%
X-6935000Y-139285000D03*
%TD*%
%TO.P,TP2,1,1*%
%TO.N,LGND*%
X-4268000Y-139285000D03*
%TD*%
D21*
%TO.P,Tog1,*%
%TO.N,*%
X-167430000Y4512500D03*
X-160230000Y4512500D03*
X-167430000Y2472500D03*
X-160230000Y2472500D03*
D22*
%TO.P,Tog1,1*%
%TO.N,unconnected-(Tog1-Pad1)*%
X-161580000Y1672500D03*
%TO.P,Tog1,2*%
%TO.N,Net-(Tog1-Pad2)*%
X-164580000Y1672500D03*
%TO.P,Tog1,3*%
%TO.N,RBAT+*%
X-166080000Y1672500D03*
%TD*%
D23*
%TO.N,RBAT+*%
X-166900000Y1500000D03*
%TO.N,Net-(Tog1-Pad2)*%
X-163750000Y1500000D03*
D24*
%TO.N,Net-(Display1-Pad3)*%
X-1220000Y-132000000D03*
%TO.N,LINTR*%
X-4395000Y-135175000D03*
%TD*%
D25*
%TO.N,L5*%
X-23787900Y-76755000D02*
G75*
G03*
X-25692900Y-78660000I1J-1905001D01*
G01*
X-23787900Y-76755000D02*
X-22175000Y-76755000D01*
X-16754935Y-74509935D02*
X-13488328Y-71243328D01*
X-16754935Y-74509935D02*
G75*
G02*
X-22175000Y-76755000I-5420068J5420071D01*
G01*
X-9197801Y-69466134D02*
G75*
G03*
X-13488328Y-71243328I-1J-6067718D01*
G01*
%TO.N,Net-(D46-Pad2)*%
X-21795000Y-74850000D02*
X-21675024Y-74850000D01*
X-21675024Y-74850000D02*
X-19041453Y-72216429D01*
%TO.N,Net-(D46-Pad1)*%
X-26556663Y-76311662D02*
G75*
G02*
X-35292102Y-79930000I-8735436J8735430D01*
G01*
X-26556663Y-76311662D02*
X-25095000Y-74850000D01*
%TO.N,R4*%
X-150400000Y1365000D02*
X-150400000Y9400000D01*
X-150400000Y1365000D02*
G75*
G02*
X-156210000Y-4445000I-5810001J1D01*
G01*
X-160782000Y-3810000D02*
G75*
G03*
X-162315025Y-3175000I-1533023J-1533019D01*
G01*
X-62865000Y4445000D02*
G75*
G03*
X-71820000Y13400000I-8955001J-1D01*
G01*
X-83278679Y14478680D02*
G75*
G03*
X-88400000Y16600000I-5121320J-5121321D01*
G01*
X-159248975Y-4445000D02*
G75*
G02*
X-160782000Y-3810000I0J2168024D01*
G01*
X-143200000Y16600000D02*
G75*
G03*
X-150400000Y9400000I-1J-7199999D01*
G01*
X-80785787Y13400001D02*
G75*
G02*
X-83199999Y14400001I-3J3414204D01*
G01*
X-159248975Y-4445000D02*
X-156210000Y-4445000D01*
X-83278679Y14478680D02*
X-83200000Y14400000D01*
X-143200000Y16600000D02*
X-88400000Y16600000D01*
X-171450000Y-3175000D02*
X-162315025Y-3175000D01*
X-80785787Y13400000D02*
X-71820000Y13400000D01*
%TO.N,R5*%
X-150800000Y3380989D02*
G75*
G02*
X-156115989Y-1935000I-5315989J0D01*
G01*
X-143200000Y17000000D02*
G75*
G03*
X-150800000Y9400000I-2J-7599998D01*
G01*
X-43815000Y3175000D02*
G75*
G03*
X-54440000Y13800000I-10624998J2D01*
G01*
X-83000000Y14800000D02*
G75*
G03*
X-88311269Y17000000I-5311268J-5311264D01*
G01*
X-80585787Y13800000D02*
X-54440000Y13800000D01*
X-80585787Y13800001D02*
G75*
G02*
X-82999999Y14800001I-3J3414204D01*
G01*
X-156335000Y-1935000D02*
X-156115989Y-1935000D01*
X-150800000Y3380989D02*
X-150800000Y9400000D01*
X-143200000Y17000000D02*
X-88311269Y17000000D01*
%TO.N,R6*%
X-168506591Y685801D02*
G75*
G02*
X-171450000Y1905000I-5J4162597D01*
G01*
X-151200000Y5695800D02*
G75*
G02*
X-156210000Y685800I-5010000J0D01*
G01*
X-143200000Y17400000D02*
G75*
G03*
X-151200000Y9400000I1J-8000001D01*
G01*
X-82800000Y15200000D02*
G75*
G03*
X-88111269Y17400000I-5311268J-5311264D01*
G01*
X-80385787Y14200001D02*
G75*
G02*
X-82799999Y15200001I-3J3414204D01*
G01*
X-24765000Y3175000D02*
G75*
G03*
X-35790000Y14200000I-11025001J-1D01*
G01*
X-143200000Y17400000D02*
X-88111269Y17400000D01*
X-168506591Y685800D02*
X-156210000Y685800D01*
X-151200000Y5695800D02*
X-151200000Y9400000D01*
X-80385787Y14200000D02*
X-35790000Y14200000D01*
%TO.N,R0*%
X-139065000Y-12065000D02*
X-139065000Y6985000D01*
X-139065000Y-31115000D02*
X-139065000Y-12065000D01*
X-139065000Y-50165000D02*
X-139065000Y-31115000D01*
%TO.N,R1*%
X-120015000Y-28575000D02*
X-120015000Y-47625000D01*
X-120015000Y-9525000D02*
X-120015000Y-28575000D01*
X-120015000Y9525000D02*
X-120015000Y-9525000D01*
%TO.N,R2*%
X-100965000Y-8255000D02*
X-100965000Y10795000D01*
X-100965000Y-27305000D02*
X-100965000Y-8255000D01*
X-100965000Y-46355000D02*
X-100965000Y-27305000D01*
%TO.N,R3*%
X-81915000Y-28575000D02*
X-81915000Y-47625000D01*
X-81915000Y-9525000D02*
X-81915000Y-28575000D01*
X-81915000Y9525000D02*
X-81915000Y-9525000D01*
%TO.N,R4*%
X-62865000Y-14605000D02*
X-62865000Y4445000D01*
X-62865000Y-33655000D02*
X-62865000Y-14605000D01*
X-62865000Y-52705000D02*
X-62865000Y-33655000D01*
%TO.N,R5*%
X-43815000Y-34925000D02*
X-43815000Y-53975000D01*
X-43815000Y-15875000D02*
X-43815000Y-34925000D01*
X-43815000Y3175000D02*
X-43815000Y-15875000D01*
%TO.N,R6*%
X-24765000Y-15875000D02*
X-24765000Y3175000D01*
X-24765000Y-34925000D02*
X-24765000Y-15875000D01*
X-24765000Y-53975000D02*
X-24765000Y-34925000D01*
D26*
%TO.N,Net-(Tog1-Pad2)*%
X-163750000Y1500000D02*
X-164580000Y1500000D01*
%TO.N,RBAT+*%
X-166900000Y1500000D02*
X-166080000Y1500000D01*
D25*
%TO.N,Net-(Display1-Pad3)*%
X50000Y-135066051D02*
X50000Y-139620000D01*
X1955000Y-141525000D02*
G75*
G02*
X50000Y-139620000I1J1905001D01*
G01*
X50000Y-135066051D02*
G75*
G03*
X-1220000Y-132000000I-4336047J1D01*
G01*
%TO.N,Net-(D16-Pad1)*%
X-84748658Y-164130000D02*
G75*
G02*
X-94017393Y-160290760I5J13107971D01*
G01*
X-109170000Y-157780000D02*
X-100077829Y-157780000D01*
D26*
%TO.N,LGND*%
X-3125000Y-138350000D02*
X-3125000Y-138985000D01*
X-3125000Y-93519000D02*
X-3125000Y-138350000D01*
D25*
%TO.N,Net-(D16-Pad1)*%
X-94018153Y-160290000D02*
X-94017393Y-160290760D01*
X-94018153Y-160290000D02*
G75*
G03*
X-100077829Y-157780000I-6059677J-6059679D01*
G01*
%TO.N,Net-(D41-Pad1)*%
X-52020000Y-105710000D02*
G75*
G02*
X-45887898Y-103170000I6132104J-6132106D01*
G01*
X-112236051Y-118410000D02*
G75*
G02*
X-109170000Y-119680000I1J-4336047D01*
G01*
X-64899829Y-111045000D02*
G75*
G03*
X-59021016Y-108609916I-1J8313899D01*
G01*
X-58370000Y-107958900D02*
X-59021016Y-108609916D01*
X-96905796Y-124760000D02*
X-90120000Y-124760000D01*
X-32970000Y-103170000D02*
X-45887898Y-103170000D01*
%TO.N,Net-(D46-Pad1)*%
X-67895000Y-93265000D02*
G75*
G03*
X-64720000Y-90090000I0J3175000D01*
G01*
X-109170000Y-100630000D02*
G75*
G03*
X-93839744Y-106980000I15330261J15330268D01*
G01*
%TO.N,Net-(D41-Pad1)*%
X-96905796Y-124760000D02*
G75*
G02*
X-109170000Y-119680000I-1J17344200D01*
G01*
%TO.N,Net-(D46-Pad1)*%
X-112236051Y-99360000D02*
X-128220000Y-99360000D01*
X-71070000Y-106980000D02*
X-75135000Y-106980000D01*
X-74245000Y-98345000D02*
X-74245000Y-106980000D01*
%TO.N,LINTR*%
X-47420924Y-140255001D02*
G75*
G03*
X-52020000Y-142160000I-2J-6504070D01*
G01*
%TO.N,Net-(D46-Pad1)*%
X-35292102Y-79930000D02*
X-59640000Y-79930000D01*
D26*
%TO.N,LGND*%
X-3125000Y-139285000D02*
X-3125000Y-138350000D01*
D25*
%TO.N,LINTR*%
X-22810000Y-159305000D02*
X-47420924Y-159305000D01*
%TO.N,Net-(D46-Pad1)*%
X-64720000Y-86915000D02*
X-64720000Y-90090000D01*
%TO.N,Net-(D41-Pad1)*%
X-76150000Y-111045000D02*
G75*
G03*
X-87580000Y-122475000I-2J-11429998D01*
G01*
%TO.N,L3*%
X-60910000Y-101558757D02*
X-60910000Y-98345000D01*
%TO.N,Net-(D16-Pad1)*%
X-32970000Y-160320000D02*
G75*
G02*
X-42168153Y-164130000I-9198153J9198153D01*
G01*
X-109170000Y-157780000D02*
X-115520000Y-157780000D01*
%TO.N,LINTR*%
X-47420924Y-140255000D02*
X-16775495Y-140255000D01*
%TO.N,Net-(D16-Pad1)*%
X-71070000Y-164130000D02*
X-51765000Y-164130000D01*
X-52020000Y-162860000D02*
X-52020000Y-164130000D01*
%TO.N,Net-(D46-Pad1)*%
X-38050000Y-90813900D02*
X-38050000Y-86915000D01*
%TO.N,LINTR*%
X-93930000Y-158670000D02*
G75*
G03*
X-84731847Y-162480000I9198153J9198153D01*
G01*
X-47420924Y-102155001D02*
G75*
G03*
X-52020000Y-104060000I-2J-6504070D01*
G01*
X-52020000Y-104060000D02*
G75*
G02*
X-55086051Y-105330000I-3066052J3066052D01*
G01*
X-16775495Y-102155000D02*
X-16775495Y-101835495D01*
%TO.N,Net-(D8-Pad2)*%
X-109170000Y-154480000D02*
X-109170000Y-146605000D01*
%TO.N,LINTR*%
X-92025000Y-140255000D02*
G75*
G03*
X-84359872Y-143430000I7665131J7665134D01*
G01*
X-55086051Y-162480000D02*
G75*
G03*
X-52020000Y-161210000I-1J4336052D01*
G01*
X-16775495Y-121205000D02*
X-16775495Y-121520495D01*
%TO.N,Net-(D16-Pad1)*%
X-84748658Y-164130000D02*
X-71070000Y-164130000D01*
%TO.N,LINTR*%
X-55086051Y-124380000D02*
X-73376049Y-124380000D01*
%TO.N,L4*%
X-41860000Y-95022294D02*
G75*
G02*
X-39027900Y-88185000I9669384J4D01*
G01*
%TO.N,LINTR*%
X-16775495Y-88500495D02*
X-16775495Y-85325495D01*
%TO.N,Net-(D54-Pad2)*%
X-71070000Y-103680000D02*
X-71070000Y-95805000D01*
%TO.N,LINTR*%
X-37072100Y-88185000D02*
X-16775495Y-88185000D01*
X-55086051Y-143430000D02*
X-84359872Y-143430000D01*
%TO.N,Net-(D41-Pad1)*%
X-87580000Y-122475000D02*
G75*
G02*
X-89865000Y-124760000I-2285000J0D01*
G01*
%TO.N,Net-(D33-Pad1)*%
X-106630000Y-136445000D02*
G75*
G02*
X-96215000Y-126030000I10415000J0D01*
G01*
X-71070000Y-126030000D02*
X-96215000Y-126030000D01*
%TO.N,LINTR*%
X-16775495Y-101835495D02*
X-16775495Y-88500495D01*
X-16775495Y-135494505D02*
X-16775495Y-139935495D01*
%TO.N,Net-(D55-Pad1)*%
X-42495000Y-81580000D02*
X-24715000Y-81580000D01*
%TO.N,LINTR*%
X-16775495Y-121520495D02*
X-16775495Y-135494505D01*
X-55086051Y-162480000D02*
X-84731847Y-162480000D01*
X-101595128Y-155495000D02*
X-114542100Y-155495000D01*
%TO.N,Net-(D34-Pad1)*%
X-52020000Y-145080000D02*
X-42168153Y-145080000D01*
%TO.N,LINTR*%
X-16775495Y-88185000D02*
X-16775495Y-88500495D01*
%TO.N,Net-(D46-Pad1)*%
X-64720000Y-85010000D02*
X-64720000Y-86915000D01*
%TO.N,Net-(D55-Pad1)*%
X-61545000Y-81580000D02*
X-42495000Y-81580000D01*
%TO.N,LINTR*%
X-101595128Y-155495000D02*
G75*
G02*
X-93930000Y-158670000I-1J-10840129D01*
G01*
%TO.N,Net-(D52-Pad2)*%
X-109170000Y-97330000D02*
X-109170000Y-89455000D01*
%TO.N,Net-(D51-Pad2)*%
X-128220000Y-96060000D02*
X-128220000Y-88185000D01*
%TO.N,Net-(D50-Pad2)*%
X-52020000Y-102410000D02*
X-52020000Y-94535000D01*
%TO.N,LINTR*%
X-76442100Y-123110000D02*
G75*
G03*
X-73376049Y-124380000I3066056J3066063D01*
G01*
X-16775495Y-121520495D02*
X-16775495Y-101835495D01*
%TO.N,Net-(D49-Pad2)*%
X-90120000Y-121460000D02*
X-90120000Y-113585000D01*
D26*
%TO.N,LGND*%
X-4268000Y-139285000D02*
X-3125000Y-139285000D01*
D25*
%TO.N,Net-(D55-Pad2)*%
X-42495000Y-78280000D02*
X-42495000Y-70405000D01*
%TO.N,Net-(D47-Pad2)*%
X-128220000Y-115110000D02*
X-128220000Y-107235000D01*
%TO.N,Net-(D58-Pad2)*%
X-61545000Y-78280000D02*
X-61545000Y-70405000D01*
%TO.N,LINTR*%
X-16775495Y-139935495D02*
X-16775495Y-153270495D01*
%TO.N,Net-(D42-Pad2)*%
X-128220000Y-134160000D02*
X-128220000Y-126285000D01*
%TO.N,Net-(D41-Pad2)*%
X-32970000Y-99870000D02*
X-32970000Y-91995000D01*
%TO.N,Net-(D33-Pad1)*%
X-108915000Y-138730000D02*
G75*
G03*
X-106630000Y-136445000I0J2285000D01*
G01*
X-125153949Y-138730000D02*
X-109170000Y-138730000D01*
X-71070000Y-126030000D02*
X-52020000Y-126030000D01*
D26*
%TO.N,LGND*%
X1955000Y-144065000D02*
G75*
G02*
X-3125000Y-138985000I2J5080002D01*
G01*
D25*
%TO.N,Net-(D33-Pad1)*%
X-52020000Y-126030000D02*
X-42168153Y-126030000D01*
%TO.N,Net-(D40-Pad2)*%
X-52020000Y-140510000D02*
X-52020000Y-132635000D01*
%TO.N,Net-(D34-Pad1)*%
X-32970000Y-141270000D02*
G75*
G02*
X-42168153Y-145080000I-9198155J9198158D01*
G01*
%TO.N,Net-(D24-Pad2)*%
X-71070000Y-160830000D02*
X-71070000Y-152955000D01*
%TO.N,LINTR*%
X-52020000Y-123110000D02*
G75*
G02*
X-55086051Y-124380000I-3066052J3066052D01*
G01*
%TO.N,Net-(D34-Pad1)*%
X-96470000Y-139708900D02*
G75*
G03*
X-83503018Y-145080000I12966985J12966989D01*
G01*
%TO.N,LINTR*%
X-47420924Y-121205001D02*
G75*
G03*
X-52020000Y-123110000I-2J-6504070D01*
G01*
%TO.N,Net-(D34-Pad1)*%
X-127330000Y-156510000D02*
X-128220000Y-156510000D01*
X-83503018Y-145080000D02*
X-71070000Y-145080000D01*
X-52020000Y-143810000D02*
X-52020000Y-145080000D01*
%TO.N,Net-(D46-Pad1)*%
X-75135000Y-106980000D02*
X-74245000Y-106980000D01*
%TO.N,LINTR*%
X-92025000Y-140255000D02*
X-95200000Y-137080000D01*
%TO.N,Net-(D38-Pad2)*%
X-90120000Y-140510000D02*
X-90120000Y-132635000D01*
%TO.N,L0*%
X-118059999Y-151088757D02*
G75*
G03*
X-116497900Y-154860000I5333336J-3D01*
G01*
%TO.N,Net-(D46-Pad1)*%
X-112236051Y-99360000D02*
G75*
G02*
X-109170000Y-100630000I1J-4336047D01*
G01*
%TO.N,LINTR*%
X-4395000Y-135175000D02*
X-16775495Y-135175000D01*
%TO.N,Net-(D41-Pad1)*%
X-52020000Y-105710000D02*
G75*
G02*
X-64899829Y-111045000I-12879828J12879826D01*
G01*
%TO.N,Net-(D48-Pad2)*%
X-109170000Y-116380000D02*
X-109170000Y-108505000D01*
%TO.N,Net-(D34-Pad2)*%
X-128220000Y-153210000D02*
X-128220000Y-145335000D01*
%TO.N,LINTR*%
X-52020000Y-161210000D02*
G75*
G02*
X-47420924Y-159305000I4599074J-4599071D01*
G01*
%TO.N,Net-(D33-Pad1)*%
X-32970000Y-122220000D02*
G75*
G02*
X-42168153Y-126030000I-9198155J9198158D01*
G01*
%TO.N,Net-(D34-Pad1)*%
X-115265000Y-143810000D02*
X-90120000Y-143810000D01*
%TO.N,L4*%
X-41860000Y-95022294D02*
X-41860000Y-97075000D01*
%TO.N,Net-(D46-Pad1)*%
X-90375000Y-106980000D02*
X-75135000Y-106980000D01*
%TO.N,LINTR*%
X-16775495Y-135175000D02*
X-16775495Y-135494505D01*
%TO.N,Net-(D46-Pad1)*%
X-38050000Y-86915000D02*
X-64720000Y-86915000D01*
X-74245000Y-98345000D02*
G75*
G02*
X-69165000Y-93265000I5080002J-2D01*
G01*
%TO.N,Net-(D34-Pad1)*%
X-115265000Y-143810000D02*
G75*
G03*
X-125680000Y-154225000I0J-10415000D01*
G01*
%TO.N,Net-(D41-Pad1)*%
X-112236051Y-118410000D02*
X-128220000Y-118410000D01*
%TO.N,Net-(D53-Pad2)*%
X-90120000Y-102410000D02*
X-90120000Y-94535000D01*
%TO.N,Net-(D33-Pad1)*%
X-125153949Y-138730000D02*
G75*
G02*
X-128220000Y-137460000I-1J4336047D01*
G01*
%TO.N,Net-(D45-Pad2)*%
X-52020000Y-121460000D02*
X-52020000Y-113585000D01*
%TO.N,Net-(D41-Pad1)*%
X-76150000Y-111045000D02*
X-64899829Y-111045000D01*
%TO.N,L3*%
X-60909999Y-101558757D02*
G75*
G03*
X-59347899Y-105329999I5333347J2D01*
G01*
%TO.N,Net-(D46-Pad1)*%
X-90375000Y-106980000D02*
X-93839744Y-106980000D01*
%TO.N,LINTR*%
X-16775495Y-85325495D02*
G75*
G03*
X-23440990Y-78660000I-6665494J1D01*
G01*
X-57392100Y-105330000D02*
X-55086051Y-105330000D01*
%TO.N,Net-(D46-Pad1)*%
X-67895000Y-93265000D02*
X-69165000Y-93265000D01*
%TO.N,L1*%
X-99010000Y-133308757D02*
X-99010000Y-130095000D01*
%TO.N,Net-(D43-Pad2)*%
X-109170000Y-135430000D02*
X-109170000Y-127555000D01*
%TO.N,L2*%
X-79959999Y-119338757D02*
G75*
G03*
X-78397899Y-123109999I5333347J2D01*
G01*
%TO.N,Net-(D33-Pad1)*%
X-52020000Y-124760000D02*
X-52020000Y-126030000D01*
%TO.N,Net-(D39-Pad2)*%
X-71070000Y-141780000D02*
X-71070000Y-133905000D01*
%TO.N,Net-(D34-Pad1)*%
X-71070000Y-145080000D02*
X-52020000Y-145080000D01*
%TO.N,Net-(D46-Pad1)*%
X-90120000Y-106980000D02*
X-90375000Y-106980000D01*
%TO.N,LINTR*%
X-22810000Y-159305000D02*
G75*
G03*
X-16775495Y-153270495I-1J6034506D01*
G01*
X-52020000Y-142160000D02*
G75*
G02*
X-55086051Y-143430000I-3066052J3066052D01*
G01*
%TO.N,L1*%
X-99009999Y-133308757D02*
G75*
G03*
X-97447899Y-137079999I5333347J2D01*
G01*
%TO.N,Net-(D46-Pad1)*%
X-64720000Y-85010000D02*
G75*
G02*
X-59640000Y-79930000I5080002J-2D01*
G01*
%TO.N,LINTR*%
X-47420924Y-102155000D02*
X-16775495Y-102155000D01*
%TO.N,Net-(D16-Pad2)*%
X-90120000Y-159560000D02*
X-90120000Y-151685000D01*
%TO.N,Net-(D56-Pad2)*%
X-32970000Y-157020000D02*
X-32970000Y-149145000D01*
%TO.N,Net-(D46-Pad1)*%
X-90120000Y-105710000D02*
X-90120000Y-106980000D01*
%TO.N,L2*%
X-79960000Y-119338757D02*
X-79960000Y-116125000D01*
%TO.N,Net-(D57-Pad2)*%
X-32970000Y-137970000D02*
X-32970000Y-130095000D01*
%TO.N,LINTR*%
X-16775495Y-140255000D02*
X-16775495Y-139935495D01*
%TO.N,Net-(D44-Pad2)*%
X-71070000Y-122730000D02*
X-71070000Y-114855000D01*
%TO.N,Net-(D16-Pad1)*%
X-52020000Y-164130000D02*
X-51765000Y-164130000D01*
%TO.N,LINTR*%
X-47420924Y-121205000D02*
X-16775495Y-121205000D01*
%TO.N,Net-(D16-Pad1)*%
X-52020000Y-164130000D02*
X-42168153Y-164130000D01*
%TO.N,Net-(D33-Pad2)*%
X-32970000Y-118920000D02*
X-32970000Y-111045000D01*
%TO.N,Net-(D32-Pad2)*%
X-52020000Y-159560000D02*
X-52020000Y-151685000D01*
%TO.N,L0*%
X-118060000Y-151088757D02*
X-118060000Y-147875000D01*
%TO.N,Net-(D34-Pad1)*%
X-125680000Y-154225000D02*
G75*
G02*
X-127965000Y-156510000I-2285000J0D01*
G01*
%TO.N,R0*%
X-139065000Y-50165000D02*
X-139065000Y-56790782D01*
X-139065000Y6985000D02*
X-139065000Y-16764000D01*
X-163171662Y-16764000D02*
X-139065000Y-16764000D01*
X-163171662Y-16763999D02*
G75*
G02*
X-171449999Y-13334999I0J11707337D01*
G01*
X-153698085Y-71423867D02*
G75*
G03*
X-139065000Y-56790782I1J14633084D01*
G01*
%TO.N,R1*%
X-149200000Y9400005D02*
X-149200000Y-5055000D01*
X-125800000Y15400000D02*
X-143200004Y15400000D01*
X-156210000Y-12065000D02*
X-168383949Y-12065000D01*
X-156210000Y-12065000D02*
G75*
G03*
X-149200000Y-5055000I2J7009998D01*
G01*
X-149200000Y9400005D02*
G75*
G02*
X-143200004Y15400000I5999996J-1D01*
G01*
X-125800000Y15400000D02*
G75*
G02*
X-120015000Y9615000I1J-5784999D01*
G01*
X-171450000Y-10795000D02*
G75*
G03*
X-168383949Y-12065000I3066054J3066058D01*
G01*
X-129540000Y-70620384D02*
G75*
G02*
X-120015000Y-47625000I32520386J-1D01*
G01*
%TO.N,R2*%
X-110490000Y-69350384D02*
X-110490000Y-71755000D01*
X-156210000Y-9525000D02*
X-168383949Y-9525000D01*
X-104800000Y15800000D02*
X-143200000Y15800000D01*
X-149600000Y9400000D02*
X-149600000Y-2915000D01*
X-171450000Y-8255000D02*
G75*
G03*
X-168383949Y-9525000I3066054J3066058D01*
G01*
X-149600000Y9400000D02*
G75*
G02*
X-143200000Y15800000I6400001J-1D01*
G01*
X-104800000Y15800000D02*
G75*
G02*
X-100965000Y11965000I2J-3834998D01*
G01*
X-110490000Y-69350384D02*
G75*
G02*
X-100965000Y-46355000I32520386J-1D01*
G01*
X-156210000Y-9525000D02*
G75*
G03*
X-149600000Y-2915000I1J6609999D01*
G01*
%TO.N,R3*%
X-150000000Y-775000D02*
X-150000000Y9400000D01*
X-143200000Y16200000D02*
X-88399994Y16200000D01*
X-168383949Y-6985000D02*
X-156210000Y-6985000D01*
X-81915000Y9715000D02*
G75*
G03*
X-88399994Y16200000I-6484991J9D01*
G01*
X-150000000Y-775000D02*
G75*
G02*
X-156210000Y-6985000I-6210000J0D01*
G01*
X-143200000Y16200000D02*
G75*
G03*
X-150000000Y9400000I0J-6800000D01*
G01*
X-168383949Y-6985000D02*
G75*
G02*
X-171450000Y-5715000I-1J4336047D01*
G01*
%TO.N,R5*%
X-156335000Y-1935000D02*
X-156230000Y-1935000D01*
X-168311523Y-1935000D02*
X-156335000Y-1935000D01*
X-168311523Y-1934999D02*
G75*
G02*
X-171449999Y-634999I-1J4438473D01*
G01*
%TD*%
%TA.AperFunction,Conductor*%
%TO.N,L5*%
G36*
X-10138265Y-68059587D02*
G01*
X-8365989Y-69340324D01*
X-8361291Y-69347947D01*
X-8363634Y-69357025D01*
X-9712558Y-71077763D01*
X-9720359Y-71082160D01*
X-9726028Y-71081441D01*
X-9735432Y-71077763D01*
X-10041684Y-70957989D01*
X-10042801Y-70957481D01*
X-10327106Y-70809594D01*
X-10327791Y-70809207D01*
X-10583149Y-70653205D01*
X-10583340Y-70653086D01*
X-10819301Y-70502604D01*
X-10819308Y-70502600D01*
X-10819408Y-70502536D01*
X-11045660Y-70371185D01*
X-11045972Y-70371049D01*
X-11045976Y-70371047D01*
X-11271237Y-70272899D01*
X-11271238Y-70272899D01*
X-11271756Y-70272673D01*
X-11360465Y-70253069D01*
X-11506730Y-70220745D01*
X-11506733Y-70220745D01*
X-11507442Y-70220588D01*
X-11624339Y-70224222D01*
X-11761738Y-70228492D01*
X-11761741Y-70228493D01*
X-11762465Y-70228515D01*
X-11763161Y-70228715D01*
X-11763163Y-70228715D01*
X-11915921Y-70272551D01*
X-12046569Y-70310042D01*
X-12047093Y-70310316D01*
X-12047096Y-70310317D01*
X-12063463Y-70318868D01*
X-12359920Y-70473750D01*
X-12368839Y-70474544D01*
X-12375248Y-70469598D01*
X-12469819Y-70318868D01*
X-12471313Y-70310039D01*
X-12466514Y-70302993D01*
X-12263826Y-70164336D01*
X-12109280Y-70058612D01*
X-11821522Y-69821469D01*
X-11821321Y-69821269D01*
X-11594285Y-69595099D01*
X-11594108Y-69594922D01*
X-11408626Y-69375980D01*
X-11246663Y-69161654D01*
X-11223773Y-69130614D01*
X-11089935Y-68949129D01*
X-11089678Y-68948793D01*
X-10919913Y-68735225D01*
X-10919346Y-68734564D01*
X-10718134Y-68516868D01*
X-10717349Y-68516095D01*
X-10466169Y-68291074D01*
X-10465301Y-68290368D01*
X-10152057Y-68059650D01*
X-10143363Y-68057502D01*
X-10138265Y-68059587D01*
G37*
%TD.AperFunction*%
%TD*%
%TA.AperFunction,Conductor*%
%TO.N,R4*%
G36*
X-63411279Y7796702D02*
G01*
X-63405241Y7790783D01*
X-63230670Y7405715D01*
X-63230512Y7405446D01*
X-63230510Y7405443D01*
X-63046844Y7093639D01*
X-63046839Y7093632D01*
X-63046672Y7093348D01*
X-63046475Y7093088D01*
X-63046469Y7093080D01*
X-62888342Y6885085D01*
X-62857949Y6845107D01*
X-62857730Y6844877D01*
X-62857723Y6844869D01*
X-62679677Y6658066D01*
X-62676772Y6652736D01*
X-62673764Y6640257D01*
X-62667821Y6615598D01*
X-62578614Y6419397D01*
X-62453915Y6243604D01*
X-62298225Y6094563D01*
X-62117160Y5977651D01*
X-62116644Y5977443D01*
X-61917770Y5897294D01*
X-61917765Y5897292D01*
X-61917255Y5897087D01*
X-61893352Y5892419D01*
X-61824538Y5878980D01*
X-61817806Y5875003D01*
X-61631794Y5652592D01*
X-61631075Y5651638D01*
X-61524953Y5494628D01*
X-61416921Y5334791D01*
X-61415128Y5326018D01*
X-61417450Y5320967D01*
X-62083300Y4482128D01*
X-62784441Y3598827D01*
X-63811666Y4481803D01*
X-64451749Y5032001D01*
X-64455789Y5039993D01*
X-64454817Y5045618D01*
X-64313399Y5364406D01*
X-64312812Y5365553D01*
X-64149648Y5645271D01*
X-64149168Y5646026D01*
X-63990992Y5875003D01*
X-63979130Y5892174D01*
X-63978956Y5892419D01*
X-63975380Y5897294D01*
X-63813862Y6117538D01*
X-63665726Y6334008D01*
X-63594301Y6465990D01*
X-63546735Y6553886D01*
X-63546734Y6553887D01*
X-63546490Y6554339D01*
X-63468007Y6791158D01*
X-63442131Y7057095D01*
X-63480714Y7364778D01*
X-63592319Y7716465D01*
X-63591555Y7725387D01*
X-63585503Y7730871D01*
X-63459934Y7780977D01*
X-63420233Y7796819D01*
X-63411279Y7796702D01*
G37*
%TD.AperFunction*%
%TD*%
%TA.AperFunction,Conductor*%
%TO.N,R4*%
G36*
X-171060489Y-2390472D02*
G01*
X-170902712Y-2477137D01*
X-170901725Y-2477745D01*
X-170765592Y-2571162D01*
X-170764867Y-2571702D01*
X-170648874Y-2665253D01*
X-170648532Y-2665540D01*
X-170544297Y-2756390D01*
X-170443632Y-2841471D01*
X-170443470Y-2841588D01*
X-170443464Y-2841593D01*
X-170385896Y-2883266D01*
X-170338346Y-2917687D01*
X-170338015Y-2917867D01*
X-170338009Y-2917871D01*
X-170220482Y-2981871D01*
X-170220074Y-2982093D01*
X-170080452Y-3031744D01*
X-169911115Y-3063695D01*
X-169714763Y-3074397D01*
X-169706689Y-3078269D01*
X-169703700Y-3086080D01*
X-169703700Y-3263920D01*
X-169707127Y-3272193D01*
X-169714763Y-3275603D01*
X-169911115Y-3286304D01*
X-170080452Y-3318255D01*
X-170220074Y-3367906D01*
X-170220480Y-3368127D01*
X-170220482Y-3368128D01*
X-170338009Y-3432128D01*
X-170338015Y-3432132D01*
X-170338346Y-3432312D01*
X-170338655Y-3432536D01*
X-170443464Y-3508406D01*
X-170443470Y-3508411D01*
X-170443632Y-3508528D01*
X-170544297Y-3593609D01*
X-170637389Y-3674747D01*
X-170648532Y-3684459D01*
X-170648874Y-3684746D01*
X-170764867Y-3778297D01*
X-170765592Y-3778837D01*
X-170901725Y-3872254D01*
X-170902712Y-3872862D01*
X-171060489Y-3959528D01*
X-171069390Y-3960507D01*
X-171074232Y-3957706D01*
X-171162748Y-3872584D01*
X-171879381Y-3183433D01*
X-171882969Y-3175229D01*
X-171879381Y-3166567D01*
X-171784162Y-3075000D01*
X-171074232Y-2392294D01*
X-171065893Y-2389029D01*
X-171060489Y-2390472D01*
G37*
%TD.AperFunction*%
%TD*%
%TA.AperFunction,Conductor*%
%TO.N,R5*%
G36*
X-44261104Y6544567D02*
G01*
X-44255438Y6538320D01*
X-44231116Y6475246D01*
X-44104605Y6147158D01*
X-43938707Y5828872D01*
X-43918086Y5799116D01*
X-43763087Y5575452D01*
X-43763082Y5575445D01*
X-43762884Y5575160D01*
X-43762645Y5574891D01*
X-43641674Y5438701D01*
X-43639047Y5433672D01*
X-43617821Y5345598D01*
X-43528614Y5149397D01*
X-43403915Y4973604D01*
X-43403514Y4973220D01*
X-43403513Y4973219D01*
X-43288626Y4863239D01*
X-43248225Y4824563D01*
X-43067160Y4707651D01*
X-43066644Y4707443D01*
X-42867777Y4627297D01*
X-42867774Y4627296D01*
X-42867255Y4627087D01*
X-42767373Y4607581D01*
X-42760555Y4603501D01*
X-42593254Y4398692D01*
X-42563167Y4361859D01*
X-42562447Y4360878D01*
X-42353826Y4043093D01*
X-42352151Y4034296D01*
X-42354553Y4029262D01*
X-42547365Y3793661D01*
X-43747073Y2327719D01*
X-45392819Y3785611D01*
X-45396739Y3793661D01*
X-45395685Y3799267D01*
X-45289637Y4029262D01*
X-45248371Y4118759D01*
X-45247764Y4119903D01*
X-45079867Y4397923D01*
X-45079361Y4398692D01*
X-44905150Y4641671D01*
X-44904932Y4641965D01*
X-44735579Y4863232D01*
X-44735574Y4863239D01*
X-44735521Y4863308D01*
X-44582209Y5076292D01*
X-44518452Y5186634D01*
X-44456513Y5293828D01*
X-44456510Y5293834D01*
X-44456264Y5294260D01*
X-44368844Y5530704D01*
X-44331105Y5799116D01*
X-44354203Y6112988D01*
X-44446601Y6475247D01*
X-44445325Y6484110D01*
X-44438945Y6489243D01*
X-44332193Y6524619D01*
X-44270035Y6545217D01*
X-44261104Y6544567D01*
G37*
%TD.AperFunction*%
%TD*%
%TA.AperFunction,Conductor*%
%TO.N,R6*%
G36*
X-170657107Y2274511D02*
G01*
X-170653792Y2269939D01*
X-170590400Y2112877D01*
X-170590022Y2111787D01*
X-170544597Y1956737D01*
X-170544408Y1956006D01*
X-170511716Y1810084D01*
X-170511683Y1809929D01*
X-170483560Y1673179D01*
X-170451840Y1545895D01*
X-170408291Y1428107D01*
X-170344671Y1319780D01*
X-170252736Y1220879D01*
X-170124243Y1131371D01*
X-169960852Y1055801D01*
X-169954782Y1049219D01*
X-169954828Y1041023D01*
X-169994843Y935822D01*
X-170018051Y874809D01*
X-170024196Y868295D01*
X-170032720Y867881D01*
X-170089378Y886959D01*
X-170234235Y935737D01*
X-170234246Y935740D01*
X-170234489Y935822D01*
X-170417240Y979722D01*
X-170417510Y979760D01*
X-170417518Y979761D01*
X-170539588Y996715D01*
X-170577294Y1001952D01*
X-170577556Y1001964D01*
X-170577558Y1001964D01*
X-170607323Y1003309D01*
X-170721637Y1008473D01*
X-170721812Y1008469D01*
X-170721825Y1008469D01*
X-170794750Y1006734D01*
X-170857255Y1005248D01*
X-170857321Y1005245D01*
X-170919975Y1001964D01*
X-170991088Y998240D01*
X-170991182Y998236D01*
X-171129951Y993418D01*
X-171130590Y993414D01*
X-171201954Y994974D01*
X-171281157Y996705D01*
X-171282089Y996762D01*
X-171451726Y1014075D01*
X-171452727Y1014222D01*
X-171640658Y1050008D01*
X-171648144Y1054921D01*
X-171650078Y1060045D01*
X-171789140Y2168482D01*
X-171786770Y2177117D01*
X-171778534Y2181594D01*
X-170665643Y2277217D01*
X-170657107Y2274511D01*
G37*
%TD.AperFunction*%
%TD*%
%TA.AperFunction,Conductor*%
%TO.N,R6*%
G36*
X-25191537Y6547578D02*
G01*
X-25185946Y6541271D01*
X-25167210Y6491011D01*
X-25039753Y6149103D01*
X-24877395Y5829795D01*
X-24877191Y5829496D01*
X-24877188Y5829490D01*
X-24704303Y5575402D01*
X-24704098Y5575101D01*
X-24703857Y5574826D01*
X-24594307Y5449785D01*
X-24591733Y5444816D01*
X-24567821Y5345598D01*
X-24478614Y5149397D01*
X-24353915Y4973604D01*
X-24198225Y4824563D01*
X-24017160Y4707651D01*
X-24016644Y4707443D01*
X-23817770Y4627294D01*
X-23817765Y4627292D01*
X-23817255Y4627087D01*
X-23787133Y4621205D01*
X-23715951Y4607303D01*
X-23709116Y4603201D01*
X-23545763Y4402292D01*
X-23509573Y4357782D01*
X-23508854Y4356796D01*
X-23301317Y4038850D01*
X-23299664Y4030049D01*
X-23302081Y4025019D01*
X-23484155Y3803852D01*
X-24699533Y2327525D01*
X-26341040Y3790188D01*
X-26344937Y3798250D01*
X-26343867Y3803850D01*
X-26195415Y4123450D01*
X-26194802Y4124598D01*
X-26025996Y4402292D01*
X-26025484Y4403064D01*
X-25850494Y4645410D01*
X-25850271Y4645709D01*
X-25680092Y4866256D01*
X-25680079Y4866274D01*
X-25680040Y4866324D01*
X-25525741Y5078618D01*
X-25398500Y5296101D01*
X-25309331Y5532428D01*
X-25269249Y5801253D01*
X-25289268Y6116229D01*
X-25377825Y6480410D01*
X-25376450Y6489259D01*
X-25370008Y6494322D01*
X-25200459Y6548332D01*
X-25191537Y6547578D01*
G37*
%TD.AperFunction*%
%TD*%
%TA.AperFunction,Conductor*%
%TO.N,R0*%
G36*
X-138967752Y-8678427D02*
G01*
X-138964346Y-8686006D01*
X-138940792Y-9082236D01*
X-138940708Y-9082641D01*
X-138900847Y-9275464D01*
X-138900726Y-9279511D01*
X-138928283Y-9469573D01*
X-138928257Y-9470131D01*
X-138918425Y-9682550D01*
X-138918318Y-9684872D01*
X-138867821Y-9894402D01*
X-138778614Y-10090603D01*
X-138653915Y-10266396D01*
X-138498225Y-10415437D01*
X-138317160Y-10532349D01*
X-138316644Y-10532557D01*
X-138117770Y-10612706D01*
X-138117765Y-10612708D01*
X-138117255Y-10612913D01*
X-138079207Y-10620343D01*
X-137989595Y-10637844D01*
X-137982957Y-10641710D01*
X-137909227Y-10727677D01*
X-137908584Y-10728498D01*
X-137717910Y-10995718D01*
X-137717212Y-10996821D01*
X-137539212Y-11316425D01*
X-137538181Y-11325320D01*
X-137541001Y-11330228D01*
X-138245982Y-12063321D01*
X-138245983Y-12063323D01*
X-139065000Y-12915000D01*
X-140588999Y-11330228D01*
X-140592264Y-11321889D01*
X-140590788Y-11316425D01*
X-140412787Y-10996821D01*
X-140412089Y-10995718D01*
X-140221415Y-10728498D01*
X-140220772Y-10727677D01*
X-140027714Y-10502574D01*
X-140027340Y-10502158D01*
X-139838326Y-10302002D01*
X-139660250Y-10110063D01*
X-139660109Y-10109911D01*
X-139499484Y-9908987D01*
X-139491017Y-9894908D01*
X-139363306Y-9682550D01*
X-139363304Y-9682547D01*
X-139363055Y-9682132D01*
X-139257428Y-9412248D01*
X-139189207Y-9082236D01*
X-139165654Y-8686006D01*
X-139161743Y-8677951D01*
X-139153975Y-8675000D01*
X-138976025Y-8675000D01*
X-138967752Y-8678427D01*
G37*
%TD.AperFunction*%
%TD*%
%TA.AperFunction,Conductor*%
%TO.N,R0*%
G36*
X-139056567Y7826231D02*
G01*
X-137541001Y6250228D01*
X-137537736Y6241889D01*
X-137539212Y6236425D01*
X-137717212Y5916821D01*
X-137717910Y5915718D01*
X-137908584Y5648498D01*
X-137909227Y5647677D01*
X-138102285Y5422574D01*
X-138102659Y5422158D01*
X-138291673Y5222002D01*
X-138469890Y5029911D01*
X-138630515Y4828987D01*
X-138766944Y4602132D01*
X-138872571Y4332248D01*
X-138940792Y4002236D01*
X-138940817Y4001820D01*
X-138940817Y4001818D01*
X-138964346Y3606006D01*
X-138968257Y3597950D01*
X-138976025Y3595000D01*
X-139153975Y3595000D01*
X-139162248Y3598427D01*
X-139165654Y3606006D01*
X-139189182Y4001818D01*
X-139189182Y4001820D01*
X-139189207Y4002236D01*
X-139257428Y4332248D01*
X-139363055Y4602132D01*
X-139499484Y4828987D01*
X-139660109Y5029911D01*
X-139838326Y5222002D01*
X-140027340Y5422158D01*
X-140027714Y5422574D01*
X-140220772Y5647677D01*
X-140221415Y5648498D01*
X-140412089Y5915718D01*
X-140412787Y5916821D01*
X-140590788Y6236425D01*
X-140591819Y6245320D01*
X-140588999Y6250228D01*
X-139073433Y7826231D01*
X-139065229Y7829819D01*
X-139056567Y7826231D01*
G37*
%TD.AperFunction*%
%TD*%
%TA.AperFunction,Conductor*%
%TO.N,R0*%
G36*
X-138967752Y-27728427D02*
G01*
X-138964346Y-27736006D01*
X-138940792Y-28132236D01*
X-138940708Y-28132641D01*
X-138900847Y-28325464D01*
X-138900726Y-28329511D01*
X-138928283Y-28519573D01*
X-138928257Y-28520131D01*
X-138918425Y-28732550D01*
X-138918318Y-28734872D01*
X-138867821Y-28944402D01*
X-138778614Y-29140603D01*
X-138653915Y-29316396D01*
X-138498225Y-29465437D01*
X-138317160Y-29582349D01*
X-138316644Y-29582557D01*
X-138117770Y-29662706D01*
X-138117765Y-29662708D01*
X-138117255Y-29662913D01*
X-138079207Y-29670343D01*
X-137989595Y-29687844D01*
X-137982957Y-29691710D01*
X-137909227Y-29777677D01*
X-137908584Y-29778498D01*
X-137717910Y-30045718D01*
X-137717212Y-30046821D01*
X-137539212Y-30366425D01*
X-137538181Y-30375320D01*
X-137541001Y-30380228D01*
X-138245982Y-31113321D01*
X-138245983Y-31113323D01*
X-139065000Y-31965000D01*
X-140588999Y-30380228D01*
X-140592264Y-30371889D01*
X-140590788Y-30366425D01*
X-140412787Y-30046821D01*
X-140412089Y-30045718D01*
X-140221415Y-29778498D01*
X-140220772Y-29777677D01*
X-140027714Y-29552574D01*
X-140027340Y-29552158D01*
X-139838326Y-29352002D01*
X-139660250Y-29160063D01*
X-139660109Y-29159911D01*
X-139499484Y-28958987D01*
X-139491017Y-28944908D01*
X-139363306Y-28732550D01*
X-139363304Y-28732547D01*
X-139363055Y-28732132D01*
X-139257428Y-28462248D01*
X-139189207Y-28132236D01*
X-139165654Y-27736006D01*
X-139161743Y-27727951D01*
X-139153975Y-27725000D01*
X-138976025Y-27725000D01*
X-138967752Y-27728427D01*
G37*
%TD.AperFunction*%
%TD*%
%TA.AperFunction,Conductor*%
%TO.N,R0*%
G36*
X-138246065Y-12066592D02*
G01*
X-137541001Y-12799772D01*
X-137537736Y-12808111D01*
X-137539212Y-12813575D01*
X-137717212Y-13133178D01*
X-137717910Y-13134281D01*
X-137908584Y-13401501D01*
X-137909227Y-13402322D01*
X-138102285Y-13627425D01*
X-138102659Y-13627841D01*
X-138291673Y-13827997D01*
X-138469890Y-14020088D01*
X-138630515Y-14221012D01*
X-138766944Y-14447867D01*
X-138872571Y-14717751D01*
X-138940792Y-15047763D01*
X-138940817Y-15048179D01*
X-138940817Y-15048181D01*
X-138964346Y-15443994D01*
X-138968257Y-15452050D01*
X-138976025Y-15455000D01*
X-139153975Y-15455000D01*
X-139162248Y-15451573D01*
X-139165654Y-15443994D01*
X-139189182Y-15048181D01*
X-139189182Y-15048179D01*
X-139189207Y-15047763D01*
X-139257428Y-14717751D01*
X-139363055Y-14447867D01*
X-139499484Y-14221012D01*
X-139660109Y-14020088D01*
X-139838326Y-13827997D01*
X-140027340Y-13627841D01*
X-140027714Y-13627425D01*
X-140220772Y-13402322D01*
X-140221415Y-13401501D01*
X-140412089Y-13134281D01*
X-140412787Y-13133178D01*
X-140590788Y-12813575D01*
X-140591819Y-12804680D01*
X-140588999Y-12799772D01*
X-139884018Y-12066679D01*
X-139884017Y-12066677D01*
X-139065000Y-11215000D01*
X-138246065Y-12066592D01*
G37*
%TD.AperFunction*%
%TD*%
%TA.AperFunction,Conductor*%
%TO.N,R0*%
G36*
X-138967752Y-46778427D02*
G01*
X-138964346Y-46786006D01*
X-138940792Y-47182236D01*
X-138940708Y-47182641D01*
X-138900847Y-47375464D01*
X-138900726Y-47379511D01*
X-138928283Y-47569573D01*
X-138928257Y-47570131D01*
X-138918425Y-47782550D01*
X-138918318Y-47784872D01*
X-138867821Y-47994402D01*
X-138778614Y-48190603D01*
X-138653915Y-48366396D01*
X-138498225Y-48515437D01*
X-138317160Y-48632349D01*
X-138316644Y-48632557D01*
X-138117770Y-48712706D01*
X-138117765Y-48712708D01*
X-138117255Y-48712913D01*
X-138079207Y-48720343D01*
X-137989595Y-48737844D01*
X-137982957Y-48741710D01*
X-137909227Y-48827677D01*
X-137908584Y-48828498D01*
X-137717910Y-49095718D01*
X-137717212Y-49096821D01*
X-137539212Y-49416425D01*
X-137538181Y-49425320D01*
X-137541001Y-49430228D01*
X-138245982Y-50163321D01*
X-138245983Y-50163323D01*
X-139065000Y-51015000D01*
X-140588999Y-49430228D01*
X-140592264Y-49421889D01*
X-140590788Y-49416425D01*
X-140412787Y-49096821D01*
X-140412089Y-49095718D01*
X-140221415Y-48828498D01*
X-140220772Y-48827677D01*
X-140027714Y-48602574D01*
X-140027340Y-48602158D01*
X-139838326Y-48402002D01*
X-139660250Y-48210063D01*
X-139660109Y-48209911D01*
X-139499484Y-48008987D01*
X-139491017Y-47994908D01*
X-139363306Y-47782550D01*
X-139363304Y-47782547D01*
X-139363055Y-47782132D01*
X-139257428Y-47512248D01*
X-139189207Y-47182236D01*
X-139165654Y-46786006D01*
X-139161743Y-46777951D01*
X-139153975Y-46775000D01*
X-138976025Y-46775000D01*
X-138967752Y-46778427D01*
G37*
%TD.AperFunction*%
%TD*%
%TA.AperFunction,Conductor*%
%TO.N,R0*%
G36*
X-138246065Y-31116592D02*
G01*
X-137541001Y-31849772D01*
X-137537736Y-31858111D01*
X-137539212Y-31863575D01*
X-137717212Y-32183178D01*
X-137717910Y-32184281D01*
X-137908584Y-32451501D01*
X-137909227Y-32452322D01*
X-138102285Y-32677425D01*
X-138102659Y-32677841D01*
X-138291673Y-32877997D01*
X-138469890Y-33070088D01*
X-138630515Y-33271012D01*
X-138766944Y-33497867D01*
X-138872571Y-33767751D01*
X-138940792Y-34097763D01*
X-138940817Y-34098179D01*
X-138940817Y-34098181D01*
X-138964346Y-34493994D01*
X-138968257Y-34502050D01*
X-138976025Y-34505000D01*
X-139153975Y-34505000D01*
X-139162248Y-34501573D01*
X-139165654Y-34493994D01*
X-139189182Y-34098181D01*
X-139189182Y-34098179D01*
X-139189207Y-34097763D01*
X-139257428Y-33767751D01*
X-139363055Y-33497867D01*
X-139499484Y-33271012D01*
X-139660109Y-33070088D01*
X-139838326Y-32877997D01*
X-140027340Y-32677841D01*
X-140027714Y-32677425D01*
X-140220772Y-32452322D01*
X-140221415Y-32451501D01*
X-140412089Y-32184281D01*
X-140412787Y-32183178D01*
X-140590788Y-31863575D01*
X-140591819Y-31854680D01*
X-140588999Y-31849772D01*
X-139884018Y-31116679D01*
X-139884017Y-31116677D01*
X-139065000Y-30265000D01*
X-138246065Y-31116592D01*
G37*
%TD.AperFunction*%
%TD*%
%TA.AperFunction,Conductor*%
%TO.N,R1*%
G36*
X-119196065Y-28576592D02*
G01*
X-118491001Y-29309772D01*
X-118487736Y-29318111D01*
X-118489212Y-29323575D01*
X-118667212Y-29643178D01*
X-118667910Y-29644281D01*
X-118858584Y-29911501D01*
X-118859227Y-29912322D01*
X-119052285Y-30137425D01*
X-119052659Y-30137841D01*
X-119241673Y-30337997D01*
X-119419890Y-30530088D01*
X-119580515Y-30731012D01*
X-119716944Y-30957867D01*
X-119822571Y-31227751D01*
X-119890792Y-31557763D01*
X-119890817Y-31558179D01*
X-119890817Y-31558181D01*
X-119914346Y-31953994D01*
X-119918257Y-31962050D01*
X-119926025Y-31965000D01*
X-120103975Y-31965000D01*
X-120112248Y-31961573D01*
X-120115654Y-31953994D01*
X-120139182Y-31558181D01*
X-120139182Y-31558179D01*
X-120139207Y-31557763D01*
X-120207428Y-31227751D01*
X-120313055Y-30957867D01*
X-120449484Y-30731012D01*
X-120610109Y-30530088D01*
X-120788326Y-30337997D01*
X-120977340Y-30137841D01*
X-120977714Y-30137425D01*
X-121170772Y-29912322D01*
X-121171415Y-29911501D01*
X-121362089Y-29644281D01*
X-121362787Y-29643178D01*
X-121540788Y-29323575D01*
X-121541819Y-29314680D01*
X-121538999Y-29309772D01*
X-120834018Y-28576679D01*
X-120834017Y-28576677D01*
X-120015000Y-27725000D01*
X-119196065Y-28576592D01*
G37*
%TD.AperFunction*%
%TD*%
%TA.AperFunction,Conductor*%
%TO.N,R1*%
G36*
X-119917752Y-44238427D02*
G01*
X-119914346Y-44246006D01*
X-119890792Y-44642236D01*
X-119890708Y-44642641D01*
X-119850847Y-44835464D01*
X-119850726Y-44839511D01*
X-119878283Y-45029573D01*
X-119878257Y-45030131D01*
X-119868425Y-45242550D01*
X-119868318Y-45244872D01*
X-119817821Y-45454402D01*
X-119728614Y-45650603D01*
X-119603915Y-45826396D01*
X-119448225Y-45975437D01*
X-119267160Y-46092349D01*
X-119266644Y-46092557D01*
X-119067770Y-46172706D01*
X-119067765Y-46172708D01*
X-119067255Y-46172913D01*
X-119029207Y-46180343D01*
X-118939595Y-46197844D01*
X-118932957Y-46201710D01*
X-118859227Y-46287677D01*
X-118858584Y-46288498D01*
X-118667910Y-46555718D01*
X-118667212Y-46556821D01*
X-118489212Y-46876425D01*
X-118488181Y-46885320D01*
X-118491001Y-46890228D01*
X-120015000Y-48475000D01*
X-121538999Y-46890228D01*
X-121542264Y-46881889D01*
X-121540788Y-46876425D01*
X-121362787Y-46556821D01*
X-121362089Y-46555718D01*
X-121171415Y-46288498D01*
X-121170772Y-46287677D01*
X-120977714Y-46062574D01*
X-120977340Y-46062158D01*
X-120788326Y-45862002D01*
X-120610250Y-45670063D01*
X-120610109Y-45669911D01*
X-120449484Y-45468987D01*
X-120441017Y-45454908D01*
X-120313306Y-45242550D01*
X-120313304Y-45242547D01*
X-120313055Y-45242132D01*
X-120207428Y-44972248D01*
X-120139207Y-44642236D01*
X-120115654Y-44246006D01*
X-120111743Y-44237951D01*
X-120103975Y-44235000D01*
X-119926025Y-44235000D01*
X-119917752Y-44238427D01*
G37*
%TD.AperFunction*%
%TD*%
%TA.AperFunction,Conductor*%
%TO.N,R1*%
G36*
X-119196065Y-9526592D02*
G01*
X-118491001Y-10259772D01*
X-118487736Y-10268111D01*
X-118489212Y-10273575D01*
X-118667212Y-10593178D01*
X-118667910Y-10594281D01*
X-118858584Y-10861501D01*
X-118859227Y-10862322D01*
X-119052285Y-11087425D01*
X-119052659Y-11087841D01*
X-119241673Y-11287997D01*
X-119419890Y-11480088D01*
X-119580515Y-11681012D01*
X-119716944Y-11907867D01*
X-119822571Y-12177751D01*
X-119890792Y-12507763D01*
X-119890817Y-12508179D01*
X-119890817Y-12508181D01*
X-119914346Y-12903994D01*
X-119918257Y-12912050D01*
X-119926025Y-12915000D01*
X-120103975Y-12915000D01*
X-120112248Y-12911573D01*
X-120115654Y-12903994D01*
X-120139182Y-12508181D01*
X-120139182Y-12508179D01*
X-120139207Y-12507763D01*
X-120207428Y-12177751D01*
X-120313055Y-11907867D01*
X-120449484Y-11681012D01*
X-120610109Y-11480088D01*
X-120788326Y-11287997D01*
X-120977340Y-11087841D01*
X-120977714Y-11087425D01*
X-121170772Y-10862322D01*
X-121171415Y-10861501D01*
X-121362089Y-10594281D01*
X-121362787Y-10593178D01*
X-121540788Y-10273575D01*
X-121541819Y-10264680D01*
X-121538999Y-10259772D01*
X-120834018Y-9526679D01*
X-120834017Y-9526677D01*
X-120015000Y-8675000D01*
X-119196065Y-9526592D01*
G37*
%TD.AperFunction*%
%TD*%
%TA.AperFunction,Conductor*%
%TO.N,R1*%
G36*
X-119917752Y-25188427D02*
G01*
X-119914346Y-25196006D01*
X-119890792Y-25592236D01*
X-119890708Y-25592641D01*
X-119850847Y-25785464D01*
X-119850726Y-25789511D01*
X-119878283Y-25979573D01*
X-119878257Y-25980131D01*
X-119868425Y-26192550D01*
X-119868318Y-26194872D01*
X-119817821Y-26404402D01*
X-119728614Y-26600603D01*
X-119603915Y-26776396D01*
X-119448225Y-26925437D01*
X-119267160Y-27042349D01*
X-119266644Y-27042557D01*
X-119067770Y-27122706D01*
X-119067765Y-27122708D01*
X-119067255Y-27122913D01*
X-119029207Y-27130343D01*
X-118939595Y-27147844D01*
X-118932957Y-27151710D01*
X-118859227Y-27237677D01*
X-118858584Y-27238498D01*
X-118667910Y-27505718D01*
X-118667212Y-27506821D01*
X-118489212Y-27826425D01*
X-118488181Y-27835320D01*
X-118491001Y-27840228D01*
X-119195982Y-28573321D01*
X-119195983Y-28573323D01*
X-120015000Y-29425000D01*
X-121538999Y-27840228D01*
X-121542264Y-27831889D01*
X-121540788Y-27826425D01*
X-121362787Y-27506821D01*
X-121362089Y-27505718D01*
X-121171415Y-27238498D01*
X-121170772Y-27237677D01*
X-120977714Y-27012574D01*
X-120977340Y-27012158D01*
X-120788326Y-26812002D01*
X-120610250Y-26620063D01*
X-120610109Y-26619911D01*
X-120449484Y-26418987D01*
X-120441017Y-26404908D01*
X-120313306Y-26192550D01*
X-120313304Y-26192547D01*
X-120313055Y-26192132D01*
X-120207428Y-25922248D01*
X-120139207Y-25592236D01*
X-120115654Y-25196006D01*
X-120111743Y-25187951D01*
X-120103975Y-25185000D01*
X-119926025Y-25185000D01*
X-119917752Y-25188427D01*
G37*
%TD.AperFunction*%
%TD*%
%TA.AperFunction,Conductor*%
%TO.N,R1*%
G36*
X-119248959Y9578411D02*
G01*
X-119162128Y9488118D01*
X-118491001Y8790228D01*
X-118487736Y8781889D01*
X-118489212Y8776425D01*
X-118667212Y8456821D01*
X-118667910Y8455718D01*
X-118858584Y8188498D01*
X-118859227Y8187677D01*
X-119052285Y7962574D01*
X-119052659Y7962158D01*
X-119241673Y7762002D01*
X-119419890Y7569911D01*
X-119580515Y7368987D01*
X-119716944Y7142132D01*
X-119822571Y6872248D01*
X-119890792Y6542236D01*
X-119890817Y6541820D01*
X-119890817Y6541818D01*
X-119914346Y6146006D01*
X-119918257Y6137950D01*
X-119926025Y6135000D01*
X-120103975Y6135000D01*
X-120112248Y6138427D01*
X-120115654Y6146006D01*
X-120139182Y6541818D01*
X-120139182Y6541820D01*
X-120139207Y6542236D01*
X-120207428Y6872248D01*
X-120313055Y7142132D01*
X-120449484Y7368987D01*
X-120610109Y7569911D01*
X-120788326Y7762002D01*
X-120977340Y7962158D01*
X-120977714Y7962574D01*
X-121170772Y8187677D01*
X-121171415Y8188498D01*
X-121362089Y8455718D01*
X-121362787Y8456821D01*
X-121540788Y8776425D01*
X-121541819Y8785320D01*
X-121538999Y8790228D01*
X-120892764Y9462233D01*
X-120015000Y10375000D01*
X-119248959Y9578411D01*
G37*
%TD.AperFunction*%
%TD*%
%TA.AperFunction,Conductor*%
%TO.N,R1*%
G36*
X-119917752Y-6138427D02*
G01*
X-119914346Y-6146006D01*
X-119890792Y-6542236D01*
X-119890708Y-6542641D01*
X-119850847Y-6735464D01*
X-119850726Y-6739511D01*
X-119878283Y-6929573D01*
X-119878257Y-6930131D01*
X-119868425Y-7142550D01*
X-119868318Y-7144872D01*
X-119817821Y-7354402D01*
X-119728614Y-7550603D01*
X-119603915Y-7726396D01*
X-119448225Y-7875437D01*
X-119267160Y-7992349D01*
X-119266644Y-7992557D01*
X-119067770Y-8072706D01*
X-119067765Y-8072708D01*
X-119067255Y-8072913D01*
X-119029207Y-8080343D01*
X-118939595Y-8097844D01*
X-118932957Y-8101710D01*
X-118859227Y-8187677D01*
X-118858584Y-8188498D01*
X-118667910Y-8455718D01*
X-118667212Y-8456821D01*
X-118489212Y-8776425D01*
X-118488181Y-8785320D01*
X-118491001Y-8790228D01*
X-119195982Y-9523321D01*
X-119195983Y-9523323D01*
X-120015000Y-10375000D01*
X-121538999Y-8790228D01*
X-121542264Y-8781889D01*
X-121540788Y-8776425D01*
X-121362787Y-8456821D01*
X-121362089Y-8455718D01*
X-121171415Y-8188498D01*
X-121170772Y-8187677D01*
X-120977714Y-7962574D01*
X-120977340Y-7962158D01*
X-120788326Y-7762002D01*
X-120610250Y-7570063D01*
X-120610109Y-7569911D01*
X-120449484Y-7368987D01*
X-120441017Y-7354908D01*
X-120313306Y-7142550D01*
X-120313304Y-7142547D01*
X-120313055Y-7142132D01*
X-120207428Y-6872248D01*
X-120139207Y-6542236D01*
X-120115654Y-6146006D01*
X-120111743Y-6137951D01*
X-120103975Y-6135000D01*
X-119926025Y-6135000D01*
X-119917752Y-6138427D01*
G37*
%TD.AperFunction*%
%TD*%
%TA.AperFunction,Conductor*%
%TO.N,R2*%
G36*
X-100119066Y10765333D02*
G01*
X-99441001Y10060228D01*
X-99437736Y10051889D01*
X-99439212Y10046425D01*
X-99617212Y9726821D01*
X-99617910Y9725718D01*
X-99808584Y9458498D01*
X-99809227Y9457677D01*
X-100002285Y9232574D01*
X-100002659Y9232158D01*
X-100191673Y9032002D01*
X-100369890Y8839911D01*
X-100530515Y8638987D01*
X-100666944Y8412132D01*
X-100772571Y8142248D01*
X-100840792Y7812236D01*
X-100840817Y7811820D01*
X-100840817Y7811818D01*
X-100864346Y7416006D01*
X-100868257Y7407950D01*
X-100876025Y7405000D01*
X-101053975Y7405000D01*
X-101062248Y7408427D01*
X-101065654Y7416006D01*
X-101089182Y7811818D01*
X-101089182Y7811820D01*
X-101089207Y7812236D01*
X-101157428Y8142248D01*
X-101263055Y8412132D01*
X-101399484Y8638987D01*
X-101560109Y8839911D01*
X-101738326Y9032002D01*
X-101927340Y9232158D01*
X-101927714Y9232574D01*
X-102120772Y9457677D01*
X-102121415Y9458498D01*
X-102312089Y9725718D01*
X-102312787Y9726821D01*
X-102490788Y10046425D01*
X-102491819Y10055320D01*
X-102488999Y10060228D01*
X-101812436Y10763770D01*
X-101812436Y10763771D01*
X-100965000Y11645000D01*
X-100119066Y10765333D01*
G37*
%TD.AperFunction*%
%TD*%
%TA.AperFunction,Conductor*%
%TO.N,R2*%
G36*
X-100867752Y-4868427D02*
G01*
X-100864346Y-4876006D01*
X-100840792Y-5272236D01*
X-100840708Y-5272641D01*
X-100800847Y-5465464D01*
X-100800726Y-5469511D01*
X-100828283Y-5659573D01*
X-100828257Y-5660131D01*
X-100818425Y-5872550D01*
X-100818318Y-5874872D01*
X-100767821Y-6084402D01*
X-100678614Y-6280603D01*
X-100553915Y-6456396D01*
X-100398225Y-6605437D01*
X-100217160Y-6722349D01*
X-100216644Y-6722557D01*
X-100017770Y-6802706D01*
X-100017765Y-6802708D01*
X-100017255Y-6802913D01*
X-99979207Y-6810343D01*
X-99889595Y-6827844D01*
X-99882957Y-6831710D01*
X-99809227Y-6917677D01*
X-99808584Y-6918498D01*
X-99617910Y-7185718D01*
X-99617212Y-7186821D01*
X-99439212Y-7506425D01*
X-99438181Y-7515320D01*
X-99441001Y-7520228D01*
X-100145982Y-8253321D01*
X-100145983Y-8253323D01*
X-100965000Y-9105000D01*
X-102488999Y-7520228D01*
X-102492264Y-7511889D01*
X-102490788Y-7506425D01*
X-102312787Y-7186821D01*
X-102312089Y-7185718D01*
X-102121415Y-6918498D01*
X-102120772Y-6917677D01*
X-101927714Y-6692574D01*
X-101927340Y-6692158D01*
X-101738326Y-6492002D01*
X-101560250Y-6300063D01*
X-101560109Y-6299911D01*
X-101399484Y-6098987D01*
X-101391017Y-6084908D01*
X-101263306Y-5872550D01*
X-101263304Y-5872547D01*
X-101263055Y-5872132D01*
X-101157428Y-5602248D01*
X-101089207Y-5272236D01*
X-101065654Y-4876006D01*
X-101061743Y-4867951D01*
X-101053975Y-4865000D01*
X-100876025Y-4865000D01*
X-100867752Y-4868427D01*
G37*
%TD.AperFunction*%
%TD*%
%TA.AperFunction,Conductor*%
%TO.N,R2*%
G36*
X-100867752Y-23918427D02*
G01*
X-100864346Y-23926006D01*
X-100840792Y-24322236D01*
X-100840708Y-24322641D01*
X-100800847Y-24515464D01*
X-100800726Y-24519511D01*
X-100828283Y-24709573D01*
X-100828257Y-24710131D01*
X-100818425Y-24922550D01*
X-100818318Y-24924872D01*
X-100767821Y-25134402D01*
X-100678614Y-25330603D01*
X-100553915Y-25506396D01*
X-100398225Y-25655437D01*
X-100217160Y-25772349D01*
X-100216644Y-25772557D01*
X-100017770Y-25852706D01*
X-100017765Y-25852708D01*
X-100017255Y-25852913D01*
X-99979207Y-25860343D01*
X-99889595Y-25877844D01*
X-99882957Y-25881710D01*
X-99809227Y-25967677D01*
X-99808584Y-25968498D01*
X-99617910Y-26235718D01*
X-99617212Y-26236821D01*
X-99439212Y-26556425D01*
X-99438181Y-26565320D01*
X-99441001Y-26570228D01*
X-100145982Y-27303321D01*
X-100145983Y-27303323D01*
X-100965000Y-28155000D01*
X-102488999Y-26570228D01*
X-102492264Y-26561889D01*
X-102490788Y-26556425D01*
X-102312787Y-26236821D01*
X-102312089Y-26235718D01*
X-102121415Y-25968498D01*
X-102120772Y-25967677D01*
X-101927714Y-25742574D01*
X-101927340Y-25742158D01*
X-101738326Y-25542002D01*
X-101560250Y-25350063D01*
X-101560109Y-25349911D01*
X-101399484Y-25148987D01*
X-101391017Y-25134908D01*
X-101263306Y-24922550D01*
X-101263304Y-24922547D01*
X-101263055Y-24922132D01*
X-101157428Y-24652248D01*
X-101089207Y-24322236D01*
X-101065654Y-23926006D01*
X-101061743Y-23917951D01*
X-101053975Y-23915000D01*
X-100876025Y-23915000D01*
X-100867752Y-23918427D01*
G37*
%TD.AperFunction*%
%TD*%
%TA.AperFunction,Conductor*%
%TO.N,R2*%
G36*
X-100146065Y-8256592D02*
G01*
X-99441001Y-8989772D01*
X-99437736Y-8998111D01*
X-99439212Y-9003575D01*
X-99617212Y-9323178D01*
X-99617910Y-9324281D01*
X-99808584Y-9591501D01*
X-99809227Y-9592322D01*
X-100002285Y-9817425D01*
X-100002659Y-9817841D01*
X-100191673Y-10017997D01*
X-100369890Y-10210088D01*
X-100530515Y-10411012D01*
X-100666944Y-10637867D01*
X-100772571Y-10907751D01*
X-100840792Y-11237763D01*
X-100840817Y-11238179D01*
X-100840817Y-11238181D01*
X-100864346Y-11633994D01*
X-100868257Y-11642050D01*
X-100876025Y-11645000D01*
X-101053975Y-11645000D01*
X-101062248Y-11641573D01*
X-101065654Y-11633994D01*
X-101089182Y-11238181D01*
X-101089182Y-11238179D01*
X-101089207Y-11237763D01*
X-101157428Y-10907751D01*
X-101263055Y-10637867D01*
X-101399484Y-10411012D01*
X-101560109Y-10210088D01*
X-101738326Y-10017997D01*
X-101927340Y-9817841D01*
X-101927714Y-9817425D01*
X-102120772Y-9592322D01*
X-102121415Y-9591501D01*
X-102312089Y-9324281D01*
X-102312787Y-9323178D01*
X-102490788Y-9003575D01*
X-102491819Y-8994680D01*
X-102488999Y-8989772D01*
X-101784018Y-8256679D01*
X-101784017Y-8256677D01*
X-100965000Y-7405000D01*
X-100146065Y-8256592D01*
G37*
%TD.AperFunction*%
%TD*%
%TA.AperFunction,Conductor*%
%TO.N,R2*%
G36*
X-100867752Y-42968427D02*
G01*
X-100864346Y-42976006D01*
X-100840792Y-43372236D01*
X-100840708Y-43372641D01*
X-100800847Y-43565464D01*
X-100800726Y-43569511D01*
X-100828283Y-43759573D01*
X-100828257Y-43760131D01*
X-100818425Y-43972550D01*
X-100818318Y-43974872D01*
X-100767821Y-44184402D01*
X-100678614Y-44380603D01*
X-100553915Y-44556396D01*
X-100398225Y-44705437D01*
X-100217160Y-44822349D01*
X-100216644Y-44822557D01*
X-100017770Y-44902706D01*
X-100017765Y-44902708D01*
X-100017255Y-44902913D01*
X-99979207Y-44910343D01*
X-99889595Y-44927844D01*
X-99882957Y-44931710D01*
X-99809227Y-45017677D01*
X-99808584Y-45018498D01*
X-99617910Y-45285718D01*
X-99617212Y-45286821D01*
X-99439212Y-45606425D01*
X-99438181Y-45615320D01*
X-99441001Y-45620228D01*
X-100965000Y-47205000D01*
X-102488999Y-45620228D01*
X-102492264Y-45611889D01*
X-102490788Y-45606425D01*
X-102312787Y-45286821D01*
X-102312089Y-45285718D01*
X-102121415Y-45018498D01*
X-102120772Y-45017677D01*
X-101927714Y-44792574D01*
X-101927340Y-44792158D01*
X-101738326Y-44592002D01*
X-101560250Y-44400063D01*
X-101560109Y-44399911D01*
X-101399484Y-44198987D01*
X-101391017Y-44184908D01*
X-101263306Y-43972550D01*
X-101263304Y-43972547D01*
X-101263055Y-43972132D01*
X-101157428Y-43702248D01*
X-101089207Y-43372236D01*
X-101065654Y-42976006D01*
X-101061743Y-42967951D01*
X-101053975Y-42965000D01*
X-100876025Y-42965000D01*
X-100867752Y-42968427D01*
G37*
%TD.AperFunction*%
%TD*%
%TA.AperFunction,Conductor*%
%TO.N,R2*%
G36*
X-100146065Y-27306592D02*
G01*
X-99441001Y-28039772D01*
X-99437736Y-28048111D01*
X-99439212Y-28053575D01*
X-99617212Y-28373178D01*
X-99617910Y-28374281D01*
X-99808584Y-28641501D01*
X-99809227Y-28642322D01*
X-100002285Y-28867425D01*
X-100002659Y-28867841D01*
X-100191673Y-29067997D01*
X-100369890Y-29260088D01*
X-100530515Y-29461012D01*
X-100666944Y-29687867D01*
X-100772571Y-29957751D01*
X-100840792Y-30287763D01*
X-100840817Y-30288179D01*
X-100840817Y-30288181D01*
X-100864346Y-30683994D01*
X-100868257Y-30692050D01*
X-100876025Y-30695000D01*
X-101053975Y-30695000D01*
X-101062248Y-30691573D01*
X-101065654Y-30683994D01*
X-101089182Y-30288181D01*
X-101089182Y-30288179D01*
X-101089207Y-30287763D01*
X-101157428Y-29957751D01*
X-101263055Y-29687867D01*
X-101399484Y-29461012D01*
X-101560109Y-29260088D01*
X-101738326Y-29067997D01*
X-101927340Y-28867841D01*
X-101927714Y-28867425D01*
X-102120772Y-28642322D01*
X-102121415Y-28641501D01*
X-102312089Y-28374281D01*
X-102312787Y-28373178D01*
X-102490788Y-28053575D01*
X-102491819Y-28044680D01*
X-102488999Y-28039772D01*
X-101784018Y-27306679D01*
X-101784017Y-27306677D01*
X-100965000Y-26455000D01*
X-100146065Y-27306592D01*
G37*
%TD.AperFunction*%
%TD*%
%TA.AperFunction,Conductor*%
%TO.N,R3*%
G36*
X-81096065Y-28576592D02*
G01*
X-80391001Y-29309772D01*
X-80387736Y-29318111D01*
X-80389212Y-29323575D01*
X-80567212Y-29643178D01*
X-80567910Y-29644281D01*
X-80758584Y-29911501D01*
X-80759227Y-29912322D01*
X-80952285Y-30137425D01*
X-80952659Y-30137841D01*
X-81141673Y-30337997D01*
X-81319890Y-30530088D01*
X-81480515Y-30731012D01*
X-81616944Y-30957867D01*
X-81722571Y-31227751D01*
X-81790792Y-31557763D01*
X-81790817Y-31558179D01*
X-81790817Y-31558181D01*
X-81814346Y-31953994D01*
X-81818257Y-31962050D01*
X-81826025Y-31965000D01*
X-82003975Y-31965000D01*
X-82012248Y-31961573D01*
X-82015654Y-31953994D01*
X-82039182Y-31558181D01*
X-82039182Y-31558179D01*
X-82039207Y-31557763D01*
X-82107428Y-31227751D01*
X-82213055Y-30957867D01*
X-82349484Y-30731012D01*
X-82510109Y-30530088D01*
X-82688326Y-30337997D01*
X-82877340Y-30137841D01*
X-82877714Y-30137425D01*
X-83070772Y-29912322D01*
X-83071415Y-29911501D01*
X-83262089Y-29644281D01*
X-83262787Y-29643178D01*
X-83440788Y-29323575D01*
X-83441819Y-29314680D01*
X-83438999Y-29309772D01*
X-82734018Y-28576679D01*
X-82734017Y-28576677D01*
X-81915000Y-27725000D01*
X-81096065Y-28576592D01*
G37*
%TD.AperFunction*%
%TD*%
%TA.AperFunction,Conductor*%
%TO.N,R3*%
G36*
X-81817752Y-44238427D02*
G01*
X-81814346Y-44246006D01*
X-81790792Y-44642236D01*
X-81790708Y-44642641D01*
X-81750847Y-44835464D01*
X-81750726Y-44839511D01*
X-81778283Y-45029573D01*
X-81778257Y-45030131D01*
X-81768425Y-45242550D01*
X-81768318Y-45244872D01*
X-81717821Y-45454402D01*
X-81628614Y-45650603D01*
X-81503915Y-45826396D01*
X-81348225Y-45975437D01*
X-81167160Y-46092349D01*
X-81166644Y-46092557D01*
X-80967770Y-46172706D01*
X-80967765Y-46172708D01*
X-80967255Y-46172913D01*
X-80929207Y-46180343D01*
X-80839595Y-46197844D01*
X-80832957Y-46201710D01*
X-80759227Y-46287677D01*
X-80758584Y-46288498D01*
X-80567910Y-46555718D01*
X-80567212Y-46556821D01*
X-80389212Y-46876425D01*
X-80388181Y-46885320D01*
X-80391001Y-46890228D01*
X-81906567Y-48466231D01*
X-81914771Y-48469819D01*
X-81923433Y-48466231D01*
X-83438999Y-46890228D01*
X-83442264Y-46881889D01*
X-83440788Y-46876425D01*
X-83262787Y-46556821D01*
X-83262089Y-46555718D01*
X-83071415Y-46288498D01*
X-83070772Y-46287677D01*
X-82877714Y-46062574D01*
X-82877340Y-46062158D01*
X-82688326Y-45862002D01*
X-82510250Y-45670063D01*
X-82510109Y-45669911D01*
X-82349484Y-45468987D01*
X-82341017Y-45454908D01*
X-82213306Y-45242550D01*
X-82213304Y-45242547D01*
X-82213055Y-45242132D01*
X-82107428Y-44972248D01*
X-82039207Y-44642236D01*
X-82015654Y-44246006D01*
X-82011743Y-44237951D01*
X-82003975Y-44235000D01*
X-81826025Y-44235000D01*
X-81817752Y-44238427D01*
G37*
%TD.AperFunction*%
%TD*%
%TA.AperFunction,Conductor*%
%TO.N,R3*%
G36*
X-81817752Y-25188427D02*
G01*
X-81814346Y-25196006D01*
X-81790792Y-25592236D01*
X-81790708Y-25592641D01*
X-81750847Y-25785464D01*
X-81750726Y-25789511D01*
X-81778283Y-25979573D01*
X-81778257Y-25980131D01*
X-81768425Y-26192550D01*
X-81768318Y-26194872D01*
X-81717821Y-26404402D01*
X-81628614Y-26600603D01*
X-81503915Y-26776396D01*
X-81348225Y-26925437D01*
X-81167160Y-27042349D01*
X-81166644Y-27042557D01*
X-80967770Y-27122706D01*
X-80967765Y-27122708D01*
X-80967255Y-27122913D01*
X-80929207Y-27130343D01*
X-80839595Y-27147844D01*
X-80832957Y-27151710D01*
X-80759227Y-27237677D01*
X-80758584Y-27238498D01*
X-80567910Y-27505718D01*
X-80567212Y-27506821D01*
X-80389212Y-27826425D01*
X-80388181Y-27835320D01*
X-80391001Y-27840228D01*
X-81095982Y-28573321D01*
X-81095983Y-28573323D01*
X-81915000Y-29425000D01*
X-83438999Y-27840228D01*
X-83442264Y-27831889D01*
X-83440788Y-27826425D01*
X-83262787Y-27506821D01*
X-83262089Y-27505718D01*
X-83071415Y-27238498D01*
X-83070772Y-27237677D01*
X-82877714Y-27012574D01*
X-82877340Y-27012158D01*
X-82688326Y-26812002D01*
X-82510250Y-26620063D01*
X-82510109Y-26619911D01*
X-82349484Y-26418987D01*
X-82341017Y-26404908D01*
X-82213306Y-26192550D01*
X-82213304Y-26192547D01*
X-82213055Y-26192132D01*
X-82107428Y-25922248D01*
X-82039207Y-25592236D01*
X-82015654Y-25196006D01*
X-82011743Y-25187951D01*
X-82003975Y-25185000D01*
X-81826025Y-25185000D01*
X-81817752Y-25188427D01*
G37*
%TD.AperFunction*%
%TD*%
%TA.AperFunction,Conductor*%
%TO.N,R3*%
G36*
X-81096065Y-9526592D02*
G01*
X-80391001Y-10259772D01*
X-80387736Y-10268111D01*
X-80389212Y-10273575D01*
X-80567212Y-10593178D01*
X-80567910Y-10594281D01*
X-80758584Y-10861501D01*
X-80759227Y-10862322D01*
X-80952285Y-11087425D01*
X-80952659Y-11087841D01*
X-81141673Y-11287997D01*
X-81319890Y-11480088D01*
X-81480515Y-11681012D01*
X-81616944Y-11907867D01*
X-81722571Y-12177751D01*
X-81790792Y-12507763D01*
X-81790817Y-12508179D01*
X-81790817Y-12508181D01*
X-81814346Y-12903994D01*
X-81818257Y-12912050D01*
X-81826025Y-12915000D01*
X-82003975Y-12915000D01*
X-82012248Y-12911573D01*
X-82015654Y-12903994D01*
X-82039182Y-12508181D01*
X-82039182Y-12508179D01*
X-82039207Y-12507763D01*
X-82107428Y-12177751D01*
X-82213055Y-11907867D01*
X-82349484Y-11681012D01*
X-82510109Y-11480088D01*
X-82688326Y-11287997D01*
X-82877340Y-11087841D01*
X-82877714Y-11087425D01*
X-83070772Y-10862322D01*
X-83071415Y-10861501D01*
X-83262089Y-10594281D01*
X-83262787Y-10593178D01*
X-83440788Y-10273575D01*
X-83441819Y-10264680D01*
X-83438999Y-10259772D01*
X-82734018Y-9526679D01*
X-82734017Y-9526677D01*
X-81915000Y-8675000D01*
X-81096065Y-9526592D01*
G37*
%TD.AperFunction*%
%TD*%
%TA.AperFunction,Conductor*%
%TO.N,R3*%
G36*
X-81817752Y-6138427D02*
G01*
X-81814346Y-6146006D01*
X-81790792Y-6542236D01*
X-81790708Y-6542641D01*
X-81750847Y-6735464D01*
X-81750726Y-6739511D01*
X-81778283Y-6929573D01*
X-81778257Y-6930131D01*
X-81768425Y-7142550D01*
X-81768318Y-7144872D01*
X-81717821Y-7354402D01*
X-81628614Y-7550603D01*
X-81503915Y-7726396D01*
X-81348225Y-7875437D01*
X-81167160Y-7992349D01*
X-81166644Y-7992557D01*
X-80967770Y-8072706D01*
X-80967765Y-8072708D01*
X-80967255Y-8072913D01*
X-80929207Y-8080343D01*
X-80839595Y-8097844D01*
X-80832957Y-8101710D01*
X-80759227Y-8187677D01*
X-80758584Y-8188498D01*
X-80567910Y-8455718D01*
X-80567212Y-8456821D01*
X-80389212Y-8776425D01*
X-80388181Y-8785320D01*
X-80391001Y-8790228D01*
X-81095982Y-9523321D01*
X-81095983Y-9523323D01*
X-81915000Y-10375000D01*
X-83438999Y-8790228D01*
X-83442264Y-8781889D01*
X-83440788Y-8776425D01*
X-83262787Y-8456821D01*
X-83262089Y-8455718D01*
X-83071415Y-8188498D01*
X-83070772Y-8187677D01*
X-82877714Y-7962574D01*
X-82877340Y-7962158D01*
X-82688326Y-7762002D01*
X-82510250Y-7570063D01*
X-82510109Y-7569911D01*
X-82349484Y-7368987D01*
X-82341017Y-7354908D01*
X-82213306Y-7142550D01*
X-82213304Y-7142547D01*
X-82213055Y-7142132D01*
X-82107428Y-6872248D01*
X-82039207Y-6542236D01*
X-82015654Y-6146006D01*
X-82011743Y-6137951D01*
X-82003975Y-6135000D01*
X-81826025Y-6135000D01*
X-81817752Y-6138427D01*
G37*
%TD.AperFunction*%
%TD*%
%TA.AperFunction,Conductor*%
%TO.N,R3*%
G36*
X-81141015Y9570150D02*
G01*
X-81047403Y9472805D01*
X-80391001Y8790228D01*
X-80387736Y8781889D01*
X-80389212Y8776425D01*
X-80567212Y8456821D01*
X-80567910Y8455718D01*
X-80758584Y8188498D01*
X-80759227Y8187677D01*
X-80952285Y7962574D01*
X-80952659Y7962158D01*
X-81141673Y7762002D01*
X-81319890Y7569911D01*
X-81480515Y7368987D01*
X-81616944Y7142132D01*
X-81722571Y6872248D01*
X-81790792Y6542236D01*
X-81790817Y6541820D01*
X-81790817Y6541818D01*
X-81814346Y6146006D01*
X-81818257Y6137950D01*
X-81826025Y6135000D01*
X-82003975Y6135000D01*
X-82012248Y6138427D01*
X-82015654Y6146006D01*
X-82039182Y6541818D01*
X-82039182Y6541820D01*
X-82039207Y6542236D01*
X-82107428Y6872248D01*
X-82213055Y7142132D01*
X-82349484Y7368987D01*
X-82510109Y7569911D01*
X-82688326Y7762002D01*
X-82877340Y7962158D01*
X-82877714Y7962574D01*
X-83070772Y8187677D01*
X-83071415Y8188498D01*
X-83262089Y8455718D01*
X-83262787Y8456821D01*
X-83440788Y8776425D01*
X-83441819Y8785320D01*
X-83438999Y8790228D01*
X-82782597Y9472805D01*
X-82782597Y9472806D01*
X-81915000Y10375000D01*
X-81141015Y9570150D01*
G37*
%TD.AperFunction*%
%TD*%
%TA.AperFunction,Conductor*%
%TO.N,R4*%
G36*
X-62081967Y4480742D02*
G01*
X-61341001Y3710228D01*
X-61337736Y3701889D01*
X-61339212Y3696425D01*
X-61517212Y3376821D01*
X-61517910Y3375718D01*
X-61708584Y3108498D01*
X-61709227Y3107677D01*
X-61902285Y2882574D01*
X-61902659Y2882158D01*
X-62091673Y2682002D01*
X-62269890Y2489911D01*
X-62430515Y2288987D01*
X-62566944Y2062132D01*
X-62672571Y1792248D01*
X-62740792Y1462236D01*
X-62740817Y1461820D01*
X-62740817Y1461818D01*
X-62764346Y1066006D01*
X-62768257Y1057950D01*
X-62776025Y1055000D01*
X-62953975Y1055000D01*
X-62962248Y1058427D01*
X-62965654Y1066006D01*
X-62989182Y1461818D01*
X-62989182Y1461820D01*
X-62989207Y1462236D01*
X-63057428Y1792248D01*
X-63163055Y2062132D01*
X-63299484Y2288987D01*
X-63460109Y2489911D01*
X-63638326Y2682002D01*
X-63827340Y2882158D01*
X-63827714Y2882574D01*
X-64020772Y3107677D01*
X-64021415Y3108498D01*
X-64212089Y3375718D01*
X-64212787Y3376821D01*
X-64390788Y3696425D01*
X-64391819Y3705320D01*
X-64388999Y3710228D01*
X-63723139Y4402640D01*
X-63723138Y4402641D01*
X-62865000Y5295000D01*
X-62081967Y4480742D01*
G37*
%TD.AperFunction*%
%TD*%
%TA.AperFunction,Conductor*%
%TO.N,R4*%
G36*
X-62767752Y-11218427D02*
G01*
X-62764346Y-11226006D01*
X-62740792Y-11622236D01*
X-62740708Y-11622641D01*
X-62700847Y-11815464D01*
X-62700726Y-11819511D01*
X-62728283Y-12009573D01*
X-62728257Y-12010131D01*
X-62718425Y-12222550D01*
X-62718318Y-12224872D01*
X-62667821Y-12434402D01*
X-62578614Y-12630603D01*
X-62453915Y-12806396D01*
X-62298225Y-12955437D01*
X-62117160Y-13072349D01*
X-62116644Y-13072557D01*
X-61917770Y-13152706D01*
X-61917765Y-13152708D01*
X-61917255Y-13152913D01*
X-61879207Y-13160343D01*
X-61789595Y-13177844D01*
X-61782957Y-13181710D01*
X-61709227Y-13267677D01*
X-61708584Y-13268498D01*
X-61517910Y-13535718D01*
X-61517212Y-13536821D01*
X-61339212Y-13856425D01*
X-61338181Y-13865320D01*
X-61341001Y-13870228D01*
X-62045982Y-14603321D01*
X-62045983Y-14603323D01*
X-62865000Y-15455000D01*
X-64388999Y-13870228D01*
X-64392264Y-13861889D01*
X-64390788Y-13856425D01*
X-64212787Y-13536821D01*
X-64212089Y-13535718D01*
X-64021415Y-13268498D01*
X-64020772Y-13267677D01*
X-63827714Y-13042574D01*
X-63827340Y-13042158D01*
X-63638326Y-12842002D01*
X-63460250Y-12650063D01*
X-63460109Y-12649911D01*
X-63299484Y-12448987D01*
X-63291017Y-12434908D01*
X-63163306Y-12222550D01*
X-63163304Y-12222547D01*
X-63163055Y-12222132D01*
X-63057428Y-11952248D01*
X-62989207Y-11622236D01*
X-62965654Y-11226006D01*
X-62961743Y-11217951D01*
X-62953975Y-11215000D01*
X-62776025Y-11215000D01*
X-62767752Y-11218427D01*
G37*
%TD.AperFunction*%
%TD*%
%TA.AperFunction,Conductor*%
%TO.N,R4*%
G36*
X-62767752Y-30268427D02*
G01*
X-62764346Y-30276006D01*
X-62740792Y-30672236D01*
X-62740708Y-30672641D01*
X-62700847Y-30865464D01*
X-62700726Y-30869511D01*
X-62728283Y-31059573D01*
X-62728257Y-31060131D01*
X-62718425Y-31272550D01*
X-62718318Y-31274872D01*
X-62667821Y-31484402D01*
X-62578614Y-31680603D01*
X-62453915Y-31856396D01*
X-62298225Y-32005437D01*
X-62117160Y-32122349D01*
X-62116644Y-32122557D01*
X-61917770Y-32202706D01*
X-61917765Y-32202708D01*
X-61917255Y-32202913D01*
X-61879207Y-32210343D01*
X-61789595Y-32227844D01*
X-61782957Y-32231710D01*
X-61709227Y-32317677D01*
X-61708584Y-32318498D01*
X-61517910Y-32585718D01*
X-61517212Y-32586821D01*
X-61339212Y-32906425D01*
X-61338181Y-32915320D01*
X-61341001Y-32920228D01*
X-62045982Y-33653321D01*
X-62045983Y-33653323D01*
X-62865000Y-34505000D01*
X-64388999Y-32920228D01*
X-64392264Y-32911889D01*
X-64390788Y-32906425D01*
X-64212787Y-32586821D01*
X-64212089Y-32585718D01*
X-64021415Y-32318498D01*
X-64020772Y-32317677D01*
X-63827714Y-32092574D01*
X-63827340Y-32092158D01*
X-63638326Y-31892002D01*
X-63460250Y-31700063D01*
X-63460109Y-31699911D01*
X-63299484Y-31498987D01*
X-63291017Y-31484908D01*
X-63163306Y-31272550D01*
X-63163304Y-31272547D01*
X-63163055Y-31272132D01*
X-63057428Y-31002248D01*
X-62989207Y-30672236D01*
X-62965654Y-30276006D01*
X-62961743Y-30267951D01*
X-62953975Y-30265000D01*
X-62776025Y-30265000D01*
X-62767752Y-30268427D01*
G37*
%TD.AperFunction*%
%TD*%
%TA.AperFunction,Conductor*%
%TO.N,R4*%
G36*
X-62046065Y-14606592D02*
G01*
X-61341001Y-15339772D01*
X-61337736Y-15348111D01*
X-61339212Y-15353575D01*
X-61517212Y-15673178D01*
X-61517910Y-15674281D01*
X-61708584Y-15941501D01*
X-61709227Y-15942322D01*
X-61902285Y-16167425D01*
X-61902659Y-16167841D01*
X-62091673Y-16367997D01*
X-62269890Y-16560088D01*
X-62430515Y-16761012D01*
X-62566944Y-16987867D01*
X-62672571Y-17257751D01*
X-62740792Y-17587763D01*
X-62740817Y-17588179D01*
X-62740817Y-17588181D01*
X-62764346Y-17983994D01*
X-62768257Y-17992050D01*
X-62776025Y-17995000D01*
X-62953975Y-17995000D01*
X-62962248Y-17991573D01*
X-62965654Y-17983994D01*
X-62989182Y-17588181D01*
X-62989182Y-17588179D01*
X-62989207Y-17587763D01*
X-63057428Y-17257751D01*
X-63163055Y-16987867D01*
X-63299484Y-16761012D01*
X-63460109Y-16560088D01*
X-63638326Y-16367997D01*
X-63827340Y-16167841D01*
X-63827714Y-16167425D01*
X-64020772Y-15942322D01*
X-64021415Y-15941501D01*
X-64212089Y-15674281D01*
X-64212787Y-15673178D01*
X-64390788Y-15353575D01*
X-64391819Y-15344680D01*
X-64388999Y-15339772D01*
X-63684018Y-14606679D01*
X-63684017Y-14606677D01*
X-62865000Y-13755000D01*
X-62046065Y-14606592D01*
G37*
%TD.AperFunction*%
%TD*%
%TA.AperFunction,Conductor*%
%TO.N,R4*%
G36*
X-62046065Y-33656592D02*
G01*
X-61341001Y-34389772D01*
X-61337736Y-34398111D01*
X-61339212Y-34403575D01*
X-61517212Y-34723178D01*
X-61517910Y-34724281D01*
X-61708584Y-34991501D01*
X-61709227Y-34992322D01*
X-61902285Y-35217425D01*
X-61902659Y-35217841D01*
X-62091673Y-35417997D01*
X-62269890Y-35610088D01*
X-62430515Y-35811012D01*
X-62566944Y-36037867D01*
X-62672571Y-36307751D01*
X-62740792Y-36637763D01*
X-62740817Y-36638179D01*
X-62740817Y-36638181D01*
X-62764346Y-37033994D01*
X-62768257Y-37042050D01*
X-62776025Y-37045000D01*
X-62953975Y-37045000D01*
X-62962248Y-37041573D01*
X-62965654Y-37033994D01*
X-62989182Y-36638181D01*
X-62989182Y-36638179D01*
X-62989207Y-36637763D01*
X-63057428Y-36307751D01*
X-63163055Y-36037867D01*
X-63299484Y-35811012D01*
X-63460109Y-35610088D01*
X-63638326Y-35417997D01*
X-63827340Y-35217841D01*
X-63827714Y-35217425D01*
X-64020772Y-34992322D01*
X-64021415Y-34991501D01*
X-64212089Y-34724281D01*
X-64212787Y-34723178D01*
X-64390788Y-34403575D01*
X-64391819Y-34394680D01*
X-64388999Y-34389772D01*
X-63684018Y-33656679D01*
X-63684017Y-33656677D01*
X-62865000Y-32805000D01*
X-62046065Y-33656592D01*
G37*
%TD.AperFunction*%
%TD*%
%TA.AperFunction,Conductor*%
%TO.N,R4*%
G36*
X-62767752Y-49318427D02*
G01*
X-62764346Y-49326006D01*
X-62740792Y-49722236D01*
X-62740708Y-49722641D01*
X-62700847Y-49915464D01*
X-62700726Y-49919511D01*
X-62728283Y-50109573D01*
X-62728257Y-50110131D01*
X-62718425Y-50322550D01*
X-62718318Y-50324872D01*
X-62667821Y-50534402D01*
X-62578614Y-50730603D01*
X-62453915Y-50906396D01*
X-62298225Y-51055437D01*
X-62117160Y-51172349D01*
X-62116644Y-51172557D01*
X-61917770Y-51252706D01*
X-61917765Y-51252708D01*
X-61917255Y-51252913D01*
X-61879207Y-51260343D01*
X-61789595Y-51277844D01*
X-61782957Y-51281710D01*
X-61709227Y-51367677D01*
X-61708584Y-51368498D01*
X-61517910Y-51635718D01*
X-61517212Y-51636821D01*
X-61339212Y-51956425D01*
X-61338181Y-51965320D01*
X-61341001Y-51970228D01*
X-62856567Y-53546231D01*
X-62864771Y-53549819D01*
X-62873433Y-53546231D01*
X-64388999Y-51970228D01*
X-64392264Y-51961889D01*
X-64390788Y-51956425D01*
X-64212787Y-51636821D01*
X-64212089Y-51635718D01*
X-64021415Y-51368498D01*
X-64020772Y-51367677D01*
X-63827714Y-51142574D01*
X-63827340Y-51142158D01*
X-63638326Y-50942002D01*
X-63460250Y-50750063D01*
X-63460109Y-50749911D01*
X-63299484Y-50548987D01*
X-63291017Y-50534908D01*
X-63163306Y-50322550D01*
X-63163304Y-50322547D01*
X-63163055Y-50322132D01*
X-63057428Y-50052248D01*
X-62989207Y-49722236D01*
X-62965654Y-49326006D01*
X-62961743Y-49317951D01*
X-62953975Y-49315000D01*
X-62776025Y-49315000D01*
X-62767752Y-49318427D01*
G37*
%TD.AperFunction*%
%TD*%
%TA.AperFunction,Conductor*%
%TO.N,R5*%
G36*
X-42996065Y-34926592D02*
G01*
X-42291001Y-35659772D01*
X-42287736Y-35668111D01*
X-42289212Y-35673575D01*
X-42467212Y-35993178D01*
X-42467910Y-35994281D01*
X-42658584Y-36261501D01*
X-42659227Y-36262322D01*
X-42852285Y-36487425D01*
X-42852659Y-36487841D01*
X-43041673Y-36687997D01*
X-43219890Y-36880088D01*
X-43380515Y-37081012D01*
X-43516944Y-37307867D01*
X-43622571Y-37577751D01*
X-43690792Y-37907763D01*
X-43690817Y-37908179D01*
X-43690817Y-37908181D01*
X-43714346Y-38303994D01*
X-43718257Y-38312050D01*
X-43726025Y-38315000D01*
X-43903975Y-38315000D01*
X-43912248Y-38311573D01*
X-43915654Y-38303994D01*
X-43939182Y-37908181D01*
X-43939182Y-37908179D01*
X-43939207Y-37907763D01*
X-44007428Y-37577751D01*
X-44113055Y-37307867D01*
X-44249484Y-37081012D01*
X-44410109Y-36880088D01*
X-44588326Y-36687997D01*
X-44777340Y-36487841D01*
X-44777714Y-36487425D01*
X-44970772Y-36262322D01*
X-44971415Y-36261501D01*
X-45162089Y-35994281D01*
X-45162787Y-35993178D01*
X-45340788Y-35673575D01*
X-45341819Y-35664680D01*
X-45338999Y-35659772D01*
X-44634018Y-34926679D01*
X-44634017Y-34926677D01*
X-43815000Y-34075000D01*
X-42996065Y-34926592D01*
G37*
%TD.AperFunction*%
%TD*%
%TA.AperFunction,Conductor*%
%TO.N,R5*%
G36*
X-43717752Y-50588427D02*
G01*
X-43714346Y-50596006D01*
X-43690792Y-50992236D01*
X-43690708Y-50992641D01*
X-43650847Y-51185464D01*
X-43650726Y-51189511D01*
X-43678283Y-51379573D01*
X-43678257Y-51380131D01*
X-43668425Y-51592550D01*
X-43668318Y-51594872D01*
X-43617821Y-51804402D01*
X-43528614Y-52000603D01*
X-43403915Y-52176396D01*
X-43248225Y-52325437D01*
X-43067160Y-52442349D01*
X-43066644Y-52442557D01*
X-42867770Y-52522706D01*
X-42867765Y-52522708D01*
X-42867255Y-52522913D01*
X-42829207Y-52530343D01*
X-42739595Y-52547844D01*
X-42732957Y-52551710D01*
X-42659227Y-52637677D01*
X-42658584Y-52638498D01*
X-42467910Y-52905718D01*
X-42467212Y-52906821D01*
X-42289212Y-53226425D01*
X-42288181Y-53235320D01*
X-42291001Y-53240228D01*
X-43806567Y-54816231D01*
X-43814771Y-54819819D01*
X-43823433Y-54816231D01*
X-45338999Y-53240228D01*
X-45342264Y-53231889D01*
X-45340788Y-53226425D01*
X-45162787Y-52906821D01*
X-45162089Y-52905718D01*
X-44971415Y-52638498D01*
X-44970772Y-52637677D01*
X-44777714Y-52412574D01*
X-44777340Y-52412158D01*
X-44588326Y-52212002D01*
X-44410250Y-52020063D01*
X-44410109Y-52019911D01*
X-44249484Y-51818987D01*
X-44241017Y-51804908D01*
X-44113306Y-51592550D01*
X-44113304Y-51592547D01*
X-44113055Y-51592132D01*
X-44007428Y-51322248D01*
X-43939207Y-50992236D01*
X-43915654Y-50596006D01*
X-43911743Y-50587951D01*
X-43903975Y-50585000D01*
X-43726025Y-50585000D01*
X-43717752Y-50588427D01*
G37*
%TD.AperFunction*%
%TD*%
%TA.AperFunction,Conductor*%
%TO.N,R5*%
G36*
X-43717752Y-31538427D02*
G01*
X-43714346Y-31546006D01*
X-43690792Y-31942236D01*
X-43690708Y-31942641D01*
X-43650847Y-32135464D01*
X-43650726Y-32139511D01*
X-43678283Y-32329573D01*
X-43678257Y-32330131D01*
X-43668425Y-32542550D01*
X-43668318Y-32544872D01*
X-43617821Y-32754402D01*
X-43528614Y-32950603D01*
X-43403915Y-33126396D01*
X-43248225Y-33275437D01*
X-43067160Y-33392349D01*
X-43066644Y-33392557D01*
X-42867770Y-33472706D01*
X-42867765Y-33472708D01*
X-42867255Y-33472913D01*
X-42829207Y-33480343D01*
X-42739595Y-33497844D01*
X-42732957Y-33501710D01*
X-42659227Y-33587677D01*
X-42658584Y-33588498D01*
X-42467910Y-33855718D01*
X-42467212Y-33856821D01*
X-42289212Y-34176425D01*
X-42288181Y-34185320D01*
X-42291001Y-34190228D01*
X-42995982Y-34923321D01*
X-42995983Y-34923323D01*
X-43815000Y-35775000D01*
X-45338999Y-34190228D01*
X-45342264Y-34181889D01*
X-45340788Y-34176425D01*
X-45162787Y-33856821D01*
X-45162089Y-33855718D01*
X-44971415Y-33588498D01*
X-44970772Y-33587677D01*
X-44777714Y-33362574D01*
X-44777340Y-33362158D01*
X-44588326Y-33162002D01*
X-44410250Y-32970063D01*
X-44410109Y-32969911D01*
X-44249484Y-32768987D01*
X-44241017Y-32754908D01*
X-44113306Y-32542550D01*
X-44113304Y-32542547D01*
X-44113055Y-32542132D01*
X-44007428Y-32272248D01*
X-43939207Y-31942236D01*
X-43915654Y-31546006D01*
X-43911743Y-31537951D01*
X-43903975Y-31535000D01*
X-43726025Y-31535000D01*
X-43717752Y-31538427D01*
G37*
%TD.AperFunction*%
%TD*%
%TA.AperFunction,Conductor*%
%TO.N,R5*%
G36*
X-42996065Y-15876592D02*
G01*
X-42291001Y-16609772D01*
X-42287736Y-16618111D01*
X-42289212Y-16623575D01*
X-42467212Y-16943178D01*
X-42467910Y-16944281D01*
X-42658584Y-17211501D01*
X-42659227Y-17212322D01*
X-42852285Y-17437425D01*
X-42852659Y-17437841D01*
X-43041673Y-17637997D01*
X-43219890Y-17830088D01*
X-43380515Y-18031012D01*
X-43516944Y-18257867D01*
X-43622571Y-18527751D01*
X-43690792Y-18857763D01*
X-43690817Y-18858179D01*
X-43690817Y-18858181D01*
X-43714346Y-19253994D01*
X-43718257Y-19262050D01*
X-43726025Y-19265000D01*
X-43903975Y-19265000D01*
X-43912248Y-19261573D01*
X-43915654Y-19253994D01*
X-43939182Y-18858181D01*
X-43939182Y-18858179D01*
X-43939207Y-18857763D01*
X-44007428Y-18527751D01*
X-44113055Y-18257867D01*
X-44249484Y-18031012D01*
X-44410109Y-17830088D01*
X-44588326Y-17637997D01*
X-44777340Y-17437841D01*
X-44777714Y-17437425D01*
X-44970772Y-17212322D01*
X-44971415Y-17211501D01*
X-45162089Y-16944281D01*
X-45162787Y-16943178D01*
X-45340788Y-16623575D01*
X-45341819Y-16614680D01*
X-45338999Y-16609772D01*
X-44634018Y-15876679D01*
X-44634017Y-15876677D01*
X-43815000Y-15025000D01*
X-42996065Y-15876592D01*
G37*
%TD.AperFunction*%
%TD*%
%TA.AperFunction,Conductor*%
%TO.N,R5*%
G36*
X-43027889Y3206501D02*
G01*
X-43026526Y3205083D01*
X-43026525Y3205082D01*
X-42291001Y2440228D01*
X-42287736Y2431889D01*
X-42289212Y2426425D01*
X-42467212Y2106821D01*
X-42467910Y2105718D01*
X-42658584Y1838498D01*
X-42659227Y1837677D01*
X-42852285Y1612574D01*
X-42852659Y1612158D01*
X-43041673Y1412002D01*
X-43219890Y1219911D01*
X-43380515Y1018987D01*
X-43516944Y792132D01*
X-43622571Y522248D01*
X-43690792Y192236D01*
X-43690817Y191820D01*
X-43690817Y191818D01*
X-43714346Y-203994D01*
X-43718257Y-212050D01*
X-43726025Y-215000D01*
X-43903975Y-215000D01*
X-43912248Y-211573D01*
X-43915654Y-203994D01*
X-43939182Y191818D01*
X-43939182Y191820D01*
X-43939207Y192236D01*
X-44007428Y522248D01*
X-44113055Y792132D01*
X-44249484Y1018987D01*
X-44410109Y1219911D01*
X-44588326Y1412002D01*
X-44777340Y1612158D01*
X-44777714Y1612574D01*
X-44970772Y1837677D01*
X-44971415Y1838498D01*
X-45162089Y2105718D01*
X-45162787Y2106821D01*
X-45340788Y2426425D01*
X-45341819Y2435320D01*
X-45338999Y2440228D01*
X-44666736Y3139299D01*
X-44665122Y3140977D01*
X-43815000Y4025000D01*
X-43027889Y3206501D01*
G37*
%TD.AperFunction*%
%TD*%
%TA.AperFunction,Conductor*%
%TO.N,R5*%
G36*
X-43717752Y-12488427D02*
G01*
X-43714346Y-12496006D01*
X-43690792Y-12892236D01*
X-43690708Y-12892641D01*
X-43650847Y-13085464D01*
X-43650726Y-13089511D01*
X-43678283Y-13279573D01*
X-43678257Y-13280131D01*
X-43668425Y-13492550D01*
X-43668318Y-13494872D01*
X-43617821Y-13704402D01*
X-43528614Y-13900603D01*
X-43403915Y-14076396D01*
X-43248225Y-14225437D01*
X-43067160Y-14342349D01*
X-43066644Y-14342557D01*
X-42867770Y-14422706D01*
X-42867765Y-14422708D01*
X-42867255Y-14422913D01*
X-42829207Y-14430343D01*
X-42739595Y-14447844D01*
X-42732957Y-14451710D01*
X-42659227Y-14537677D01*
X-42658584Y-14538498D01*
X-42467910Y-14805718D01*
X-42467212Y-14806821D01*
X-42289212Y-15126425D01*
X-42288181Y-15135320D01*
X-42291001Y-15140228D01*
X-42995982Y-15873321D01*
X-42995983Y-15873323D01*
X-43815000Y-16725000D01*
X-45338999Y-15140228D01*
X-45342264Y-15131889D01*
X-45340788Y-15126425D01*
X-45162787Y-14806821D01*
X-45162089Y-14805718D01*
X-44971415Y-14538498D01*
X-44970772Y-14537677D01*
X-44777714Y-14312574D01*
X-44777340Y-14312158D01*
X-44588326Y-14112002D01*
X-44410250Y-13920063D01*
X-44410109Y-13919911D01*
X-44249484Y-13718987D01*
X-44241017Y-13704908D01*
X-44113306Y-13492550D01*
X-44113304Y-13492547D01*
X-44113055Y-13492132D01*
X-44007428Y-13222248D01*
X-43939207Y-12892236D01*
X-43915654Y-12496006D01*
X-43911743Y-12487951D01*
X-43903975Y-12485000D01*
X-43726025Y-12485000D01*
X-43717752Y-12488427D01*
G37*
%TD.AperFunction*%
%TD*%
%TA.AperFunction,Conductor*%
%TO.N,R6*%
G36*
X-23975458Y3203974D02*
G01*
X-23975458Y3203973D01*
X-23241001Y2440228D01*
X-23237736Y2431889D01*
X-23239212Y2426425D01*
X-23417212Y2106821D01*
X-23417910Y2105718D01*
X-23608584Y1838498D01*
X-23609227Y1837677D01*
X-23802285Y1612574D01*
X-23802659Y1612158D01*
X-23991673Y1412002D01*
X-24169890Y1219911D01*
X-24330515Y1018987D01*
X-24466944Y792132D01*
X-24572571Y522248D01*
X-24640792Y192236D01*
X-24640817Y191820D01*
X-24640817Y191818D01*
X-24664346Y-203994D01*
X-24668257Y-212050D01*
X-24676025Y-215000D01*
X-24853975Y-215000D01*
X-24862248Y-211573D01*
X-24865654Y-203994D01*
X-24889182Y191818D01*
X-24889182Y191820D01*
X-24889207Y192236D01*
X-24957428Y522248D01*
X-25063055Y792132D01*
X-25199484Y1018987D01*
X-25360109Y1219911D01*
X-25538326Y1412002D01*
X-25727340Y1612158D01*
X-25727714Y1612574D01*
X-25920772Y1837677D01*
X-25921415Y1838498D01*
X-26112089Y2105718D01*
X-26112787Y2106821D01*
X-26290788Y2426425D01*
X-26291819Y2435320D01*
X-26288999Y2440228D01*
X-25615502Y3140582D01*
X-25613888Y3142260D01*
X-24765000Y4025000D01*
X-23975458Y3203974D01*
G37*
%TD.AperFunction*%
%TD*%
%TA.AperFunction,Conductor*%
%TO.N,R6*%
G36*
X-24667752Y-12488427D02*
G01*
X-24664346Y-12496006D01*
X-24640792Y-12892236D01*
X-24640708Y-12892641D01*
X-24600847Y-13085464D01*
X-24600726Y-13089511D01*
X-24628283Y-13279573D01*
X-24628257Y-13280131D01*
X-24618425Y-13492550D01*
X-24618318Y-13494872D01*
X-24567821Y-13704402D01*
X-24478614Y-13900603D01*
X-24353915Y-14076396D01*
X-24198225Y-14225437D01*
X-24017160Y-14342349D01*
X-24016644Y-14342557D01*
X-23817770Y-14422706D01*
X-23817765Y-14422708D01*
X-23817255Y-14422913D01*
X-23779207Y-14430343D01*
X-23689595Y-14447844D01*
X-23682957Y-14451710D01*
X-23609227Y-14537677D01*
X-23608584Y-14538498D01*
X-23417910Y-14805718D01*
X-23417212Y-14806821D01*
X-23239212Y-15126425D01*
X-23238181Y-15135320D01*
X-23241001Y-15140228D01*
X-23945982Y-15873321D01*
X-23945983Y-15873323D01*
X-24765000Y-16725000D01*
X-26288999Y-15140228D01*
X-26292264Y-15131889D01*
X-26290788Y-15126425D01*
X-26112787Y-14806821D01*
X-26112089Y-14805718D01*
X-25921415Y-14538498D01*
X-25920772Y-14537677D01*
X-25727714Y-14312574D01*
X-25727340Y-14312158D01*
X-25538326Y-14112002D01*
X-25360250Y-13920063D01*
X-25360109Y-13919911D01*
X-25199484Y-13718987D01*
X-25191017Y-13704908D01*
X-25063306Y-13492550D01*
X-25063304Y-13492547D01*
X-25063055Y-13492132D01*
X-24957428Y-13222248D01*
X-24889207Y-12892236D01*
X-24865654Y-12496006D01*
X-24861743Y-12487951D01*
X-24853975Y-12485000D01*
X-24676025Y-12485000D01*
X-24667752Y-12488427D01*
G37*
%TD.AperFunction*%
%TD*%
%TA.AperFunction,Conductor*%
%TO.N,R6*%
G36*
X-23946065Y-15876592D02*
G01*
X-23241001Y-16609772D01*
X-23237736Y-16618111D01*
X-23239212Y-16623575D01*
X-23417212Y-16943178D01*
X-23417910Y-16944281D01*
X-23608584Y-17211501D01*
X-23609227Y-17212322D01*
X-23802285Y-17437425D01*
X-23802659Y-17437841D01*
X-23991673Y-17637997D01*
X-24169890Y-17830088D01*
X-24330515Y-18031012D01*
X-24466944Y-18257867D01*
X-24572571Y-18527751D01*
X-24640792Y-18857763D01*
X-24640817Y-18858179D01*
X-24640817Y-18858181D01*
X-24664346Y-19253994D01*
X-24668257Y-19262050D01*
X-24676025Y-19265000D01*
X-24853975Y-19265000D01*
X-24862248Y-19261573D01*
X-24865654Y-19253994D01*
X-24889182Y-18858181D01*
X-24889182Y-18858179D01*
X-24889207Y-18857763D01*
X-24957428Y-18527751D01*
X-25063055Y-18257867D01*
X-25199484Y-18031012D01*
X-25360109Y-17830088D01*
X-25538326Y-17637997D01*
X-25727340Y-17437841D01*
X-25727714Y-17437425D01*
X-25920772Y-17212322D01*
X-25921415Y-17211501D01*
X-26112089Y-16944281D01*
X-26112787Y-16943178D01*
X-26290788Y-16623575D01*
X-26291819Y-16614680D01*
X-26288999Y-16609772D01*
X-25584018Y-15876679D01*
X-25584017Y-15876677D01*
X-24765000Y-15025000D01*
X-23946065Y-15876592D01*
G37*
%TD.AperFunction*%
%TD*%
%TA.AperFunction,Conductor*%
%TO.N,R6*%
G36*
X-24667752Y-31538427D02*
G01*
X-24664346Y-31546006D01*
X-24640792Y-31942236D01*
X-24640708Y-31942641D01*
X-24600847Y-32135464D01*
X-24600726Y-32139511D01*
X-24628283Y-32329573D01*
X-24628257Y-32330131D01*
X-24618425Y-32542550D01*
X-24618318Y-32544872D01*
X-24567821Y-32754402D01*
X-24478614Y-32950603D01*
X-24353915Y-33126396D01*
X-24198225Y-33275437D01*
X-24017160Y-33392349D01*
X-24016644Y-33392557D01*
X-23817770Y-33472706D01*
X-23817765Y-33472708D01*
X-23817255Y-33472913D01*
X-23779207Y-33480343D01*
X-23689595Y-33497844D01*
X-23682957Y-33501710D01*
X-23609227Y-33587677D01*
X-23608584Y-33588498D01*
X-23417910Y-33855718D01*
X-23417212Y-33856821D01*
X-23239212Y-34176425D01*
X-23238181Y-34185320D01*
X-23241001Y-34190228D01*
X-23945982Y-34923321D01*
X-23945983Y-34923323D01*
X-24765000Y-35775000D01*
X-26288999Y-34190228D01*
X-26292264Y-34181889D01*
X-26290788Y-34176425D01*
X-26112787Y-33856821D01*
X-26112089Y-33855718D01*
X-25921415Y-33588498D01*
X-25920772Y-33587677D01*
X-25727714Y-33362574D01*
X-25727340Y-33362158D01*
X-25538326Y-33162002D01*
X-25360250Y-32970063D01*
X-25360109Y-32969911D01*
X-25199484Y-32768987D01*
X-25191017Y-32754908D01*
X-25063306Y-32542550D01*
X-25063304Y-32542547D01*
X-25063055Y-32542132D01*
X-24957428Y-32272248D01*
X-24889207Y-31942236D01*
X-24865654Y-31546006D01*
X-24861743Y-31537951D01*
X-24853975Y-31535000D01*
X-24676025Y-31535000D01*
X-24667752Y-31538427D01*
G37*
%TD.AperFunction*%
%TD*%
%TA.AperFunction,Conductor*%
%TO.N,R6*%
G36*
X-24667752Y-50588427D02*
G01*
X-24664346Y-50596006D01*
X-24640792Y-50992236D01*
X-24640708Y-50992641D01*
X-24600847Y-51185464D01*
X-24600726Y-51189511D01*
X-24628283Y-51379573D01*
X-24628257Y-51380131D01*
X-24618425Y-51592550D01*
X-24618318Y-51594872D01*
X-24567821Y-51804402D01*
X-24478614Y-52000603D01*
X-24353915Y-52176396D01*
X-24198225Y-52325437D01*
X-24017160Y-52442349D01*
X-24016644Y-52442557D01*
X-23817770Y-52522706D01*
X-23817765Y-52522708D01*
X-23817255Y-52522913D01*
X-23779207Y-52530343D01*
X-23689595Y-52547844D01*
X-23682957Y-52551710D01*
X-23609227Y-52637677D01*
X-23608584Y-52638498D01*
X-23417910Y-52905718D01*
X-23417212Y-52906821D01*
X-23239212Y-53226425D01*
X-23238181Y-53235320D01*
X-23241001Y-53240228D01*
X-24756567Y-54816231D01*
X-24764771Y-54819819D01*
X-24773433Y-54816231D01*
X-26288999Y-53240228D01*
X-26292264Y-53231889D01*
X-26290788Y-53226425D01*
X-26112787Y-52906821D01*
X-26112089Y-52905718D01*
X-25921415Y-52638498D01*
X-25920772Y-52637677D01*
X-25727714Y-52412574D01*
X-25727340Y-52412158D01*
X-25538326Y-52212002D01*
X-25360250Y-52020063D01*
X-25360109Y-52019911D01*
X-25199484Y-51818987D01*
X-25191017Y-51804908D01*
X-25063306Y-51592550D01*
X-25063304Y-51592547D01*
X-25063055Y-51592132D01*
X-24957428Y-51322248D01*
X-24889207Y-50992236D01*
X-24865654Y-50596006D01*
X-24861743Y-50587951D01*
X-24853975Y-50585000D01*
X-24676025Y-50585000D01*
X-24667752Y-50588427D01*
G37*
%TD.AperFunction*%
%TD*%
%TA.AperFunction,Conductor*%
%TO.N,R6*%
G36*
X-23946065Y-34926592D02*
G01*
X-23241001Y-35659772D01*
X-23237736Y-35668111D01*
X-23239212Y-35673575D01*
X-23417212Y-35993178D01*
X-23417910Y-35994281D01*
X-23608584Y-36261501D01*
X-23609227Y-36262322D01*
X-23802285Y-36487425D01*
X-23802659Y-36487841D01*
X-23991673Y-36687997D01*
X-24169890Y-36880088D01*
X-24330515Y-37081012D01*
X-24466944Y-37307867D01*
X-24572571Y-37577751D01*
X-24640792Y-37907763D01*
X-24640817Y-37908179D01*
X-24640817Y-37908181D01*
X-24664346Y-38303994D01*
X-24668257Y-38312050D01*
X-24676025Y-38315000D01*
X-24853975Y-38315000D01*
X-24862248Y-38311573D01*
X-24865654Y-38303994D01*
X-24889182Y-37908181D01*
X-24889182Y-37908179D01*
X-24889207Y-37907763D01*
X-24957428Y-37577751D01*
X-25063055Y-37307867D01*
X-25199484Y-37081012D01*
X-25360109Y-36880088D01*
X-25538326Y-36687997D01*
X-25727340Y-36487841D01*
X-25727714Y-36487425D01*
X-25920772Y-36262322D01*
X-25921415Y-36261501D01*
X-26112089Y-35994281D01*
X-26112787Y-35993178D01*
X-26290788Y-35673575D01*
X-26291819Y-35664680D01*
X-26288999Y-35659772D01*
X-25584018Y-34926679D01*
X-25584017Y-34926677D01*
X-24765000Y-34075000D01*
X-23946065Y-34926592D01*
G37*
%TD.AperFunction*%
%TD*%
%TA.AperFunction,Conductor*%
%TO.N,Net-(Tog1-Pad2)*%
G36*
X-163918348Y1854223D02*
G01*
X-163558769Y1508433D01*
X-163555181Y1500229D01*
X-163558769Y1491567D01*
X-163918348Y1145777D01*
X-163926687Y1142512D01*
X-163931777Y1143789D01*
X-163992413Y1174742D01*
X-163992741Y1174917D01*
X-164051527Y1207540D01*
X-164051654Y1207612D01*
X-164104297Y1237876D01*
X-164119865Y1246554D01*
X-164153501Y1265302D01*
X-164153513Y1265309D01*
X-164153613Y1265364D01*
X-164202418Y1289656D01*
X-164253603Y1310376D01*
X-164253863Y1310453D01*
X-164253868Y1310455D01*
X-164309793Y1327066D01*
X-164309791Y1327066D01*
X-164310062Y1327146D01*
X-164374686Y1339592D01*
X-164374937Y1339618D01*
X-164374946Y1339619D01*
X-164450160Y1347314D01*
X-164450165Y1347314D01*
X-164450367Y1347335D01*
X-164528649Y1349663D01*
X-164536815Y1353333D01*
X-164540000Y1361357D01*
X-164540000Y1638642D01*
X-164536573Y1646915D01*
X-164528648Y1650337D01*
X-164450569Y1652658D01*
X-164450367Y1652664D01*
X-164450165Y1652685D01*
X-164450160Y1652685D01*
X-164374946Y1660380D01*
X-164374937Y1660381D01*
X-164374686Y1660407D01*
X-164310062Y1672853D01*
X-164295453Y1677192D01*
X-164253868Y1689544D01*
X-164253863Y1689546D01*
X-164253603Y1689623D01*
X-164202418Y1710343D01*
X-164153613Y1734635D01*
X-164153513Y1734690D01*
X-164153501Y1734697D01*
X-164104344Y1762097D01*
X-164104297Y1762123D01*
X-164051627Y1792402D01*
X-164051500Y1792474D01*
X-163992741Y1825082D01*
X-163992413Y1825257D01*
X-163931777Y1856211D01*
X-163922851Y1856920D01*
X-163918348Y1854223D01*
G37*
%TD.AperFunction*%
%TD*%
%TA.AperFunction,Conductor*%
%TO.N,RBAT+*%
G36*
X-166718223Y1856211D02*
G01*
X-166657586Y1825257D01*
X-166657258Y1825082D01*
X-166598499Y1792474D01*
X-166598372Y1792402D01*
X-166545702Y1762123D01*
X-166545655Y1762097D01*
X-166496498Y1734697D01*
X-166496486Y1734690D01*
X-166496386Y1734635D01*
X-166447581Y1710343D01*
X-166396396Y1689623D01*
X-166396136Y1689546D01*
X-166396131Y1689544D01*
X-166354546Y1677192D01*
X-166339937Y1672853D01*
X-166275313Y1660407D01*
X-166275062Y1660381D01*
X-166275053Y1660380D01*
X-166199839Y1652685D01*
X-166199834Y1652685D01*
X-166199632Y1652664D01*
X-166199430Y1652658D01*
X-166121352Y1650337D01*
X-166113185Y1646666D01*
X-166110000Y1638642D01*
X-166110000Y1361357D01*
X-166113427Y1353084D01*
X-166121351Y1349663D01*
X-166199632Y1347335D01*
X-166199834Y1347314D01*
X-166199839Y1347314D01*
X-166275053Y1339619D01*
X-166275062Y1339618D01*
X-166275313Y1339592D01*
X-166339937Y1327146D01*
X-166340208Y1327066D01*
X-166340206Y1327066D01*
X-166396131Y1310455D01*
X-166396136Y1310453D01*
X-166396396Y1310376D01*
X-166447581Y1289656D01*
X-166496386Y1265364D01*
X-166496486Y1265309D01*
X-166496498Y1265302D01*
X-166530134Y1246554D01*
X-166545702Y1237876D01*
X-166598345Y1207612D01*
X-166598499Y1207525D01*
X-166657253Y1174920D01*
X-166657611Y1174729D01*
X-166718223Y1143789D01*
X-166727149Y1143080D01*
X-166731652Y1145777D01*
X-167091231Y1491567D01*
X-167094819Y1499771D01*
X-167091231Y1508433D01*
X-166731652Y1854223D01*
X-166723313Y1857488D01*
X-166718223Y1856211D01*
G37*
%TD.AperFunction*%
%TD*%
%TA.AperFunction,Conductor*%
%TO.N,Net-(Display1-Pad3)*%
G36*
X1763476Y-140673414D02*
G01*
X1767582Y-140677262D01*
X1868515Y-140833031D01*
X2373749Y-141612755D01*
X2375372Y-141621561D01*
X2370292Y-141628936D01*
X2368107Y-141630046D01*
X1265008Y-142051384D01*
X1256057Y-142051135D01*
X1251489Y-142047493D01*
X1145116Y-141906242D01*
X1051044Y-141779380D01*
X969783Y-141668071D01*
X896543Y-141566449D01*
X826539Y-141468646D01*
X754980Y-141368795D01*
X677081Y-141261029D01*
X588054Y-141139481D01*
X483110Y-140998283D01*
X364483Y-140840882D01*
X362241Y-140832214D01*
X366757Y-140824520D01*
X440754Y-140768400D01*
X508297Y-140717176D01*
X516960Y-140714907D01*
X524017Y-140718620D01*
X628673Y-140833542D01*
X739258Y-140908847D01*
X740073Y-140909105D01*
X740074Y-140909105D01*
X849303Y-140943620D01*
X849305Y-140943620D01*
X850111Y-140943875D01*
X850957Y-140943890D01*
X962132Y-140945861D01*
X962135Y-140945861D01*
X962771Y-140945872D01*
X974020Y-140943565D01*
X1078400Y-140922163D01*
X1078407Y-140922161D01*
X1078778Y-140922085D01*
X1117965Y-140908366D01*
X1199512Y-140879817D01*
X1199522Y-140879813D01*
X1199671Y-140879761D01*
X1199818Y-140879699D01*
X1199826Y-140879696D01*
X1326989Y-140826146D01*
X1462032Y-140768588D01*
X1462500Y-140768400D01*
X1606591Y-140714204D01*
X1607530Y-140713895D01*
X1754583Y-140672364D01*
X1763476Y-140673414D01*
G37*
%TD.AperFunction*%
%TD*%
%TA.AperFunction,Conductor*%
%TO.N,Net-(Display1-Pad3)*%
G36*
X-1143875Y-131900000D02*
G01*
X-941711Y-131910957D01*
X-933635Y-131914827D01*
X-931093Y-131919432D01*
X-916681Y-131969973D01*
X-916563Y-131970419D01*
X-904062Y-132021874D01*
X-903999Y-132022146D01*
X-893871Y-132068647D01*
X-884458Y-132111655D01*
X-884451Y-132111685D01*
X-884436Y-132111753D01*
X-874000Y-132153045D01*
X-860844Y-132194228D01*
X-843248Y-132237005D01*
X-843136Y-132237222D01*
X-843131Y-132237233D01*
X-822819Y-132276622D01*
X-819489Y-132283079D01*
X-819367Y-132283275D01*
X-819367Y-132283276D01*
X-792709Y-132326309D01*
X-787849Y-132334155D01*
X-762978Y-132369000D01*
X-753222Y-132382669D01*
X-751205Y-132391394D01*
X-755692Y-132398801D01*
X-894660Y-132503793D01*
X-897205Y-132505716D01*
X-905872Y-132507969D01*
X-913311Y-132503793D01*
X-947956Y-132461481D01*
X-947957Y-132461480D01*
X-948137Y-132461260D01*
X-987510Y-132421564D01*
X-1025289Y-132391414D01*
X-1062463Y-132368812D01*
X-1062784Y-132368666D01*
X-1062792Y-132368662D01*
X-1099775Y-132351870D01*
X-1099778Y-132351869D01*
X-1100022Y-132351758D01*
X-1138954Y-132338257D01*
X-1139081Y-132338220D01*
X-1139088Y-132338218D01*
X-1180249Y-132326309D01*
X-1224792Y-132313946D01*
X-1224996Y-132313886D01*
X-1273629Y-132299159D01*
X-1274147Y-132298988D01*
X-1301929Y-132289130D01*
X-1320282Y-132282618D01*
X-1326933Y-132276622D01*
X-1328069Y-132271416D01*
X-1327554Y-132237233D01*
X-1322517Y-131902494D01*
X-1318966Y-131894273D01*
X-1310186Y-131890987D01*
X-1143875Y-131900000D01*
G37*
%TD.AperFunction*%
%TD*%
%TA.AperFunction,Conductor*%
%TO.N,LGND*%
G36*
X-3116567Y-93089619D02*
G01*
X-2342253Y-93894810D01*
X-2338989Y-93903148D01*
X-2340397Y-93908487D01*
X-2424127Y-94063242D01*
X-2424640Y-94064101D01*
X-2513411Y-94199147D01*
X-2513845Y-94199762D01*
X-2601491Y-94316042D01*
X-2601688Y-94316297D01*
X-2685861Y-94421804D01*
X-2763928Y-94524218D01*
X-2833334Y-94631346D01*
X-2891612Y-94751102D01*
X-2936293Y-94891402D01*
X-2964912Y-95060163D01*
X-2964929Y-95060516D01*
X-2974453Y-95254175D01*
X-2978282Y-95262270D01*
X-2986139Y-95265300D01*
X-3263861Y-95265300D01*
X-3272134Y-95261873D01*
X-3275547Y-95254175D01*
X-3285070Y-95060516D01*
X-3285087Y-95060163D01*
X-3313706Y-94891402D01*
X-3358387Y-94751102D01*
X-3416665Y-94631346D01*
X-3486071Y-94524218D01*
X-3564138Y-94421804D01*
X-3648311Y-94316297D01*
X-3648508Y-94316042D01*
X-3736154Y-94199762D01*
X-3736588Y-94199147D01*
X-3825359Y-94064101D01*
X-3825872Y-94063242D01*
X-3909603Y-93908487D01*
X-3910526Y-93899580D01*
X-3907747Y-93894811D01*
X-3133433Y-93089619D01*
X-3125229Y-93086031D01*
X-3116567Y-93089619D01*
G37*
%TD.AperFunction*%
%TD*%
%TA.AperFunction,Conductor*%
%TO.N,L3*%
G36*
X-60901567Y-97503769D02*
G01*
X-59385868Y-99079910D01*
X-59382603Y-99088249D01*
X-59383960Y-99093494D01*
X-59632937Y-99563868D01*
X-59633281Y-99564472D01*
X-59749798Y-99756116D01*
X-59757024Y-99761405D01*
X-59758684Y-99761685D01*
X-59854004Y-99770779D01*
X-59854008Y-99770780D01*
X-59854555Y-99770832D01*
X-59855082Y-99770987D01*
X-59855084Y-99770987D01*
X-60060834Y-99831348D01*
X-60060837Y-99831349D01*
X-60061368Y-99831505D01*
X-60150966Y-99877651D01*
X-60252479Y-99929933D01*
X-60252483Y-99929936D01*
X-60252977Y-99930190D01*
X-60422469Y-100063327D01*
X-60563726Y-100226112D01*
X-60564003Y-100226591D01*
X-60564006Y-100226595D01*
X-60654525Y-100383063D01*
X-60671654Y-100412672D01*
X-60671837Y-100413198D01*
X-60671838Y-100413201D01*
X-60742178Y-100615757D01*
X-60742179Y-100615762D01*
X-60742357Y-100616274D01*
X-60773283Y-100829573D01*
X-60763318Y-101044872D01*
X-60763189Y-101045409D01*
X-60763188Y-101045413D01*
X-60741311Y-101136188D01*
X-60712821Y-101254402D01*
X-60712591Y-101254907D01*
X-60712591Y-101254908D01*
X-60664988Y-101359605D01*
X-60664793Y-101368437D01*
X-60664688Y-101368470D01*
X-60664786Y-101368785D01*
X-60664785Y-101368816D01*
X-60665010Y-101369374D01*
X-60747229Y-101740228D01*
X-60762241Y-102156658D01*
X-60698982Y-102636798D01*
X-60698879Y-102637178D01*
X-60698878Y-102637182D01*
X-60549292Y-103188076D01*
X-60550431Y-103196958D01*
X-60556917Y-103202253D01*
X-60725226Y-103257794D01*
X-60734156Y-103257132D01*
X-60739994Y-103250376D01*
X-60932003Y-102673188D01*
X-61100472Y-102179180D01*
X-61100483Y-102179150D01*
X-61100504Y-102179087D01*
X-61249901Y-101758063D01*
X-61256388Y-101740763D01*
X-61388256Y-101389092D01*
X-61388267Y-101389064D01*
X-61388279Y-101389032D01*
X-61523726Y-101050912D01*
X-61534409Y-101025966D01*
X-61664309Y-100722657D01*
X-61664326Y-100722617D01*
X-61818167Y-100383063D01*
X-61993336Y-100011167D01*
X-62197918Y-99585845D01*
X-62436447Y-99093347D01*
X-62436969Y-99084407D01*
X-62434350Y-99080137D01*
X-60918433Y-97503769D01*
X-60910229Y-97500181D01*
X-60901567Y-97503769D01*
G37*
%TD.AperFunction*%
%TD*%
%TA.AperFunction,Conductor*%
%TO.N,LGND*%
G36*
X-3824719Y-138388707D02*
G01*
X-3820678Y-138390733D01*
X-3762598Y-138419858D01*
X-3762511Y-138419903D01*
X-3740003Y-138431427D01*
X-3688975Y-138457554D01*
X-3662554Y-138470554D01*
X-3614052Y-138494420D01*
X-3614029Y-138494431D01*
X-3613933Y-138494478D01*
X-3613844Y-138494517D01*
X-3613821Y-138494528D01*
X-3565443Y-138515867D01*
X-3540162Y-138527018D01*
X-3539968Y-138527086D01*
X-3539966Y-138527087D01*
X-3497971Y-138541853D01*
X-3470356Y-138551563D01*
X-3469972Y-138551642D01*
X-3469971Y-138551642D01*
X-3467716Y-138552104D01*
X-3407206Y-138564504D01*
X-3406493Y-138564474D01*
X-3406491Y-138564474D01*
X-3354652Y-138562282D01*
X-3354651Y-138562282D01*
X-3353403Y-138562229D01*
X-3328329Y-138549559D01*
X-3313078Y-138541853D01*
X-3313077Y-138541852D01*
X-3311640Y-138541126D01*
X-3302923Y-138527087D01*
X-3285256Y-138498631D01*
X-3285256Y-138498630D01*
X-3284608Y-138497587D01*
X-3276394Y-138438099D01*
X-3271869Y-138430373D01*
X-3264805Y-138428000D01*
X-2987505Y-138428000D01*
X-2979232Y-138431427D01*
X-2975831Y-138440477D01*
X-2983146Y-138550372D01*
X-2983392Y-138552104D01*
X-3005278Y-138651781D01*
X-3005797Y-138653502D01*
X-3038013Y-138736589D01*
X-3038655Y-138737970D01*
X-3077914Y-138809811D01*
X-3078391Y-138810607D01*
X-3121469Y-138876430D01*
X-3121542Y-138876540D01*
X-3164864Y-138941140D01*
X-3164951Y-138941288D01*
X-3164960Y-138941303D01*
X-3187343Y-138979572D01*
X-3204711Y-139009264D01*
X-3237528Y-139085908D01*
X-3259796Y-139176134D01*
X-3259832Y-139176617D01*
X-3259833Y-139176621D01*
X-3267185Y-139274179D01*
X-3271224Y-139282171D01*
X-3278852Y-139285000D01*
X-4738954Y-139285000D01*
X-4747227Y-139281573D01*
X-4750654Y-139273300D01*
X-4747064Y-139264867D01*
X-4110448Y-138652663D01*
X-3838072Y-138390733D01*
X-3829734Y-138387468D01*
X-3824719Y-138388707D01*
G37*
%TD.AperFunction*%
%TD*%
%TA.AperFunction,Conductor*%
%TO.N,LGND*%
G36*
X1648042Y-143252821D02*
G01*
X1902107Y-143543260D01*
X2383510Y-144093586D01*
X2386378Y-144102069D01*
X2382057Y-144110390D01*
X1513099Y-144812511D01*
X1504510Y-144815045D01*
X1499397Y-144813237D01*
X1342662Y-144711971D01*
X1341946Y-144711470D01*
X1208543Y-144610414D01*
X1207949Y-144609933D01*
X1095867Y-144512876D01*
X1095507Y-144512551D01*
X995979Y-144418870D01*
X995942Y-144418834D01*
X900566Y-144328270D01*
X900545Y-144328251D01*
X900462Y-144328172D01*
X900370Y-144328091D01*
X800629Y-144240290D01*
X800620Y-144240283D01*
X800475Y-144240155D01*
X764155Y-144212605D01*
X687566Y-144154508D01*
X687555Y-144154500D01*
X687358Y-144154351D01*
X687140Y-144154215D01*
X687131Y-144154209D01*
X552690Y-144070438D01*
X552689Y-144070438D01*
X552454Y-144070291D01*
X387103Y-143987508D01*
X386885Y-143987420D01*
X386877Y-143987417D01*
X193127Y-143909736D01*
X186723Y-143903476D01*
X186473Y-143894911D01*
X280586Y-143633628D01*
X286614Y-143627006D01*
X294866Y-143626360D01*
X467817Y-143676732D01*
X624571Y-143697011D01*
X625115Y-143696979D01*
X625120Y-143696979D01*
X692219Y-143693011D01*
X760628Y-143688967D01*
X761172Y-143688826D01*
X761177Y-143688825D01*
X828031Y-143671466D01*
X882048Y-143657441D01*
X882482Y-143657248D01*
X882485Y-143657247D01*
X994610Y-143607399D01*
X994615Y-143607397D01*
X994886Y-143607276D01*
X995136Y-143607131D01*
X995144Y-143607127D01*
X1105115Y-143543366D01*
X1105132Y-143543356D01*
X1105202Y-143543315D01*
X1219016Y-143470424D01*
X1219132Y-143470351D01*
X1342217Y-143393547D01*
X1342784Y-143393215D01*
X1481140Y-143317324D01*
X1482057Y-143316872D01*
X1627690Y-143252822D01*
X1634528Y-143249815D01*
X1643479Y-143249621D01*
X1648042Y-143252821D01*
G37*
%TD.AperFunction*%
%TD*%
%TA.AperFunction,Conductor*%
%TO.N,LINTR*%
G36*
X-4519723Y-134910812D02*
G01*
X-4337231Y-135086305D01*
X-4253769Y-135166567D01*
X-4250181Y-135174771D01*
X-4253769Y-135183433D01*
X-4519722Y-135439187D01*
X-4528061Y-135442452D01*
X-4533212Y-135441144D01*
X-4577293Y-135418318D01*
X-4577774Y-135418054D01*
X-4621815Y-135392561D01*
X-4622086Y-135392399D01*
X-4661286Y-135368274D01*
X-4697730Y-135346023D01*
X-4697734Y-135346021D01*
X-4697817Y-135345970D01*
X-4697912Y-135345917D01*
X-4733602Y-135326094D01*
X-4733608Y-135326091D01*
X-4733806Y-135325981D01*
X-4771520Y-135308713D01*
X-4813229Y-135294574D01*
X-4861200Y-135283971D01*
X-4917701Y-135277310D01*
X-4973701Y-135275388D01*
X-4981852Y-135271680D01*
X-4985000Y-135263695D01*
X-4985000Y-135086305D01*
X-4981573Y-135078032D01*
X-4973702Y-135074612D01*
X-4917701Y-135072689D01*
X-4861200Y-135066028D01*
X-4813229Y-135055425D01*
X-4771520Y-135041286D01*
X-4733806Y-135024018D01*
X-4733608Y-135023908D01*
X-4733602Y-135023905D01*
X-4697912Y-135004082D01*
X-4697903Y-135004077D01*
X-4697817Y-135004029D01*
X-4661286Y-134981725D01*
X-4622077Y-134957595D01*
X-4621815Y-134957438D01*
X-4577774Y-134931945D01*
X-4577293Y-134931681D01*
X-4565572Y-134925612D01*
X-4533211Y-134908855D01*
X-4524290Y-134908094D01*
X-4519723Y-134910812D01*
G37*
%TD.AperFunction*%
%TD*%
%TA.AperFunction,Conductor*%
%TO.N,L4*%
G36*
X-41747422Y-93324558D02*
G01*
X-41623319Y-93346604D01*
X-41615772Y-93351425D01*
X-41613742Y-93359459D01*
X-41662716Y-93785537D01*
X-41648985Y-94147804D01*
X-41648867Y-94148326D01*
X-41648867Y-94148328D01*
X-41581507Y-94446931D01*
X-41580405Y-94451818D01*
X-41466089Y-94714070D01*
X-41465845Y-94714453D01*
X-41315296Y-94950815D01*
X-41315290Y-94950823D01*
X-41315147Y-94951048D01*
X-41136694Y-95179243D01*
X-41046594Y-95287215D01*
X-40939930Y-95415038D01*
X-40939744Y-95415267D01*
X-40786954Y-95608047D01*
X-40750150Y-95654484D01*
X-40733949Y-95674926D01*
X-40733470Y-95675575D01*
X-40527706Y-95975555D01*
X-40527109Y-95976522D01*
X-40334161Y-96326442D01*
X-40333167Y-96335340D01*
X-40335974Y-96340200D01*
X-41851567Y-97916231D01*
X-41859771Y-97919819D01*
X-41868433Y-97916231D01*
X-43384126Y-96340096D01*
X-43387391Y-96331757D01*
X-43386029Y-96326503D01*
X-43192631Y-95961935D01*
X-43192198Y-95961188D01*
X-42999442Y-95654791D01*
X-42999039Y-95654192D01*
X-42827211Y-95415145D01*
X-42812204Y-95394267D01*
X-42811999Y-95393992D01*
X-42632628Y-95161824D01*
X-42462487Y-94938956D01*
X-42303323Y-94706872D01*
X-42156784Y-94446931D01*
X-42027675Y-94147804D01*
X-42024637Y-94140766D01*
X-42024635Y-94140762D01*
X-42024519Y-94140492D01*
X-41908175Y-93768911D01*
X-41817618Y-93351425D01*
X-41811790Y-93324558D01*
X-41806687Y-93317199D01*
X-41798311Y-93315518D01*
X-41747422Y-93324558D01*
G37*
%TD.AperFunction*%
%TD*%
%TA.AperFunction,Conductor*%
%TO.N,L1*%
G36*
X-99001567Y-129253769D02*
G01*
X-97485868Y-130829910D01*
X-97482603Y-130838249D01*
X-97483960Y-130843494D01*
X-97732937Y-131313868D01*
X-97733281Y-131314472D01*
X-97849798Y-131506116D01*
X-97857024Y-131511405D01*
X-97858684Y-131511685D01*
X-97954004Y-131520779D01*
X-97954008Y-131520780D01*
X-97954555Y-131520832D01*
X-97955082Y-131520987D01*
X-97955084Y-131520987D01*
X-98160834Y-131581348D01*
X-98160837Y-131581349D01*
X-98161368Y-131581505D01*
X-98250966Y-131627651D01*
X-98352479Y-131679933D01*
X-98352483Y-131679936D01*
X-98352977Y-131680190D01*
X-98522469Y-131813327D01*
X-98663726Y-131976112D01*
X-98664003Y-131976591D01*
X-98664006Y-131976595D01*
X-98754525Y-132133063D01*
X-98771654Y-132162672D01*
X-98771837Y-132163198D01*
X-98771838Y-132163201D01*
X-98842178Y-132365757D01*
X-98842179Y-132365762D01*
X-98842357Y-132366274D01*
X-98873283Y-132579573D01*
X-98863318Y-132794872D01*
X-98863189Y-132795409D01*
X-98863188Y-132795413D01*
X-98848875Y-132854803D01*
X-98812821Y-133004402D01*
X-98812591Y-133004907D01*
X-98812591Y-133004908D01*
X-98764988Y-133109605D01*
X-98764793Y-133118437D01*
X-98764688Y-133118470D01*
X-98764786Y-133118785D01*
X-98764785Y-133118816D01*
X-98765010Y-133119374D01*
X-98847229Y-133490228D01*
X-98862241Y-133906658D01*
X-98798982Y-134386798D01*
X-98798879Y-134387178D01*
X-98798878Y-134387182D01*
X-98649292Y-134938076D01*
X-98650431Y-134946958D01*
X-98656917Y-134952253D01*
X-98825226Y-135007794D01*
X-98834156Y-135007132D01*
X-98839994Y-135000376D01*
X-99032003Y-134423188D01*
X-99200472Y-133929180D01*
X-99200483Y-133929150D01*
X-99200504Y-133929087D01*
X-99349901Y-133508063D01*
X-99356388Y-133490763D01*
X-99488256Y-133139092D01*
X-99488267Y-133139064D01*
X-99488279Y-133139032D01*
X-99623726Y-132800912D01*
X-99634409Y-132775966D01*
X-99764309Y-132472657D01*
X-99764326Y-132472617D01*
X-99918167Y-132133063D01*
X-100093336Y-131761167D01*
X-100297918Y-131335845D01*
X-100536447Y-130843347D01*
X-100536969Y-130834407D01*
X-100534350Y-130830137D01*
X-99018433Y-129253769D01*
X-99010229Y-129250181D01*
X-99001567Y-129253769D01*
G37*
%TD.AperFunction*%
%TD*%
%TA.AperFunction,Conductor*%
%TO.N,L2*%
G36*
X-79951567Y-115283769D02*
G01*
X-78435868Y-116859910D01*
X-78432603Y-116868249D01*
X-78433960Y-116873494D01*
X-78682937Y-117343868D01*
X-78683281Y-117344472D01*
X-78799798Y-117536116D01*
X-78807024Y-117541405D01*
X-78808684Y-117541685D01*
X-78904004Y-117550779D01*
X-78904008Y-117550780D01*
X-78904555Y-117550832D01*
X-78905082Y-117550987D01*
X-78905084Y-117550987D01*
X-79110834Y-117611348D01*
X-79110837Y-117611349D01*
X-79111368Y-117611505D01*
X-79200966Y-117657651D01*
X-79302479Y-117709933D01*
X-79302483Y-117709936D01*
X-79302977Y-117710190D01*
X-79472469Y-117843327D01*
X-79613726Y-118006112D01*
X-79614003Y-118006591D01*
X-79614006Y-118006595D01*
X-79704525Y-118163063D01*
X-79721654Y-118192672D01*
X-79721837Y-118193198D01*
X-79721838Y-118193201D01*
X-79792178Y-118395757D01*
X-79792179Y-118395762D01*
X-79792357Y-118396274D01*
X-79823283Y-118609573D01*
X-79813318Y-118824872D01*
X-79813189Y-118825409D01*
X-79813188Y-118825413D01*
X-79791311Y-118916188D01*
X-79762821Y-119034402D01*
X-79762591Y-119034907D01*
X-79762591Y-119034908D01*
X-79714988Y-119139605D01*
X-79714793Y-119148437D01*
X-79714688Y-119148470D01*
X-79714786Y-119148785D01*
X-79714785Y-119148816D01*
X-79715010Y-119149374D01*
X-79797229Y-119520228D01*
X-79812241Y-119936658D01*
X-79748982Y-120416798D01*
X-79748879Y-120417178D01*
X-79748878Y-120417182D01*
X-79599292Y-120968076D01*
X-79600431Y-120976958D01*
X-79606917Y-120982253D01*
X-79775226Y-121037794D01*
X-79784156Y-121037132D01*
X-79789994Y-121030376D01*
X-79982003Y-120453188D01*
X-80150472Y-119959180D01*
X-80150483Y-119959150D01*
X-80150504Y-119959087D01*
X-80299901Y-119538063D01*
X-80306388Y-119520763D01*
X-80438256Y-119169092D01*
X-80438267Y-119169064D01*
X-80438279Y-119169032D01*
X-80573726Y-118830912D01*
X-80584409Y-118805966D01*
X-80714309Y-118502657D01*
X-80714326Y-118502617D01*
X-80868167Y-118163063D01*
X-81043336Y-117791167D01*
X-81247918Y-117365845D01*
X-81486447Y-116873347D01*
X-81486969Y-116864407D01*
X-81484350Y-116860137D01*
X-79968433Y-115283769D01*
X-79960229Y-115280181D01*
X-79951567Y-115283769D01*
G37*
%TD.AperFunction*%
%TD*%
%TA.AperFunction,Conductor*%
%TO.N,L0*%
G36*
X-118051567Y-147033769D02*
G01*
X-116535868Y-148609910D01*
X-116532603Y-148618249D01*
X-116533960Y-148623494D01*
X-116782937Y-149093868D01*
X-116783281Y-149094472D01*
X-116899798Y-149286116D01*
X-116907024Y-149291405D01*
X-116908684Y-149291685D01*
X-117004004Y-149300779D01*
X-117004008Y-149300780D01*
X-117004555Y-149300832D01*
X-117005082Y-149300987D01*
X-117005084Y-149300987D01*
X-117210834Y-149361348D01*
X-117210837Y-149361349D01*
X-117211368Y-149361505D01*
X-117300966Y-149407651D01*
X-117402479Y-149459933D01*
X-117402483Y-149459936D01*
X-117402977Y-149460190D01*
X-117572469Y-149593327D01*
X-117713726Y-149756112D01*
X-117714003Y-149756591D01*
X-117714006Y-149756595D01*
X-117804525Y-149913063D01*
X-117821654Y-149942672D01*
X-117821837Y-149943198D01*
X-117821838Y-149943201D01*
X-117892178Y-150145757D01*
X-117892179Y-150145762D01*
X-117892357Y-150146274D01*
X-117923283Y-150359573D01*
X-117913318Y-150574872D01*
X-117913189Y-150575409D01*
X-117913188Y-150575413D01*
X-117898875Y-150634803D01*
X-117862821Y-150784402D01*
X-117862591Y-150784907D01*
X-117862591Y-150784908D01*
X-117814989Y-150889604D01*
X-117814796Y-150898434D01*
X-117814689Y-150898467D01*
X-117814789Y-150898789D01*
X-117814788Y-150898819D01*
X-117814832Y-150898928D01*
X-117814834Y-150898935D01*
X-117815011Y-150899374D01*
X-117815113Y-150899833D01*
X-117815114Y-150899837D01*
X-117819383Y-150919092D01*
X-117897230Y-151270227D01*
X-117912242Y-151686658D01*
X-117848982Y-152166798D01*
X-117848879Y-152167178D01*
X-117848878Y-152167182D01*
X-117699293Y-152718076D01*
X-117700432Y-152726958D01*
X-117706918Y-152732253D01*
X-117875227Y-152787794D01*
X-117884157Y-152787132D01*
X-117889995Y-152780376D01*
X-118082003Y-152203188D01*
X-118250473Y-151709180D01*
X-118250484Y-151709150D01*
X-118250505Y-151709087D01*
X-118399902Y-151288063D01*
X-118406590Y-151270227D01*
X-118538257Y-150919092D01*
X-118538268Y-150919064D01*
X-118538280Y-150919032D01*
X-118673726Y-150580912D01*
X-118684409Y-150555966D01*
X-118814309Y-150252657D01*
X-118814326Y-150252617D01*
X-118968168Y-149913063D01*
X-119143336Y-149541167D01*
X-119347918Y-149115845D01*
X-119586447Y-148623347D01*
X-119586969Y-148614407D01*
X-119584350Y-148610137D01*
X-118068433Y-147033769D01*
X-118060229Y-147030181D01*
X-118051567Y-147033769D01*
G37*
%TD.AperFunction*%
%TD*%
%TA.AperFunction,Conductor*%
%TO.N,R0*%
G36*
X-138246065Y-50166592D02*
G01*
X-137541001Y-50899772D01*
X-137537736Y-50908111D01*
X-137539212Y-50913575D01*
X-137717212Y-51233178D01*
X-137717910Y-51234281D01*
X-137908584Y-51501501D01*
X-137909227Y-51502322D01*
X-138102285Y-51727425D01*
X-138102659Y-51727841D01*
X-138291673Y-51927997D01*
X-138469890Y-52120088D01*
X-138630515Y-52321012D01*
X-138766944Y-52547867D01*
X-138872571Y-52817751D01*
X-138940792Y-53147763D01*
X-138940817Y-53148179D01*
X-138940817Y-53148181D01*
X-138964346Y-53543994D01*
X-138968257Y-53552050D01*
X-138976025Y-53555000D01*
X-139153975Y-53555000D01*
X-139162248Y-53551573D01*
X-139165654Y-53543994D01*
X-139189182Y-53148181D01*
X-139189182Y-53148179D01*
X-139189207Y-53147763D01*
X-139257428Y-52817751D01*
X-139363055Y-52547867D01*
X-139499484Y-52321012D01*
X-139660109Y-52120088D01*
X-139838326Y-51927997D01*
X-140027340Y-51727841D01*
X-140027714Y-51727425D01*
X-140220772Y-51502322D01*
X-140221415Y-51501501D01*
X-140412089Y-51234281D01*
X-140412787Y-51233178D01*
X-140590788Y-50913575D01*
X-140591819Y-50904680D01*
X-140588999Y-50899772D01*
X-139884018Y-50166679D01*
X-139884017Y-50166677D01*
X-139065000Y-49315000D01*
X-138246065Y-50166592D01*
G37*
%TD.AperFunction*%
%TD*%
%TA.AperFunction,Conductor*%
%TO.N,R0*%
G36*
X-139056567Y7826231D02*
G01*
X-137541001Y6250228D01*
X-137537736Y6241889D01*
X-137539212Y6236425D01*
X-137717212Y5916821D01*
X-137717910Y5915718D01*
X-137908584Y5648498D01*
X-137909227Y5647677D01*
X-138102285Y5422574D01*
X-138102659Y5422158D01*
X-138291673Y5222002D01*
X-138469890Y5029911D01*
X-138630515Y4828987D01*
X-138766944Y4602132D01*
X-138872571Y4332248D01*
X-138940792Y4002236D01*
X-138940817Y4001820D01*
X-138940817Y4001818D01*
X-138964346Y3606006D01*
X-138968257Y3597950D01*
X-138976025Y3595000D01*
X-139153975Y3595000D01*
X-139162248Y3598427D01*
X-139165654Y3606006D01*
X-139189182Y4001818D01*
X-139189182Y4001820D01*
X-139189207Y4002236D01*
X-139257428Y4332248D01*
X-139363055Y4602132D01*
X-139499484Y4828987D01*
X-139660109Y5029911D01*
X-139838326Y5222002D01*
X-140027340Y5422158D01*
X-140027714Y5422574D01*
X-140220772Y5647677D01*
X-140221415Y5648498D01*
X-140412089Y5915718D01*
X-140412787Y5916821D01*
X-140590788Y6236425D01*
X-140591819Y6245320D01*
X-140588999Y6250228D01*
X-139073433Y7826231D01*
X-139065229Y7829819D01*
X-139056567Y7826231D01*
G37*
%TD.AperFunction*%
%TD*%
%TA.AperFunction,Conductor*%
%TO.N,R0*%
G36*
X-170633859Y-13020082D02*
G01*
X-170630872Y-13024837D01*
X-170625645Y-13040682D01*
X-170575376Y-13193060D01*
X-170575067Y-13194180D01*
X-170539279Y-13354788D01*
X-170539124Y-13355626D01*
X-170517274Y-13503789D01*
X-170517228Y-13504139D01*
X-170501082Y-13642404D01*
X-170482386Y-13773086D01*
X-170452858Y-13898538D01*
X-170404200Y-14021297D01*
X-170328111Y-14143898D01*
X-170327772Y-14144276D01*
X-170327772Y-14144277D01*
X-170217322Y-14267724D01*
X-170216289Y-14268879D01*
X-170215965Y-14269149D01*
X-170215962Y-14269152D01*
X-170144362Y-14328827D01*
X-170068904Y-14391718D01*
X-170064743Y-14399647D01*
X-170066978Y-14407649D01*
X-170172516Y-14550773D01*
X-170180184Y-14555398D01*
X-170188411Y-14553571D01*
X-170357917Y-14440828D01*
X-170517278Y-14359621D01*
X-170662325Y-14308667D01*
X-170798172Y-14280514D01*
X-170798479Y-14280484D01*
X-170798480Y-14280484D01*
X-170929744Y-14267724D01*
X-170929756Y-14267723D01*
X-170929933Y-14267706D01*
X-170930120Y-14267699D01*
X-170930121Y-14267699D01*
X-170940703Y-14267307D01*
X-171062721Y-14262789D01*
X-171125984Y-14260749D01*
X-171201389Y-14258317D01*
X-171201905Y-14258289D01*
X-171277075Y-14252535D01*
X-171351388Y-14246846D01*
X-171352278Y-14246742D01*
X-171517833Y-14220928D01*
X-171518907Y-14220708D01*
X-171585125Y-14203841D01*
X-171698101Y-14175063D01*
X-171705272Y-14169700D01*
X-171706894Y-14164391D01*
X-171770501Y-13049137D01*
X-171767551Y-13040682D01*
X-171759030Y-13036774D01*
X-170642192Y-13016804D01*
X-170633859Y-13020082D01*
G37*
%TD.AperFunction*%
%TD*%
%TA.AperFunction,Conductor*%
%TO.N,R0*%
G36*
X-153039338Y-69857231D02*
G01*
X-152852464Y-69948218D01*
X-152719113Y-70013146D01*
X-152717974Y-70013781D01*
X-152442539Y-70188374D01*
X-152441752Y-70188919D01*
X-152203437Y-70368894D01*
X-152203142Y-70369126D01*
X-151987376Y-70544488D01*
X-151779687Y-70705078D01*
X-151779464Y-70705219D01*
X-151565976Y-70840478D01*
X-151565970Y-70840481D01*
X-151565574Y-70840732D01*
X-151330373Y-70941418D01*
X-151059423Y-70997102D01*
X-150738059Y-70997751D01*
X-150497170Y-70957596D01*
X-150362411Y-70935132D01*
X-150353687Y-70937152D01*
X-150349101Y-70943979D01*
X-150308128Y-71117139D01*
X-150309558Y-71125979D01*
X-150316242Y-71131066D01*
X-150713533Y-71246777D01*
X-150713862Y-71246918D01*
X-151038123Y-71385681D01*
X-151038129Y-71385684D01*
X-151038498Y-71385842D01*
X-151298956Y-71542493D01*
X-151513401Y-71714074D01*
X-151700329Y-71897926D01*
X-151700418Y-71898023D01*
X-151700425Y-71898030D01*
X-151878168Y-72091323D01*
X-151878233Y-72091394D01*
X-152065373Y-72291568D01*
X-152065836Y-72292036D01*
X-152280557Y-72496173D01*
X-152281370Y-72496877D01*
X-152542259Y-72702528D01*
X-152543276Y-72703245D01*
X-152860591Y-72902669D01*
X-152862208Y-72903685D01*
X-152871036Y-72905186D01*
X-152876041Y-72902669D01*
X-154050288Y-71897926D01*
X-154537407Y-71481122D01*
X-154541465Y-71473140D01*
X-154538386Y-71464285D01*
X-154054345Y-70941418D01*
X-153053046Y-69859802D01*
X-153044911Y-69856059D01*
X-153039338Y-69857231D01*
G37*
%TD.AperFunction*%
%TD*%
%TA.AperFunction,Conductor*%
%TO.N,R1*%
G36*
X-120851359Y12800799D02*
G01*
X-120602184Y12445589D01*
X-120362191Y12158708D01*
X-120362007Y12158525D01*
X-120362006Y12158523D01*
X-120300095Y12096658D01*
X-120134489Y11931175D01*
X-119915721Y11744787D01*
X-119915616Y11744706D01*
X-119915603Y11744696D01*
X-119802090Y11657671D01*
X-119798558Y11653229D01*
X-119753026Y11553090D01*
X-119728614Y11499397D01*
X-119603915Y11323604D01*
X-119448225Y11174563D01*
X-119267160Y11057651D01*
X-119266644Y11057443D01*
X-119067777Y10977297D01*
X-119067774Y10977296D01*
X-119067255Y10977087D01*
X-119066702Y10976979D01*
X-118991382Y10962270D01*
X-118984862Y10958540D01*
X-118838695Y10793345D01*
X-118838018Y10792506D01*
X-118607671Y10478037D01*
X-118605547Y10469338D01*
X-118607633Y10464262D01*
X-118910063Y10046521D01*
X-119897044Y8683225D01*
X-121626181Y10041144D01*
X-121630571Y10048949D01*
X-121629844Y10054623D01*
X-121505569Y10370873D01*
X-121505046Y10372020D01*
X-121453150Y10471164D01*
X-121355714Y10657309D01*
X-121355317Y10658008D01*
X-121197533Y10914606D01*
X-121197412Y10914798D01*
X-121157291Y10977297D01*
X-121045066Y11152118D01*
X-120912157Y11379528D01*
X-120812628Y11606495D01*
X-120760352Y11842593D01*
X-120769205Y12097400D01*
X-120853058Y12380490D01*
X-121020670Y12691934D01*
X-121021573Y12700842D01*
X-121016719Y12707304D01*
X-120867289Y12803906D01*
X-120858481Y12805519D01*
X-120851359Y12800799D01*
G37*
%TD.AperFunction*%
%TD*%
%TA.AperFunction,Conductor*%
%TO.N,R1*%
G36*
X-170655557Y-10428831D02*
G01*
X-170652262Y-10433416D01*
X-170589332Y-10591195D01*
X-170588957Y-10592288D01*
X-170544139Y-10747741D01*
X-170543952Y-10748480D01*
X-170511971Y-10894571D01*
X-170511936Y-10894737D01*
X-170484589Y-11031644D01*
X-170453686Y-11159192D01*
X-170410969Y-11277511D01*
X-170410714Y-11277954D01*
X-170410713Y-11277957D01*
X-170348486Y-11386240D01*
X-170348484Y-11386243D01*
X-170348170Y-11386789D01*
X-170257017Y-11487215D01*
X-170129241Y-11578978D01*
X-170128786Y-11579198D01*
X-170128780Y-11579201D01*
X-170038576Y-11622711D01*
X-169966405Y-11657523D01*
X-169960443Y-11664203D01*
X-169960625Y-11672403D01*
X-170000889Y-11773109D01*
X-170026644Y-11837527D01*
X-170032897Y-11843936D01*
X-170041422Y-11844209D01*
X-170241547Y-11773175D01*
X-170423117Y-11726737D01*
X-170550527Y-11707421D01*
X-170582141Y-11702628D01*
X-170582144Y-11702628D01*
X-170582419Y-11702586D01*
X-170582700Y-11702570D01*
X-170582705Y-11702570D01*
X-170726119Y-11694663D01*
X-170726124Y-11694663D01*
X-170726340Y-11694651D01*
X-170861769Y-11696859D01*
X-170861823Y-11696862D01*
X-170861841Y-11696862D01*
X-170924786Y-11699817D01*
X-170995564Y-11703139D01*
X-170995641Y-11703141D01*
X-171134378Y-11707411D01*
X-171135022Y-11707413D01*
X-171285510Y-11703644D01*
X-171286436Y-11703584D01*
X-171455823Y-11685752D01*
X-171456824Y-11685602D01*
X-171524741Y-11672404D01*
X-171644251Y-11649179D01*
X-171651718Y-11644237D01*
X-171653634Y-11639102D01*
X-171788027Y-10530095D01*
X-171785620Y-10521469D01*
X-171777365Y-10517026D01*
X-170664082Y-10426089D01*
X-170655557Y-10428831D01*
G37*
%TD.AperFunction*%
%TD*%
%TA.AperFunction,Conductor*%
%TO.N,R1*%
G36*
X-129458347Y-68352398D02*
G01*
X-129372010Y-68358434D01*
X-129363996Y-68362430D01*
X-129361126Y-68370186D01*
X-129363869Y-68764107D01*
X-129363802Y-68764556D01*
X-129347896Y-68871777D01*
X-129348416Y-68877332D01*
X-129372178Y-68945757D01*
X-129372179Y-68945762D01*
X-129372357Y-68946274D01*
X-129403283Y-69159573D01*
X-129403257Y-69160131D01*
X-129394051Y-69359026D01*
X-129393318Y-69374872D01*
X-129342821Y-69584402D01*
X-129253614Y-69780603D01*
X-129128915Y-69956396D01*
X-128973225Y-70105437D01*
X-128792160Y-70222349D01*
X-128791644Y-70222557D01*
X-128592770Y-70302706D01*
X-128592765Y-70302708D01*
X-128592255Y-70302913D01*
X-128591713Y-70303019D01*
X-128591709Y-70303020D01*
X-128463742Y-70328010D01*
X-128457067Y-70331918D01*
X-128398412Y-70400985D01*
X-128374991Y-70428564D01*
X-128374356Y-70429382D01*
X-128183930Y-70698652D01*
X-128183224Y-70699783D01*
X-128007754Y-71019780D01*
X-128006781Y-71028681D01*
X-128009651Y-71033588D01*
X-129538918Y-72596271D01*
X-129547154Y-72599787D01*
X-129555784Y-72596124D01*
X-131057540Y-71006915D01*
X-131060731Y-70998548D01*
X-131059227Y-70993131D01*
X-130877535Y-70670997D01*
X-130876868Y-70669949D01*
X-130685343Y-70401791D01*
X-130684713Y-70400985D01*
X-130492300Y-70176057D01*
X-130491914Y-70175629D01*
X-130303710Y-69976383D01*
X-130125153Y-69785574D01*
X-130125150Y-69785571D01*
X-130125025Y-69785437D01*
X-129961299Y-69585493D01*
X-129817760Y-69359026D01*
X-129730427Y-69159023D01*
X-129699823Y-69088935D01*
X-129699822Y-69088932D01*
X-129699639Y-69088513D01*
X-129614304Y-68764556D01*
X-129612264Y-68756813D01*
X-129612264Y-68756811D01*
X-129612163Y-68756429D01*
X-129561941Y-68356239D01*
X-129557511Y-68348457D01*
X-129549517Y-68346024D01*
X-129458347Y-68352398D01*
G37*
%TD.AperFunction*%
%TD*%
%TA.AperFunction,Conductor*%
%TO.N,R1*%
G36*
X-119424256Y-47860699D02*
G01*
X-119424241Y-47862987D01*
X-119422657Y-48103239D01*
X-119417400Y-48900817D01*
X-119415382Y-49207051D01*
X-119418755Y-49215346D01*
X-119423601Y-49218297D01*
X-119736586Y-49315803D01*
X-119769423Y-49326033D01*
X-119770692Y-49326352D01*
X-120092647Y-49388351D01*
X-120093622Y-49388496D01*
X-120234217Y-49403232D01*
X-120389923Y-49419551D01*
X-120390414Y-49419592D01*
X-120537255Y-49428759D01*
X-120666775Y-49436845D01*
X-120928562Y-49457461D01*
X-121007268Y-49470293D01*
X-121180723Y-49498572D01*
X-121180727Y-49498573D01*
X-121181138Y-49498640D01*
X-121181537Y-49498766D01*
X-121181539Y-49498767D01*
X-121335143Y-49547481D01*
X-121430112Y-49577599D01*
X-121681094Y-49711550D01*
X-121681508Y-49711880D01*
X-121681511Y-49711882D01*
X-121939341Y-49917429D01*
X-121939693Y-49917710D01*
X-121939994Y-49918037D01*
X-121939998Y-49918041D01*
X-122204081Y-50205205D01*
X-122212204Y-50208975D01*
X-122220058Y-50206376D01*
X-122358325Y-50094369D01*
X-122362596Y-50086500D01*
X-122360446Y-50078430D01*
X-122244193Y-49917429D01*
X-122123109Y-49749737D01*
X-122102822Y-49711882D01*
X-121960279Y-49445893D01*
X-121960279Y-49445892D01*
X-121960069Y-49445501D01*
X-121918226Y-49326352D01*
X-121861879Y-49165905D01*
X-121861878Y-49165902D01*
X-121861730Y-49165480D01*
X-121812020Y-48900459D01*
X-121794865Y-48641222D01*
X-121794194Y-48378554D01*
X-121793932Y-48103542D01*
X-121793915Y-48102927D01*
X-121778037Y-47806599D01*
X-121777933Y-47805544D01*
X-121730439Y-47478436D01*
X-121730186Y-47477183D01*
X-121637045Y-47117621D01*
X-121631653Y-47110472D01*
X-121626253Y-47108867D01*
X-121534224Y-47104659D01*
X-119429873Y-47008457D01*
X-119424256Y-47860699D01*
G37*
%TD.AperFunction*%
%TD*%
%TA.AperFunction,Conductor*%
%TO.N,R2*%
G36*
X-110356878Y-67655799D02*
G01*
X-110348795Y-67659653D01*
X-110345789Y-67667562D01*
X-110349040Y-68146421D01*
X-110349076Y-68151675D01*
X-110305962Y-68561782D01*
X-110258393Y-68756365D01*
X-110258705Y-68762976D01*
X-110287396Y-68845598D01*
X-110322178Y-68945757D01*
X-110322179Y-68945762D01*
X-110322357Y-68946274D01*
X-110353283Y-69159573D01*
X-110343318Y-69374872D01*
X-110292821Y-69584402D01*
X-110203614Y-69780603D01*
X-110078915Y-69956396D01*
X-109923225Y-70105437D01*
X-109742160Y-70222349D01*
X-109741644Y-70222557D01*
X-109542777Y-70302703D01*
X-109542774Y-70302704D01*
X-109542255Y-70302913D01*
X-109349875Y-70340482D01*
X-109342219Y-70345729D01*
X-109225506Y-70531046D01*
X-109173519Y-70613592D01*
X-109173095Y-70614322D01*
X-108963996Y-71006494D01*
X-108963127Y-71015407D01*
X-108965887Y-71020109D01*
X-110481567Y-72596231D01*
X-110489771Y-72599819D01*
X-110498433Y-72596231D01*
X-112014146Y-71020075D01*
X-112017411Y-71011736D01*
X-112016066Y-71006515D01*
X-111807453Y-70610260D01*
X-111807084Y-70609609D01*
X-111600992Y-70272347D01*
X-111600694Y-70271885D01*
X-111403868Y-69981422D01*
X-111403759Y-69981264D01*
X-111219229Y-69718345D01*
X-111050173Y-69463879D01*
X-110899721Y-69198698D01*
X-110770947Y-68903559D01*
X-110666925Y-68559215D01*
X-110590731Y-68146421D01*
X-110546680Y-67659653D01*
X-110546454Y-67657152D01*
X-110542296Y-67649221D01*
X-110534191Y-67646522D01*
X-110356878Y-67655799D01*
G37*
%TD.AperFunction*%
%TD*%
%TA.AperFunction,Conductor*%
%TO.N,R2*%
G36*
X-170655557Y-7888831D02*
G01*
X-170652262Y-7893416D01*
X-170589332Y-8051195D01*
X-170588957Y-8052288D01*
X-170544139Y-8207741D01*
X-170543952Y-8208480D01*
X-170511971Y-8354571D01*
X-170511936Y-8354737D01*
X-170484589Y-8491644D01*
X-170453686Y-8619192D01*
X-170410969Y-8737511D01*
X-170410714Y-8737954D01*
X-170410713Y-8737957D01*
X-170348486Y-8846240D01*
X-170348484Y-8846243D01*
X-170348170Y-8846789D01*
X-170257017Y-8947215D01*
X-170129241Y-9038978D01*
X-170128786Y-9039198D01*
X-170128780Y-9039201D01*
X-170038576Y-9082711D01*
X-169966405Y-9117523D01*
X-169960443Y-9124203D01*
X-169960625Y-9132403D01*
X-170000889Y-9233109D01*
X-170026644Y-9297527D01*
X-170032897Y-9303936D01*
X-170041422Y-9304209D01*
X-170241547Y-9233175D01*
X-170423117Y-9186737D01*
X-170550527Y-9167421D01*
X-170582141Y-9162628D01*
X-170582144Y-9162628D01*
X-170582419Y-9162586D01*
X-170582700Y-9162570D01*
X-170582705Y-9162570D01*
X-170726119Y-9154663D01*
X-170726124Y-9154663D01*
X-170726340Y-9154651D01*
X-170861769Y-9156859D01*
X-170861823Y-9156862D01*
X-170861841Y-9156862D01*
X-170924786Y-9159817D01*
X-170995564Y-9163139D01*
X-170995641Y-9163141D01*
X-171134378Y-9167411D01*
X-171135022Y-9167413D01*
X-171285510Y-9163644D01*
X-171286436Y-9163584D01*
X-171455823Y-9145752D01*
X-171456824Y-9145602D01*
X-171524741Y-9132404D01*
X-171644251Y-9109179D01*
X-171651718Y-9104237D01*
X-171653634Y-9099102D01*
X-171788027Y-7990095D01*
X-171785620Y-7981469D01*
X-171777365Y-7977026D01*
X-170664082Y-7886089D01*
X-170655557Y-7888831D01*
G37*
%TD.AperFunction*%
%TD*%
%TA.AperFunction,Conductor*%
%TO.N,R2*%
G36*
X-101510858Y14125508D02*
G01*
X-101274687Y13783996D01*
X-101274627Y13783918D01*
X-101274613Y13783898D01*
X-101215123Y13705917D01*
X-101056960Y13498591D01*
X-100858637Y13263365D01*
X-100858557Y13263278D01*
X-100858549Y13263269D01*
X-100823366Y13225050D01*
X-100820287Y13217667D01*
X-100818318Y13175128D01*
X-100767821Y12965598D01*
X-100678614Y12769397D01*
X-100553915Y12593604D01*
X-100398225Y12444563D01*
X-100217160Y12327651D01*
X-100216644Y12327443D01*
X-100017770Y12247294D01*
X-100017765Y12247292D01*
X-100017255Y12247087D01*
X-100016713Y12246981D01*
X-100016709Y12246980D01*
X-99958644Y12235641D01*
X-99907580Y12225669D01*
X-99900571Y12221349D01*
X-99765133Y12046443D01*
X-99764783Y12045966D01*
X-99555160Y11744421D01*
X-99551699Y11739443D01*
X-99549791Y11730694D01*
X-99551996Y11725679D01*
X-100209115Y10862290D01*
X-100209115Y10862289D01*
X-100905679Y9947073D01*
X-102536458Y11421526D01*
X-102540296Y11429617D01*
X-102539127Y11435334D01*
X-102388383Y11744421D01*
X-102387672Y11745676D01*
X-102206887Y12023336D01*
X-102206349Y12024094D01*
X-102014497Y12273034D01*
X-102014302Y12273281D01*
X-101827085Y12503143D01*
X-101827068Y12503165D01*
X-101827019Y12503225D01*
X-101758927Y12593219D01*
X-101660421Y12723408D01*
X-101660417Y12723414D01*
X-101660224Y12723669D01*
X-101529699Y12944302D01*
X-101451140Y13174920D01*
X-101440242Y13425318D01*
X-101512702Y13705294D01*
X-101679163Y14015234D01*
X-101680059Y14024144D01*
X-101675308Y14030530D01*
X-101526932Y14128612D01*
X-101518141Y14130316D01*
X-101510858Y14125508D01*
G37*
%TD.AperFunction*%
%TD*%
%TA.AperFunction,Conductor*%
%TO.N,R2*%
G36*
X-100374256Y-46590699D02*
G01*
X-100374241Y-46592987D01*
X-100372657Y-46833239D01*
X-100367400Y-47630817D01*
X-100365382Y-47937051D01*
X-100368755Y-47945346D01*
X-100373601Y-47948297D01*
X-100686586Y-48045803D01*
X-100719423Y-48056033D01*
X-100720692Y-48056352D01*
X-101042647Y-48118351D01*
X-101043622Y-48118496D01*
X-101184217Y-48133232D01*
X-101339923Y-48149551D01*
X-101340414Y-48149592D01*
X-101487255Y-48158759D01*
X-101616775Y-48166845D01*
X-101878562Y-48187461D01*
X-101957268Y-48200293D01*
X-102130723Y-48228572D01*
X-102130727Y-48228573D01*
X-102131138Y-48228640D01*
X-102131537Y-48228766D01*
X-102131539Y-48228767D01*
X-102285143Y-48277481D01*
X-102380112Y-48307599D01*
X-102631094Y-48441550D01*
X-102631508Y-48441880D01*
X-102631511Y-48441882D01*
X-102889341Y-48647429D01*
X-102889693Y-48647710D01*
X-102889994Y-48648037D01*
X-102889998Y-48648041D01*
X-103154081Y-48935205D01*
X-103162204Y-48938975D01*
X-103170058Y-48936376D01*
X-103308325Y-48824369D01*
X-103312596Y-48816500D01*
X-103310446Y-48808430D01*
X-103194193Y-48647429D01*
X-103073109Y-48479737D01*
X-103052822Y-48441882D01*
X-102910279Y-48175893D01*
X-102910279Y-48175892D01*
X-102910069Y-48175501D01*
X-102868226Y-48056352D01*
X-102811879Y-47895905D01*
X-102811878Y-47895902D01*
X-102811730Y-47895480D01*
X-102762020Y-47630459D01*
X-102744865Y-47371222D01*
X-102744194Y-47108554D01*
X-102743932Y-46833542D01*
X-102743915Y-46832927D01*
X-102728037Y-46536599D01*
X-102727933Y-46535544D01*
X-102680439Y-46208436D01*
X-102680186Y-46207183D01*
X-102587045Y-45847621D01*
X-102581653Y-45840472D01*
X-102576253Y-45838867D01*
X-102484224Y-45834659D01*
X-100379873Y-45738457D01*
X-100374256Y-46590699D01*
G37*
%TD.AperFunction*%
%TD*%
%TA.AperFunction,Conductor*%
%TO.N,R3*%
G36*
X-82604452Y12842281D02*
G01*
X-82385221Y12473371D01*
X-82168713Y12174182D01*
X-81958505Y11936048D01*
X-81752433Y11740640D01*
X-81725621Y11718175D01*
X-81721762Y11711949D01*
X-81717821Y11695598D01*
X-81628614Y11499397D01*
X-81503915Y11323604D01*
X-81348225Y11174563D01*
X-81167160Y11057651D01*
X-81166644Y11057443D01*
X-80967770Y10977294D01*
X-80967765Y10977292D01*
X-80967255Y10977087D01*
X-80966713Y10976981D01*
X-80966709Y10976980D01*
X-80878755Y10959804D01*
X-80872076Y10955891D01*
X-80708638Y10763305D01*
X-80707973Y10762443D01*
X-80486427Y10445871D01*
X-80484491Y10437128D01*
X-80486693Y10432091D01*
X-81816169Y8680766D01*
X-83514050Y10077553D01*
X-83518262Y10085455D01*
X-83517402Y10091124D01*
X-83383783Y10408845D01*
X-83383211Y10410016D01*
X-83224983Y10693166D01*
X-83224534Y10693905D01*
X-83057956Y10946216D01*
X-83057797Y10946451D01*
X-82896290Y11178652D01*
X-82896228Y11178741D01*
X-82753215Y11401673D01*
X-82753073Y11401960D01*
X-82642462Y11625568D01*
X-82642461Y11625571D01*
X-82642219Y11626060D01*
X-82622802Y11696142D01*
X-82576811Y11862144D01*
X-82576621Y11862830D01*
X-82574706Y11935868D01*
X-82569823Y12122189D01*
X-82569804Y12122905D01*
X-82635151Y12417212D01*
X-82660018Y12473156D01*
X-82781651Y12746788D01*
X-82781880Y12755739D01*
X-82776534Y12761827D01*
X-82620084Y12846591D01*
X-82611177Y12847519D01*
X-82604452Y12842281D01*
G37*
%TD.AperFunction*%
%TD*%
%TA.AperFunction,Conductor*%
%TO.N,R3*%
G36*
X-170655557Y-5348832D02*
G01*
X-170652262Y-5353417D01*
X-170613702Y-5450094D01*
X-170589332Y-5511196D01*
X-170588957Y-5512289D01*
X-170544140Y-5667742D01*
X-170543953Y-5668481D01*
X-170511972Y-5814571D01*
X-170511937Y-5814737D01*
X-170484589Y-5951644D01*
X-170453686Y-6079192D01*
X-170410970Y-6197511D01*
X-170410715Y-6197954D01*
X-170410714Y-6197957D01*
X-170348486Y-6306240D01*
X-170348484Y-6306243D01*
X-170348170Y-6306789D01*
X-170257017Y-6407215D01*
X-170129241Y-6498978D01*
X-170128786Y-6499198D01*
X-170128780Y-6499201D01*
X-170036432Y-6543745D01*
X-169966406Y-6577523D01*
X-169960444Y-6584203D01*
X-169960626Y-6592403D01*
X-170000890Y-6693109D01*
X-170026645Y-6757527D01*
X-170032898Y-6763936D01*
X-170041423Y-6764209D01*
X-170241548Y-6693175D01*
X-170423118Y-6646737D01*
X-170575520Y-6623632D01*
X-170582142Y-6622628D01*
X-170582145Y-6622628D01*
X-170582420Y-6622586D01*
X-170582701Y-6622570D01*
X-170582706Y-6622570D01*
X-170726120Y-6614663D01*
X-170726125Y-6614663D01*
X-170726341Y-6614651D01*
X-170861770Y-6616859D01*
X-170861824Y-6616862D01*
X-170861842Y-6616862D01*
X-170924787Y-6619817D01*
X-170995565Y-6623139D01*
X-170995642Y-6623141D01*
X-171134379Y-6627412D01*
X-171135023Y-6627414D01*
X-171285511Y-6623644D01*
X-171286437Y-6623584D01*
X-171455825Y-6605753D01*
X-171456825Y-6605603D01*
X-171524745Y-6592404D01*
X-171644252Y-6569179D01*
X-171651719Y-6564237D01*
X-171653635Y-6559102D01*
X-171788027Y-5450094D01*
X-171785620Y-5441468D01*
X-171777365Y-5437025D01*
X-170664082Y-5346090D01*
X-170655557Y-5348832D01*
G37*
%TD.AperFunction*%
%TD*%
%TA.AperFunction,Conductor*%
%TO.N,R5*%
G36*
X-170654705Y-270685D02*
G01*
X-170651421Y-275277D01*
X-170588747Y-433457D01*
X-170588374Y-434552D01*
X-170543893Y-590221D01*
X-170543707Y-590965D01*
X-170512113Y-737172D01*
X-170512075Y-737358D01*
X-170485163Y-874308D01*
X-170454712Y-1001999D01*
X-170412459Y-1120609D01*
X-170350120Y-1230410D01*
X-170259412Y-1331679D01*
X-170132051Y-1424689D01*
X-170131607Y-1424908D01*
X-169969550Y-1504882D01*
X-169963648Y-1511616D01*
X-169963905Y-1519819D01*
X-170031465Y-1684317D01*
X-170037778Y-1690668D01*
X-170046300Y-1690862D01*
X-170134070Y-1658815D01*
X-170245243Y-1618222D01*
X-170245248Y-1618220D01*
X-170245493Y-1618131D01*
X-170426393Y-1570299D01*
X-170426695Y-1570251D01*
X-170426700Y-1570250D01*
X-170521558Y-1555200D01*
X-170585268Y-1545091D01*
X-170728949Y-1536376D01*
X-170864271Y-1538023D01*
X-170864354Y-1538027D01*
X-170864369Y-1538027D01*
X-170998006Y-1543896D01*
X-170998185Y-1543902D01*
X-171065220Y-1545819D01*
X-171136847Y-1547866D01*
X-171137460Y-1547867D01*
X-171287934Y-1543829D01*
X-171288846Y-1543769D01*
X-171366021Y-1535507D01*
X-171458097Y-1525649D01*
X-171459108Y-1525495D01*
X-171646242Y-1488722D01*
X-171653699Y-1483765D01*
X-171655604Y-1478622D01*
X-171712200Y-1002289D01*
X-171787409Y-369304D01*
X-171784982Y-360686D01*
X-171776716Y-356262D01*
X-170663223Y-267924D01*
X-170654705Y-270685D01*
G37*
%TD.AperFunction*%
%TD*%
M02*
