%TF.GenerationSoftware,KiCad,Pcbnew,(6.0.7-1)-1*%
%TF.CreationDate,2023-01-14T16:38:51+08:00*%
%TF.ProjectId,prelude,7072656c-7564-4652-9e6b-696361645f70,rev?*%
%TF.SameCoordinates,Original*%
%TF.FileFunction,Soldermask,Bot*%
%TF.FilePolarity,Negative*%
%FSLAX46Y46*%
G04 Gerber Fmt 4.6, Leading zero omitted, Abs format (unit mm)*
G04 Created by KiCad (PCBNEW (6.0.7-1)-1) date 2023-01-14 16:38:51*
%MOMM*%
%LPD*%
G01*
G04 APERTURE LIST*
G04 Aperture macros list*
%AMRoundRect*
0 Rectangle with rounded corners*
0 $1 Rounding radius*
0 $2 $3 $4 $5 $6 $7 $8 $9 X,Y pos of 4 corners*
0 Add a 4 corners polygon primitive as box body*
4,1,4,$2,$3,$4,$5,$6,$7,$8,$9,$2,$3,0*
0 Add four circle primitives for the rounded corners*
1,1,$1+$1,$2,$3*
1,1,$1+$1,$4,$5*
1,1,$1+$1,$6,$7*
1,1,$1+$1,$8,$9*
0 Add four rect primitives between the rounded corners*
20,1,$1+$1,$2,$3,$4,$5,0*
20,1,$1+$1,$4,$5,$6,$7,0*
20,1,$1+$1,$6,$7,$8,$9,0*
20,1,$1+$1,$8,$9,$2,$3,0*%
%AMRotRect*
0 Rectangle, with rotation*
0 The origin of the aperture is its center*
0 $1 length*
0 $2 width*
0 $3 Rotation angle, in degrees counterclockwise*
0 Add horizontal line*
21,1,$1,$2,0,0,$3*%
%AMFreePoly0*
4,1,27,0.669380,1.507580,0.673100,1.498600,0.673100,-1.498600,0.669380,-1.507580,0.660400,-1.511300,-0.254000,-1.511300,-0.255209,-1.510799,-0.256491,-1.511053,-0.259564,-1.508995,-0.262980,-1.507580,-0.263480,-1.506373,-0.264567,-1.505645,-0.924967,-0.515045,-0.925685,-0.511417,-0.927100,-0.508000,-0.927100,0.508000,-0.925685,0.511417,-0.924967,0.515045,-0.264567,1.505645,-0.263480,1.506373,
-0.262980,1.507580,-0.259564,1.508995,-0.256491,1.511053,-0.255209,1.510799,-0.254000,1.511300,0.660400,1.511300,0.669380,1.507580,0.669380,1.507580,$1*%
G04 Aperture macros list end*
%ADD10C,3.000000*%
%ADD11C,1.750000*%
%ADD12C,3.987800*%
%ADD13C,3.400000*%
%ADD14RoundRect,0.250000X1.025000X1.000000X-1.025000X1.000000X-1.025000X-1.000000X1.025000X-1.000000X0*%
%ADD15R,2.550000X2.500000*%
%ADD16RoundRect,0.250000X0.387676X1.378525X-1.387676X0.353525X-0.387676X-1.378525X1.387676X-0.353525X0*%
%ADD17RotRect,2.550000X2.500000X210.000000*%
%ADD18R,1.200000X0.900000*%
%ADD19R,1.041400X1.524000*%
%ADD20FreePoly0,90.000000*%
%ADD21C,0.500000*%
%ADD22C,1.752600*%
%ADD23C,2.000000*%
%ADD24C,0.800000*%
%ADD25R,0.800000X1.000000*%
%ADD26R,0.600000X0.600000*%
%ADD27C,2.200000*%
G04 APERTURE END LIST*
D10*
%TO.C,SWL3-0*%
X-67260000Y-152955000D03*
D11*
X-59640000Y-158035000D03*
D12*
X-64720000Y-158035000D03*
D11*
X-69800000Y-158035000D03*
D13*
X-60910000Y-155495000D03*
%TD*%
D10*
%TO.C,SWL0-1*%
X-124410000Y-145335000D03*
D11*
X-116790000Y-150415000D03*
D12*
X-121870000Y-150415000D03*
D11*
X-126950000Y-150415000D03*
D13*
X-118060000Y-147875000D03*
%TD*%
D10*
%TO.C,SWL3-4*%
X-67260000Y-95805000D03*
D11*
X-59640000Y-100885000D03*
D12*
X-64720000Y-100885000D03*
D11*
X-69800000Y-100885000D03*
D13*
X-60910000Y-98345000D03*
%TD*%
D10*
%TO.C,SWL5-2*%
X-29160000Y-111045000D03*
D11*
X-21540000Y-116125000D03*
D12*
X-26620000Y-116125000D03*
D11*
X-31700000Y-116125000D03*
D13*
X-22810000Y-113585000D03*
%TD*%
D10*
%TO.C,SWL4-2*%
X-48210000Y-113585000D03*
D11*
X-40590000Y-118665000D03*
D12*
X-45670000Y-118665000D03*
D11*
X-50750000Y-118665000D03*
D13*
X-41860000Y-116125000D03*
%TD*%
D10*
%TO.C,SWL3-2*%
X-67260000Y-114855000D03*
D11*
X-59640000Y-119935000D03*
D12*
X-64720000Y-119935000D03*
D11*
X-69800000Y-119935000D03*
D13*
X-60910000Y-117395000D03*
%TD*%
D10*
%TO.C,SWL1-0*%
X-105360000Y-146605000D03*
D11*
X-97740000Y-151685000D03*
D12*
X-102820000Y-151685000D03*
D11*
X-107900000Y-151685000D03*
D13*
X-99010000Y-149145000D03*
%TD*%
D10*
%TO.C,SWL5-1*%
X-29160000Y-130095000D03*
D11*
X-21540000Y-135175000D03*
D12*
X-26620000Y-135175000D03*
D11*
X-31700000Y-135175000D03*
D13*
X-22810000Y-132635000D03*
%TD*%
D10*
%TO.C,SWL2-3*%
X-86310000Y-113585000D03*
D11*
X-78690000Y-118665000D03*
D12*
X-83770000Y-118665000D03*
D11*
X-88850000Y-118665000D03*
D13*
X-79960000Y-116125000D03*
%TD*%
D10*
%TO.C,SWL5-4*%
X-15967063Y-70441429D03*
D11*
X-6827949Y-71030838D03*
D12*
X-11227358Y-73570838D03*
D11*
X-15626767Y-76110838D03*
D13*
X-9197801Y-69466133D03*
%TD*%
D10*
%TO.C,SWL5-0*%
X-29160000Y-149145000D03*
D11*
X-21540000Y-154225000D03*
D12*
X-26620000Y-154225000D03*
D11*
X-31700000Y-154225000D03*
D13*
X-22810000Y-151685000D03*
%TD*%
D10*
%TO.C,SWL4-0*%
X-48210000Y-151685000D03*
D11*
X-40590000Y-156765000D03*
D12*
X-45670000Y-156765000D03*
D11*
X-50750000Y-156765000D03*
D13*
X-41860000Y-154225000D03*
%TD*%
D10*
%TO.C,SWL1-4*%
X-105360000Y-89455000D03*
D11*
X-97740000Y-94535000D03*
D12*
X-102820000Y-94535000D03*
D11*
X-107900000Y-94535000D03*
D13*
X-99010000Y-91995000D03*
%TD*%
D10*
%TO.C,SWL3-5*%
X-57735000Y-70405000D03*
D11*
X-50115000Y-75485000D03*
D12*
X-55195000Y-75485000D03*
D11*
X-60275000Y-75485000D03*
D13*
X-51385000Y-72945000D03*
%TD*%
D10*
%TO.C,SWL1-2*%
X-105360000Y-127555000D03*
D11*
X-97740000Y-132635000D03*
D12*
X-102820000Y-132635000D03*
D11*
X-107900000Y-132635000D03*
D13*
X-99010000Y-130095000D03*
%TD*%
D10*
%TO.C,SWL5-3*%
X-29160000Y-91995000D03*
D11*
X-21540000Y-97075000D03*
D12*
X-26620000Y-97075000D03*
D11*
X-31700000Y-97075000D03*
D13*
X-22810000Y-94535000D03*
%TD*%
D10*
%TO.C,SWL4-3*%
X-48210000Y-94535000D03*
D11*
X-40590000Y-99615000D03*
D12*
X-45670000Y-99615000D03*
D11*
X-50750000Y-99615000D03*
D13*
X-41860000Y-97075000D03*
%TD*%
D10*
%TO.C,SWL1-3*%
X-105360000Y-108505000D03*
D11*
X-97740000Y-113585000D03*
D12*
X-102820000Y-113585000D03*
D11*
X-107900000Y-113585000D03*
D13*
X-99010000Y-111045000D03*
%TD*%
D10*
%TO.C,SWL0-2*%
X-124410000Y-126285000D03*
D11*
X-116790000Y-131365000D03*
D12*
X-121870000Y-131365000D03*
D11*
X-126950000Y-131365000D03*
D13*
X-118060000Y-128825000D03*
%TD*%
D10*
%TO.C,SWL0-3*%
X-124410000Y-107235000D03*
D11*
X-116790000Y-112315000D03*
D12*
X-121870000Y-112315000D03*
D11*
X-126950000Y-112315000D03*
D13*
X-118060000Y-109775000D03*
%TD*%
D10*
%TO.C,SWL2-0*%
X-86310000Y-151685000D03*
D11*
X-78690000Y-156765000D03*
D12*
X-83770000Y-156765000D03*
D11*
X-88850000Y-156765000D03*
D13*
X-79960000Y-154225000D03*
%TD*%
D10*
%TO.C,SWL0-4*%
X-124410000Y-88185000D03*
D11*
X-116790000Y-93265000D03*
D12*
X-121870000Y-93265000D03*
D11*
X-126950000Y-93265000D03*
D13*
X-118060000Y-90725000D03*
%TD*%
D10*
%TO.C,SWL4-1*%
X-48210000Y-132635000D03*
D11*
X-40590000Y-137715000D03*
D12*
X-45670000Y-137715000D03*
D11*
X-50750000Y-137715000D03*
D13*
X-41860000Y-135175000D03*
%TD*%
D10*
%TO.C,SWL3-1*%
X-67260000Y-133905000D03*
D11*
X-59640000Y-138985000D03*
D12*
X-64720000Y-138985000D03*
D11*
X-69800000Y-138985000D03*
D13*
X-60910000Y-136445000D03*
%TD*%
D10*
%TO.C,SWL2-4*%
X-86310000Y-94535000D03*
D11*
X-78690000Y-99615000D03*
D12*
X-83770000Y-99615000D03*
D11*
X-88850000Y-99615000D03*
D13*
X-79960000Y-97075000D03*
%TD*%
D10*
%TO.C,SWL2-1*%
X-86310000Y-132635000D03*
D11*
X-78690000Y-137715000D03*
D12*
X-83770000Y-137715000D03*
D11*
X-88850000Y-137715000D03*
D13*
X-79960000Y-135175000D03*
%TD*%
D10*
%TO.C,SWL4-5*%
X-38685000Y-70405000D03*
D11*
X-31065000Y-75485000D03*
D12*
X-36145000Y-75485000D03*
D11*
X-41225000Y-75485000D03*
D13*
X-32335000Y-72945000D03*
%TD*%
D10*
%TO.C,SWR4-2*%
X-69215000Y-36195000D03*
D11*
X-61595000Y-31115000D03*
D12*
X-66675000Y-31115000D03*
D11*
X-71755000Y-31115000D03*
D14*
X-59315000Y-33655000D03*
D15*
X-61165000Y-33655000D03*
D13*
X-62865000Y-33655000D03*
D14*
X-72765000Y-36195000D03*
%TD*%
D10*
%TO.C,SWR2-4*%
X-107315000Y-48895000D03*
D11*
X-99695000Y-43815000D03*
D12*
X-104775000Y-43815000D03*
D11*
X-109855000Y-43815000D03*
D14*
X-97415000Y-46355000D03*
D15*
X-99265000Y-46355000D03*
D13*
X-100965000Y-46355000D03*
D14*
X-110865000Y-48895000D03*
%TD*%
D10*
%TO.C,SWR5-2*%
X-50165000Y-37465000D03*
D11*
X-42545000Y-32385000D03*
D12*
X-47625000Y-32385000D03*
D11*
X-52705000Y-32385000D03*
D14*
X-40265000Y-34925000D03*
D15*
X-42115000Y-34925000D03*
D13*
X-43815000Y-34925000D03*
D14*
X-53715000Y-37465000D03*
%TD*%
D10*
%TO.C,SWR1-0*%
X-126365000Y6985000D03*
D11*
X-118745000Y12065000D03*
D12*
X-123825000Y12065000D03*
D11*
X-128905000Y12065000D03*
D14*
X-116465000Y9525000D03*
D15*
X-118315000Y9525000D03*
D13*
X-120015000Y9525000D03*
D14*
X-129915000Y6985000D03*
%TD*%
%TO.C,SWR4-3*%
X-72765000Y-55245000D03*
D13*
X-62865000Y-52705000D03*
D15*
X-61165000Y-52705000D03*
D14*
X-59315000Y-52705000D03*
D11*
X-71755000Y-50165000D03*
D12*
X-66675000Y-50165000D03*
D11*
X-61595000Y-50165000D03*
D10*
X-69215000Y-55245000D03*
%TD*%
%TO.C,SWR0-5*%
X-157927347Y-76798571D03*
D11*
X-153868233Y-68589162D03*
D12*
X-158267642Y-71129162D03*
D11*
X-162667051Y-73669162D03*
D16*
X-150623695Y-69648867D03*
D17*
X-152225842Y-70573867D03*
D13*
X-153698085Y-71423867D03*
D16*
X-161001737Y-78573571D03*
%TD*%
D10*
%TO.C,SWR5-3*%
X-50165000Y-56515000D03*
D11*
X-42545000Y-51435000D03*
D12*
X-47625000Y-51435000D03*
D11*
X-52705000Y-51435000D03*
D14*
X-40265000Y-53975000D03*
D15*
X-42115000Y-53975000D03*
D13*
X-43815000Y-53975000D03*
D14*
X-53715000Y-56515000D03*
%TD*%
D10*
%TO.C,SWR3-2*%
X-88265000Y-31115000D03*
D11*
X-80645000Y-26035000D03*
D12*
X-85725000Y-26035000D03*
D11*
X-90805000Y-26035000D03*
D14*
X-78365000Y-28575000D03*
D15*
X-80215000Y-28575000D03*
D13*
X-81915000Y-28575000D03*
D14*
X-91815000Y-31115000D03*
%TD*%
D10*
%TO.C,SWR2-0*%
X-107315000Y8255000D03*
D11*
X-99695000Y13335000D03*
D12*
X-104775000Y13335000D03*
D11*
X-109855000Y13335000D03*
D14*
X-97415000Y10795000D03*
D15*
X-99265000Y10795000D03*
D13*
X-100965000Y10795000D03*
D14*
X-110865000Y8255000D03*
%TD*%
D10*
%TO.C,SWR6-0*%
X-31115000Y635000D03*
D11*
X-23495000Y5715000D03*
D12*
X-28575000Y5715000D03*
D11*
X-33655000Y5715000D03*
D14*
X-21215000Y3175000D03*
D15*
X-23065000Y3175000D03*
D13*
X-24765000Y3175000D03*
D14*
X-34665000Y635000D03*
%TD*%
D10*
%TO.C,SWR0-4*%
X-145415000Y-52705000D03*
D11*
X-137795000Y-47625000D03*
D12*
X-142875000Y-47625000D03*
D11*
X-147955000Y-47625000D03*
D14*
X-135515000Y-50165000D03*
D15*
X-137365000Y-50165000D03*
D13*
X-139065000Y-50165000D03*
D14*
X-148965000Y-52705000D03*
%TD*%
D10*
%TO.C,SWR1-2*%
X-126365000Y-12065000D03*
D11*
X-118745000Y-6985000D03*
D12*
X-123825000Y-6985000D03*
D11*
X-128905000Y-6985000D03*
D14*
X-116465000Y-9525000D03*
D15*
X-118315000Y-9525000D03*
D13*
X-120015000Y-9525000D03*
D14*
X-129915000Y-12065000D03*
%TD*%
D10*
%TO.C,SWR5-0*%
X-50165000Y635000D03*
D11*
X-42545000Y5715000D03*
D12*
X-47625000Y5715000D03*
D11*
X-52705000Y5715000D03*
D14*
X-40265000Y3175000D03*
D15*
X-42115000Y3175000D03*
D13*
X-43815000Y3175000D03*
D14*
X-53715000Y635000D03*
%TD*%
D10*
%TO.C,SWR2-5*%
X-116840000Y-74295000D03*
D11*
X-109220000Y-69215000D03*
D12*
X-114300000Y-69215000D03*
D11*
X-119380000Y-69215000D03*
D14*
X-106940000Y-71755000D03*
D15*
X-108790000Y-71755000D03*
D13*
X-110490000Y-71755000D03*
D14*
X-120390000Y-74295000D03*
%TD*%
D10*
%TO.C,SWR4-0*%
X-69215000Y1905000D03*
D11*
X-61595000Y6985000D03*
D12*
X-66675000Y6985000D03*
D11*
X-71755000Y6985000D03*
D14*
X-59315000Y4445000D03*
D15*
X-61165000Y4445000D03*
D13*
X-62865000Y4445000D03*
D14*
X-72765000Y1905000D03*
%TD*%
D10*
%TO.C,SWR1-5*%
X-135890000Y-74295000D03*
D11*
X-128270000Y-69215000D03*
D12*
X-133350000Y-69215000D03*
D11*
X-138430000Y-69215000D03*
D14*
X-125990000Y-71755000D03*
D15*
X-127840000Y-71755000D03*
D13*
X-129540000Y-71755000D03*
D14*
X-139440000Y-74295000D03*
%TD*%
D10*
%TO.C,SWR0-3*%
X-145415000Y-33655000D03*
D11*
X-137795000Y-28575000D03*
D12*
X-142875000Y-28575000D03*
D11*
X-147955000Y-28575000D03*
D14*
X-135515000Y-31115000D03*
D15*
X-137365000Y-31115000D03*
D13*
X-139065000Y-31115000D03*
D14*
X-148965000Y-33655000D03*
%TD*%
D10*
%TO.C,SWR6-1*%
X-31115000Y-18415000D03*
D11*
X-23495000Y-13335000D03*
D12*
X-28575000Y-13335000D03*
D11*
X-33655000Y-13335000D03*
D14*
X-21215000Y-15875000D03*
D15*
X-23065000Y-15875000D03*
D13*
X-24765000Y-15875000D03*
D14*
X-34665000Y-18415000D03*
%TD*%
D10*
%TO.C,SWR3-4*%
X-88265000Y-50165000D03*
D11*
X-80645000Y-45085000D03*
D12*
X-85725000Y-45085000D03*
D11*
X-90805000Y-45085000D03*
D14*
X-78365000Y-47625000D03*
D15*
X-80215000Y-47625000D03*
D13*
X-81915000Y-47625000D03*
D14*
X-91815000Y-50165000D03*
%TD*%
D10*
%TO.C,SWR5-1*%
X-50165000Y-18415000D03*
D11*
X-42545000Y-13335000D03*
D12*
X-47625000Y-13335000D03*
D11*
X-52705000Y-13335000D03*
D14*
X-40265000Y-15875000D03*
D15*
X-42115000Y-15875000D03*
D13*
X-43815000Y-15875000D03*
D14*
X-53715000Y-18415000D03*
%TD*%
D10*
%TO.C,SWR3-1*%
X-88265000Y-12065000D03*
D11*
X-80645000Y-6985000D03*
D12*
X-85725000Y-6985000D03*
D11*
X-90805000Y-6985000D03*
D14*
X-78365000Y-9525000D03*
D15*
X-80215000Y-9525000D03*
D13*
X-81915000Y-9525000D03*
D14*
X-91815000Y-12065000D03*
%TD*%
D10*
%TO.C,SWR0-2*%
X-145415000Y-14605000D03*
D11*
X-137795000Y-9525000D03*
D12*
X-142875000Y-9525000D03*
D11*
X-147955000Y-9525000D03*
D14*
X-135515000Y-12065000D03*
D15*
X-137365000Y-12065000D03*
D13*
X-139065000Y-12065000D03*
D14*
X-148965000Y-14605000D03*
%TD*%
D10*
%TO.C,SWR2-3*%
X-107315000Y-29845000D03*
D11*
X-99695000Y-24765000D03*
D12*
X-104775000Y-24765000D03*
D11*
X-109855000Y-24765000D03*
D14*
X-97415000Y-27305000D03*
D15*
X-99265000Y-27305000D03*
D13*
X-100965000Y-27305000D03*
D14*
X-110865000Y-29845000D03*
%TD*%
D10*
%TO.C,SWR6-3*%
X-31115000Y-56515000D03*
D11*
X-23495000Y-51435000D03*
D12*
X-28575000Y-51435000D03*
D11*
X-33655000Y-51435000D03*
D14*
X-21215000Y-53975000D03*
D15*
X-23065000Y-53975000D03*
D13*
X-24765000Y-53975000D03*
D14*
X-34665000Y-56515000D03*
%TD*%
D10*
%TO.C,SWR3-0*%
X-88265000Y6985000D03*
D11*
X-80645000Y12065000D03*
D12*
X-85725000Y12065000D03*
D11*
X-90805000Y12065000D03*
D14*
X-78365000Y9525000D03*
D15*
X-80215000Y9525000D03*
D13*
X-81915000Y9525000D03*
D14*
X-91815000Y6985000D03*
%TD*%
D10*
%TO.C,SWR4-1*%
X-69215000Y-17145000D03*
D11*
X-61595000Y-12065000D03*
D12*
X-66675000Y-12065000D03*
D11*
X-71755000Y-12065000D03*
D14*
X-59315000Y-14605000D03*
D15*
X-61165000Y-14605000D03*
D13*
X-62865000Y-14605000D03*
D14*
X-72765000Y-17145000D03*
%TD*%
D10*
%TO.C,SWR1-3*%
X-126365000Y-31115000D03*
D11*
X-118745000Y-26035000D03*
D12*
X-123825000Y-26035000D03*
D11*
X-128905000Y-26035000D03*
D14*
X-116465000Y-28575000D03*
D15*
X-118315000Y-28575000D03*
D13*
X-120015000Y-28575000D03*
D14*
X-129915000Y-31115000D03*
%TD*%
D10*
%TO.C,SWR2-1*%
X-107315000Y-10795000D03*
D11*
X-99695000Y-5715000D03*
D12*
X-104775000Y-5715000D03*
D11*
X-109855000Y-5715000D03*
D14*
X-97415000Y-8255000D03*
D15*
X-99265000Y-8255000D03*
D13*
X-100965000Y-8255000D03*
D14*
X-110865000Y-10795000D03*
%TD*%
D10*
%TO.C,SWR1-4*%
X-126365000Y-50165000D03*
D11*
X-118745000Y-45085000D03*
D12*
X-123825000Y-45085000D03*
D11*
X-128905000Y-45085000D03*
D14*
X-116465000Y-47625000D03*
D15*
X-118315000Y-47625000D03*
D13*
X-120015000Y-47625000D03*
D14*
X-129915000Y-50165000D03*
%TD*%
D10*
%TO.C,SWR6-2*%
X-31115000Y-37465000D03*
D11*
X-23495000Y-32385000D03*
D12*
X-28575000Y-32385000D03*
D11*
X-33655000Y-32385000D03*
D14*
X-21215000Y-34925000D03*
D15*
X-23065000Y-34925000D03*
D13*
X-24765000Y-34925000D03*
D14*
X-34665000Y-37465000D03*
%TD*%
D10*
%TO.C,SWR0-1*%
X-145415000Y4445000D03*
D11*
X-137795000Y9525000D03*
D12*
X-142875000Y9525000D03*
D11*
X-147955000Y9525000D03*
D14*
X-135515000Y6985000D03*
D15*
X-137365000Y6985000D03*
D13*
X-139065000Y6985000D03*
D14*
X-148965000Y4445000D03*
%TD*%
D18*
%TO.C,D30*%
X-73025000Y-25020000D03*
X-73025000Y-28320000D03*
%TD*%
%TO.C,D2*%
X-149225000Y-3430000D03*
X-149225000Y-6730000D03*
%TD*%
%TO.C,D7*%
X-130175000Y18160000D03*
X-130175000Y14860000D03*
%TD*%
%TO.C,D21*%
X-92075000Y18160000D03*
X-92075000Y14860000D03*
%TD*%
%TO.C,D9*%
X-130175000Y-890000D03*
X-130175000Y-4190000D03*
%TD*%
%TO.C,D17*%
X-111125000Y-18670000D03*
X-111125000Y-21970000D03*
%TD*%
%TO.C,D22*%
X-92075000Y-890000D03*
X-92075000Y-4190000D03*
%TD*%
%TO.C,D35*%
X-53975000Y11810000D03*
X-53975000Y8510000D03*
%TD*%
%TO.C,D36*%
X-53975000Y-7240000D03*
X-53975000Y-10540000D03*
%TD*%
%TO.C,D19*%
X-120650000Y-63120000D03*
X-120650000Y-66420000D03*
%TD*%
%TO.C,D59*%
X-34925000Y-7240000D03*
X-34925000Y-10540000D03*
%TD*%
%TO.C,D0*%
X-34925000Y11810000D03*
X-34925000Y8510000D03*
%TD*%
%TO.C,D61*%
X-53975000Y-45340000D03*
X-53975000Y-48640000D03*
%TD*%
%TO.C,D18*%
X-111125000Y-37720000D03*
X-111125000Y-41020000D03*
%TD*%
%TO.C,D11*%
X-130175000Y-38990000D03*
X-130175000Y-42290000D03*
%TD*%
%TO.C,D29*%
X-73025000Y-5970000D03*
X-73025000Y-9270000D03*
%TD*%
%TO.C,D31*%
X-73025000Y-44070000D03*
X-73025000Y-47370000D03*
%TD*%
%TO.C,D37*%
X-53975000Y-26290000D03*
X-53975000Y-29590000D03*
%TD*%
%TO.C,D3*%
X-149225000Y-22480000D03*
X-149225000Y-25780000D03*
%TD*%
%TO.C,D62*%
X-34925000Y-45340000D03*
X-34925000Y-48640000D03*
%TD*%
%TO.C,D23*%
X-92075000Y-19940000D03*
X-92075000Y-23240000D03*
%TD*%
%TO.C,D12*%
X-139700000Y-63120000D03*
X-139700000Y-66420000D03*
%TD*%
%TO.C,D1*%
X-149225000Y15620000D03*
X-149225000Y12320000D03*
%TD*%
%TO.C,D10*%
X-130175000Y-19940000D03*
X-130175000Y-23240000D03*
%TD*%
%TO.C,D28*%
X-73025000Y13080000D03*
X-73025000Y9780000D03*
%TD*%
%TO.C,D5*%
X-165735000Y-67565000D03*
X-165735000Y-70865000D03*
%TD*%
%TO.C,D25*%
X-92075000Y-38990000D03*
X-92075000Y-42290000D03*
%TD*%
%TO.C,D60*%
X-34925000Y-26290000D03*
X-34925000Y-29590000D03*
%TD*%
%TO.C,D14*%
X-111125000Y19430000D03*
X-111125000Y16130000D03*
%TD*%
%TO.C,D4*%
X-149225000Y-41530000D03*
X-149225000Y-44830000D03*
%TD*%
%TO.C,D15*%
X-111125000Y380000D03*
X-111125000Y-2920000D03*
%TD*%
D19*
%TO.C,Dx8*%
X-118452900Y-2540000D03*
X-116497100Y-2540000D03*
D20*
X-117475000Y88900D03*
%TD*%
D19*
%TO.C,Dx9*%
X-99402900Y-20320000D03*
X-97447100Y-20320000D03*
D20*
X-98425000Y-17691100D03*
%TD*%
D19*
%TO.C,Dx7*%
X-137502900Y13970000D03*
X-135547100Y13970000D03*
D20*
X-136525000Y16598900D03*
%TD*%
D19*
%TO.C,Dx12*%
X-108927900Y-64770000D03*
X-106972100Y-64770000D03*
D20*
X-107950000Y-62141100D03*
%TD*%
D19*
%TO.C,Dx10*%
X-80352900Y-40640000D03*
X-78397100Y-40640000D03*
D20*
X-79375000Y-38011100D03*
%TD*%
D19*
%TO.C,Dx11*%
X-115277900Y-57150000D03*
X-113322100Y-57150000D03*
D20*
X-114300000Y-54521100D03*
%TD*%
D21*
%TO.C,mouse-bite-5mm-slot*%
X-56660000Y-65710000D03*
X-55160000Y-61210000D03*
X-57410000Y-61210000D03*
X-57410000Y-65710000D03*
X-52910000Y-65710000D03*
X-58160000Y-65710000D03*
X-55910000Y-65710000D03*
X-53660000Y-61210000D03*
X-58910000Y-65710000D03*
X-54410000Y-61210000D03*
X-55160000Y-65710000D03*
X-55910000Y-61210000D03*
X-56660000Y-61210000D03*
X-54410000Y-65710000D03*
X-58910000Y-61210000D03*
X-52910000Y-61210000D03*
X-53660000Y-65710000D03*
X-58160000Y-61210000D03*
%TD*%
%TO.C,mouse-bite-5mm-slot*%
X-115835000Y-78990000D03*
X-111335000Y-83490000D03*
X-110585000Y-78990000D03*
X-116585000Y-78990000D03*
X-112085000Y-83490000D03*
X-114335000Y-78990000D03*
X-113585000Y-78990000D03*
X-112835000Y-83490000D03*
X-112085000Y-78990000D03*
X-116585000Y-83490000D03*
X-111335000Y-78990000D03*
X-113585000Y-83490000D03*
X-115835000Y-83490000D03*
X-110585000Y-83490000D03*
X-115085000Y-83490000D03*
X-115085000Y-78990000D03*
X-112835000Y-78990000D03*
X-114335000Y-83490000D03*
%TD*%
D22*
%TO.C,U2*%
X-156210000Y-13335000D03*
X-171450000Y-13335000D03*
D23*
X-168330000Y-5415000D03*
D22*
X-156210000Y1905000D03*
X-156210000Y-635000D03*
X-156210000Y-3175000D03*
X-156210000Y-5715000D03*
X-156210000Y-8255000D03*
X-156210000Y-10795000D03*
X-171450000Y-10795000D03*
X-171450000Y-8255000D03*
X-171450000Y-5715000D03*
X-171450000Y-3175000D03*
X-171450000Y-635000D03*
X-171450000Y1905000D03*
%TD*%
D23*
%TO.C,U1*%
X-10165000Y-139285000D03*
D22*
X1955000Y-146605000D03*
X1955000Y-144065000D03*
X1955000Y-141525000D03*
X1955000Y-138985000D03*
X1955000Y-136445000D03*
X1955000Y-133905000D03*
X1955000Y-131365000D03*
X-13285000Y-131365000D03*
X-13285000Y-133905000D03*
X-13285000Y-136445000D03*
X-13285000Y-138985000D03*
X-13285000Y-141525000D03*
X-13285000Y-144065000D03*
X-13285000Y-146605000D03*
%TD*%
D23*
%TO.C,TP3*%
X-165100000Y-5415000D03*
%TD*%
%TO.C,TP4*%
X-162433000Y-5415000D03*
%TD*%
D22*
%TO.C,Display1*%
X-585000Y-93519000D03*
X-3125000Y-93519000D03*
X-5665000Y-93519000D03*
X-8205000Y-93519000D03*
X-10745000Y-93519000D03*
%TD*%
D23*
%TO.C,TP1*%
X-6935000Y-139285000D03*
%TD*%
%TO.C,TP2*%
X-4268000Y-139285000D03*
%TD*%
D24*
%TO.C,Tog1*%
X-165330000Y3542500D03*
X-162330000Y3542500D03*
%TD*%
D25*
%TO.C,Tog0*%
X-7915000Y-146372500D03*
X-6415000Y-146372500D03*
X-3415000Y-146372500D03*
D26*
X-2065000Y-147172500D03*
X-9265000Y-147172500D03*
D24*
X-4165000Y-148242500D03*
D26*
X-2065000Y-149212500D03*
D24*
X-7165000Y-148242500D03*
%TD*%
D27*
%TO.C,REF\u002A\u002A*%
X-57150000Y-3175000D03*
%TD*%
%TO.C,REF\u002A\u002A*%
X-156210000Y-59690000D03*
%TD*%
%TO.C,REF\u002A\u002A*%
X-114300000Y-33655000D03*
%TD*%
%TO.C,REF\u002A\u002A*%
X-57150000Y-40640000D03*
%TD*%
%TO.C,REF\u002A\u002A*%
X-133350000Y2540000D03*
%TD*%
%TO.C,REF\u002A\u002A*%
X-123825000Y-67945000D03*
%TD*%
%TO.C,REF\u002A\u002A*%
X-55195000Y-111045000D03*
%TD*%
%TO.C,REF\u002A\u002A*%
X-45670000Y-76755000D03*
%TD*%
%TO.C,REF\u002A\u002A*%
X-13285000Y-85010000D03*
%TD*%
%TO.C,REF\u002A\u002A*%
X-36145000Y-147240000D03*
%TD*%
%TO.C,REF\u002A\u002A*%
X-112345000Y-141525000D03*
%TD*%
%TO.C,REF\u002A\u002A*%
X-112345000Y-104060000D03*
%TD*%
M02*
